<svg width="60" height="60" viewBox="0 0 60 60" fill="none" xmlns="http://www.w3.org/2000/svg">
<g clip-path="url(#clip0_106_1907)">
<mask id="mask0_106_1907" style="mask-type:luminance" maskUnits="userSpaceOnUse" x="0" y="0" width="62" height="60">
<path d="M62 0H0V60H62V0Z" fill="white"/>
</mask>
<g mask="url(#mask0_106_1907)">
<path d="M56.8334 34.7489V40.4739C56.8334 49.5739 51.2275 54.9989 41.8242 54.9989H20.1758C13.5883 54.9989 8.83495 52.3239 6.61328 47.5739L6.89745 47.3739L19.6074 39.1239C21.6741 37.7739 24.5933 37.9239 26.4275 39.4739L27.3059 40.1739C29.3209 41.8489 32.5759 41.8489 34.5909 40.1739L45.3376 31.2489C47.3526 29.5739 50.6075 29.5739 52.6225 31.2489L56.8334 34.7489Z" fill="#00B25D"/>
<path opacity="0.4" d="M54.1728 20H46.5778C43.297 20 41.3337 18.1 41.3337 14.925V7.575C41.3337 6.575 41.5403 5.725 41.902 5C41.8762 5 41.8503 5 41.8245 5H20.1762C10.7728 5 5.16699 10.425 5.16699 19.525V40.475C5.16699 43.2 5.65783 45.575 6.61366 47.575L6.89783 47.375L19.6078 39.125C21.6745 37.775 24.5937 37.925 26.4278 39.475L27.3062 40.175C29.3212 41.85 32.5762 41.85 34.5912 40.175L45.3378 31.25C47.3528 29.575 50.6078 29.575 52.6228 31.25L56.8337 34.75V19.525C56.8337 19.5 56.8337 19.475 56.8337 19.45C56.0845 19.8 55.2062 20 54.1728 20Z" fill="#00B25D"/>
<path d="M23.2509 25.9502C26.6466 25.9502 29.3992 23.2864 29.3992 20.0003C29.3992 16.7142 26.6466 14.0503 23.2509 14.0503C19.8552 14.0503 17.1025 16.7142 17.1025 20.0003C17.1025 23.2864 19.8552 25.9502 23.2509 25.9502Z" fill="#00B25D"/>
<path d="M54.1732 2.5H46.5782C43.2973 2.5 41.334 4.4 41.334 7.575V14.925C41.334 18.1 43.2973 20 46.5782 20H54.1732C57.454 20 59.4173 18.1 59.4173 14.925V7.575C59.4173 4.4 57.454 2.5 54.1732 2.5ZM56.6015 12.325C56.3432 12.575 55.9557 12.75 55.5423 12.775H51.8998L51.9257 16.25C51.8998 16.675 51.7448 17.025 51.4348 17.325C51.1765 17.575 50.789 17.75 50.3757 17.75C49.5232 17.75 48.8257 17.075 48.8257 16.25V12.75L45.209 12.775C44.3565 12.775 43.659 12.075 43.659 11.25C43.659 10.425 44.3565 9.75 45.209 9.75L48.8257 9.775V6.275C48.8257 5.45 49.5232 4.75 50.3757 4.75C51.2282 4.75 51.9257 5.45 51.9257 6.275L51.8998 9.75H55.5423C56.3948 9.75 57.0923 10.425 57.0923 11.25C57.0665 11.675 56.8857 12.025 56.6015 12.325Z" fill="#00B25D"/>
</g>
</g>
<defs>
<clipPath id="clip0_106_1907">
<rect width="60" height="60" fill="white"/>
</clipPath>
</defs>
</svg>
