<svg width="13" height="14" viewBox="0 0 13 14" fill="none" xmlns="http://www.w3.org/2000/svg">
<g clip-path="url(#clip0_91_5998)">
<mask id="mask0_91_5998" style="mask-type:luminance" maskUnits="userSpaceOnUse" x="0" y="0" width="13" height="14">
<path d="M13 0.5H0V13.5H13V0.5Z" fill="white"/>
</mask>
<g mask="url(#mask0_91_5998)">
<path opacity="0.4" d="M1.1377 12.4166V3.76622C1.1377 2.67747 1.67939 2.13037 2.75731 2.13037H6.13186C7.20978 2.13037 7.74603 2.67747 7.74603 3.76622V12.4166" fill="#00B25D"/>
<path d="M5.82285 5.375H3.1416C2.91952 5.375 2.73535 5.19083 2.73535 4.96875C2.73535 4.74667 2.91952 4.5625 3.1416 4.5625H5.82285C6.04493 4.5625 6.2291 4.74667 6.2291 4.96875C6.2291 5.19083 6.04493 5.375 5.82285 5.375Z" fill="#00B25D"/>
<path d="M5.82285 7.40625H3.1416C2.91952 7.40625 2.73535 7.22208 2.73535 7C2.73535 6.77792 2.91952 6.59375 3.1416 6.59375H5.82285C6.04493 6.59375 6.2291 6.77792 6.2291 7C6.2291 7.22208 6.04493 7.40625 5.82285 7.40625Z" fill="#00B25D"/>
<path d="M4.46875 12.823C4.24667 12.823 4.0625 12.6388 4.0625 12.4167V10.3855C4.0625 10.1634 4.24667 9.97925 4.46875 9.97925C4.69083 9.97925 4.875 10.1634 4.875 10.3855V12.4167C4.875 12.6388 4.69083 12.823 4.46875 12.823Z" fill="#00B25D"/>
<path d="M12.4584 12.01H11.2288V10.385C11.7434 10.217 12.1172 9.73495 12.1172 9.1662V8.08287C12.1172 7.37328 11.5376 6.7937 10.828 6.7937C10.1184 6.7937 9.53883 7.37328 9.53883 8.08287V9.1662C9.53883 9.72953 9.90716 10.2062 10.4109 10.3795V12.01H0.541748C0.319665 12.01 0.135498 12.1941 0.135498 12.4162C0.135498 12.6383 0.319665 12.8225 0.541748 12.8225H10.7955C10.8063 12.8225 10.8117 12.8279 10.8226 12.8279C10.8334 12.8279 10.8388 12.8225 10.8497 12.8225H12.4584C12.6805 12.8225 12.8647 12.6383 12.8647 12.4162C12.8647 12.1941 12.6805 12.01 12.4584 12.01Z" fill="#00B25D"/>
</g>
</g>
<defs>
<clipPath id="clip0_91_5998">
<rect width="13" height="13" fill="white" transform="translate(0 0.5)"/>
</clipPath>
</defs>
</svg>
