<svg width="180" height="180" viewBox="0 0 180 180" fill="none" xmlns="http://www.w3.org/2000/svg">
<path d="M151.046 42.9263H28.0732V143.661H151.046V42.9263Z" fill="#808080" stroke="#263238" stroke-linecap="round" stroke-linejoin="round"/>
<path d="M151.046 42.9263H28.0732V44.9063H151.046V42.9263Z" fill="#263238" stroke="#263238" stroke-linecap="round" stroke-linejoin="round"/>
<path d="M49.676 37.1484H37.5332V42.048H49.676V37.1484Z" fill="#263238" stroke="#263238" stroke-linecap="round" stroke-linejoin="round"/>
<path d="M63.3063 36.72H61.6035V42.0444H63.3063V36.72Z" fill="#263238" stroke="#263238" stroke-linecap="round" stroke-linejoin="round"/>
<path d="M152.543 39.8411H26.5752V43.7939H152.543V39.8411Z" fill="white" stroke="#263238" stroke-linecap="round" stroke-linejoin="round"/>
<path d="M52.1347 51.8542H35.6035V74.1311H52.1347V51.8542Z" fill="#263238" stroke="#263238" stroke-linecap="round" stroke-linejoin="round"/>
<path d="M46.0514 53.0496H44.165V58.2228H46.0514V53.0496Z" fill="white" stroke="#263238" stroke-linecap="round" stroke-linejoin="round"/>
<path d="M43.571 53.0496H41.6846V58.2228H43.571V53.0496Z" fill="white" stroke="#263238" stroke-linecap="round" stroke-linejoin="round"/>
<path d="M51.0873 53.0496H49.1289V58.2228H51.0873V53.0496Z" fill="white" stroke="#263238" stroke-linecap="round" stroke-linejoin="round"/>
<path d="M41.0905 53.0496H39.2041V58.2228H41.0905V53.0496Z" fill="white" stroke="#263238" stroke-linecap="round" stroke-linejoin="round"/>
<path d="M48.5348 53.0496H46.6484V58.2228H48.5348V53.0496Z" fill="white" stroke="#263238" stroke-linecap="round" stroke-linejoin="round"/>
<path d="M51.088 59.6123H44.8096V72.9395H51.088V59.6123Z" fill="white" stroke="#263238" stroke-linecap="round" stroke-linejoin="round"/>
<path d="M38.6068 53.0496H36.6484V58.2228H38.6068V53.0496Z" fill="white" stroke="#263238" stroke-linecap="round" stroke-linejoin="round"/>
<path d="M42.9268 59.6123H36.6484V72.9395H42.9268V59.6123Z" fill="white" stroke="#263238" stroke-linecap="round" stroke-linejoin="round"/>
<path d="M38.2499 66.7439L37.4219 67.4099" stroke="#263238" stroke-linecap="round" stroke-linejoin="round"/>
<path d="M42.9621 62.9387L39.2793 65.9123" stroke="#263238" stroke-linecap="round" stroke-linejoin="round"/>
<path d="M46.1379 66.7439L45.3135 67.4099" stroke="#263238" stroke-linecap="round" stroke-linejoin="round"/>
<path d="M50.8501 62.9387L47.1709 65.9123" stroke="#263238" stroke-linecap="round" stroke-linejoin="round"/>
<path d="M96.7216 51.8542H80.1904V74.1311H96.7216V51.8542Z" fill="#263238" stroke="#263238" stroke-linecap="round" stroke-linejoin="round"/>
<path d="M90.6374 53.0496H88.751V58.2228H90.6374V53.0496Z" fill="white" stroke="#263238" stroke-linecap="round" stroke-linejoin="round"/>
<path d="M88.1569 53.0496H86.2705V58.2228H88.1569V53.0496Z" fill="white" stroke="#263238" stroke-linecap="round" stroke-linejoin="round"/>
<path d="M95.6732 53.0496H93.7148V58.2228H95.6732V53.0496Z" fill="white" stroke="#263238" stroke-linecap="round" stroke-linejoin="round"/>
<path d="M85.6764 53.0496H83.79V58.2228H85.6764V53.0496Z" fill="white" stroke="#263238" stroke-linecap="round" stroke-linejoin="round"/>
<path d="M93.1178 53.0496H91.2314V58.2228H93.1178V53.0496Z" fill="white" stroke="#263238" stroke-linecap="round" stroke-linejoin="round"/>
<path d="M95.6739 59.6123H89.3955V72.9395H95.6739V59.6123Z" fill="white" stroke="#263238" stroke-linecap="round" stroke-linejoin="round"/>
<path d="M83.1928 53.0496H81.2344V58.2228H83.1928V53.0496Z" fill="white" stroke="#263238" stroke-linecap="round" stroke-linejoin="round"/>
<path d="M87.5128 59.6123H81.2344V72.9395H87.5128V59.6123Z" fill="white" stroke="#263238" stroke-linecap="round" stroke-linejoin="round"/>
<path d="M82.66 66.7439L81.832 67.4099" stroke="#263238" stroke-linecap="round" stroke-linejoin="round"/>
<path d="M87.3687 62.9387L83.6895 65.9123" stroke="#263238" stroke-linecap="round" stroke-linejoin="round"/>
<path d="M90.7489 66.7439L89.9209 67.4099" stroke="#263238" stroke-linecap="round" stroke-linejoin="round"/>
<path d="M95.4611 62.9387L91.7783 65.9123" stroke="#263238" stroke-linecap="round" stroke-linejoin="round"/>
<path d="M141.573 51.8542H125.042V74.1311H141.573V51.8542Z" fill="#263238" stroke="#263238" stroke-linecap="round" stroke-linejoin="round"/>
<path d="M135.493 53.0496H133.606V58.2228H135.493V53.0496Z" fill="white" stroke="#263238" stroke-linecap="round" stroke-linejoin="round"/>
<path d="M133.012 53.0496H131.126V58.2228H133.012V53.0496Z" fill="white" stroke="#263238" stroke-linecap="round" stroke-linejoin="round"/>
<path d="M140.526 53.0496H138.567V58.2228H140.526V53.0496Z" fill="white" stroke="#263238" stroke-linecap="round" stroke-linejoin="round"/>
<path d="M130.533 53.0496H128.646V58.2228H130.533V53.0496Z" fill="white" stroke="#263238" stroke-linecap="round" stroke-linejoin="round"/>
<path d="M137.973 53.0496H136.087V58.2228H137.973V53.0496Z" fill="white" stroke="#263238" stroke-linecap="round" stroke-linejoin="round"/>
<path d="M140.529 59.6123H134.251V72.9395H140.529V59.6123Z" fill="white" stroke="#263238" stroke-linecap="round" stroke-linejoin="round"/>
<path d="M128.048 53.0496H126.09V58.2228H128.048V53.0496Z" fill="white" stroke="#263238" stroke-linecap="round" stroke-linejoin="round"/>
<path d="M132.368 59.6123H126.09V72.9395H132.368V59.6123Z" fill="white" stroke="#263238" stroke-linecap="round" stroke-linejoin="round"/>
<path d="M127.933 66.7439L127.108 67.4099" stroke="#263238" stroke-linecap="round" stroke-linejoin="round"/>
<path d="M132.646 62.9387L128.967 65.9123" stroke="#263238" stroke-linecap="round" stroke-linejoin="round"/>
<path d="M136.026 66.7439L135.198 67.4099" stroke="#263238" stroke-linecap="round" stroke-linejoin="round"/>
<path d="M140.735 62.9387L137.056 65.9123" stroke="#263238" stroke-linecap="round" stroke-linejoin="round"/>
<path d="M151.081 78.8401H28.1123V163.688H151.081V78.8401Z" fill="#263238" stroke="#263238" stroke-linecap="round" stroke-linejoin="round"/>
<path d="M101.614 115.823H75.3516V163.688H101.614V115.823Z" fill="#37474F" stroke="#263238" stroke-linecap="round" stroke-linejoin="round"/>
<path d="M77.1449 158.483H99.4937V155.423H77.1449H99.4937V152.363H77.1449H99.4937V149.303H77.1449H99.4937V146.243H77.1449H99.4937V145.739H77.0801V161.032H99.4937V158.483H77.1449Z" fill="#D6D6D6" stroke="#263238" stroke-width="0.771756" stroke-linecap="round" stroke-linejoin="round"/>
<path d="M77.1449 140.123H99.4937V137.063H77.1449H99.4937V134.003H77.1449H99.4937V130.943H77.1449H99.4937V127.883H77.1449H99.4937V124.823H77.1449H99.4937V121.763H77.1449H99.4937V118.703H77.1449H99.4937V118.148H77.0801V143.078H99.4937V140.123H77.1449Z" fill="#D6D6D6" stroke="#263238" stroke-width="0.771756" stroke-linecap="round" stroke-linejoin="round"/>
<path d="M100.865 137.218H100.044V145.962H100.865V137.218Z" fill="#263238" stroke="#263238" stroke-linecap="round" stroke-linejoin="round"/>
<path d="M85.0137 133.301L88.1673 129.294L91.5657 133.42" stroke="#263238" stroke-linecap="round" stroke-linejoin="round"/>
<path d="M93.1428 132.692H82.9512V138.031H93.1428V132.692Z" fill="white" stroke="#263238" stroke-linecap="round" stroke-linejoin="round"/>
<path d="M84.9601 136.598C84.9035 136.667 84.8311 136.722 84.749 136.757C84.6669 136.792 84.5775 136.807 84.4885 136.8C84.3965 136.806 84.3044 136.79 84.2203 136.752C84.1362 136.715 84.0626 136.657 84.0061 136.584C83.8896 136.399 83.8342 136.183 83.8477 135.965V134.698C83.8477 134.266 83.9593 133.978 84.1861 133.888C84.2824 133.845 84.3868 133.824 84.4921 133.826C84.8989 133.826 85.1041 134.086 85.1041 134.6V135H84.6757V134.64C84.6827 134.532 84.6693 134.423 84.6361 134.32C84.6258 134.289 84.6057 134.263 84.5789 134.246C84.5522 134.228 84.5204 134.22 84.4885 134.222C84.4557 134.22 84.4229 134.228 84.3955 134.247C84.3681 134.265 84.3476 134.292 84.3373 134.323C84.3035 134.424 84.2888 134.53 84.2941 134.636V135.994C84.287 136.108 84.3004 136.222 84.3337 136.332C84.345 136.363 84.3658 136.389 84.3929 136.407C84.4201 136.425 84.4523 136.434 84.4849 136.433C84.5179 136.434 84.5504 136.424 84.5777 136.405C84.6049 136.387 84.6253 136.36 84.6361 136.328C84.6675 136.218 84.6809 136.104 84.6757 135.99V135.576H85.1113V135.986C85.1252 136.201 85.0723 136.415 84.9601 136.598Z" fill="#263238"/>
<path d="M85.4854 136.768V133.862H85.9281V136.382H86.4862V136.76L85.4854 136.768Z" fill="#263238"/>
<path d="M87.8404 136.591C87.783 136.663 87.7085 136.72 87.6237 136.757C87.5389 136.793 87.4464 136.808 87.3544 136.8C87.2619 136.808 87.169 136.793 87.0837 136.756C86.9983 136.72 86.9232 136.663 86.8648 136.591C86.7471 136.4 86.6918 136.178 86.7064 135.954V134.64C86.7064 134.107 86.926 133.841 87.3616 133.841C87.4524 133.832 87.5438 133.846 87.6279 133.882C87.712 133.917 87.7862 133.972 87.844 134.042C87.955 134.221 88.0066 134.43 87.9916 134.64V135.968C88.0054 136.186 87.9527 136.404 87.8404 136.591ZM87.1924 136.318C87.2041 136.349 87.226 136.376 87.2546 136.395C87.2832 136.413 87.317 136.421 87.3508 136.418C87.3851 136.422 87.4196 136.413 87.4484 136.394C87.4772 136.375 87.4987 136.347 87.5092 136.314C87.5417 136.197 87.555 136.075 87.5488 135.954V134.604C87.5536 134.503 87.5402 134.402 87.5092 134.305C87.4982 134.275 87.4774 134.248 87.4501 134.231C87.4228 134.213 87.3904 134.205 87.358 134.208C87.3247 134.205 87.2915 134.213 87.263 134.231C87.2346 134.248 87.2124 134.274 87.1996 134.305C87.1637 134.4 87.1478 134.502 87.1528 134.604V135.961C87.1413 136.08 87.1486 136.201 87.1744 136.318H87.1924Z" fill="#263238"/>
<path d="M88.3184 135.95V135.691H88.736V135.983C88.7292 136.099 88.7438 136.215 88.7792 136.325C88.7908 136.356 88.8123 136.382 88.8402 136.4C88.8682 136.417 88.9011 136.425 88.934 136.422C88.9643 136.426 88.9951 136.421 89.0222 136.407C89.0493 136.392 89.0713 136.37 89.0852 136.343C89.1145 136.257 89.1267 136.167 89.1212 136.076C89.1234 135.966 89.1013 135.857 89.0564 135.756C89.0011 135.652 88.9307 135.556 88.8476 135.472L88.6316 135.252C88.536 135.157 88.457 135.046 88.3976 134.924C88.3408 134.803 88.3124 134.67 88.3148 134.536C88.3011 134.348 88.3491 134.161 88.4516 134.003C88.5123 133.938 88.5872 133.889 88.6702 133.858C88.7533 133.828 88.8424 133.817 88.9304 133.826C89.0181 133.816 89.1071 133.829 89.1877 133.865C89.2683 133.901 89.3375 133.959 89.3876 134.032C89.4777 134.216 89.5186 134.421 89.5064 134.626V134.806H89.0996V134.597C89.1053 134.495 89.0932 134.392 89.0636 134.294C89.0535 134.266 89.0343 134.241 89.009 134.224C88.9837 134.207 88.9536 134.199 88.9232 134.201C88.8944 134.199 88.8655 134.204 88.8396 134.217C88.8136 134.229 88.7915 134.249 88.7756 134.273C88.7413 134.337 88.7251 134.409 88.7288 134.482C88.7266 134.558 88.7427 134.633 88.7756 134.701C88.8241 134.778 88.8808 134.849 88.9448 134.914L89.1824 135.173C89.2933 135.289 89.3856 135.421 89.456 135.565C89.5174 135.703 89.5481 135.853 89.546 136.004C89.5598 136.214 89.5122 136.423 89.4092 136.606C89.3507 136.677 89.2751 136.732 89.1895 136.766C89.1039 136.8 89.011 136.812 88.9196 136.8C88.8278 136.81 88.735 136.795 88.6508 136.757C88.5666 136.719 88.4941 136.659 88.4408 136.584C88.3439 136.388 88.3016 136.169 88.3184 135.95Z" fill="#263238"/>
<path d="M89.8701 136.768V133.862H90.8457V134.244H90.3129V135.086H90.8169V135.446H90.3129V136.372H90.8637V136.753L89.8701 136.768Z" fill="#263238"/>
<path d="M91.2168 136.768V133.862H91.8684C91.9551 133.854 92.0425 133.867 92.1233 133.9C92.204 133.932 92.2759 133.984 92.3328 134.05C92.4402 134.215 92.4907 134.411 92.4768 134.608V135.918C92.4931 136.143 92.4417 136.367 92.3292 136.562C92.2729 136.634 92.1996 136.69 92.116 136.726C92.0323 136.762 91.941 136.776 91.8504 136.768H91.2168ZM91.6596 136.408H91.8036C91.8374 136.411 91.8714 136.405 91.9023 136.392C91.9333 136.378 91.9601 136.356 91.98 136.328C92.0276 136.24 92.0476 136.14 92.0376 136.04V134.6C92.0457 134.491 92.0272 134.381 91.9836 134.28C91.9641 134.248 91.9359 134.221 91.9022 134.204C91.8684 134.187 91.8305 134.179 91.7928 134.183H91.6632L91.6596 136.408Z" fill="#263238"/>
<path d="M148.626 115.866H108.9V163.688H148.626V115.866Z" fill="#D6D6D6" stroke="#263238" stroke-linecap="round" stroke-linejoin="round"/>
<path d="M109.019 161.597H148.644" stroke="#263238" stroke-linecap="round" stroke-linejoin="round"/>
<path d="M109.019 158.537H148.644" stroke="#263238" stroke-linecap="round" stroke-linejoin="round"/>
<path d="M109.019 155.477H148.644" stroke="#263238" stroke-linecap="round" stroke-linejoin="round"/>
<path d="M109.019 152.417H148.644" stroke="#263238" stroke-linecap="round" stroke-linejoin="round"/>
<path d="M109.019 149.357H148.644" stroke="#263238" stroke-linecap="round" stroke-linejoin="round"/>
<path d="M109.019 146.297H148.644" stroke="#263238" stroke-linecap="round" stroke-linejoin="round"/>
<path d="M109.019 143.237H148.644" stroke="#263238" stroke-linecap="round" stroke-linejoin="round"/>
<path d="M109.019 140.177H148.644" stroke="#263238" stroke-linecap="round" stroke-linejoin="round"/>
<path d="M109.019 137.117H148.644" stroke="#263238" stroke-linecap="round" stroke-linejoin="round"/>
<path d="M109.019 134.057H148.644" stroke="#263238" stroke-linecap="round" stroke-linejoin="round"/>
<path d="M109.019 130.997H148.644" stroke="#263238" stroke-linecap="round" stroke-linejoin="round"/>
<path d="M109.019 127.937H148.644" stroke="#263238" stroke-linecap="round" stroke-linejoin="round"/>
<path d="M109.019 124.877H148.644" stroke="#263238" stroke-linecap="round" stroke-linejoin="round"/>
<path d="M109.019 121.817H148.644" stroke="#263238" stroke-linecap="round" stroke-linejoin="round"/>
<path d="M109.019 118.757H148.644" stroke="#263238" stroke-linecap="round" stroke-linejoin="round"/>
<path d="M68.6777 115.866H31.0469V163.688H68.6777V115.866Z" fill="#D6D6D6" stroke="#263238" stroke-linecap="round" stroke-linejoin="round"/>
<path d="M31.1582 161.597H68.6918" stroke="#263238" stroke-linecap="round" stroke-linejoin="round"/>
<path d="M31.1582 158.537H68.6918" stroke="#263238" stroke-linecap="round" stroke-linejoin="round"/>
<path d="M31.1582 155.477H68.6918" stroke="#263238" stroke-linecap="round" stroke-linejoin="round"/>
<path d="M31.1582 152.417H68.6918" stroke="#263238" stroke-linecap="round" stroke-linejoin="round"/>
<path d="M31.1582 149.357H68.6918" stroke="#263238" stroke-linecap="round" stroke-linejoin="round"/>
<path d="M31.1582 146.297H68.6918" stroke="#263238" stroke-linecap="round" stroke-linejoin="round"/>
<path d="M31.1582 143.237H68.6918" stroke="#263238" stroke-linecap="round" stroke-linejoin="round"/>
<path d="M31.1582 140.177H68.6918" stroke="#263238" stroke-linecap="round" stroke-linejoin="round"/>
<path d="M31.1582 137.117H68.6918" stroke="#263238" stroke-linecap="round" stroke-linejoin="round"/>
<path d="M31.1582 134.057H68.6918" stroke="#263238" stroke-linecap="round" stroke-linejoin="round"/>
<path d="M31.1582 130.997H68.6918" stroke="#263238" stroke-linecap="round" stroke-linejoin="round"/>
<path d="M31.1582 127.937H68.6918" stroke="#263238" stroke-linecap="round" stroke-linejoin="round"/>
<path d="M31.1582 124.877H68.6918" stroke="#263238" stroke-linecap="round" stroke-linejoin="round"/>
<path d="M31.1582 121.817H68.6918" stroke="#263238" stroke-linecap="round" stroke-linejoin="round"/>
<path d="M31.1582 118.757H68.6918" stroke="#263238" stroke-linecap="round" stroke-linejoin="round"/>
<path opacity="0.3" d="M151.081 106.798H28.3789V123.059H151.081V106.798Z" fill="black"/>
<path d="M150.12 101.318H29.1602V117.58H150.12V101.318Z" fill="white" stroke="#263238" stroke-linecap="round" stroke-linejoin="round"/>
<path d="M41.1874 101.318H35.6182V117.58H41.1874V101.318Z" fill="#37474F" stroke="#263238" stroke-linecap="round" stroke-linejoin="round"/>
<path d="M52.9921 101.318H47.4229V117.58H52.9921V101.318Z" fill="#37474F" stroke="#263238" stroke-linecap="round" stroke-linejoin="round"/>
<path d="M64.7997 101.318H59.2305V117.58H64.7997V101.318Z" fill="#37474F" stroke="#263238" stroke-linecap="round" stroke-linejoin="round"/>
<path d="M76.0282 101.318H70.459V117.58H76.0282V101.318Z" fill="#37474F" stroke="#263238" stroke-linecap="round" stroke-linejoin="round"/>
<path d="M87.2567 101.318H81.6875V117.58H87.2567V101.318Z" fill="#37474F" stroke="#263238" stroke-linecap="round" stroke-linejoin="round"/>
<path d="M98.4891 101.318H92.9199V117.58H98.4891V101.318Z" fill="#37474F" stroke="#263238" stroke-linecap="round" stroke-linejoin="round"/>
<path d="M109.718 101.318H104.148V117.58H109.718V101.318Z" fill="#37474F" stroke="#263238" stroke-linecap="round" stroke-linejoin="round"/>
<path d="M120.945 101.318H115.376V117.58H120.945V101.318Z" fill="#37474F" stroke="#263238" stroke-linecap="round" stroke-linejoin="round"/>
<path d="M132.178 101.318H126.608V117.58H132.178V101.318Z" fill="#37474F" stroke="#263238" stroke-linecap="round" stroke-linejoin="round"/>
<path d="M143.406 101.318H137.837V117.58H143.406V101.318Z" fill="#37474F" stroke="#263238" stroke-linecap="round" stroke-linejoin="round"/>
<path d="M36.4465 78.8401L34.3369 97.2073L42.2677 78.8401H36.4465Z" fill="#37474F" stroke="#263238" stroke-linecap="round" stroke-linejoin="round"/>
<path d="M49.8999 78.8401L33.4551 101.174L58.4787 78.8401H49.8999Z" fill="#37474F" stroke="#263238" stroke-linecap="round" stroke-linejoin="round"/>
<path d="M102.556 78.8401L40.9424 98.9713L142.401 78.8401H102.556Z" fill="#37474F" stroke="#263238" stroke-linecap="round" stroke-linejoin="round"/>
<path d="M65.3799 78.8401L38.0811 99.4105L81.4431 78.8401H65.3799Z" fill="#37474F" stroke="#263238" stroke-linecap="round" stroke-linejoin="round"/>
<path d="M137.664 106.124C137.664 106.124 148.932 107.24 154.645 114.224C154.645 114.224 160.679 106.131 171.515 106.304C174.165 103.11 175.853 99.2288 176.382 95.1123C176.911 90.9959 176.26 86.8138 174.504 83.0531C172.748 79.2925 169.96 76.1082 166.464 73.8711C162.968 71.634 158.909 70.4362 154.758 70.4172C150.608 70.3982 146.538 71.5589 143.022 73.7639C139.506 75.9689 136.688 79.1276 134.898 82.872C133.108 86.6164 132.418 90.7923 132.91 94.9135C133.402 99.0346 135.054 102.931 137.675 106.149L137.664 106.124Z" fill="#37474F"/>
<path opacity="0.5" d="M137.664 106.124C137.664 106.124 148.932 107.24 154.645 114.224C154.645 114.224 160.679 106.131 171.515 106.304C174.165 103.11 175.853 99.2288 176.382 95.1123C176.911 90.9959 176.26 86.8138 174.504 83.0531C172.748 79.2925 169.96 76.1082 166.464 73.8711C162.968 71.634 158.909 70.4362 154.758 70.4172C150.608 70.3982 146.538 71.5589 143.022 73.7639C139.506 75.9689 136.688 79.1276 134.898 82.872C133.108 86.6164 132.418 90.7923 132.91 94.9135C133.402 99.0346 135.054 102.931 137.675 106.149L137.664 106.124Z" fill="white"/>
<path d="M154.27 71.9639L153.889 161.568H155.793L154.27 71.9639Z" fill="#828282"/>
<path d="M154.84 112.097C154.84 112.097 158.645 105.257 165.492 103.158C165.492 103.158 158.263 104.868 154.652 110.765L154.84 112.097Z" fill="#828282"/>
<path d="M154.555 93.0744C154.555 93.0744 158.644 85.8492 165.491 83.7576C165.491 83.7576 158.198 85.7412 154.583 91.638L154.555 93.0744Z" fill="#828282"/>
<path d="M154.667 102.639C154.667 102.639 158.645 95.5474 165.492 93.4558C165.492 93.4558 158.263 95.1694 154.652 101.066L154.667 102.639Z" fill="#828282"/>
<path d="M154.278 97.6426C154.278 97.6426 150.606 90.8026 144 88.7002C144 88.7002 150.973 90.4138 154.462 96.3106L154.278 97.6426Z" fill="#828282"/>
<path d="M154.278 107.15C154.278 107.15 150.606 100.31 144 98.2114C144 98.2114 150.973 99.925 154.462 105.818L154.278 107.15Z" fill="#828282"/>
<path d="M161.928 160.135H146.818V163.602H161.928V160.135Z" fill="white" stroke="#263238" stroke-linecap="round" stroke-linejoin="round"/>
<path d="M163.39 163.627H16.5781V166.32H163.39V163.627Z" fill="white" stroke="#263238" stroke-linecap="round" stroke-linejoin="round"/>
<path d="M9 166.32H172.08" stroke="#263238" stroke-miterlimit="10"/>
</svg>
