<svg width="180" height="180" viewBox="0 0 180 180" fill="none" xmlns="http://www.w3.org/2000/svg">
<path d="M27.2159 91.7245L29.3291 90.5185C29.3291 90.5185 30.3407 84.9385 29.5847 80.1397C28.5047 73.3933 23.9255 71.0677 22.2587 71.7373C20.5919 72.4069 20.1959 74.4049 23.2091 78.3037C24.9875 80.6041 27.2735 85.4641 27.2159 91.7245Z" fill="#E0E0E0"/>
<path d="M28.1736 89.6401C28.1459 89.6388 28.1187 89.6319 28.0936 89.6199C28.0685 89.6078 28.0461 89.5909 28.0277 89.5702C28.0093 89.5494 27.9952 89.5251 27.9862 89.4988C27.9773 89.4725 27.9737 89.4447 27.9756 89.4169C28.44 81.0001 26.8488 76.0429 22.5972 72.7885C22.575 72.7719 22.5564 72.751 22.5424 72.7271C22.5283 72.7032 22.5192 72.6767 22.5155 72.6492C22.5118 72.6218 22.5137 72.5938 22.5209 72.5671C22.5281 72.5403 22.5406 72.5152 22.5576 72.4933C22.5923 72.4501 22.6423 72.4219 22.6973 72.4145C22.7523 72.4071 22.8079 72.4212 22.8528 72.4537C27.2268 75.8017 28.8828 80.8849 28.3824 89.4421C28.3796 89.4956 28.3564 89.546 28.3176 89.5828C28.2787 89.6197 28.2272 89.6402 28.1736 89.6401Z" fill="white"/>
<path d="M20.8436 95.3065C20.5088 95.4973 19.8212 95.0797 19.5584 94.9033C19.1066 94.5957 18.742 94.1765 18.5 93.6865C18.2241 93.1295 18.1309 92.4996 18.2336 91.8865C18.2878 91.565 18.3636 91.2475 18.4604 90.9361C18.5504 90.6265 18.6368 90.3169 18.7268 90.0109C18.8341 89.7124 18.8806 89.3953 18.8636 89.0785C18.7808 88.4449 18.2192 87.9985 17.708 87.6169C17.1968 87.2353 16.5596 86.6449 16.5596 85.8817C16.6018 85.2911 16.8371 84.7307 17.2292 84.2869C17.5892 83.8261 18.0284 83.4193 18.356 82.9333C18.615 82.5937 18.7508 82.176 18.7412 81.7489C18.7056 81.4879 18.6174 81.2369 18.482 81.0109C18.1729 80.5389 17.9021 80.0429 17.672 79.5277C17.5619 79.2675 17.5274 78.9814 17.5726 78.7025C17.6179 78.4236 17.7409 78.1631 17.9276 77.9509C18.1135 77.8124 18.325 77.7121 18.55 77.6559C18.7749 77.5996 19.0087 77.5886 19.238 77.6233C19.6706 77.6775 20.0867 77.8236 20.4584 78.0517C21.668 78.7249 22.3592 80.1577 23.6408 80.6761C24.1523 80.8335 24.6728 80.9597 25.1996 81.0541C25.4622 81.1029 25.7117 81.2063 25.9318 81.3576C26.152 81.5089 26.3379 81.7048 26.4776 81.9325C26.9492 82.8721 26.0744 84.0313 26.4056 85.0321C26.7008 85.9141 27.5576 86.2525 28.04 87.0481C28.237 87.4005 28.3164 87.8066 28.2668 88.2073C28.2251 88.8835 28.0591 89.5461 27.7772 90.1621C27.462 90.7753 27.101 91.3638 26.6972 91.9225C26.6972 91.9225 20.8796 95.2777 20.8436 95.3065Z" fill="#F0F0F0"/>
<path d="M24.2998 93.5209H24.2746C24.2471 93.5177 24.2205 93.5092 24.1963 93.4957C24.1721 93.4822 24.1509 93.464 24.1338 93.4423C24.1167 93.4205 24.1041 93.3956 24.0968 93.3689C24.0894 93.3422 24.0874 93.3143 24.091 93.2869C24.703 88.4449 22.3918 81.9181 18.9466 78.7357C18.9265 78.717 18.9103 78.6945 18.8988 78.6696C18.8874 78.6447 18.881 78.6177 18.88 78.5903C18.879 78.5629 18.8834 78.5355 18.893 78.5098C18.9026 78.4841 18.9171 78.4605 18.9358 78.4405C18.9544 78.4204 18.9769 78.4041 19.0018 78.3927C19.0268 78.3813 19.0537 78.3749 19.0811 78.3739C19.1085 78.3729 19.1359 78.3773 19.1616 78.3869C19.1873 78.3965 19.2109 78.411 19.231 78.4297C22.831 81.7453 25.1458 88.2973 24.5086 93.3409C24.5009 93.3908 24.4756 93.4363 24.4373 93.4693C24.3991 93.5023 24.3503 93.5206 24.2998 93.5209Z" fill="white"/>
<path d="M23.6983 87.2028C23.6526 87.2028 23.6083 87.1876 23.5723 87.1596C21.7327 85.7808 18.8023 86.04 18.7735 86.04C18.7181 86.0453 18.6629 86.0283 18.62 85.9928C18.5772 85.9574 18.5501 85.9064 18.5449 85.851C18.5396 85.7956 18.5566 85.7404 18.592 85.6976C18.6275 85.6547 18.6785 85.6277 18.7339 85.6224C18.8599 85.6224 21.8587 85.3524 23.8243 86.8284C23.8465 86.845 23.8651 86.8659 23.8791 86.8898C23.8932 86.9137 23.9023 86.9402 23.906 86.9677C23.9097 86.9952 23.9078 87.0231 23.9006 87.0499C23.8934 87.0767 23.8809 87.1017 23.8639 87.1236C23.8445 87.149 23.8194 87.1694 23.7906 87.1831C23.7618 87.1969 23.7302 87.2036 23.6983 87.2028Z" fill="white"/>
<path d="M23.3999 85.9932C23.3445 85.9895 23.2927 85.9647 23.2551 85.9238C23.2176 85.8829 23.1972 85.8291 23.1983 85.7736C23.2409 85.0264 23.4352 84.2956 23.7694 83.626C24.1036 82.9563 24.5707 82.3617 25.1423 81.8784C25.1862 81.8441 25.242 81.8285 25.2973 81.8353C25.3527 81.842 25.4031 81.8705 25.4375 81.9144C25.4719 81.9583 25.4874 82.0141 25.4806 82.0695C25.4739 82.1248 25.4454 82.1753 25.4015 82.2096C24.8788 82.6574 24.4505 83.2048 24.1415 83.8197C23.8325 84.4347 23.6489 85.105 23.6015 85.7916C23.5989 85.8442 23.5768 85.894 23.5395 85.9313C23.5023 85.9685 23.4525 85.9906 23.3999 85.9932Z" fill="white"/>
<path d="M149.495 68.7046L145.787 76.011L146.384 76.314L150.093 69.0077L149.495 68.7046Z" fill="#37474F"/>
<path d="M142.621 68.1153L142.052 68.4678L145.667 74.308L146.237 73.9556L142.621 68.1153Z" fill="#37474F"/>
<path d="M146.653 67.4316V85.0356C146.648 85.0851 146.63 85.1323 146.601 85.1726C146.572 85.213 146.533 85.2452 146.488 85.266C146.365 85.3281 146.229 85.3604 146.092 85.3604C145.954 85.3604 145.819 85.3281 145.696 85.266C145.65 85.2458 145.611 85.2138 145.582 85.1733C145.553 85.1328 145.535 85.0853 145.53 85.0356V67.4316H146.653Z" fill="#37474F"/>
<path d="M154.958 69.4936C159.12 67.7417 161.073 62.9479 159.321 58.7863C157.57 54.6248 152.776 52.6714 148.614 54.4233C144.453 56.1753 142.499 60.969 144.251 65.1306C146.003 69.2921 150.797 71.2455 154.958 69.4936Z" fill="#37474F"/>
<path opacity="0.2" d="M154.347 59.8609C155.401 56.5417 156.525 55.2421 155.812 54.8389C154.457 54.072 152.912 53.7075 151.358 53.7884C149.804 53.8693 148.305 54.3921 147.038 55.2954C145.77 56.1987 144.787 57.4451 144.204 58.8879C143.62 60.3307 143.461 61.9101 143.744 63.4405C144.027 64.9708 144.741 66.3886 145.802 67.5271C146.863 68.6656 148.227 69.4776 149.734 69.8676C151.241 70.2577 152.827 70.2096 154.308 69.729C155.788 69.2483 157.1 68.3552 158.091 67.1545C155.671 67.8637 153 64.1665 154.347 59.8609Z" fill="black"/>
<path d="M142.969 68.3284C145.212 66.0846 145.212 62.4467 142.969 60.2029C140.725 57.9591 137.087 57.9591 134.843 60.2029C132.599 62.4467 132.599 66.0846 134.843 68.3284C137.087 70.5722 140.725 70.5722 142.969 68.3284Z" fill="#37474F"/>
<path d="M138.906 58.5216C137.7 58.5199 136.525 58.8978 135.547 59.6016C135.392 63.1116 138.373 66.5352 137.537 67.6836C136.702 68.832 134.657 68.13 133.938 67.1508C134.443 68.0271 135.171 68.7548 136.048 69.2603C136.925 69.7659 137.919 70.0316 138.931 70.0307C139.943 70.0298 140.937 69.7624 141.812 69.2552C142.688 68.7481 143.415 68.0192 143.919 67.1419C144.424 66.2647 144.688 65.27 144.686 64.2581C144.684 63.2461 144.415 62.2526 143.906 61.3776C143.398 60.5025 142.668 59.7769 141.79 59.2736C140.912 58.7703 139.917 58.5072 138.906 58.5108V58.5216Z" fill="#37474F"/>
<path opacity="0.2" d="M138.906 58.5216C137.7 58.5199 136.525 58.8978 135.547 59.6016C135.392 63.1116 138.373 66.5352 137.537 67.6836C136.702 68.832 134.657 68.13 133.938 67.1508C134.443 68.0271 135.171 68.7548 136.048 69.2603C136.925 69.7659 137.919 70.0316 138.931 70.0307C139.943 70.0298 140.937 69.7624 141.812 69.2552C142.688 68.7481 143.415 68.0192 143.919 67.1419C144.424 66.2647 144.688 65.27 144.686 64.2581C144.684 63.2461 144.415 62.2526 143.906 61.3776C143.398 60.5025 142.668 59.7769 141.79 59.2736C140.912 58.7703 139.917 58.5072 138.906 58.5108V58.5216Z" fill="black"/>
<path d="M146.092 68.6124C151.913 68.6124 156.632 63.8931 156.632 58.0716C156.632 52.25 151.913 47.5308 146.092 47.5308C140.27 47.5308 135.551 52.25 135.551 58.0716C135.551 63.8931 140.27 68.6124 146.092 68.6124Z" fill="#37474F"/>
<path opacity="0.1" d="M156.352 60.4801C155.952 62.1853 155.133 63.764 153.97 65.0734C152.806 66.3828 151.335 67.3817 149.689 67.9797C148.042 68.5778 146.273 68.7561 144.54 68.4987C142.808 68.2413 141.167 67.5561 139.765 66.5053C138.364 65.4544 137.247 64.0709 136.514 62.4797C135.782 60.8886 135.458 59.1401 135.571 57.3922C135.684 55.6443 136.231 53.9521 137.162 52.4686C138.093 50.985 139.379 49.7569 140.904 48.8953C139.991 49.4151 139.159 50.0664 138.435 50.8285C138.252 51.6183 138.159 52.4262 138.157 53.2369C138.156 55.3465 138.789 57.4079 139.973 59.1541C141.156 60.9003 142.837 62.2509 144.797 63.0312C146.757 63.8115 148.906 63.9855 150.966 63.5307C153.026 63.0758 154.902 62.0131 156.352 60.4801Z" fill="black"/>
<path d="M154.663 91.3788L80.1793 134.381C79.9377 134.503 79.6707 134.567 79.3999 134.567C79.1291 134.567 78.8621 134.503 78.6205 134.381L17.2981 98.9784C17.0718 98.8299 16.8836 98.6304 16.7485 98.396C16.6135 98.1615 16.5354 97.8986 16.5205 97.6284V96.0516C16.5348 95.7812 16.6127 95.5181 16.7478 95.2835C16.8829 95.0489 17.0714 94.8496 17.2981 94.7016L91.8001 51.696C92.0417 51.5736 92.3087 51.5098 92.5795 51.5098C92.8503 51.5098 93.1173 51.5736 93.3589 51.696L154.663 87.12C154.89 87.2684 155.078 87.4679 155.213 87.7024C155.348 87.9368 155.426 88.1998 155.441 88.47V90.0468C155.423 90.3138 155.344 90.5732 155.209 90.8043C155.074 91.0355 154.887 91.2321 154.663 91.3788Z" fill="#37474F"/>
<path opacity="0.2" d="M154.663 91.3788L80.1793 134.381C79.9377 134.503 79.6707 134.567 79.3999 134.567C79.1291 134.567 78.8621 134.503 78.6205 134.381L17.2981 98.9784C17.0718 98.8299 16.8836 98.6304 16.7485 98.396C16.6135 98.1615 16.5354 97.8986 16.5205 97.6284V96.0516C16.5348 95.7812 16.6127 95.5181 16.7478 95.2835C16.8829 95.0489 17.0714 94.8496 17.2981 94.7016L91.8001 51.696C92.0417 51.5736 92.3087 51.5098 92.5795 51.5098C92.8503 51.5098 93.1173 51.5736 93.3589 51.696L154.663 87.12C154.89 87.2684 155.078 87.4679 155.213 87.7024C155.348 87.9368 155.426 88.1998 155.441 88.47V90.0468C155.423 90.3138 155.344 90.5732 155.209 90.8043C155.074 91.0355 154.887 91.2321 154.663 91.3788Z" fill="black"/>
<g style="mix-blend-mode:multiply">
<path d="M155.441 88.4521C155.426 88.1819 155.348 87.919 155.213 87.6845C155.078 87.45 154.89 87.2505 154.664 87.1021L153.98 86.7097L79.3984 129.766V134.568C79.6694 134.574 79.9373 134.509 80.176 134.381L154.66 91.3789C154.886 91.2305 155.075 91.031 155.21 90.7965C155.345 90.562 155.423 90.2991 155.438 90.0289L155.441 88.4521Z" fill="#37474F"/>
</g>
<g style="mix-blend-mode:multiply" opacity="0.2">
<path d="M155.441 88.4521C155.426 88.1819 155.348 87.919 155.213 87.6845C155.078 87.45 154.89 87.2505 154.664 87.1021L153.98 86.7097L79.3984 129.766V134.568C79.6694 134.574 79.9373 134.509 80.176 134.381L154.66 91.3789C154.886 91.2305 155.075 91.031 155.21 90.7965C155.345 90.562 155.423 90.2991 155.438 90.0289L155.441 88.4521Z" fill="black"/>
</g>
<path d="M17.2981 95.6016L78.6205 131.004C78.8621 131.126 79.1291 131.19 79.3999 131.19C79.6707 131.19 79.9377 131.126 80.1793 131.004L154.663 88.002C154.757 87.97 154.839 87.9095 154.897 87.8288C154.955 87.7481 154.986 87.6513 154.986 87.552C154.986 87.4527 154.955 87.3558 154.897 87.2751C154.839 87.1944 154.757 87.1339 154.663 87.102L93.3409 51.696C93.0993 51.5736 92.8323 51.5098 92.5615 51.5098C92.2907 51.5098 92.0237 51.5736 91.7821 51.696L17.2981 94.7016C17.2041 94.7335 17.1224 94.794 17.0645 94.8747C17.0067 94.9555 16.9756 95.0522 16.9756 95.1516C16.9756 95.2509 17.0067 95.3477 17.0645 95.4284C17.1224 95.5091 17.2041 95.5696 17.2981 95.6016Z" fill="#37474F"/>
<path d="M49.9613 104.548C51.6749 103.558 51.6749 101.938 49.9613 100.948L42.1889 96.4801C42.1067 96.4327 42.0384 96.3646 41.9909 96.2824C41.9434 96.2002 41.9183 96.107 41.9183 96.0121C41.9183 95.9172 41.9434 95.824 41.9909 95.7418C42.0384 95.6596 42.1067 95.5914 42.1889 95.5441L45.7673 93.4813L39.9173 90.1045L32.7965 94.1941C31.0829 95.1841 31.0865 96.8005 32.7965 97.7941L40.5905 102.272C40.6728 102.32 40.7411 102.388 40.7886 102.47C40.8361 102.552 40.8611 102.646 40.8611 102.741C40.8611 102.835 40.8361 102.929 40.7886 103.011C40.7411 103.093 40.6728 103.161 40.5905 103.208L35.5289 106.128L41.4005 109.487L49.9613 104.548Z" fill="#F5F5F5"/>
<path d="M70.625 79.1099L89.6366 68.1335V88.3979L70.625 99.3707V79.1099Z" fill="#E0E0E0"/>
<path d="M83.3974 76.8169L76.8634 80.5753C76.7506 80.6503 76.6568 80.7505 76.5893 80.8679C76.5219 80.9854 76.4826 81.1169 76.4746 81.2521V88.8121C76.4746 89.0605 76.651 89.1721 76.8634 89.0353L83.3974 85.2769C83.511 85.2027 83.6054 85.1027 83.673 84.9851C83.7405 84.8675 83.7793 84.7356 83.7862 84.6001V77.0401C83.7862 76.7917 83.6134 76.6801 83.3974 76.8169Z" fill="#455A64"/>
<path d="M83.0381 84.6359C83.0493 84.6126 83.0589 84.5885 83.0669 84.5639V77.8391L77.2241 81.1979C77.2129 81.2212 77.2033 81.2453 77.1953 81.2699V87.9947L83.0381 84.6359Z" fill="#F5F5F5"/>
<path d="M83.7862 80.3879L76.4746 84.5999V85.4423L83.7862 81.2339V80.3879Z" fill="#455A64"/>
<path d="M80.4964 78.4836V86.9436L79.7656 87.3504V78.9084L80.4964 78.4836Z" fill="#455A64"/>
<path d="M70.625 99.3707V101.059L89.6366 90.0864V88.3979L70.625 99.3707Z" fill="#263238"/>
<path d="M108.648 79.1099L89.6367 68.1335V88.3979L108.648 99.3707V79.1099Z" fill="#F0F0F0"/>
<path d="M95.8751 76.8169L102.409 80.5753C102.522 80.6503 102.616 80.7505 102.683 80.8679C102.751 80.9854 102.79 81.1169 102.798 81.2521V88.8121C102.798 89.0605 102.622 89.1721 102.409 89.0353L95.8751 85.2769C95.7616 85.2027 95.6671 85.1027 95.5996 84.9851C95.532 84.8675 95.4932 84.7356 95.4863 84.6001V77.0401C95.4863 76.7917 95.6591 76.6801 95.8751 76.8169Z" fill="#455A64"/>
<path d="M96.2355 84.6359C96.2355 84.6359 96.2103 84.5855 96.2031 84.5639V77.8391L102.046 81.1979C102.057 81.2212 102.067 81.2453 102.075 81.2699V87.9947L96.2355 84.6359Z" fill="#F5F5F5"/>
<path d="M95.4863 80.3879L102.798 84.5999V85.4423L95.4863 81.2339V80.3879Z" fill="#455A64"/>
<path d="M98.7734 78.4836V86.9436L99.5078 87.3504V78.9084L98.7734 78.4836Z" fill="#455A64"/>
<path d="M108.648 99.3707V101.059L89.6367 90.0864V88.3979L108.648 99.3707Z" fill="#455A64"/>
<path d="M108.648 79.11L124.733 47.8728L136.433 63.0684L136.43 83.3292L108.648 99.3708V79.11Z" fill="#E0E0E0"/>
<path d="M119.6 77.8391L113.066 81.5975C112.952 81.6719 112.858 81.7719 112.79 81.8895C112.723 82.0071 112.684 82.1389 112.677 82.2743V89.8343C112.677 90.0827 112.85 90.1943 113.066 90.0611L119.6 86.2991C119.713 86.2253 119.807 86.1259 119.874 86.0089C119.942 85.892 119.981 85.7608 119.988 85.6259V78.0659C119.988 77.8175 119.816 77.7167 119.6 77.8391Z" fill="#455A64"/>
<path d="M119.239 85.6584C119.25 85.635 119.26 85.611 119.268 85.5864V78.8616L113.425 82.224C113.414 82.246 113.404 82.2689 113.396 82.2924V89.0208L119.239 85.6584Z" fill="#F5F5F5"/>
<path d="M119.988 81.4141L112.677 85.6225V86.4685L119.988 82.2601V81.4141Z" fill="#455A64"/>
<path d="M116.698 79.5095V87.9695L115.967 88.3727V79.9307L116.698 79.5095Z" fill="#455A64"/>
<path d="M132.761 70.2361L126.227 73.9981C126.113 74.0714 126.019 74.1708 125.951 74.2878C125.884 74.4048 125.845 74.5363 125.838 74.6713V82.2313C125.838 82.4797 126.011 82.5913 126.227 82.4581L132.757 78.6997C132.871 78.6255 132.966 78.5256 133.034 78.408C133.102 78.2904 133.142 78.1585 133.149 78.0229V70.4629C133.149 70.2001 132.973 70.1137 132.761 70.2361Z" fill="#455A64"/>
<path d="M132.401 78.0551C132.413 78.0321 132.423 78.008 132.43 77.9831V71.2583L126.587 74.6207C126.587 74.6207 126.562 74.6675 126.555 74.6927V81.4175L132.401 78.0551Z" fill="#F5F5F5"/>
<path d="M133.149 73.8108L125.838 78.0192V78.8652L133.149 74.6568V73.8108Z" fill="#455A64"/>
<path d="M129.86 71.9065V80.3665L129.129 80.7697V72.3277L129.86 71.9065Z" fill="#455A64"/>
<path d="M121.468 59.04L125.068 56.9556C125.28 56.8332 125.456 56.934 125.456 57.1824V64.7424C125.448 64.8776 125.409 65.0091 125.342 65.1266C125.274 65.244 125.18 65.3442 125.068 65.4192L121.468 67.5C121.252 67.626 121.075 67.5252 121.075 67.2768V59.7168C121.083 59.5811 121.123 59.4492 121.191 59.3316C121.259 59.2141 121.354 59.1142 121.468 59.04Z" fill="#455A64"/>
<path d="M121.795 59.7312L121.842 59.6664L124.743 57.9924V64.7388C124.73 64.7607 124.714 64.7812 124.697 64.8L121.799 66.474L121.795 59.7312Z" fill="#F5F5F5"/>
<path d="M124.743 60.9624L121.795 62.6652V63.5076L124.743 61.8048V60.9624Z" fill="#455A64"/>
<path d="M108.648 99.3707L136.43 83.3291L136.433 85.0175L108.648 101.059V99.3707Z" fill="#263238"/>
<path d="M70.6246 79.11L54.5398 47.8728L42.8398 63.0684V83.3292L70.6246 99.3708V79.11Z" fill="#F5F5F5"/>
<path d="M45.7666 85.0176V69.822L51.6166 73.1988V88.398L45.7666 85.0176Z" fill="#263238"/>
<path d="M57.8557 76.8169L64.3861 80.5753C64.4999 80.6495 64.5947 80.7494 64.6629 80.867C64.731 80.9845 64.7706 81.1164 64.7785 81.2521V88.8121C64.7785 89.0605 64.6021 89.1721 64.3861 89.0353L57.8557 85.2769C57.7421 85.2027 57.6477 85.1027 57.5801 84.9851C57.5125 84.8675 57.4737 84.7356 57.4669 84.6001V77.0401C57.4633 76.7917 57.6397 76.6801 57.8557 76.8169Z" fill="#455A64"/>
<path d="M58.216 84.6359C58.2033 84.6128 58.1925 84.5887 58.1836 84.5639V77.8391L64.0264 81.1979C64.0391 81.221 64.0499 81.2451 64.0588 81.2699V87.9947L58.216 84.6359Z" fill="#F5F5F5"/>
<path d="M57.4629 80.3879L64.7781 84.5999V85.4423L57.4629 81.2339V80.3879Z" fill="#455A64"/>
<path d="M60.7539 78.4836V86.9436L61.4847 87.3504V78.9084L60.7539 78.4836Z" fill="#455A64"/>
<path d="M57.8052 59.04L54.2052 56.9556C53.9892 56.8332 53.8164 56.934 53.8164 57.1824V64.7424C53.8236 64.8778 53.8625 65.0096 53.93 65.1272C53.9976 65.2448 54.0918 65.3448 54.2052 65.4192L57.8052 67.5C58.0212 67.626 58.194 67.5252 58.194 67.2768V59.7168C58.1869 59.5814 58.1479 59.4496 58.0804 59.332C58.0128 59.2144 57.9186 59.1144 57.8052 59.04Z" fill="#455A64"/>
<path d="M57.4741 59.7312L57.4309 59.6664L54.5293 57.9924V64.7388C54.5429 64.7607 54.5585 64.7812 54.5761 64.8L57.4741 66.474V59.7312Z" fill="#F5F5F5"/>
<path d="M54.5293 60.9624L57.4777 62.6652V63.5076L54.5293 61.8048V60.9624Z" fill="#455A64"/>
<path d="M108.962 80.1395L89.6367 68.9795V28.4507L125.046 48.9023L108.962 80.1395Z" fill="#455A64"/>
<path d="M124.733 47.8728L124.398 48.5208L137.225 62.6112L137.895 62.2224L124.733 47.8728Z" fill="#455A64"/>
<path d="M137.225 62.6111L136.433 63.0683L124.459 50.0435L124.938 49.1147L137.225 62.6111Z" fill="#263238"/>
<path d="M108.648 79.11L89.6367 68.1336V27.6084L124.733 47.8728L108.648 79.11Z" fill="#37474F"/>
<path d="M70.3114 80.1395L89.6362 68.9795V28.4507L54.2266 48.9023L70.3114 80.1395Z" fill="#455A64"/>
<path d="M54.5405 47.8728L54.8753 48.5208L42.0485 62.6112L41.3789 62.2224L54.5405 47.8728Z" fill="#455A64"/>
<path d="M42.0479 62.6111L42.8399 63.0683L54.8134 50.0435L54.3346 49.1147L42.0479 62.6111Z" fill="#263238"/>
<path d="M70.6248 79.11L89.6364 68.1336V27.6084L54.54 47.8728L70.6248 79.11Z" fill="#263238"/>
<path d="M70.9922 58.6368L75.0134 66.4452V58.0032L70.9922 55.6812V58.6368Z" fill="#F0F0F0"/>
<path d="M75.0137 58.0032L79.3985 50.4036L82.3253 53.7804V62.2224L75.0137 66.4452V58.0032Z" fill="#E0E0E0"/>
<path d="M77.3177 57.0708L80.0213 55.5084C80.1833 55.4148 80.3129 55.4904 80.3129 55.6776V61.3368C80.3072 61.4378 80.2779 61.5361 80.2272 61.6236C80.1766 61.7112 80.106 61.7856 80.0213 61.8408L77.3177 63.4032C77.1557 63.4968 77.0225 63.4032 77.0225 63.2376V57.5784C77.0282 57.4765 77.058 57.3775 77.1093 57.2893C77.1606 57.201 77.232 57.1262 77.3177 57.0708Z" fill="#455A64"/>
<path d="M77.5625 57.5783C77.5625 57.5783 77.5877 57.5423 77.5985 57.5315L79.7585 56.2751V61.3367L79.7261 61.3835L77.5661 62.6363L77.5625 57.5783Z" fill="#F5F5F5"/>
<path d="M79.7729 58.5037L77.5625 59.7781V60.4117L79.7729 59.1337V58.5037Z" fill="#455A64"/>
<path d="M79.3984 50.4036L80.8636 51.2496L83.7868 54.6264L82.3252 53.7804L79.3984 50.4036Z" fill="#263238"/>
<path d="M79.3984 50.0437L80.8636 50.8861L83.7868 54.2665L82.3252 53.4205L79.3984 50.0437Z" fill="#263238"/>
<path d="M80.8631 51.2495L75.0131 59.6915L69.1631 56.3147L75.0131 47.8691L80.8631 51.2495Z" fill="#37474F"/>
<path d="M80.8631 50.8861L75.0131 59.3317L69.1631 55.9549L75.0131 47.5093L80.8631 50.8861Z" fill="#37474F"/>
<path d="M80.8633 50.886V51.2496L83.7865 54.6264V54.2664L80.8633 50.886Z" fill="#455A64"/>
<path d="M80.8637 50.886L75.0137 59.3316V59.6916L80.8637 51.2496V50.886Z" fill="#455A64"/>
<path d="M69.1631 55.9548V56.3148L75.0131 59.6916V59.3316L69.1631 55.9548Z" fill="#263238"/>
<path d="M108.281 58.6368L104.26 66.4452V58.0032L108.281 55.6812V58.6368Z" fill="#E0E0E0"/>
<path d="M104.26 58.0032L99.8715 50.4036L96.9482 53.7804V62.2224L104.26 66.4452V58.0032Z" fill="#F5F5F5"/>
<path d="M101.956 57.0708L99.2522 55.5084C99.0902 55.4148 98.957 55.4904 98.957 55.6776V61.3368C98.9633 61.4381 98.9934 61.5364 99.0446 61.624C99.0959 61.7115 99.167 61.7858 99.2522 61.8408L101.956 63.4032C102.118 63.4968 102.247 63.4032 102.247 63.2376V57.5784C102.242 57.4768 102.213 57.3778 102.163 57.2896C102.112 57.2014 102.041 57.1264 101.956 57.0708Z" fill="#455A64"/>
<path d="M101.707 57.5783C101.697 57.562 101.687 57.5463 101.675 57.5315L99.5146 56.2751V61.3367C99.5279 61.3513 99.54 61.367 99.5507 61.3835L101.711 62.6363L101.707 57.5783Z" fill="#FAFAFA"/>
<path d="M99.4971 58.5037L101.707 59.7781V60.4117L99.4971 59.1337V58.5037Z" fill="#455A64"/>
<path d="M99.8711 50.4036L98.4095 51.2496L95.4863 54.6264L96.9479 53.7804L99.8711 50.4036Z" fill="#263238"/>
<path d="M99.8711 50.0437L98.4095 50.8861L95.4863 54.2665L96.9479 53.4205L99.8711 50.0437Z" fill="#263238"/>
<path d="M98.4102 51.2495L104.26 59.6915L110.11 56.3147L104.26 47.8691L98.4102 51.2495Z" fill="#37474F"/>
<path d="M98.4102 50.8861L104.26 59.3317L110.11 55.9549L104.26 47.5093L98.4102 50.8861Z" fill="#455A64"/>
<path d="M98.4095 50.886V51.2496L95.4863 54.6264V54.2664L98.4095 50.886Z" fill="#455A64"/>
<path d="M98.4102 50.886L104.26 59.3316V59.6916L98.4102 51.2496V50.886Z" fill="#455A64"/>
<path d="M110.11 55.9548V56.3148L104.26 59.6916V59.3316L110.11 55.9548Z" fill="#263238"/>
<path d="M70.6247 99.3708L64.7783 102.751V104.44L70.6247 101.059V99.3708Z" fill="#263238"/>
<path d="M64.7789 102.751L36.9941 86.7061V88.3981L64.7789 104.44V102.751Z" fill="#455A64"/>
<path d="M42.8405 83.3291L36.9941 86.7059L64.7789 102.751L70.6253 99.3707L42.8405 83.3291Z" fill="#37474F"/>
<path d="M64.0336 100.638C64.0399 100.702 64.0633 100.763 64.1013 100.815C64.1393 100.867 64.1905 100.908 64.2496 100.933C64.4129 101.017 64.5936 101.06 64.777 101.06C64.9603 101.06 65.1411 101.017 65.3044 100.933C65.3635 100.908 65.4147 100.867 65.4527 100.815C65.4906 100.763 65.514 100.702 65.5204 100.638V79.7581H64.0264V100.638H64.0336Z" fill="#263238"/>
<path d="M39.96 86.7961C39.966 86.8611 39.9896 86.9233 40.0283 86.9759C40.067 87.0286 40.1193 87.0697 40.1796 87.0949C40.3427 87.1766 40.5227 87.2192 40.7052 87.2192C40.8876 87.2192 41.0676 87.1766 41.2308 87.0949C41.291 87.0697 41.3433 87.0286 41.382 86.9759C41.4207 86.9233 41.4443 86.8611 41.4504 86.7961V65.9341H39.96V86.7961Z" fill="#263238"/>
<path d="M70.6247 79.11L41.3783 62.2224L35.5283 65.5992L64.7747 82.4868L70.6247 79.11Z" fill="#455A64"/>
<path d="M64.7754 82.4869V83.3293L70.6254 79.9525V79.1101L64.7754 82.4869Z" fill="#263238"/>
<path d="M64.7747 82.4867L35.5283 65.5991V66.4451L64.7747 83.3291V82.4867Z" fill="#37474F"/>
<path d="M95.6631 137.88C95.6794 138.019 95.7314 138.152 95.814 138.266C95.8966 138.379 96.007 138.469 96.1347 138.528C96.491 138.709 96.8851 138.803 97.2849 138.803C97.6846 138.803 98.0787 138.709 98.4351 138.528C98.5627 138.469 98.6732 138.379 98.7558 138.266C98.8384 138.152 98.8903 138.019 98.9067 137.88V114.188H95.6667V137.88H95.6631Z" fill="#263238"/>
<path d="M82.2568 118.778V104.422L111.266 121.169V135.526L82.2568 118.778Z" fill="#F0F0F0"/>
<path d="M82.2568 104.422L84.3268 103.226L113.339 119.974L111.266 121.169L82.2568 104.422Z" fill="#F5F5F5"/>
<path d="M113.339 119.974V134.33L111.266 135.526V121.169L113.339 119.974Z" fill="#E0E0E0"/>
<path d="M84.5713 115.448V110.218C84.5713 110.11 84.5893 110.041 84.6289 110.016C84.6685 109.991 84.7297 110.016 84.8125 110.052L86.7385 111.164C86.8573 111.233 86.9149 111.384 86.9149 111.622V111.834C86.9149 112.068 86.8573 112.154 86.7385 112.086L85.5181 111.366V112.806L86.6521 113.458C86.7709 113.526 86.8285 113.681 86.8285 113.915V114.131C86.8285 114.365 86.7709 114.448 86.6521 114.379L85.5181 113.728V115.988C85.5181 116.071 85.4893 116.114 85.4353 116.118C85.3344 116.11 85.2375 116.075 85.1545 116.017L84.9349 115.888C84.6937 115.754 84.5713 115.607 84.5713 115.448Z" fill="#37474F"/>
<path d="M87.4268 114.433C87.4268 112.482 88.04 111.859 89.2664 112.565C90.4928 113.27 91.0976 114.599 91.0808 116.55C91.0808 118.511 90.4712 119.14 89.252 118.436C88.0328 117.733 87.4244 116.399 87.4268 114.433ZM89.9216 117.428C90.1042 116.972 90.177 116.478 90.134 115.988C90.1574 115.424 90.0869 114.859 89.9252 114.318C89.817 113.969 89.5853 113.673 89.2736 113.483C88.9748 113.31 88.7516 113.335 88.6112 113.558C88.4708 113.782 88.3952 114.257 88.3952 114.998C88.3726 115.567 88.4456 116.135 88.6112 116.68C88.7218 117.033 88.9573 117.333 89.2736 117.526C89.5616 117.688 89.7776 117.655 89.9216 117.428Z" fill="#37474F"/>
<path d="M91.8369 119.642V114.411C91.8369 114.307 91.8549 114.242 91.8981 114.217C91.9413 114.192 91.9989 114.217 92.0853 114.249L93.2409 114.912C93.682 115.134 94.0513 115.476 94.3061 115.899C94.5609 116.322 94.6908 116.809 94.6809 117.302C94.6809 117.953 94.4577 118.287 94.0113 118.307V118.339C94.2556 118.691 94.4213 119.091 94.4973 119.513L94.9221 121.349C94.9242 121.369 94.9242 121.39 94.9221 121.41C94.9254 121.429 94.9254 121.448 94.9221 121.467C94.9221 121.593 94.7961 121.583 94.5405 121.435L94.3209 121.32C94.0977 121.19 93.9609 121.057 93.9609 120.917L93.5721 119.117C93.5326 118.941 93.4658 118.772 93.3741 118.616C93.2866 118.491 93.1706 118.389 93.0357 118.317L92.7729 118.163V120.197C92.7729 120.355 92.6469 120.362 92.4129 120.197L92.2221 120.085C91.9593 119.952 91.8369 119.801 91.8369 119.642ZM93.2769 117.443C93.3258 117.479 93.3864 117.496 93.447 117.49C93.5075 117.484 93.5637 117.455 93.6045 117.41C93.7108 117.261 93.7594 117.078 93.7413 116.895C93.7499 116.67 93.7042 116.445 93.6081 116.24C93.5314 116.075 93.4057 115.938 93.2481 115.848L92.7621 115.567V117.144L93.2769 117.443Z" fill="#37474F"/>
<path d="M96.8112 122.681C96.6147 122.507 96.4449 122.306 96.3072 122.083C96.2824 122.029 96.2608 121.974 96.2424 121.918C96.2272 121.87 96.2199 121.82 96.2208 121.77C96.2189 121.645 96.2486 121.521 96.3072 121.41C96.3648 121.302 96.4296 121.27 96.5016 121.313C96.5564 121.352 96.6039 121.401 96.642 121.457C96.7032 121.532 96.7428 121.583 96.7644 121.604C96.9428 121.85 97.1679 122.058 97.4268 122.216C97.4923 122.263 97.5666 122.296 97.6451 122.313C97.7237 122.331 97.8049 122.332 97.884 122.317C98.01 122.281 98.0748 122.144 98.0748 121.914C98.0764 121.693 98.0179 121.475 97.9056 121.284C97.7546 121.03 97.5824 120.789 97.3908 120.564C97.1774 120.313 96.9791 120.05 96.7968 119.776C96.6461 119.541 96.5251 119.288 96.4368 119.023C96.3457 118.751 96.3007 118.465 96.3036 118.177C96.3036 117.684 96.4404 117.374 96.7176 117.252C96.9004 117.197 97.0937 117.187 97.2814 117.221C97.4692 117.255 97.6461 117.334 97.7976 117.45C97.9751 117.553 98.1416 117.673 98.2944 117.81C98.4485 117.942 98.5873 118.09 98.7084 118.253C98.7703 118.332 98.8056 118.429 98.8092 118.53C98.8075 118.654 98.7806 118.777 98.73 118.89C98.676 119.005 98.6184 119.045 98.55 119.009C98.4907 118.963 98.4364 118.911 98.388 118.854C98.2281 118.692 98.0464 118.552 97.848 118.44C97.6464 118.325 97.4952 118.296 97.3944 118.354C97.3402 118.391 97.2972 118.442 97.2699 118.501C97.2426 118.561 97.2321 118.627 97.2396 118.692C97.2391 118.854 97.2722 119.015 97.3368 119.164C97.3944 119.3 97.4681 119.43 97.5564 119.549C97.6392 119.657 97.7904 119.844 98.01 120.114C98.3034 120.456 98.5547 120.832 98.7588 121.234C98.9224 121.588 99.0048 121.974 99 122.364C99.0125 122.629 98.9527 122.893 98.8272 123.127C98.7734 123.218 98.6972 123.294 98.6058 123.348C98.5145 123.401 98.411 123.431 98.3052 123.433C98.0099 123.432 97.7217 123.343 97.4772 123.178C97.2369 123.038 97.0135 122.871 96.8112 122.681Z" fill="#37474F"/>
<path d="M99.1768 123.955C99.1768 123.937 99.1768 123.894 99.1768 123.822L100.347 119.218C100.376 119.099 100.502 119.102 100.732 119.218L101.092 119.434C101.192 119.472 101.282 119.531 101.357 119.608C101.431 119.686 101.487 119.778 101.52 119.88L102.683 125.831C102.683 125.914 102.683 125.96 102.683 125.978C102.683 126.086 102.586 126.086 102.392 125.978L102.104 125.813C101.902 125.694 101.79 125.579 101.769 125.453L101.542 124.193L100.304 123.473L100.077 124.466C100.055 124.56 99.9544 124.553 99.7672 124.445L99.4828 124.283C99.2788 124.172 99.1768 124.063 99.1768 123.955ZM101.416 123.257L101.031 121.118C100.998 120.924 100.97 120.712 100.944 120.485L100.908 120.463C100.883 120.665 100.854 120.841 100.822 121L100.462 122.695L101.416 123.257Z" fill="#37474F"/>
<path d="M103.245 126.381C103.202 126.298 103.183 126.205 103.187 126.111V120.884C103.187 120.726 103.31 120.715 103.547 120.855L103.767 120.981C103.872 121.036 103.966 121.111 104.044 121.201C104.099 121.265 104.13 121.347 104.13 121.431V126.043L105.34 126.741C105.407 126.779 105.458 126.839 105.484 126.911C105.516 127.004 105.531 127.103 105.527 127.202V127.415C105.535 127.499 105.52 127.583 105.484 127.659C105.455 127.699 105.408 127.703 105.34 127.659L103.425 126.554C103.351 126.512 103.29 126.453 103.245 126.381Z" fill="#37474F"/>
<path d="M106.15 128.059C106.108 127.976 106.088 127.883 106.092 127.789V122.641C106.092 122.533 106.11 122.465 106.15 122.44C106.19 122.414 106.251 122.44 106.334 122.479L108.414 123.678C108.479 123.718 108.53 123.777 108.558 123.847C108.589 123.941 108.602 124.04 108.598 124.139V124.355C108.606 124.437 108.592 124.52 108.558 124.596C108.53 124.636 108.479 124.639 108.414 124.596L107.039 123.804V125.244L108.263 125.964C108.33 126 108.381 126.059 108.407 126.13C108.439 126.223 108.454 126.322 108.45 126.421V126.637C108.458 126.72 108.443 126.803 108.407 126.878C108.378 126.922 108.332 126.922 108.263 126.878L107.039 126.158V127.721L108.422 128.52C108.485 128.555 108.533 128.611 108.558 128.678C108.59 128.774 108.603 128.874 108.598 128.974V129.19C108.608 129.273 108.594 129.358 108.558 129.434C108.53 129.474 108.483 129.474 108.422 129.434L106.334 128.232C106.259 128.191 106.196 128.131 106.15 128.059Z" fill="#37474F"/>
<path d="M42.8838 40.3668L41.8434 40.7664V38.4768C41.8434 36.6768 40.4034 36.2232 38.823 37.1304C37.2498 38.0412 35.9718 40.248 35.9718 42.066V42.4008C35.7508 42.3312 35.5168 42.3132 35.2878 42.3481C35.0587 42.3831 34.8408 42.47 34.6506 42.6024C34.053 42.9913 33.5557 43.5158 33.1991 44.1333C32.8425 44.7507 32.6368 45.4436 32.5986 46.1556V46.3068L31.1586 47.142C30.7658 47.3988 30.4389 47.7444 30.2044 48.1509C29.9699 48.5574 29.8343 49.0134 29.8086 49.482C29.8086 50.3424 30.4134 50.6916 31.1586 50.2596L42.8946 43.4844C43.2875 43.2286 43.6145 42.8837 43.8491 42.4777C44.0837 42.0717 44.2192 41.6162 44.2446 41.148C44.2338 40.2876 43.629 39.9384 42.8838 40.3668Z" fill="#F0F0F0"/>
<path d="M31.1042 41.1264L29.2214 42.2064C29.2214 42.1236 29.2214 42.0372 29.2214 41.958V41.4108C29.2214 40.4388 28.5374 40.0428 27.695 40.5288C27.3401 40.7541 27.0361 41.0508 26.8022 41.4C26.6654 40.176 25.7222 39.7224 24.5414 40.3956C23.8758 40.8292 23.3221 41.4138 22.9255 42.102C22.5288 42.7902 22.3005 43.5624 22.259 44.3556V45.1728C22.2496 45.4992 22.3162 45.8233 22.4534 46.1196L20.8802 47.0304C20.6345 47.1907 20.4299 47.4065 20.283 47.6604C20.136 47.9143 20.0508 48.1992 20.0342 48.492C20.0342 49.032 20.4158 49.2516 20.8802 48.9816L31.1042 43.0812C31.3505 42.9208 31.5555 42.7045 31.7025 42.4499C31.8495 42.1953 31.9344 41.9096 31.9502 41.616C31.9502 41.076 31.5722 40.86 31.1042 41.1264Z" fill="#F0F0F0"/>
</svg>
