<svg width="180" height="180" viewBox="0 0 180 180" fill="none" xmlns="http://www.w3.org/2000/svg">
<path d="M170.147 148.119C170.147 148.173 133.286 148.212 87.8255 148.212C42.3647 148.212 5.49707 148.173 5.49707 148.119C5.49707 148.065 42.3503 148.025 87.8255 148.025C133.301 148.025 170.147 148.068 170.147 148.119Z" fill="#263238"/>
<path d="M70.0736 41.1047H50.252V49.1075H70.0736V41.1047Z" fill="#37474F"/>
<g opacity="0.7">
<path d="M70.0736 41.1047H50.252V49.1075H70.0736V41.1047Z" fill="black"/>
</g>
<path d="M77.1761 41.1047H57.3545V49.1075H77.1761V41.1047Z" fill="#37474F"/>
<g opacity="0.4">
<path d="M77.1761 41.1047H57.3545V49.1075H77.1761V41.1047Z" fill="black"/>
</g>
<path d="M70.7468 48.7332H34.6748V148.187H70.7468V48.7332Z" fill="#37474F"/>
<g opacity="0.7">
<path d="M48.3296 48.7332H34.6748V148.187H48.3296V48.7332Z" fill="black"/>
</g>
<path d="M93.9851 48.7332H57.9131V148.187H93.9851V48.7332Z" fill="#37474F"/>
<g opacity="0.4">
<path d="M93.9853 48.7332H48.3301V148.187H93.9853V48.7332Z" fill="black"/>
</g>
<path d="M78.8397 48.7547C78.8397 48.8087 72.4173 48.8483 64.5009 48.8483C56.5845 48.8483 50.1621 48.8087 50.1621 48.7547C50.1621 48.7007 56.5809 48.6611 64.5009 48.6611C72.4209 48.6611 78.8397 48.7043 78.8397 48.7547Z" fill="#263238"/>
<path d="M67.0204 55.6631H54.874V83.9123H67.0204V55.6631Z" fill="#FAFAFA"/>
<path d="M67.0212 83.9123C67.0212 83.9123 67.0212 83.8655 67.0212 83.7719C67.0212 83.6783 67.0212 83.5379 67.0212 83.3615C67.0212 83.0015 67.0212 82.4687 67.0212 81.7883C67.0212 80.4131 67.0213 78.4187 66.9961 75.9131C66.9961 70.9019 66.9708 63.8531 66.9528 55.6631L67.0428 55.7531H54.8748L54.9685 55.6595C54.9685 66.6683 54.9469 76.6439 54.9397 83.9087L54.8748 83.8439L63.7416 83.8799H66.1681H66.8016H67.0212C67.0212 83.8799 66.9529 83.8799 66.8161 83.8799H66.1932L63.7848 83.8979L54.8748 83.9339H54.8065V83.8655C54.8065 76.6007 54.8064 66.6251 54.7812 55.6163V55.5227H67.1112V55.6127C67.1112 63.8279 67.0789 70.8983 67.0681 75.9239C67.0681 78.4187 67.05 80.4059 67.0428 81.7775C67.0428 82.4507 67.0428 82.9727 67.0428 83.3327C67.0428 83.5055 67.0428 83.6351 67.0428 83.7323C67.0428 83.8295 67.0212 83.9123 67.0212 83.9123Z" fill="#263238"/>
<path d="M67.2151 61.4413C67.2151 61.4953 64.4143 61.5349 60.9619 61.5349C57.5095 61.5349 54.7051 61.4953 54.7051 61.4413C54.7051 61.3873 57.5059 61.3477 60.9619 61.3477C64.4179 61.3477 67.2151 61.3909 67.2151 61.4413Z" fill="#263238"/>
<path d="M61.077 83.6999C61.0266 83.6999 60.9834 78.7355 60.9834 72.6119C60.9834 66.4883 61.0266 61.5239 61.077 61.5239C61.1274 61.5239 61.1706 66.4883 61.1706 72.6119C61.1706 78.7355 61.1274 83.6999 61.077 83.6999Z" fill="#263238"/>
<path d="M88.9345 55.6631H76.7881V83.9123H88.9345V55.6631Z" fill="#FAFAFA"/>
<path d="M88.9196 83.9123C88.9196 83.9123 88.9196 83.8655 88.9196 83.7719C88.9196 83.6783 88.9196 83.5379 88.9196 83.3615C88.9196 83.0015 88.9196 82.4687 88.9196 81.7883C88.9196 80.4131 88.9196 78.4187 88.8944 75.9131C88.8944 70.9019 88.8692 63.8531 88.8512 55.6631L88.9412 55.7531H76.7876L76.8812 55.6595C76.8812 66.6683 76.8596 76.6439 76.8524 83.9087L76.7876 83.8439L85.6544 83.8799H88.0772H88.7144H88.934C88.934 83.8799 88.8656 83.8799 88.7252 83.8799H88.1024L85.694 83.8979L76.7876 83.9339H76.7192V83.8655C76.7192 76.6007 76.7012 66.6251 76.6904 55.6163V55.5227H89.024V55.6127C89.024 63.8279 88.9916 70.8983 88.9808 75.9239C88.9808 78.4187 88.9808 80.4059 88.9556 81.7775C88.9556 82.4507 88.9556 82.9727 88.9556 83.3327C88.9556 83.5055 88.9556 83.6351 88.9556 83.7323C88.9556 83.8295 88.9196 83.9123 88.9196 83.9123Z" fill="#263238"/>
<path d="M89.1282 61.4413C89.1282 61.4953 86.3274 61.5349 82.8714 61.5349C79.4154 61.5349 76.6182 61.4953 76.6182 61.4413C76.6182 61.3873 79.419 61.3477 82.8714 61.3477C86.3238 61.3477 89.1282 61.3909 89.1282 61.4413Z" fill="#263238"/>
<path d="M82.9901 83.6999C82.9361 83.6999 82.8965 78.7355 82.8965 72.6119C82.8965 66.4883 82.9361 61.5239 82.9901 61.5239C83.0441 61.5239 83.0837 66.4883 83.0837 72.6119C83.0837 78.7355 83.0405 83.6999 82.9901 83.6999Z" fill="#263238"/>
<path d="M67.0204 90.0576H54.874V118.307H67.0204V90.0576Z" fill="#FAFAFA"/>
<path d="M67.0212 118.31C67.0212 118.31 67.0212 118.26 67.0212 118.166C67.0212 118.073 67.0212 117.932 67.0212 117.756C67.0212 117.396 67.0212 116.863 67.0212 116.183C67.0212 114.807 67.0213 112.813 66.9961 110.307C66.9961 105.3 66.9708 98.2475 66.9528 90.0575L67.0428 90.1475H54.8748L54.9685 90.0539C54.9685 101.063 54.9469 111.038 54.9397 118.307L54.8748 118.238L63.7416 118.274L66.1681 118.292H66.8016C66.9456 118.292 67.0212 118.292 67.0212 118.292H66.8161H66.1932L63.7848 118.31L54.8748 118.346H54.8065V118.281C54.8065 111.013 54.8064 101.037 54.7812 90.0287V89.9351H54.8748H67.0212H67.1112V90.0215C67.1112 98.2367 67.0789 105.307 67.0681 110.333C67.0681 112.827 67.05 114.815 67.0428 116.186C67.0428 116.859 67.0428 117.381 67.0428 117.741C67.0428 117.914 67.0428 118.044 67.0428 118.141C67.0428 118.238 67.0212 118.31 67.0212 118.31Z" fill="#263238"/>
<path d="M67.2151 95.8355C67.2151 95.8895 64.4143 95.9291 60.9619 95.9291C57.5095 95.9291 54.7051 95.8895 54.7051 95.8355C54.7051 95.7815 57.5059 95.7419 60.9619 95.7419C64.4179 95.7419 67.2151 95.7851 67.2151 95.8355Z" fill="#263238"/>
<path d="M61.077 118.08C61.0266 118.08 60.9834 113.116 60.9834 106.992C60.9834 100.868 61.0266 95.9041 61.077 95.9041C61.1274 95.9041 61.1706 100.868 61.1706 106.992C61.1706 113.116 61.1274 118.08 61.077 118.08Z" fill="#263238"/>
<path d="M88.9345 90.0576H76.7881V118.307H88.9345V90.0576Z" fill="#FAFAFA"/>
<path d="M88.9196 118.31C88.9196 118.31 88.9196 118.26 88.9196 118.166C88.9196 118.073 88.9196 117.932 88.9196 117.756C88.9196 117.396 88.9196 116.863 88.9196 116.183C88.9196 114.807 88.9196 112.813 88.8944 110.307C88.8944 105.3 88.8692 98.2475 88.8512 90.0575L88.9412 90.1475H76.7876L76.8812 90.0539C76.8812 101.063 76.8596 111.038 76.8524 118.307L76.7876 118.238L85.6544 118.274L88.0772 118.292H88.7144C88.8548 118.292 88.934 118.292 88.934 118.292H88.7252H88.1024L85.694 118.31L76.7876 118.346H76.7192V118.281C76.7192 111.013 76.7012 101.037 76.6904 90.0287V89.9351H76.7876H88.934H89.024V90.0215C89.024 98.2367 88.9916 105.307 88.9808 110.333C88.9808 112.827 88.9808 114.815 88.9556 116.186C88.9556 116.859 88.9556 117.381 88.9556 117.741C88.9556 117.914 88.9556 118.044 88.9556 118.141C88.9556 118.238 88.9196 118.31 88.9196 118.31Z" fill="#263238"/>
<path d="M89.1282 95.8355C89.1282 95.8895 86.3274 95.9291 82.8714 95.9291C79.4154 95.9291 76.6182 95.8895 76.6182 95.8355C76.6182 95.7815 79.419 95.7419 82.8714 95.7419C86.3238 95.7419 89.1282 95.7851 89.1282 95.8355Z" fill="#263238"/>
<path d="M82.9901 118.08C82.9361 118.08 82.8965 113.116 82.8965 106.992C82.8965 100.868 82.9361 95.9041 82.9901 95.9041C83.0441 95.9041 83.0837 100.868 83.0837 106.992C83.0837 113.116 83.0405 118.08 82.9901 118.08Z" fill="#263238"/>
<path d="M72.2336 148.187C72.2336 148.187 72.2336 148.147 72.2336 148.072C72.2336 147.996 72.2336 147.884 72.2336 147.748C72.2336 147.452 72.2336 147.035 72.2336 146.495C72.2336 145.397 72.2336 143.809 72.2084 141.815C72.2084 137.826 72.1832 132.203 72.1688 125.654L72.2552 125.741H61.4552C61.4336 125.759 61.6316 125.564 61.5488 125.651V128.891C61.5488 129.953 61.5488 131.004 61.5488 132.034C61.5488 134.096 61.5488 136.091 61.5488 137.995C61.5488 141.804 61.5488 145.256 61.5488 148.194L61.4804 148.126L69.3536 148.162H71.5136H72.0788H72.2768H72.0932H71.5424L69.3824 148.18L61.4624 148.216H61.394V148.147C61.394 145.21 61.394 141.757 61.376 137.948C61.376 136.044 61.376 134.05 61.376 131.987V125.658L61.4696 125.561H72.3236V125.64C72.3056 132.214 72.2912 137.855 72.2804 141.862C72.2804 143.845 72.2624 145.426 72.2552 146.52C72.2552 147.053 72.2552 147.463 72.2552 147.755C72.2552 147.888 72.2552 147.992 72.2552 148.068C72.2528 148.108 72.2456 148.148 72.2336 148.187Z" fill="#263238"/>
<path d="M83.0259 148.187C83.0228 148.148 83.0228 148.11 83.0259 148.072C83.0259 147.992 83.0259 147.884 83.0259 147.748C83.0259 147.452 83.0259 147.035 83.0259 146.495C83.0259 145.397 83.0259 143.809 83.0007 141.815C83.0007 137.826 82.9755 132.203 82.9575 125.654L83.0475 125.741H72.2475C72.2223 125.759 72.4239 125.564 72.3375 125.651V132.019C72.3375 134.082 72.3375 136.076 72.3375 137.981C72.3375 141.79 72.3375 145.242 72.3375 148.18L72.2691 148.111L80.1423 148.147H82.3023H82.8675H83.0655H82.8819H82.3275L80.1891 148.165L72.2691 148.201H72.2007V148.133C72.2007 145.195 72.2007 141.743 72.1827 137.934C72.1827 136.03 72.1827 134.035 72.1827 131.972C72.1827 130.943 72.1827 129.892 72.1827 128.83V125.59C72.0999 125.672 72.2943 125.471 72.2799 125.492H83.1555V125.64C83.1375 132.214 83.1231 137.855 83.1123 141.862C83.1123 143.845 83.0943 145.426 83.0907 146.52C83.0907 147.053 83.0907 147.463 83.0907 147.755V148.068C83.0719 148.109 83.0502 148.149 83.0259 148.187Z" fill="#263238"/>
<path d="M73.6521 136.544C73.6305 136.544 73.7925 136.4 74.0517 136.508C74.1289 136.541 74.1952 136.595 74.243 136.664C74.2908 136.733 74.3181 136.814 74.3217 136.897C74.3286 137.003 74.3015 137.107 74.2445 137.196C74.1875 137.285 74.1035 137.353 74.0049 137.39C73.9038 137.421 73.7955 137.417 73.6967 137.38C73.5979 137.343 73.5139 137.275 73.4577 137.185C73.4108 137.113 73.3886 137.028 73.3945 136.942C73.4003 136.856 73.4339 136.775 73.4901 136.71C73.5232 136.667 73.565 136.632 73.6128 136.606C73.6606 136.581 73.7133 136.566 73.7673 136.562C73.8429 136.562 73.8789 136.584 73.8753 136.595C73.8717 136.606 73.7133 136.595 73.5981 136.789C73.5665 136.833 73.5494 136.886 73.5494 136.94C73.5494 136.995 73.5665 137.048 73.5981 137.092C73.6368 137.148 73.6928 137.191 73.7577 137.213C73.8226 137.235 73.8929 137.235 73.9581 137.214C74.019 137.188 74.0711 137.145 74.1076 137.09C74.1441 137.035 74.1635 136.971 74.1633 136.904C74.1642 136.848 74.1499 136.793 74.1221 136.744C74.0942 136.695 74.0537 136.655 74.0049 136.627C73.7997 136.516 73.6557 136.57 73.6521 136.544Z" fill="#263238"/>
<path d="M69.8393 136.544C69.8213 136.544 69.9797 136.4 70.2425 136.508C70.3191 136.542 70.385 136.596 70.4327 136.664C70.4804 136.733 70.508 136.814 70.5125 136.897C70.5182 137.002 70.4907 137.107 70.4338 137.195C70.377 137.284 70.2936 137.352 70.1957 137.39C70.0941 137.422 69.985 137.419 69.8854 137.381C69.7858 137.344 69.7012 137.275 69.6449 137.185C69.5996 137.112 69.5787 137.027 69.5851 136.942C69.5916 136.856 69.6251 136.775 69.6809 136.71C69.7139 136.667 69.7558 136.632 69.8036 136.606C69.8514 136.581 69.904 136.566 69.9581 136.562C70.0337 136.562 70.0697 136.584 70.0661 136.595C70.0625 136.606 69.9005 136.595 69.7889 136.789C69.7582 136.834 69.7418 136.886 69.7418 136.94C69.7418 136.994 69.7582 137.047 69.7889 137.092C69.8287 137.147 69.8848 137.188 69.9493 137.21C70.0138 137.232 70.0836 137.234 70.1489 137.214C70.208 137.186 70.2583 137.142 70.2945 137.088C70.3306 137.033 70.3512 136.97 70.3541 136.904C70.3542 136.848 70.3396 136.793 70.3118 136.745C70.2841 136.696 70.244 136.656 70.1957 136.627C70.0013 136.516 69.8393 136.57 69.8393 136.544Z" fill="#263238"/>
<path d="M147.2 37.0007H120.909V148.18H147.2V37.0007Z" fill="#37474F"/>
<path d="M133.801 44.791H125.809V60.1882H133.801V44.791Z" fill="#E0E0E0"/>
<path d="M130.028 60.1918C129.978 60.1918 129.935 56.743 129.935 52.4914C129.935 48.2398 129.978 44.791 130.028 44.791C130.079 44.791 130.122 48.2398 130.122 52.4914C130.122 56.743 130.079 60.1918 130.028 60.1918Z" fill="#37474F"/>
<path d="M133.797 50.1407C133.797 50.1947 131.997 50.2343 129.805 50.2343C127.612 50.2343 125.809 50.1947 125.809 50.1407C125.809 50.0867 127.609 50.0471 129.805 50.0471C132.001 50.0471 133.797 50.0903 133.797 50.1407Z" fill="#37474F"/>
<path d="M133.84 55.6488C133.84 55.6992 132.04 55.7424 129.812 55.7424C127.583 55.7424 125.783 55.6992 125.783 55.6488C125.783 55.5984 127.583 55.5552 129.812 55.5552C132.04 55.5552 133.84 55.5984 133.84 55.6488Z" fill="#37474F"/>
<path d="M158.378 37.0007H139.223V148.18H158.378V37.0007Z" fill="#37474F"/>
<path opacity="0.1" d="M158.378 148.176L139.154 148.118V37.2922H158.31L158.378 148.176Z" fill="black"/>
<path d="M152.682 44.791H144.69V60.1882H152.682V44.791Z" fill="#E0E0E0"/>
<path d="M148.914 60.1918C148.86 60.1918 148.82 56.743 148.82 52.4914C148.82 48.2398 148.86 44.791 148.914 44.791C148.968 44.791 149.008 48.2398 149.008 52.4914C149.008 56.743 148.964 60.1918 148.914 60.1918Z" fill="#37474F"/>
<path d="M152.682 50.1407C152.682 50.1947 150.882 50.2343 148.686 50.2343C146.49 50.2343 144.69 50.1947 144.69 50.1407C144.69 50.0867 146.49 50.0471 148.686 50.0471C150.882 50.0471 152.682 50.0903 152.682 50.1407Z" fill="#37474F"/>
<path d="M152.726 55.6488C152.726 55.6992 150.926 55.7424 148.697 55.7424C146.469 55.7424 144.669 55.6992 144.669 55.6488C144.669 55.5984 146.469 55.5552 148.697 55.5552C150.926 55.5552 152.726 55.5984 152.726 55.6488Z" fill="#37474F"/>
<path d="M152.682 63.738H144.69V79.1352H152.682V63.738Z" fill="#E0E0E0"/>
<path d="M148.914 79.1352C148.86 79.1352 148.82 75.69 148.82 71.4384C148.82 67.1868 148.86 63.738 148.914 63.738C148.968 63.738 149.008 67.1832 149.008 71.4384C149.008 75.6936 148.964 79.1352 148.914 79.1352Z" fill="#37474F"/>
<path d="M152.682 69.0875C152.682 69.1379 150.882 69.1811 148.686 69.1811C146.49 69.1811 144.69 69.1379 144.69 69.0875C144.69 69.0371 146.49 68.9939 148.686 68.9939C150.882 68.9939 152.682 69.0335 152.682 69.0875Z" fill="#37474F"/>
<path d="M152.726 74.5956C152.726 74.646 150.926 74.6892 148.697 74.6892C146.469 74.6892 144.669 74.646 144.669 74.5956C144.669 74.5452 146.469 74.502 148.697 74.502C150.926 74.502 152.726 74.5416 152.726 74.5956Z" fill="#37474F"/>
<path opacity="0.3" d="M139.078 37.0007H120.909V148.18H139.078V37.0007Z" fill="black"/>
<path d="M110.753 66.7439C110.87 66.9979 110.882 67.2878 110.786 67.5503C110.687 67.8107 110.66 68.0929 110.707 68.3675C110.753 68.5403 110.869 68.6879 110.915 68.8607C110.962 69.0276 110.947 69.2058 110.873 69.3626C110.799 69.5193 110.671 69.644 110.512 69.7139L109.072 69.0623C109.439 68.4192 109.674 67.7093 109.763 66.9743" fill="#37474F"/>
<g opacity="0.5">
<path d="M110.753 66.7439C110.87 66.9979 110.882 67.2878 110.786 67.5503C110.687 67.8107 110.66 68.0929 110.707 68.3675C110.753 68.5403 110.869 68.6879 110.915 68.8607C110.962 69.0276 110.947 69.2058 110.873 69.3626C110.799 69.5193 110.671 69.644 110.512 69.7139L109.072 69.0623C109.439 68.4192 109.674 67.7093 109.763 66.9743" fill="black"/>
</g>
<path d="M106.985 66.4091C107.413 66.5099 106.7 67.2299 106.733 67.6691C106.814 68.1034 106.787 68.5509 106.654 68.9723C105.788 68.9838 104.931 68.7888 104.155 68.4035C104.357 67.5503 104.555 66.6935 104.756 65.8367C104.76 65.8367 106.603 66.3191 106.985 66.4091Z" fill="#37474F"/>
<path d="M130.028 59.2883H116.841V78.3467H130.028V59.2883Z" fill="#263238"/>
<path d="M141.89 59.2883H128.703V78.3467H141.89V59.2883Z" fill="#455A64"/>
<path d="M138.74 74.4983C138.735 74.4264 138.735 74.3542 138.74 74.2823C138.74 74.1311 138.74 73.9295 138.74 73.6775C138.74 73.1375 138.74 72.3743 138.715 71.4239C138.715 69.4943 138.689 66.7943 138.671 63.6371L138.761 63.7271H132.778C132.753 63.7451 132.955 63.5507 132.868 63.6335V66.6719C132.868 67.6619 132.868 68.6159 132.868 69.5519C132.868 71.3843 132.868 73.0583 132.85 74.5055L132.778 74.4335L137.131 74.4731L138.333 74.4911H138.65H138.765H138.664H138.362L137.159 74.5199L132.764 74.5595H132.695V74.4875C132.695 73.0475 132.695 71.3663 132.695 69.5339C132.695 68.6159 132.695 67.6619 132.695 66.6539C132.695 66.1607 132.695 65.6603 132.695 65.1527V63.6155L132.793 63.5183H138.776H138.862V63.6047C138.844 66.7871 138.83 69.5051 138.819 71.4491C138.819 72.3923 138.801 73.1483 138.797 73.6811C138.797 73.9295 138.797 74.1239 138.797 74.2715C138.786 74.3488 138.766 74.4248 138.74 74.4983Z" fill="#263238"/>
<path d="M137.541 69.6526C137.541 69.6778 137.469 69.7246 137.451 69.8434C137.442 69.8745 137.442 69.9076 137.451 69.9388C137.46 69.9701 137.477 69.9982 137.501 70.02C137.525 70.0417 137.555 70.0563 137.587 70.062C137.619 70.0677 137.652 70.0643 137.682 70.0522C137.713 70.0436 137.742 70.0261 137.764 70.0016C137.785 69.9772 137.8 69.9469 137.805 69.9145C137.81 69.882 137.805 69.8489 137.792 69.819C137.778 69.7891 137.756 69.7638 137.728 69.7462C137.642 69.6634 137.548 69.6814 137.541 69.6526C137.534 69.6238 137.635 69.5482 137.804 69.6526C137.852 69.6804 137.893 69.719 137.923 69.7652C137.954 69.8114 137.974 69.864 137.98 69.919C137.978 69.9911 137.954 70.0609 137.912 70.1194C137.87 70.1778 137.811 70.2221 137.743 70.2466C137.684 70.2716 137.618 70.2782 137.555 70.2656C137.492 70.253 137.435 70.2218 137.39 70.176C137.345 70.1303 137.315 70.072 137.303 70.0088C137.292 69.9457 137.299 69.8805 137.325 69.8218C137.401 69.631 137.545 69.6274 137.541 69.6526Z" fill="#263238"/>
<path d="M155.465 74.9808C155.465 74.9808 155.465 74.8944 155.465 74.7324C155.465 74.5704 155.465 74.3148 155.465 73.9944C155.465 73.3356 155.465 72.378 155.444 71.1143L155.487 71.1576C149.896 71.1864 138.207 71.208 124.685 71.208C110.8 71.208 98.8228 71.1864 93.3652 71.154L93.4048 71.1143C93.4048 72.1944 93.4048 73.0332 93.3868 73.6092C93.3868 73.8864 93.3868 74.0988 93.3868 74.25C93.3868 74.4012 93.3868 74.466 93.3868 74.466C93.3868 74.466 93.3868 74.394 93.3868 74.25C93.3868 74.106 93.3868 73.89 93.3868 73.6092C93.3868 73.0332 93.3868 72.198 93.3868 71.1143V71.0747H93.4264C98.8696 71.0423 110.847 71.0208 124.746 71.0208C138.254 71.0208 149.946 71.0424 155.548 71.0712H155.519V71.1143C155.519 72.3636 155.501 73.3212 155.498 73.9944C155.498 74.3148 155.498 74.556 155.498 74.7324C155.498 74.9088 155.465 74.9808 155.465 74.9808Z" fill="#263238"/>
<path d="M95.3488 74.8799C95.2564 74.2738 95.2251 73.6599 95.2552 73.0475C95.2251 72.4351 95.2564 71.8212 95.3488 71.2151C95.4434 71.821 95.4748 72.4351 95.4424 73.0475C95.4748 73.6599 95.4434 74.274 95.3488 74.8799Z" fill="#263238"/>
<path d="M97.7287 74.8799C97.6363 74.2738 97.605 73.6599 97.6351 73.0475C97.605 72.4351 97.6363 71.8212 97.7287 71.2151C97.8211 71.8212 97.8525 72.4351 97.8223 73.0475C97.8525 73.6599 97.8211 74.2738 97.7287 74.8799Z" fill="#263238"/>
<path d="M102.484 74.8799C102.471 74.8026 102.465 74.7243 102.466 74.6459C102.466 74.4767 102.466 74.2535 102.466 73.9799C102.466 73.3787 102.466 72.5399 102.438 71.5103C102.438 69.4007 102.416 66.5027 102.405 63.2303L102.499 63.3203H101.318H100.123L100.213 63.2267C100.213 66.4667 100.191 69.3755 100.184 71.4815C100.184 72.5111 100.162 73.3463 100.155 73.9439C100.155 74.2211 100.155 74.4407 100.137 74.6099C100.143 74.6877 100.143 74.766 100.137 74.8439C100.121 74.7669 100.115 74.6883 100.119 74.6099C100.119 74.4407 100.119 74.2211 100.119 73.9439C100.119 73.3463 100.101 72.5039 100.09 71.4815C100.09 69.3755 100.09 66.4775 100.062 63.2267V63.1331H100.155H101.354H102.535H102.628V63.2303C102.628 66.4703 102.607 69.3827 102.6 71.5103C102.6 72.5435 102.578 73.3787 102.571 73.9799C102.571 74.2535 102.571 74.4767 102.571 74.6459C102.55 74.7266 102.521 74.805 102.484 74.8799Z" fill="#263238"/>
<path d="M104.864 74.8799C104.769 74.274 104.738 73.6599 104.77 73.0475C104.738 72.4351 104.769 71.821 104.864 71.2151C104.956 71.8212 104.987 72.4351 104.957 73.0475C104.987 73.6599 104.956 74.2738 104.864 74.8799Z" fill="#263238"/>
<path d="M107.24 74.8799C107.148 74.2738 107.117 73.6599 107.147 73.0475C107.117 72.4351 107.148 71.8212 107.24 71.2151C107.335 71.821 107.366 72.4351 107.334 73.0475C107.366 73.6599 107.335 74.274 107.24 74.8799Z" fill="#263238"/>
<path d="M109.619 74.8799C109.527 74.2738 109.496 73.6599 109.526 73.0475C109.496 72.4351 109.527 71.8212 109.619 71.2151C109.712 71.8212 109.743 72.4351 109.713 73.0475C109.743 73.6599 109.712 74.2738 109.619 74.8799Z" fill="#263238"/>
<path d="M111.999 74.8799C111.905 74.274 111.874 73.6599 111.906 73.0475C111.874 72.4351 111.905 71.821 111.999 71.2151C112.092 71.8212 112.123 72.4351 112.093 73.0475C112.123 73.6599 112.092 74.2738 111.999 74.8799Z" fill="#263238"/>
<path d="M114.375 74.8799C114.283 74.2738 114.251 73.6599 114.282 73.0475C114.251 72.4351 114.283 71.8212 114.375 71.2151C114.47 71.821 114.501 72.4351 114.469 73.0475C114.501 73.6599 114.47 74.274 114.375 74.8799Z" fill="#263238"/>
<path d="M116.755 74.8799C116.663 74.2738 116.631 73.6599 116.661 73.0475C116.631 72.4351 116.663 71.8212 116.755 71.2151C116.848 71.8212 116.879 72.4351 116.849 73.0475C116.879 73.6599 116.848 74.2738 116.755 74.8799Z" fill="#263238"/>
<path d="M119.135 74.8799C119.038 74.2742 119.005 73.66 119.037 73.0475C119.005 72.435 119.038 71.8208 119.135 71.2151C119.227 71.8212 119.258 72.4351 119.228 73.0475C119.258 73.6599 119.227 74.2738 119.135 74.8799Z" fill="#263238"/>
<path d="M121.51 74.8799C121.418 74.2738 121.386 73.6599 121.416 73.0475C121.386 72.4351 121.418 71.8212 121.51 71.2151C121.605 71.821 121.636 72.4351 121.604 73.0475C121.636 73.6599 121.605 74.274 121.51 74.8799Z" fill="#263238"/>
<path d="M123.89 74.8799C123.796 74.274 123.764 73.6599 123.796 73.0475C123.764 72.4351 123.796 71.821 123.89 71.2151C123.983 71.8212 124.014 72.4351 123.984 73.0475C124.014 73.6599 123.983 74.2738 123.89 74.8799Z" fill="#263238"/>
<path d="M126.266 74.8799C126.173 74.2738 126.142 73.6599 126.172 73.0475C126.142 72.4351 126.173 71.8212 126.266 71.2151C126.36 71.821 126.392 72.4351 126.359 73.0475C126.392 73.6599 126.36 74.274 126.266 74.8799Z" fill="#263238"/>
<path d="M128.646 74.8799C128.553 74.2738 128.522 73.6599 128.552 73.0475C128.522 72.4351 128.553 71.8212 128.646 71.2151C128.738 71.8212 128.769 72.4351 128.739 73.0475C128.769 73.6599 128.738 74.2738 128.646 74.8799Z" fill="#263238"/>
<path d="M131.04 74.8799C130.945 74.274 130.914 73.6599 130.946 73.0475C130.914 72.4351 130.945 71.821 131.04 71.2151C131.132 71.8212 131.163 72.4351 131.133 73.0475C131.163 73.6599 131.132 74.2738 131.04 74.8799Z" fill="#263238"/>
<path d="M133.402 74.8799C133.309 74.2738 133.278 73.6599 133.308 73.0475C133.278 72.4351 133.309 71.8212 133.402 71.2151C133.496 71.821 133.528 72.4351 133.495 73.0475C133.528 73.6599 133.496 74.274 133.402 74.8799Z" fill="#263238"/>
<path d="M135.781 74.8799C135.686 74.274 135.655 73.6599 135.687 73.0475C135.655 72.4351 135.686 71.821 135.781 71.2151C135.873 71.8212 135.904 72.4351 135.874 73.0475C135.904 73.6599 135.873 74.2738 135.781 74.8799Z" fill="#263238"/>
<path d="M138.16 74.8799C138.063 74.2742 138.031 73.66 138.063 73.0475C138.031 72.435 138.063 71.8208 138.16 71.2151C138.252 71.8212 138.284 72.4351 138.254 73.0475C138.284 73.6599 138.252 74.2738 138.16 74.8799Z" fill="#263238"/>
<path d="M140.536 74.8799C140.444 74.2738 140.413 73.6599 140.443 73.0475C140.413 72.4351 140.444 71.8212 140.536 71.2151C140.631 71.821 140.662 72.4351 140.63 73.0475C140.662 73.6599 140.631 74.274 140.536 74.8799Z" fill="#263238"/>
<path d="M142.919 74.8799C142.825 74.274 142.793 73.6599 142.826 73.0475C142.793 72.4351 142.825 71.821 142.919 71.2151C143.012 71.8212 143.043 72.4351 143.013 73.0475C143.043 73.6599 143.012 74.2738 142.919 74.8799Z" fill="#263238"/>
<path d="M145.292 74.8799C145.2 74.2738 145.168 73.6599 145.199 73.0475C145.168 72.4351 145.2 71.8212 145.292 71.2151C145.387 71.821 145.418 72.4351 145.386 73.0475C145.418 73.6599 145.387 74.274 145.292 74.8799Z" fill="#263238"/>
<path d="M147.672 74.8799C147.58 74.2738 147.548 73.6599 147.578 73.0475C147.548 72.4351 147.58 71.8212 147.672 71.2151C147.764 71.8212 147.796 72.4351 147.766 73.0475C147.796 73.6599 147.764 74.2738 147.672 74.8799Z" fill="#263238"/>
<path d="M150.051 74.8799C149.957 74.274 149.925 73.6599 149.958 73.0475C149.925 72.4351 149.957 71.821 150.051 71.2151C150.144 71.8212 150.175 72.4351 150.145 73.0475C150.175 73.6599 150.144 74.2738 150.051 74.8799Z" fill="#263238"/>
<path d="M152.427 74.8799C152.335 74.2738 152.303 73.6599 152.333 73.0475C152.303 72.4351 152.335 71.8212 152.427 71.2151C152.522 71.821 152.553 72.4351 152.521 73.0475C152.553 73.6599 152.522 74.274 152.427 74.8799Z" fill="#263238"/>
<path d="M154.799 74.8799C154.705 74.274 154.673 73.6599 154.706 73.0475C154.673 72.4351 154.705 71.821 154.799 71.2151C154.892 71.8212 154.923 72.4351 154.893 73.0475C154.923 73.6599 154.892 74.2738 154.799 74.8799Z" fill="#263238"/>
<path d="M155.465 74.4984C155.465 74.5488 148.125 74.592 139.074 74.592C130.024 74.592 122.684 74.5488 122.684 74.4984C122.684 74.448 130.02 74.4048 139.074 74.4048C148.128 74.4048 155.465 74.448 155.465 74.4984Z" fill="#263238"/>
<path d="M155.466 74.4983H100.789V148.194H155.466V74.4983Z" fill="#455A64"/>
<path d="M122.684 74.4983H93.3584V148.194H122.684V74.4983Z" fill="#263238"/>
<path d="M151.455 114.484H141.454V124.484H151.455V114.484Z" fill="#EBEBEB"/>
<path d="M146.837 125.489C146.786 125.489 146.743 122.904 146.743 119.729C146.743 116.554 146.786 113.969 146.837 113.969C146.887 113.969 146.93 116.554 146.93 119.729C146.93 122.904 146.88 125.489 146.837 125.489Z" fill="#455A64"/>
<path d="M153.331 117.835C153.331 117.889 150.426 117.929 146.851 117.929C143.276 117.929 140.371 117.889 140.371 117.835C140.371 117.781 143.276 117.741 146.851 117.741C150.426 117.741 153.331 117.785 153.331 117.835Z" fill="#455A64"/>
<path d="M137.192 114.484H127.191V124.484H137.192V114.484Z" fill="#EBEBEB"/>
<path d="M132.573 125.489C132.523 125.489 132.479 122.904 132.479 119.729C132.479 116.554 132.523 113.969 132.573 113.969C132.623 113.969 132.667 116.554 132.667 119.729C132.667 122.904 132.627 125.489 132.573 125.489Z" fill="#455A64"/>
<path d="M139.071 117.835C139.071 117.889 136.162 117.929 132.573 117.929C128.984 117.929 126.093 117.889 126.093 117.835C126.093 117.781 129.002 117.741 132.573 117.741C136.144 117.741 139.071 117.785 139.071 117.835Z" fill="#455A64"/>
<path d="M151.455 98.6831H141.454V108.684H151.455V98.6831Z" fill="#EBEBEB"/>
<path d="M146.837 109.688C146.786 109.688 146.743 107.103 146.743 103.928C146.743 100.753 146.786 98.1682 146.837 98.1682C146.887 98.1682 146.93 100.749 146.93 103.928C146.93 107.107 146.88 109.688 146.837 109.688Z" fill="#455A64"/>
<path d="M153.331 102.038C153.331 102.089 150.426 102.132 146.851 102.132C143.276 102.132 140.371 102.089 140.371 102.038C140.371 101.988 143.276 101.945 146.851 101.945C150.426 101.945 153.331 101.984 153.331 102.038Z" fill="#455A64"/>
<path d="M137.192 98.6831H127.191V108.684H137.192V98.6831Z" fill="#EBEBEB"/>
<path d="M132.573 109.688C132.523 109.688 132.479 107.103 132.479 103.928C132.479 100.753 132.523 98.1682 132.573 98.1682C132.623 98.1682 132.667 100.749 132.667 103.928C132.667 107.107 132.627 109.688 132.573 109.688Z" fill="#455A64"/>
<path d="M139.071 102.038C139.071 102.089 136.162 102.132 132.573 102.132C128.984 102.132 126.093 102.089 126.093 102.038C126.093 101.988 129.002 101.945 132.573 101.945C136.144 101.945 139.071 101.984 139.071 102.038Z" fill="#455A64"/>
<path d="M151.455 82.8467H141.454V92.8475H151.455V82.8467Z" fill="#EBEBEB"/>
<path d="M146.837 93.852C146.786 93.852 146.743 91.2672 146.743 88.092C146.743 84.9168 146.786 82.332 146.837 82.332C146.887 82.332 146.93 84.9168 146.93 88.092C146.93 91.2672 146.88 93.852 146.837 93.852Z" fill="#455A64"/>
<path d="M153.331 86.202C153.331 86.2524 150.426 86.2956 146.851 86.2956C143.276 86.2956 140.371 86.2524 140.371 86.202C140.371 86.1516 143.276 86.1084 146.851 86.1084C150.426 86.1084 153.331 86.1516 153.331 86.202Z" fill="#455A64"/>
<path d="M137.192 82.8467H127.191V92.8475H137.192V82.8467Z" fill="#EBEBEB"/>
<path d="M132.573 93.852C132.523 93.852 132.479 91.2672 132.479 88.092C132.479 84.9168 132.523 82.332 132.573 82.332C132.623 82.332 132.667 84.9168 132.667 88.092C132.667 91.2672 132.627 93.852 132.573 93.852Z" fill="#455A64"/>
<path d="M139.071 86.202C139.071 86.2524 136.162 86.2956 132.573 86.2956C128.984 86.2956 126.093 86.2524 126.093 86.202C126.093 86.1516 129.002 86.1084 132.573 86.1084C136.144 86.1084 139.071 86.1516 139.071 86.202Z" fill="#455A64"/>
<g opacity="0.7">
<path d="M112.64 82.8467H102.64V92.8475H112.64V82.8467Z" fill="white"/>
</g>
<path d="M107.64 93.852C107.586 93.852 107.546 91.2672 107.546 88.092C107.546 84.9168 107.586 82.332 107.64 82.332C107.694 82.332 107.733 84.9168 107.733 88.092C107.733 91.2672 107.69 93.852 107.64 93.852Z" fill="#263238"/>
<path d="M114.519 86.202C114.519 86.2524 111.61 86.2956 108.021 86.2956C104.432 86.2956 101.541 86.2524 101.541 86.202C101.541 86.1516 104.45 86.1084 108.021 86.1084C111.592 86.1084 114.519 86.1516 114.519 86.202Z" fill="#263238"/>
<g opacity="0.7">
<path d="M112.64 98.8416H102.64V108.842H112.64V98.8416Z" fill="white"/>
</g>
<path d="M107.64 109.843C107.586 109.843 107.546 107.258 107.546 104.083C107.546 100.908 107.586 98.3232 107.64 98.3232C107.694 98.3232 107.733 100.908 107.733 104.083C107.733 107.258 107.69 109.843 107.64 109.843Z" fill="#263238"/>
<path d="M114.519 102.193C114.519 102.244 111.61 102.287 108.021 102.287C104.432 102.287 101.541 102.244 101.541 102.193C101.541 102.143 104.45 102.1 108.021 102.1C111.592 102.1 114.519 102.143 114.519 102.193Z" fill="#263238"/>
<g opacity="0.7">
<path d="M112.64 114.833H102.64V124.834H112.64V114.833Z" fill="white"/>
</g>
<path d="M107.64 125.834C107.586 125.834 107.546 123.253 107.546 120.074C107.546 116.896 107.586 114.314 107.64 114.314C107.694 114.314 107.733 116.899 107.733 120.074C107.733 123.25 107.69 125.834 107.64 125.834Z" fill="#263238"/>
<path d="M114.519 118.184C114.519 118.235 111.61 118.278 108.021 118.278C104.432 118.278 101.541 118.235 101.541 118.184C101.541 118.134 104.45 118.091 108.021 118.091C111.592 118.091 114.519 118.134 114.519 118.184Z" fill="#263238"/>
<path d="M144 148.176C143.994 148.146 143.994 148.116 144 148.086V147.823C144 147.578 144 147.236 144 146.801C144 145.901 144 144.608 143.975 142.995C143.975 139.755 143.953 135.201 143.942 130.003L144.032 130.093H133.751L133.841 130.003C133.841 135.245 133.819 139.827 133.808 143.111C133.808 144.738 133.79 146.045 133.783 146.955C133.783 147.398 133.783 147.74 133.783 147.989C133.783 148.097 133.783 148.187 133.783 148.255C133.789 148.285 133.789 148.315 133.783 148.345C133.778 148.315 133.778 148.285 133.783 148.255C133.783 148.187 133.783 148.097 133.783 147.989C133.783 147.74 133.783 147.398 133.783 146.955C133.783 146.045 133.783 144.738 133.758 143.111C133.758 139.827 133.736 135.245 133.726 130.003V129.909H144.166V130.003C144.166 135.201 144.144 139.741 144.133 142.995C144.133 144.608 144.115 145.901 144.108 146.801C144.108 147.236 144.108 147.578 144.108 147.823V148.086C144.082 148.126 144.044 148.157 144 148.176Z" fill="#263238"/>
<path d="M138.531 131.08H135.039V139.442H138.531V131.08Z" fill="#E0E0E0"/>
<path d="M138.542 139.453H135.032V131.072H138.542V139.453ZM135.05 139.431H138.524V131.09H135.05V139.431Z" fill="#263238"/>
<path d="M142.707 131.08H139.215V139.442H142.707V131.08Z" fill="#E0E0E0"/>
<path d="M142.718 139.453H139.208V131.072H142.718V139.453ZM139.226 139.431H142.7V131.09H139.226V139.431Z" fill="#263238"/>
<path d="M142.783 140.306C142.783 140.306 142.819 140.278 142.894 140.285C142.949 140.294 143.001 140.316 143.046 140.348C143.091 140.38 143.128 140.423 143.154 140.472C143.196 140.543 143.221 140.623 143.227 140.706C143.233 140.788 143.219 140.871 143.186 140.947C143.14 141.044 143.064 141.122 142.969 141.172C142.874 141.221 142.766 141.238 142.66 141.221C142.555 141.195 142.461 141.137 142.391 141.054C142.321 140.971 142.279 140.868 142.272 140.76C142.264 140.676 142.279 140.591 142.317 140.515C142.354 140.44 142.412 140.376 142.484 140.332C142.729 140.18 142.909 140.288 142.891 140.303C142.873 140.317 142.725 140.303 142.563 140.436C142.519 140.472 142.485 140.519 142.464 140.572C142.443 140.625 142.437 140.682 142.444 140.738C142.456 140.805 142.485 140.866 142.53 140.917C142.574 140.967 142.632 141.004 142.696 141.023C142.763 141.031 142.83 141.02 142.89 140.989C142.949 140.959 142.999 140.912 143.031 140.854C143.055 140.801 143.068 140.744 143.068 140.686C143.068 140.628 143.055 140.571 143.031 140.519C142.952 140.335 142.776 140.335 142.783 140.306Z" fill="#263238"/>
<path d="M153.532 129.999C153.532 129.999 153.532 129.956 153.532 129.873C153.532 129.791 153.532 129.657 153.532 129.513C153.532 129.175 153.532 128.736 153.532 128.196L153.557 128.221H147.722C147.74 128.203 147.682 128.257 147.758 128.181V129.981L147.722 129.945L151.883 129.963H153.107H153.557H153.449H153.125H151.908H147.722H147.686V128.135C147.761 128.059 147.707 128.113 147.725 128.099H153.561H153.586V128.12C153.586 128.664 153.586 129.11 153.586 129.452C153.586 129.585 153.586 129.701 153.586 129.812C153.586 129.924 153.532 129.999 153.532 129.999Z" fill="#263238"/>
<path d="M130.831 126.281C130.831 126.281 130.831 126.237 130.831 126.155C130.831 126.072 130.831 125.939 130.831 125.795C130.831 125.46 130.831 125.021 130.831 124.481L130.852 124.506H125.017C125.035 124.506 124.981 124.545 125.056 124.47V125.381C125.056 125.679 125.056 125.975 125.056 126.259L125.02 126.223L129.186 126.241H130.41H130.856C130.82 126.245 130.784 126.245 130.748 126.241H130.424H129.211H125.02H124.984V124.416L125.02 124.38H130.856H130.881V124.405C130.881 124.949 130.881 125.395 130.881 125.733C130.881 125.87 130.881 125.985 130.881 126.093C130.881 126.201 130.831 126.281 130.831 126.281Z" fill="#263238"/>
<path d="M127.191 111.657C127.191 111.657 127.191 111.611 127.191 111.531C127.191 111.452 127.191 111.312 127.191 111.171C127.191 110.837 127.191 110.394 127.191 109.857L127.216 109.879H121.381L121.417 109.843V111.643L121.381 111.607H125.542H126.766H127.097H126.777H125.56L121.373 111.625H121.319V111.589C121.319 111.305 121.319 111.009 121.319 110.711V109.8L121.359 109.76H127.195H127.216V109.785C127.216 110.329 127.216 110.775 127.216 111.114C127.216 111.251 127.216 111.366 127.216 111.474C127.216 111.582 127.191 111.657 127.191 111.657Z" fill="#263238"/>
<path d="M148.168 95.9184C148.168 95.9184 148.168 95.8716 148.168 95.7924C148.168 95.7132 148.168 95.5728 148.168 95.4324C148.168 95.0976 148.168 94.6548 148.168 94.1184L148.193 94.14H142.358L142.397 94.104V94.5576C142.397 94.7124 142.397 94.8636 142.397 95.0148V95.8932L142.361 95.8572H146.523H147.747H148.078H147.765H146.548L142.361 95.8752H142.325V94.05C142.401 93.9744 142.347 94.0284 142.361 94.0104H148.197H148.222V94.0356C148.222 94.5792 148.222 95.0256 148.222 95.364C148.222 95.5008 148.222 95.616 148.222 95.724C148.222 95.832 148.168 95.9184 148.168 95.9184Z" fill="#263238"/>
<path d="M131.562 79.1208C131.562 79.1208 131.562 79.074 131.562 78.9912V78.6312C131.562 78.2928 131.562 77.8536 131.562 77.3136L131.584 77.3388H125.752C125.752 77.3388 125.712 77.3748 125.788 77.2992V79.0992L125.752 79.0596L129.913 79.0776H131.137H131.468H131.584H131.155H129.938H125.752H125.712V77.328L125.752 77.292H131.584H131.609V77.3136C131.609 77.8608 131.609 78.3036 131.609 78.6456C131.609 78.7788 131.609 78.894 131.609 79.0056C131.609 79.1172 131.562 79.1208 131.562 79.1208Z" fill="#263238"/>
<path d="M151.704 97.6572C151.704 97.6572 151.704 97.614 151.704 97.5312C151.704 97.4484 151.704 97.3152 151.704 97.1712C151.704 96.8328 151.704 96.3936 151.704 95.8536L151.725 95.8788H145.89C145.908 95.8788 145.854 95.9184 145.929 95.8428V96.7536C145.929 97.0524 145.929 97.3476 145.929 97.632L145.893 97.596L150.059 97.614H151.283H151.729C151.693 97.6175 151.657 97.6175 151.621 97.614H151.297H150.084H145.893H145.857V95.868L145.893 95.832H151.729H151.754V95.8572C151.754 96.4008 151.754 96.8472 151.754 97.1892C151.754 97.3224 151.754 97.4376 151.754 97.5492C151.754 97.6608 151.704 97.6572 151.704 97.6572Z" fill="#263238"/>
<path d="M124.686 113.418C124.686 113.418 124.686 113.375 124.686 113.292C124.686 113.209 124.686 113.076 124.686 112.932C124.686 112.597 124.686 112.154 124.686 111.618L124.707 111.639H118.872C118.89 111.639 118.836 111.679 118.911 111.603V112.514C118.911 112.813 118.911 113.108 118.911 113.393L118.875 113.357H123.041H124.265H124.596H124.272H123.059H118.868H118.8V111.531C118.875 111.456 118.821 111.51 118.836 111.492H124.671H124.697V111.517C124.697 112.061 124.697 112.507 124.697 112.845C124.697 112.982 124.697 113.097 124.697 113.205C124.697 113.313 124.686 113.418 124.686 113.418Z" fill="#263238"/>
<path d="M127.191 80.9172C127.191 80.9172 127.191 80.8704 127.191 80.7912C127.191 80.712 127.191 80.5716 127.191 80.4312C127.191 80.0928 127.191 79.6536 127.191 79.1172L127.216 79.1388H121.381C121.381 79.1388 121.341 79.1748 121.417 79.1028V80.9028L121.381 80.8668H125.542H126.766H127.079H127.198H126.766H125.549L121.363 80.8848H121.319V80.8488C121.319 80.5608 121.319 80.2692 121.319 79.9668V79.056L121.359 79.0164H127.195H127.216V79.0416C127.216 79.584 127.216 80.0268 127.216 80.37C127.216 80.5068 127.216 80.622 127.216 80.73C127.216 80.838 127.191 80.9172 127.191 80.9172Z" fill="#263238"/>
<path d="M155.426 131.799C155.426 131.799 155.426 131.756 155.426 131.673C155.426 131.591 155.426 131.457 155.426 131.313C155.426 130.979 155.426 130.539 155.426 129.999L155.451 130.025H149.615L149.651 129.989V131.789L149.615 131.753L153.777 131.771H155.001H155.332H155.012H153.795H149.608H149.572V131.735C149.572 131.45 149.572 131.155 149.572 130.856V129.945C149.648 129.87 149.594 129.924 149.612 129.909H155.447H155.469V129.935C155.469 130.478 155.469 130.925 155.469 131.263C155.469 131.4 155.469 131.515 155.469 131.623C155.469 131.731 155.426 131.799 155.426 131.799Z" fill="#263238"/>
<path d="M121.424 63.7199C121.368 63.7736 121.307 63.8207 121.24 63.8603C121.114 63.9467 120.934 64.0799 120.689 64.2203C119.997 64.6495 119.275 65.0296 118.529 65.3579C116.074 66.4554 113.408 67.0033 110.719 66.9636C108.03 66.9238 105.381 66.2971 102.959 65.1275C102.228 64.7783 101.521 64.3777 100.846 63.9287C100.605 63.7739 100.432 63.6371 100.31 63.5471C100.244 63.5064 100.184 63.4581 100.13 63.4031C100.199 63.4358 100.265 63.4743 100.328 63.5183C100.457 63.5939 100.641 63.7235 100.886 63.8783C101.572 64.3016 102.284 64.6827 103.017 65.0195C105.432 66.1456 108.058 66.7481 110.722 66.7872C113.386 66.8262 116.029 66.3011 118.475 65.2463C119.216 64.9299 119.938 64.5693 120.635 64.1663C120.887 64.0295 121.071 63.9071 121.204 63.8351C121.273 63.7886 121.347 63.75 121.424 63.7199Z" fill="#263238"/>
<path d="M120.676 63.1475C120.627 63.1907 120.574 63.2281 120.517 63.2591L120.035 63.5507L119.675 63.7559C119.545 63.8279 119.398 63.8963 119.243 63.9755C118.93 64.1231 118.584 64.3139 118.163 64.4651L117.526 64.7207C117.302 64.8071 117.061 64.8719 116.806 64.9547C116.285 65.1241 115.757 65.2671 115.222 65.3831C112.761 65.9226 110.215 65.9397 107.748 65.4335C107.183 65.3039 106.646 65.1923 106.157 65.0267C105.912 64.9511 105.671 64.8863 105.437 64.8035L104.796 64.5551C104.428 64.4156 104.068 64.257 103.716 64.0799C103.558 64.0043 103.41 63.9395 103.28 63.8711L102.92 63.6659L102.434 63.3815C102.375 63.3529 102.32 63.3153 102.272 63.2699C102.337 63.2891 102.398 63.3156 102.456 63.3491L102.953 63.6011L103.313 63.7883C103.446 63.8531 103.594 63.9143 103.752 63.9863C104.069 64.1195 104.422 64.2959 104.832 64.4327L105.473 64.6667C105.696 64.7459 105.937 64.8035 106.193 64.8791C106.679 65.0375 107.215 65.1419 107.773 65.2643C108.996 65.4969 110.237 65.6174 111.481 65.6243C112.723 65.6052 113.961 65.4715 115.178 65.2247C115.736 65.0915 116.258 64.9799 116.755 64.8179C116.996 64.7387 117.234 64.6775 117.457 64.5947L118.094 64.3535C118.505 64.2095 118.854 64.0295 119.174 63.8891C119.329 63.8171 119.477 63.7559 119.61 63.6875L119.97 63.4967L120.463 63.2375C120.528 63.1957 120.6 63.1653 120.676 63.1475Z" fill="#263238"/>
<path d="M110.782 66.7798C110.565 66.9458 110.389 67.16 110.268 67.4055C110.148 67.651 110.086 67.9211 110.087 68.1946C110.104 68.5365 110.052 68.8782 109.932 69.199C109.832 69.3488 109.696 69.4711 109.536 69.5547C109.376 69.6384 109.198 69.6807 109.018 69.6778C108.658 69.6656 108.302 69.5913 107.967 69.4582C108.353 69.0246 108.617 68.4968 108.734 67.9282C108.764 67.6842 108.816 67.4433 108.888 67.2082C108.924 67.0926 108.985 66.9866 109.067 66.898C109.15 66.8095 109.251 66.7407 109.364 66.697L110.782 66.7798Z" fill="#37474F"/>
<path d="M113.353 66.5676C113.203 66.6363 113.074 66.741 112.975 66.8723C112.876 67.0037 112.812 67.1575 112.787 67.32C112.748 67.6512 112.748 67.986 112.787 68.3172C112.823 68.6495 112.764 68.9851 112.618 69.2856C113.388 69.414 114.179 69.2551 114.839 68.8392C114.581 68.004 114.655 67.1016 115.045 66.3192C115.045 66.3192 115.066 66.2688 114.958 66.2616C114.85 66.2544 113.353 66.5676 113.353 66.5676Z" fill="#37474F"/>
<path d="M73.328 113.08H58.0244V148.194H73.328V113.08Z" fill="#37474F"/>
<g opacity="0.3">
<path d="M73.328 113.08H58.0244V148.194H73.328V113.08Z" fill="black"/>
</g>
<path d="M54.4463 112.936H92.1995L99.2555 102.921L106.65 113.22L115.34 113.08L105.973 100.465L66.0491 100.631L54.4463 112.936Z" fill="#37474F"/>
<g opacity="0.3">
<path d="M54.4463 112.936H92.1995L99.2555 102.921L106.65 113.22L115.34 113.08L105.973 100.465L66.0491 100.631L54.4463 112.936Z" fill="black"/>
</g>
<path d="M73.3242 113.08V148.194H111.027V113.08H106.707L99.255 102.92L92.1774 112.925L73.3242 113.08Z" fill="#37474F"/>
<path d="M87.4802 148.194C87.4756 148.169 87.4756 148.143 87.4802 148.118C87.4802 148.061 87.4802 147.985 87.4802 147.899C87.4802 147.69 87.4802 147.406 87.4802 147.042C87.4802 146.282 87.4802 145.202 87.4514 143.856C87.4514 141.127 87.4334 137.326 87.419 132.97L87.5126 133.06H78.6926L78.7826 132.97C78.7826 137.326 78.761 141.127 78.7502 143.856C78.7502 145.202 78.7502 146.282 78.725 147.042C78.725 147.402 78.725 147.69 78.725 147.899C78.725 147.985 78.725 148.061 78.725 148.118C78.725 148.176 78.725 148.194 78.725 148.194C78.7219 148.169 78.7219 148.144 78.725 148.118V147.899C78.725 147.69 78.725 147.406 78.707 147.042C78.707 146.282 78.707 145.202 78.6818 143.856C78.6818 141.127 78.6602 137.326 78.6494 132.97V132.88H87.6494V132.97C87.6494 137.326 87.6242 141.127 87.617 143.856C87.617 145.202 87.5954 146.282 87.5882 147.042C87.5882 147.402 87.5882 147.69 87.5882 147.899V148.118C87.4802 148.169 87.4802 148.194 87.4802 148.194Z" fill="#263238"/>
<path d="M106.65 115.319H92.7578V123.923H106.65V115.319Z" fill="white"/>
<path d="M86.5515 115.395H77.7891V123.689H86.5515V115.395Z" fill="white"/>
<path d="M96.7674 124.002C96.717 124.002 96.6738 122.058 96.6738 119.66C96.6738 117.263 96.717 115.319 96.7674 115.319C96.8178 115.319 96.861 117.263 96.861 119.66C96.861 122.058 96.8394 124.002 96.7674 124.002Z" fill="#37474F"/>
<path d="M102.546 124.002C102.495 124.002 102.452 122.058 102.452 119.66C102.452 117.263 102.495 115.319 102.546 115.319C102.596 115.319 102.639 117.263 102.639 119.66C102.639 122.058 102.6 124.002 102.546 124.002Z" fill="#37474F"/>
<path d="M102.546 119.923C101.589 120.016 100.627 120.047 99.6661 120.017C98.7051 120.047 97.7432 120.015 96.7861 119.923C97.743 119.829 98.7051 119.798 99.6661 119.83C100.627 119.797 101.589 119.829 102.546 119.923Z" fill="#37474F"/>
<path d="M82.1698 123.693C82.1194 123.693 82.0762 121.835 82.0762 119.542C82.0762 117.249 82.1194 115.395 82.1698 115.395C82.2202 115.395 82.2634 117.252 82.2634 119.542C82.2634 121.831 82.2238 123.693 82.1698 123.693Z" fill="#37474F"/>
<path d="M86.5515 119.747C86.5515 119.797 84.5895 119.841 82.1703 119.841C79.7511 119.841 77.7891 119.797 77.7891 119.747C77.7891 119.697 79.7511 119.653 82.1703 119.653C84.5895 119.653 86.5515 119.697 86.5515 119.747Z" fill="#37474F"/>
<path d="M101.091 109.624C101.09 109.991 100.981 110.35 100.776 110.655C100.572 110.96 100.281 111.197 99.942 111.337C99.6025 111.477 99.2291 111.514 98.869 111.442C98.5089 111.369 98.1782 111.192 97.9188 110.932C97.6593 110.672 97.4828 110.341 97.4114 109.981C97.34 109.621 97.377 109.248 97.5177 108.908C97.6584 108.569 97.8965 108.279 98.2019 108.075C98.5073 107.871 98.8663 107.762 99.2336 107.762C99.4778 107.762 99.7197 107.811 99.9453 107.904C100.171 107.998 100.376 108.135 100.548 108.308C100.721 108.481 100.858 108.686 100.951 108.912C101.044 109.137 101.092 109.379 101.091 109.624Z" fill="white"/>
<path d="M85.9821 107.345L88.3257 104.451V97.4954H83.4189V107.399L85.9821 107.345Z" fill="#37474F"/>
<g opacity="0.3">
<path d="M85.9824 107.345V97.4954H88.326V104.451L85.9824 107.345Z" fill="black"/>
</g>
<path d="M88.6609 96.4729H82.8721V97.4953H88.6609V96.4729Z" fill="#37474F"/>
<path d="M54.4463 112.936V113.954H92.1779V112.925L54.4463 112.936Z" fill="#37474F"/>
<path d="M92.1777 113.954L99.2337 104.047L99.2553 102.92L92.1993 112.936L92.1777 113.954Z" fill="#37474F"/>
<path d="M115.16 113.08H106.707V113.735H115.16V113.08Z" fill="#37474F"/>
<path d="M84.4633 130.637H81.3457V131.821H84.4633V130.637Z" fill="#263238"/>
<path d="M86.7603 140.652C86.7315 140.652 86.7387 140.454 86.5299 140.292C86.4712 140.253 86.4039 140.228 86.3336 140.221C86.2634 140.213 86.1924 140.223 86.1267 140.249C86.0485 140.279 85.9814 140.333 85.9341 140.402C85.8868 140.472 85.8615 140.554 85.8615 140.638C85.8615 140.722 85.8868 140.804 85.9341 140.873C85.9814 140.942 86.0485 140.996 86.1267 141.026C86.1926 141.052 86.2638 141.061 86.3341 141.053C86.4043 141.045 86.4715 141.02 86.5299 140.98C86.7387 140.832 86.7315 140.62 86.7603 140.638C86.7891 140.656 86.8503 140.854 86.6055 141.08C86.532 141.142 86.444 141.183 86.35 141.2C86.2561 141.217 86.1593 141.209 86.0691 141.178C85.9572 141.138 85.8604 141.065 85.7919 140.969C85.7233 140.872 85.6865 140.756 85.6865 140.638C85.6865 140.519 85.7233 140.404 85.7919 140.307C85.8604 140.21 85.9572 140.137 86.0691 140.098C86.1593 140.066 86.2561 140.059 86.35 140.076C86.444 140.093 86.532 140.134 86.6055 140.195C86.8503 140.432 86.7783 140.666 86.7603 140.652Z" fill="#263238"/>
<path d="M79.6898 127.188C79.6871 127.152 79.6871 127.116 79.6898 127.08C79.6898 126.99 79.6898 126.889 79.6898 126.774V125.64L79.715 125.665H74.675C74.693 125.647 74.639 125.701 74.711 125.626V127.166L74.675 127.13H78.2534H79.3082H79.5926H79.3262H78.2786H74.6786H74.6426V125.64L74.6786 125.604H79.7186H79.7402V125.64C79.7402 126.104 79.7402 126.486 79.7402 126.788C79.7402 126.9 79.7402 127.001 79.7402 127.087C79.7402 127.174 79.6898 127.188 79.6898 127.188Z" fill="#263238"/>
<path d="M63.0435 122.368C63.0435 122.368 63.0435 122.328 63.0435 122.26C63.0435 122.191 63.0435 122.069 63.0435 121.954C63.0435 121.655 63.0435 121.277 63.0435 120.82L63.0651 120.845H58.0467C58.0467 120.827 58.0071 120.881 58.0827 120.805V122.346L58.0467 122.31H61.6251H62.6799H62.9643C62.9978 122.306 63.0316 122.306 63.0651 122.31H62.7051H61.6575L58.0575 122.328H58.0215V122.292C58.0215 122.047 58.0215 121.792 58.0215 121.536V120.751L58.0611 120.715H63.0795H63.1047V120.737C63.1047 121.201 63.1047 121.583 63.1047 121.885C63.1047 121.997 63.1047 122.098 63.1047 122.184C63.0959 122.249 63.0751 122.311 63.0435 122.368Z" fill="#263238"/>
<path d="M66.049 120.816C66.0459 120.78 66.0459 120.744 66.049 120.708C66.049 120.618 66.049 120.517 66.049 120.402C66.049 120.107 66.049 119.729 66.049 119.272L66.0742 119.297H61.0522C61.0522 119.297 61.0162 119.337 61.0918 119.261V120.039C61.0918 120.298 61.0918 120.55 61.0918 120.795L61.0558 120.759L64.6378 120.777H65.689H66.0778H65.9842H65.707H64.6594H61.0594H61.0234V119.203C61.099 119.128 61.045 119.182 61.0594 119.164H66.0814H66.1066V119.189C66.1066 119.653 66.1066 120.035 66.1066 120.334C66.1066 120.449 66.1066 120.546 66.1066 120.636C66.0938 120.698 66.0745 120.758 66.049 120.816Z" fill="#263238"/>
<path d="M81.3169 128.736C81.3169 128.736 81.3169 128.697 81.3169 128.625C81.3169 128.553 81.3169 128.437 81.3169 128.322C81.3169 128.023 81.3169 127.645 81.3169 127.188L81.3421 127.213H76.3201L76.3597 127.174V127.959C76.3597 128.214 76.3597 128.47 76.3597 128.715L76.3237 128.679H79.9057H80.9569H81.2449C81.2783 128.675 81.3122 128.675 81.3457 128.679H80.9857H79.9417L76.3417 128.697H76.3057V127.12L76.3417 127.084H81.3637H81.3601V127.105C81.3601 127.57 81.3601 127.951 81.3601 128.254C81.3601 128.365 81.3601 128.466 81.3601 128.553C81.3601 128.639 81.3169 128.736 81.3169 128.736Z" fill="#263238"/>
<path d="M111.028 131.44C111.028 131.44 111.028 131.4 111.028 131.332C111.028 131.263 111.028 131.141 111.028 131.026C111.028 130.727 111.028 130.353 111.028 129.895L111.05 129.917H106.031L106.067 129.881V131.422L106.031 131.386L109.61 131.404H110.664H111.05C111.018 131.407 110.987 131.407 110.956 131.404H110.679H109.635H106.035H105.995V129.827L106.035 129.787H111.053H111.078V129.813V130.957C111.078 131.073 111.078 131.17 111.078 131.256C111.074 131.32 111.057 131.383 111.028 131.44Z" fill="#263238"/>
<path d="M111.035 132.97C111.032 132.931 111.032 132.893 111.035 132.855V132.541C111.035 132.221 111.017 131.854 111.01 131.44L111.042 131.472H109.174L109.213 131.433V131.836C109.213 131.969 109.213 132.099 109.213 132.228C109.213 132.48 109.213 132.725 109.213 132.948L109.181 132.916H110.52H110.902H111.046C111.003 132.919 110.959 132.919 110.916 132.916H110.556H109.195H109.163V132.883C109.163 132.653 109.163 132.408 109.163 132.163C109.163 132.034 109.163 131.904 109.163 131.771V131.368L109.199 131.332H111.067H111.096V131.361C111.096 131.782 111.096 132.156 111.096 132.48C111.096 132.592 111.096 132.693 111.096 132.786C111.088 132.851 111.067 132.913 111.035 132.97Z" fill="#263238"/>
<path d="M98.5712 128.733C98.568 128.697 98.568 128.66 98.5712 128.625C98.5712 128.535 98.5712 128.434 98.5712 128.319C98.5712 128.023 98.5712 127.645 98.5712 127.188L98.5928 127.213H93.5744C93.5924 127.213 93.5348 127.253 93.6104 127.177V128.718L93.5744 128.682L97.1528 128.7H98.2076H98.5964C98.5653 128.703 98.5339 128.703 98.5028 128.7H98.2256H97.178H93.578H93.542V128.664C93.542 128.419 93.542 128.167 93.542 127.908V127.123L93.5816 127.084H98.6H98.6252V127.109V128.254C98.6252 128.369 98.6252 128.466 98.6252 128.556C98.6252 128.646 98.5712 128.736 98.5712 128.733Z" fill="#263238"/>
<g opacity="0.2">
<path d="M101.081 125.64H96.0586V127.185H101.081V125.64Z" fill="white"/>
</g>
<g opacity="0.2">
<path d="M111.179 118.271H108.346V119.815H111.179V118.271Z" fill="white"/>
</g>
<path d="M74.4123 137.902C74.4123 137.902 74.4123 137.862 74.4123 137.79C74.4123 137.718 74.4123 137.603 74.4123 137.484C74.4123 137.189 74.4123 136.811 74.4123 136.354L74.4375 136.379H69.4191C69.4191 136.361 69.3795 136.415 69.4551 136.339V137.88L69.4155 137.844H72.9975H74.0523H74.3367H74.0667H73.0227L69.4227 137.862H69.3867V136.285C69.4623 136.21 69.4083 136.267 69.4263 136.249H74.4447H74.4699V136.271V137.416C74.4699 137.531 74.4699 137.632 74.4699 137.718C74.4623 137.782 74.4427 137.845 74.4123 137.902Z" fill="#263238"/>
<path d="M72.2196 139.504C72.2196 139.504 72.2196 139.464 72.2196 139.396V139.09C72.2196 138.791 72.2196 138.416 72.2196 137.959L72.2412 137.981H67.2228L67.2588 137.945V139.486L67.2228 139.45H70.8012H71.856H72.2412C72.2114 139.454 72.1811 139.454 72.1512 139.45H71.874H70.8264H67.2264H67.1904V139.414C67.1904 139.169 67.1904 138.917 67.1904 138.658V137.873L67.23 137.833H72.2484H72.2736V137.858C72.2736 138.319 72.2736 138.701 72.2736 139.003C72.2736 139.118 72.2736 139.216 72.2736 139.302C72.2708 139.372 72.2523 139.441 72.2196 139.504Z" fill="#263238"/>
<g opacity="0.2">
<path d="M78.5991 143.91H76.1943V145.455H78.5991V143.91Z" fill="white"/>
</g>
<path d="M87.4795 136.213H87.6271H88.0447H89.4847L89.4487 136.249V134.705L89.4847 134.741H88.0447H87.6271H87.4795C87.5285 134.735 87.5781 134.735 87.6271 134.741H88.0447H89.4847H89.5207V134.777C89.5207 135.022 89.5207 135.281 89.5207 135.551C89.5207 135.821 89.5207 136.076 89.5207 136.321V136.357H89.4847H88.0447H87.6271C87.5699 136.318 87.5199 136.269 87.4795 136.213Z" fill="#263238"/>
<path d="M86.4717 119.617C86.5207 119.611 86.5703 119.611 86.6193 119.617H87.0369H88.4769L88.4409 119.653V118.08L88.4769 118.116H87.0369H86.6193C86.5703 118.122 86.5207 118.122 86.4717 118.116C86.5208 118.112 86.5702 118.112 86.6193 118.116H87.0369H88.4769H88.5129V118.152C88.5129 118.397 88.5129 118.656 88.5129 118.926C88.5129 119.196 88.5129 119.455 88.5129 119.7V119.736H88.4769H87.0369H86.6193L86.4717 119.617Z" fill="#263238"/>
<path d="M106.65 132.574H92.7578V141.178H106.65V132.574Z" fill="white"/>
<path d="M96.7674 141.261C96.717 141.261 96.6738 139.317 96.6738 136.915C96.6738 134.514 96.717 132.574 96.7674 132.574C96.8178 132.574 96.861 134.518 96.861 136.915C96.861 139.313 96.8394 141.261 96.7674 141.261Z" fill="#37474F"/>
<path d="M102.546 141.261C102.495 141.261 102.452 139.317 102.452 136.915C102.452 134.514 102.495 132.574 102.546 132.574C102.596 132.574 102.639 134.518 102.639 136.915C102.639 139.313 102.6 141.261 102.546 141.261Z" fill="#37474F"/>
<path d="M102.546 137.178C101.589 137.273 100.627 137.304 99.6661 137.272C98.7051 137.304 97.743 137.273 96.7861 137.178C97.7432 137.086 98.7051 137.055 99.6661 137.085C100.627 137.054 101.589 137.086 102.546 137.178Z" fill="#37474F"/>
<path d="M47.8445 58.0139H42.1673L21.8525 77.6699V148.194H35.1257L47.8445 58.0139Z" fill="#263238"/>
<path d="M35.4858 115.254C35.4827 115.223 35.4827 115.191 35.4858 115.16C35.4858 115.092 35.4858 115.002 35.4858 114.894C35.4858 114.649 35.4858 114.311 35.4858 113.875C35.4858 112.982 35.4858 111.715 35.4606 110.109C35.4606 106.909 35.4354 102.449 35.4174 97.351L35.511 97.4446H30.7014C30.8886 97.2574 30.7554 97.3978 30.795 97.3582V100.051C30.795 100.937 30.795 101.808 30.795 102.657C30.795 104.36 30.795 105.987 30.795 107.514C30.795 110.559 30.777 113.205 30.7698 115.25L30.7122 115.193L34.2222 115.225H35.1654H35.4102H35.4966C35.4714 115.228 35.4461 115.228 35.421 115.225H35.1834H34.2546L30.7122 115.257H30.6546V115.2C30.6546 113.155 30.6546 110.52 30.6294 107.463C30.6294 105.937 30.6294 104.31 30.6294 102.607C30.6294 101.757 30.6294 100.886 30.6294 100.001V97.3078C30.6726 97.2646 30.5358 97.3942 30.723 97.207H35.5758V97.297C35.5758 102.42 35.547 106.905 35.5362 110.12C35.5362 111.704 35.5146 112.975 35.511 113.864C35.511 114.289 35.511 114.624 35.511 114.861C35.511 114.966 35.511 115.052 35.511 115.117C35.511 115.182 35.4858 115.257 35.4858 115.254Z" fill="#455A64"/>
<path d="M35.3884 99.0611C34.6085 99.1535 33.8225 99.1848 33.0376 99.1547C32.254 99.1849 31.4692 99.1536 30.6904 99.0611C31.4692 98.9685 32.254 98.9372 33.0376 98.9675C33.8225 98.9373 34.6085 98.9686 35.3884 99.0611Z" fill="#455A64"/>
<path d="M35.3884 100.53C34.6088 100.627 33.8226 100.659 33.0376 100.627C32.2539 100.659 31.4688 100.627 30.6904 100.53C31.4692 100.437 32.254 100.406 33.0376 100.436C33.8225 100.406 34.6085 100.437 35.3884 100.53Z" fill="#455A64"/>
<path d="M35.3884 102.002C34.6085 102.095 33.8225 102.126 33.0376 102.096C32.254 102.126 31.4692 102.095 30.6904 102.002C31.469 101.908 32.254 101.876 33.0376 101.909C33.8225 101.876 34.6086 101.908 35.3884 102.002Z" fill="#455A64"/>
<path d="M35.3884 103.471C34.6086 103.566 33.8225 103.597 33.0376 103.565C32.254 103.597 31.469 103.566 30.6904 103.471C31.4692 103.379 32.254 103.347 33.0376 103.378C33.8225 103.347 34.6085 103.379 35.3884 103.471Z" fill="#455A64"/>
<path d="M35.3884 104.944C34.6085 105.036 33.8225 105.067 33.0376 105.037C32.254 105.067 31.4692 105.036 30.6904 104.944C31.469 104.849 32.254 104.818 33.0376 104.85C33.8225 104.818 34.6086 104.849 35.3884 104.944Z" fill="#455A64"/>
<path d="M35.3884 106.412C34.6085 106.505 33.8225 106.536 33.0376 106.506C32.254 106.536 31.4692 106.505 30.6904 106.412C31.4692 106.32 32.254 106.289 33.0376 106.319C33.8225 106.289 34.6085 106.32 35.3884 106.412Z" fill="#455A64"/>
<path d="M35.3884 107.881C34.6086 107.976 33.8225 108.007 33.0376 107.975C32.254 108.007 31.469 107.976 30.6904 107.881C31.4692 107.789 32.254 107.757 33.0376 107.788C33.8225 107.757 34.6085 107.789 35.3884 107.881Z" fill="#455A64"/>
<path d="M35.3884 109.354C34.6085 109.446 33.8225 109.477 33.0376 109.447C32.254 109.477 31.4692 109.446 30.6904 109.354C31.469 109.259 32.254 109.228 33.0376 109.26C33.8225 109.228 34.6086 109.259 35.3884 109.354Z" fill="#455A64"/>
<path d="M35.3884 110.822C34.6086 110.917 33.8225 110.948 33.0376 110.916C32.254 110.948 31.469 110.917 30.6904 110.822C31.4692 110.73 32.254 110.698 33.0376 110.729C33.8225 110.699 34.6085 110.73 35.3884 110.822Z" fill="#455A64"/>
<path d="M35.3884 112.295C34.6085 112.387 33.8225 112.418 33.0376 112.388C32.254 112.419 31.4692 112.387 30.6904 112.295C31.4688 112.198 32.2539 112.165 33.0376 112.197C33.8226 112.165 34.6088 112.198 35.3884 112.295Z" fill="#455A64"/>
<path d="M35.3884 113.76C34.6085 113.853 33.8225 113.884 33.0376 113.854C32.254 113.884 31.4692 113.853 30.6904 113.76C31.4692 113.667 32.254 113.636 33.0376 113.666C33.8225 113.636 34.6085 113.668 35.3884 113.76Z" fill="#455A64"/>
<path d="M35.2553 133.69C35.2523 133.658 35.2523 133.627 35.2553 133.596C35.2553 133.528 35.2553 133.438 35.2553 133.33C35.2553 133.085 35.2553 132.746 35.2553 132.311C35.2553 131.418 35.2553 130.151 35.2301 128.545C35.2301 125.345 35.2049 120.884 35.1905 115.787L35.2805 115.88H30.4745C30.6581 115.693 30.5249 115.834 30.5645 115.794V121.093C30.5645 122.796 30.5645 124.423 30.5645 125.95C30.5645 128.995 30.5429 131.641 30.5357 133.686L30.4781 133.628L33.9881 133.661H34.9313H35.1761H35.2625C35.2625 133.661 35.2373 133.661 35.1869 133.661H34.9529H34.0241L30.4781 133.693H30.4205V133.636C30.4205 131.591 30.4205 128.956 30.3953 125.899C30.3953 124.373 30.3953 122.746 30.3953 121.043C30.3953 120.193 30.3953 119.322 30.3953 118.436V115.744C30.4385 115.7 30.3017 115.83 30.4925 115.643H35.3489V115.733C35.3489 120.859 35.3165 125.341 35.3057 128.556C35.3057 130.14 35.2841 131.411 35.2805 132.3C35.2805 132.725 35.2805 133.06 35.2805 133.297C35.2805 133.405 35.2805 133.488 35.2805 133.553C35.2805 133.618 35.2589 133.693 35.2553 133.69Z" fill="#455A64"/>
<path d="M35.158 117.497C34.3782 117.591 33.592 117.623 32.8072 117.59C32.0235 117.623 31.2385 117.591 30.46 117.497C31.2387 117.404 32.0235 117.373 32.8072 117.403C33.592 117.373 34.378 117.404 35.158 117.497Z" fill="#455A64"/>
<path d="M35.158 118.969C34.378 119.062 33.592 119.093 32.8072 119.063C32.0235 119.093 31.2387 119.062 30.46 118.969C31.2383 118.872 32.0234 118.84 32.8072 118.872C33.5921 118.84 34.3784 118.872 35.158 118.969Z" fill="#455A64"/>
<path d="M35.158 120.438C34.378 120.53 33.592 120.562 32.8072 120.531C32.0235 120.562 31.2387 120.53 30.46 120.438C31.2387 120.345 32.0235 120.314 32.8072 120.344C33.592 120.314 34.378 120.345 35.158 120.438Z" fill="#455A64"/>
<path d="M35.158 121.907C34.3782 122.002 33.592 122.033 32.8072 122C32.0235 122.033 31.2385 122.002 30.46 121.907C31.2387 121.814 32.0235 121.783 32.8072 121.813C33.592 121.783 34.378 121.814 35.158 121.907Z" fill="#455A64"/>
<path d="M35.158 123.379C34.378 123.472 33.592 123.503 32.8072 123.473C32.0235 123.503 31.2387 123.472 30.46 123.379C31.2385 123.284 32.0235 123.253 32.8072 123.286C33.592 123.253 34.3782 123.284 35.158 123.379Z" fill="#455A64"/>
<path d="M35.158 124.848C34.378 124.941 33.592 124.972 32.8072 124.942C32.0235 124.972 31.2387 124.941 30.46 124.848C31.2387 124.755 32.0235 124.724 32.8072 124.754C33.592 124.724 34.378 124.755 35.158 124.848Z" fill="#455A64"/>
<path d="M35.158 126.317C34.3782 126.412 33.592 126.443 32.8072 126.41C32.0235 126.443 31.2385 126.411 30.46 126.317C31.2387 126.224 32.0235 126.193 32.8072 126.223C33.592 126.193 34.378 126.224 35.158 126.317Z" fill="#455A64"/>
<path d="M35.158 127.8C34.378 127.893 33.592 127.924 32.8072 127.893C32.0235 127.924 31.2387 127.892 30.46 127.8C31.2385 127.705 32.0235 127.674 32.8072 127.706C33.592 127.674 34.3782 127.705 35.158 127.8Z" fill="#455A64"/>
<path d="M35.158 129.258C34.3782 129.353 33.592 129.384 32.8072 129.351C32.0235 129.384 31.2385 129.353 30.46 129.258C31.2387 129.165 32.0235 129.134 32.8072 129.164C33.592 129.134 34.378 129.165 35.158 129.258Z" fill="#455A64"/>
<path d="M35.158 130.73C34.378 130.823 33.592 130.854 32.8072 130.824C32.0235 130.854 31.2387 130.823 30.46 130.73C31.2385 130.636 32.0235 130.604 32.8072 130.637C33.592 130.604 34.3782 130.635 35.158 130.73Z" fill="#455A64"/>
<path d="M35.158 132.199C34.378 132.292 33.592 132.323 32.8072 132.293C32.0235 132.323 31.2387 132.292 30.46 132.199C31.2387 132.106 32.0235 132.075 32.8072 132.105C33.592 132.075 34.378 132.106 35.158 132.199Z" fill="#455A64"/>
<path d="M61.01 148.154V77.6698L47.8124 60.1594L35.126 77.6698V148.194H61.01" fill="#455A64"/>
<path d="M54.3132 147.96C54.3132 147.96 54.3132 147.931 54.3132 147.87C54.3132 147.809 54.3132 147.715 54.3132 147.604C54.3132 147.359 54.3132 147.013 54.3132 146.57C54.3132 145.66 54.3132 144.356 54.2844 142.729C54.2844 139.442 54.2664 134.863 54.252 129.618L54.342 129.708H44.064L44.1576 129.618C44.1576 134.863 44.1324 139.446 44.1252 142.729C44.1252 144.356 44.1036 145.66 44.0964 146.574C44.0964 147.013 44.0964 147.359 44.0964 147.604V147.87C44.1011 147.9 44.1011 147.93 44.0964 147.96C44.0964 147.96 44.0964 147.931 44.0964 147.87C44.0964 147.809 44.0964 147.715 44.0964 147.604C44.0964 147.359 44.0964 147.013 44.0964 146.574C44.0964 145.66 44.0964 144.356 44.0676 142.729C44.0676 139.446 44.0676 134.863 44.0352 129.618V129.524H54.4752V129.618C54.4752 134.863 54.45 139.442 54.4428 142.729C54.4428 144.356 54.4212 145.66 54.414 146.57C54.414 147.013 54.414 147.359 54.414 147.604C54.414 147.715 54.414 147.802 54.414 147.87C54.3881 147.908 54.3535 147.939 54.3132 147.96Z" fill="#263238"/>
<path d="M52.8987 139.115C52.9167 139.136 52.8231 139.216 52.8339 139.378C52.8358 139.421 52.8467 139.463 52.8659 139.501C52.8852 139.54 52.9123 139.574 52.9455 139.601C52.986 139.628 53.0336 139.643 53.0823 139.643C53.1311 139.643 53.1787 139.628 53.2191 139.601C53.2618 139.578 53.297 139.544 53.3206 139.502C53.3442 139.459 53.3552 139.411 53.3523 139.363C53.3436 139.321 53.3263 139.281 53.3015 139.246C53.2767 139.21 53.245 139.181 53.2083 139.158C53.0715 139.072 52.9563 139.115 52.9455 139.09C52.9347 139.064 53.0535 138.96 53.2659 139.039C53.3286 139.064 53.3845 139.103 53.4289 139.154C53.4734 139.205 53.5051 139.265 53.5215 139.331C53.5331 139.415 53.5196 139.501 53.4828 139.577C53.4459 139.654 53.3874 139.718 53.3144 139.761C53.2414 139.804 53.1573 139.825 53.0724 139.821C52.9876 139.817 52.9059 139.788 52.8375 139.738C52.7882 139.693 52.7503 139.636 52.7271 139.574C52.7039 139.511 52.6961 139.444 52.7043 139.378C52.7331 139.147 52.8951 139.09 52.8987 139.115Z" fill="#263238"/>
<path d="M51.4626 126.806H47.0166V128.189H51.4626V126.806Z" fill="#263238"/>
<path d="M47.4412 105.523H39.4492V120.92H47.4412V105.523Z" fill="#E0E0E0"/>
<path d="M43.6688 122.645C43.6184 122.645 43.5752 118.624 43.5752 113.666C43.5752 108.709 43.6184 104.684 43.6688 104.684C43.7192 104.684 43.7624 108.706 43.7624 113.666C43.7624 118.627 43.7228 122.645 43.6688 122.645Z" fill="#455A64"/>
<path d="M48.114 110.88C48.114 110.934 46.0692 110.974 43.5492 110.974C41.0292 110.974 38.9844 110.934 38.9844 110.88C38.9844 110.826 41.0256 110.786 43.5492 110.786C46.0728 110.786 48.114 110.822 48.114 110.88Z" fill="#455A64"/>
<path d="M48.114 116.381C48.114 116.431 46.0692 116.474 43.5492 116.474C41.0292 116.474 38.9844 116.431 38.9844 116.381C38.9844 116.33 41.04 116.28 43.56 116.28C46.08 116.28 48.114 116.327 48.114 116.381Z" fill="#455A64"/>
<path d="M57.7772 105.523H49.7852V120.92H57.7772V105.523Z" fill="#E0E0E0"/>
<path d="M54.0008 122.645C53.9468 122.645 53.9072 118.624 53.9072 113.666C53.9072 108.709 53.9468 104.684 54.0008 104.684C54.0548 104.684 54.0944 108.706 54.0944 113.666C54.0944 118.627 54.0584 122.645 54.0008 122.645Z" fill="#455A64"/>
<path d="M58.4499 110.88C58.4499 110.934 56.4051 110.974 53.8851 110.974C51.3651 110.974 49.3203 110.927 49.3203 110.88C49.3203 110.833 51.3651 110.786 53.8851 110.786C56.4051 110.786 58.4499 110.822 58.4499 110.88Z" fill="#455A64"/>
<path d="M58.4499 116.381C58.4499 116.431 56.4051 116.474 53.8851 116.474C51.3651 116.474 49.3203 116.431 49.3203 116.381C49.3203 116.33 51.3651 116.287 53.8851 116.287C56.4051 116.287 58.4499 116.327 58.4499 116.381Z" fill="#455A64"/>
<path d="M47.4412 83.5955H39.4492V98.9927H47.4412V83.5955Z" fill="#E0E0E0"/>
<path d="M43.6688 100.717C43.6184 100.717 43.5752 96.696 43.5752 91.7388C43.5752 86.7816 43.6184 82.7388 43.6688 82.7388C43.7192 82.7388 43.7624 86.76 43.7624 91.7388C43.7624 96.7176 43.7228 100.717 43.6688 100.717Z" fill="#455A64"/>
<path d="M48.114 88.9452C48.114 88.9992 46.0692 89.0388 43.5492 89.0388C41.0292 89.0388 38.9844 88.9992 38.9844 88.9452C38.9844 88.8912 41.0256 88.8516 43.5492 88.8516C46.0728 88.8516 48.114 88.8948 48.114 88.9452Z" fill="#455A64"/>
<path d="M48.114 94.4532C48.114 94.5036 46.0692 94.5468 43.5492 94.5468C41.0292 94.5468 38.9844 94.5036 38.9844 94.4532C38.9844 94.4028 41.0256 94.3596 43.5492 94.3596C46.0728 94.3596 48.114 94.4028 48.114 94.4532Z" fill="#455A64"/>
<path d="M57.7772 83.5955H49.7852V98.9927H57.7772V83.5955Z" fill="#E0E0E0"/>
<path d="M54.0008 100.717C53.9468 100.717 53.9072 96.696 53.9072 91.7388C53.9072 86.7816 53.9468 82.7388 54.0008 82.7388C54.0548 82.7388 54.0944 86.76 54.0944 91.7388C54.0944 96.7176 54.0584 100.717 54.0008 100.717Z" fill="#455A64"/>
<path d="M58.4499 88.9452C58.4499 88.9992 56.4051 89.0388 53.8851 89.0388C51.3651 89.0388 49.3203 88.9992 49.3203 88.9452C49.3203 88.8912 51.3651 88.8516 53.8851 88.8516C56.4051 88.8516 58.4499 88.8948 58.4499 88.9452Z" fill="#455A64"/>
<path d="M58.4499 94.4532C58.4499 94.5036 56.4051 94.5468 53.8851 94.5468C51.3651 94.5468 49.3203 94.5036 49.3203 94.4532C49.3203 94.4028 51.3651 94.3596 53.8851 94.3596C56.4051 94.3596 58.4499 94.4028 58.4499 94.4532Z" fill="#455A64"/>
<path d="M35.1216 114.894H28.8252V121.881H35.1216V114.894Z" fill="#455A64"/>
<path d="M35.1216 92.4731H28.8252V99.4607H35.1216V92.4731Z" fill="#455A64"/>
<path d="M51.5452 76.8946C53.0724 75.1372 52.8857 72.4746 51.1283 70.9474C49.3709 69.4203 46.7083 69.607 45.1811 71.3644C43.654 73.1217 43.8407 75.7844 45.598 77.3115C47.3554 78.8386 50.0181 78.652 51.5452 76.8946Z" fill="#E0E0E0"/>
<path d="M52.5965 74.1312C52.5965 74.1816 50.5913 74.2248 48.1145 74.2248C45.6377 74.2248 43.6289 74.1816 43.6289 74.1312C43.6289 74.0808 45.6377 74.0376 48.1145 74.0376C50.5913 74.0376 52.5965 74.0772 52.5965 74.1312Z" fill="#455A64"/>
<path d="M48.3123 79.3763C48.2619 79.3763 48.2188 77.0903 48.2188 74.2715C48.2188 71.4527 48.2619 69.1631 48.3123 69.1631C48.3627 69.1631 48.406 71.4491 48.406 74.2715C48.406 77.0939 48.3663 79.3763 48.3123 79.3763Z" fill="#455A64"/>
<path d="M35.1258 77.6699H33.0918L47.8446 58.0139L62.5974 77.6699H61.0098L47.8122 60.1595L35.1258 77.6699Z" fill="#263238"/>
<path d="M28.826 92.4731H18.8936V99.4607H28.826V92.4731Z" fill="#263238"/>
<path d="M28.826 114.894H18.8936V121.881H28.826V114.894Z" fill="#263238"/>
<path d="M28.826 77.6699H18.8936L34.2044 58.0139H47.8448L28.826 77.6699Z" fill="#263238"/>
<path d="M29.3512 121.986C29.3512 122.036 26.9572 122.08 24.0052 122.08C21.0532 122.08 18.6592 122.036 18.6592 121.986C18.6592 121.936 21.0496 121.892 24.0052 121.892C26.9608 121.892 29.3512 121.932 29.3512 121.986Z" fill="#455A64"/>
<path d="M29.3512 114.894C29.3512 114.948 26.9572 114.987 24.0052 114.987C21.0532 114.987 18.6592 114.948 18.6592 114.894C18.6592 114.84 21.0496 114.8 24.0052 114.8C26.9608 114.8 29.3512 114.84 29.3512 114.894Z" fill="#455A64"/>
<path d="M29.3512 99.6156C29.3512 99.6696 26.9572 99.7092 24.0052 99.7092C21.0532 99.7092 18.6592 99.6696 18.6592 99.6156C18.6592 99.5616 21.0496 99.522 24.0052 99.522C26.9608 99.522 29.3512 99.5652 29.3512 99.6156Z" fill="#455A64"/>
<path d="M29.3512 92.6026C29.3512 92.653 26.9572 92.6962 24.0052 92.6962C21.0532 92.6962 18.6592 92.653 18.6592 92.6026C18.6592 92.5522 21.0496 92.509 24.0052 92.509C26.9608 92.509 29.3512 92.5486 29.3512 92.6026Z" fill="#455A64"/>
<path d="M42.8584 127.375C42.8584 127.375 42.8584 127.332 42.8584 127.249C42.8584 127.166 42.8584 127.033 42.8584 126.889C42.8584 126.554 42.8584 126.115 42.8584 125.575L42.8836 125.6H37.048C37.048 125.6 37.012 125.64 37.0876 125.564V126.475C37.0876 126.774 37.0876 127.069 37.0876 127.354L37.0516 127.318H41.2132H42.4408H42.7684H42.8872C42.8513 127.322 42.8151 127.322 42.7792 127.318H42.4552H41.2384H37.0516H37.0156V125.492L37.0516 125.456H42.8872H42.9124V125.482C42.9124 126.025 42.9124 126.472 42.9124 126.81C42.9124 126.947 42.9124 127.062 42.9124 127.17C42.9124 127.278 42.8584 127.375 42.8584 127.375Z" fill="#263238"/>
<path d="M45.5619 125.575C45.5619 125.575 45.5619 125.532 45.5619 125.449C45.5619 125.366 45.5619 125.233 45.5619 125.089C45.5619 124.751 45.5619 124.311 45.5619 123.771L45.5835 123.797H39.7515C39.7515 123.779 39.7119 123.833 39.7875 123.757V125.557L39.7479 125.521H43.9131H45.1371H45.5835C45.5476 125.525 45.5114 125.525 45.4755 125.521H45.1515H43.9383H39.7479H39.7119V123.692C39.7875 123.617 39.7335 123.671 39.7515 123.656H45.5835H45.6087V123.678C45.6087 124.225 45.6087 124.668 45.6087 125.01C45.6087 125.143 45.6087 125.258 45.6087 125.37C45.6087 125.481 45.5619 125.575 45.5619 125.575Z" fill="#263238"/>
<path d="M43.4528 105.523C43.4528 105.523 43.4528 105.48 43.4528 105.397C43.4528 105.314 43.4528 105.181 43.4528 105.037C43.4528 104.702 43.4528 104.263 43.4528 103.723L43.478 103.748H37.6424L37.6784 103.712V105.512L37.6424 105.476L41.804 105.494H43.028H43.3664H43.046H41.8292H37.6424H37.6064V105.458C37.6064 105.174 37.6064 104.879 37.6064 104.58V103.669C37.682 103.593 37.628 103.647 37.646 103.633H43.4816H43.5032V103.658C43.5032 104.202 43.5032 104.648 43.5032 104.987C43.5032 105.123 43.5032 105.239 43.5032 105.347C43.5032 105.455 43.4528 105.523 43.4528 105.523Z" fill="#263238"/>
<path d="M58.9792 80.1432C58.9792 80.1432 58.9792 80.0964 58.9792 80.0172C58.9792 79.938 58.9792 79.7976 58.9792 79.6572C58.9792 79.3188 58.9792 78.8796 58.9792 78.3432L59.0044 78.3648H53.1688L53.2048 78.3288V80.1288L53.1688 80.0928H57.3304H58.5544H58.8856H59.0044H58.5724H57.3556L53.1688 80.1108H53.1328V80.0748C53.1328 79.7868 53.1328 79.4952 53.1328 79.1964V78.282L53.1724 78.2424H59.008H59.0296V78.2676C59.0296 78.81 59.0296 79.2528 59.0296 79.596C59.0296 79.7328 59.0296 79.848 59.0296 79.956C59.0296 80.064 58.9792 80.1432 58.9792 80.1432Z" fill="#263238"/>
<path d="M44.5896 70.0199C44.5896 70.0199 44.5896 69.9731 44.5896 69.8939C44.5896 69.8147 44.5896 69.6743 44.5896 69.5339C44.5896 69.1991 44.5896 68.7563 44.5896 68.2199L44.6112 68.2415H38.7756C38.7756 68.2415 38.7396 68.2811 38.8152 68.2055V69.1163C38.8152 69.4151 38.8152 69.7103 38.8152 69.9947L38.7792 69.9587H42.9444H44.1684H44.4996H44.1828H42.9696H38.7792H38.7432V68.1335C38.8188 68.0579 38.7648 68.1119 38.7792 68.0939H44.6148H44.64V68.1191C44.64 68.6627 44.64 69.1091 44.64 69.4475C44.64 69.5843 44.64 69.6995 44.64 69.8075C44.64 69.9155 44.5896 70.0199 44.5896 70.0199Z" fill="#263238"/>
<path d="M39.4489 97.3692C39.4489 97.3692 39.4489 97.326 39.4489 97.2432C39.4489 97.1604 39.4489 97.0272 39.4489 96.8832C39.4489 96.5448 39.4489 96.1056 39.4489 95.5656L39.4741 95.5908H33.6385C33.6385 95.5908 33.5989 95.6268 33.6745 95.5512V97.3512L33.6385 97.3152L37.8001 97.3332H39.0241H39.4741H39.3661H39.0421H37.8253L33.6385 97.3512H33.6025V95.58C33.6781 95.5044 33.6241 95.562 33.6421 95.544H39.4777H39.5029V95.5656C39.5029 96.1128 39.5029 96.5556 39.5029 96.8976C39.5029 97.0308 39.5029 97.146 39.5029 97.2576C39.5029 97.3692 39.4489 97.3692 39.4489 97.3692Z" fill="#263238"/>
<path d="M37.1195 95.544C37.1195 95.544 37.1195 95.5008 37.1195 95.418C37.1195 95.3352 37.1195 95.202 37.1195 95.058C37.1195 94.7196 37.1195 94.2804 37.1195 93.7404L37.1411 93.7656H31.3055C31.3055 93.7656 31.2695 93.8052 31.3451 93.7296V95.5296L31.3055 95.4936L35.4707 95.5116H36.6947H37.1411C37.1053 95.5158 37.069 95.5158 37.0331 95.5116H36.7091H35.4959H31.3055H31.2695V93.6864L31.3055 93.6504H37.1411H37.1663V93.6756C37.1663 94.2192 37.1663 94.6656 37.1663 95.004C37.1663 95.1408 37.1663 95.256 37.1663 95.364C37.1663 95.472 37.1195 95.544 37.1195 95.544Z" fill="#263238"/>
<path d="M60.9553 132.048C60.9553 132.048 60.9553 132.001 60.9553 131.922C60.9553 131.843 60.9553 131.702 60.9553 131.562C60.9553 131.227 60.9553 130.784 60.9553 130.248L60.9805 130.27H55.1449L55.1809 130.234V132.034L55.1449 131.998H59.3065H60.5305H60.8617H60.5413H59.3245H55.1377H55.0801V130.172L55.1197 130.133H60.9553H60.9769V130.158C60.9769 130.702 60.9769 131.148 60.9769 131.486C60.9769 131.623 60.9769 131.738 60.9769 131.846C60.9769 131.954 60.9553 132.048 60.9553 132.048Z" fill="#263238"/>
<path d="M59.6162 102.326C59.6162 102.326 59.6162 102.28 59.6162 102.197C59.6162 102.114 59.6162 101.981 59.6162 101.837C59.6162 101.498 59.6162 101.059 59.6162 100.519L59.6414 100.544H53.8058L53.8454 100.505V100.962C53.8454 101.113 53.8454 101.268 53.8454 101.416V102.298L53.8094 102.258L57.971 102.276H59.195H59.5262H59.645H59.213H57.9962H53.8094H53.7734V100.447C53.849 100.375 53.795 100.429 53.8094 100.411H59.645H59.6702V100.433C59.6702 100.98 59.6702 101.423 59.6702 101.765C59.6702 101.898 59.6702 102.013 59.6702 102.125C59.6702 102.236 59.6162 102.326 59.6162 102.326Z" fill="#263238"/>
<path d="M60.9559 133.834C60.9505 133.789 60.9505 133.745 60.9559 133.7C60.9559 133.588 60.9559 133.468 60.9559 133.34C60.9559 132.98 60.9559 132.545 60.9559 132.044L60.9883 132.077H58.7275L58.7671 132.037V132.973C58.7671 133.272 58.7671 133.556 58.7671 133.826L58.7311 133.794L60.3547 133.812H60.8191H60.9919H60.8335H60.3763L58.7311 133.83H58.6807V133.794C58.6807 133.524 58.6807 133.24 58.6807 132.941V132.005C58.6483 132.041 58.7275 131.962 58.7167 131.969H60.9775H61.0063V131.998C61.0063 132.505 61.0063 132.944 61.0063 133.312C61.0063 133.445 61.0063 133.564 61.0063 133.672C61.0063 133.78 60.9559 133.837 60.9559 133.834Z" fill="#263238"/>
<path d="M60.9559 104.123C60.9509 104.077 60.9509 104.031 60.9559 103.986C60.9559 103.874 60.9559 103.756 60.9559 103.626C60.9559 103.266 60.9559 102.83 60.9559 102.334L60.9883 102.362H58.7275C58.7275 102.362 58.7995 102.29 58.7671 102.326V103.259C58.7671 103.558 58.7671 103.842 58.7671 104.116L58.7311 104.08L60.3547 104.098H60.8191H60.9919H60.8335H60.3763L58.7311 104.116H58.6807V104.083C58.6807 103.81 58.6807 103.525 58.6807 103.226V102.294C58.6483 102.326 58.7275 102.247 58.7167 102.254H60.9775H61.0063V102.287C61.0063 102.791 61.0063 103.234 61.0063 103.601C61.0063 103.73 61.0063 103.849 61.0063 103.961C61.0063 104.072 60.9559 104.123 60.9559 104.123Z" fill="#263238"/>
<path d="M71.5434 142.992H61.0098V148.194H71.5434V142.992Z" fill="#455A64"/>
<path d="M35.8602 77.6699C35.8602 77.7239 32.0802 77.7455 27.4218 77.7203C22.7634 77.6951 18.9834 77.6339 18.9834 77.5835C18.9834 77.5331 22.7598 77.5079 27.4218 77.5331C32.0838 77.5583 35.8602 77.6195 35.8602 77.6699Z" fill="#455A64"/>
<path d="M27.425 148.118C26.5877 148.118 25.7692 147.87 25.0729 147.405C24.3767 146.94 23.8341 146.278 23.5137 145.505C23.1932 144.731 23.1094 143.88 23.2728 143.059C23.4361 142.238 23.8393 141.483 24.4314 140.891C25.0235 140.299 25.7778 139.896 26.5991 139.732C27.4203 139.569 28.2715 139.653 29.0451 139.973C29.8187 140.294 30.4799 140.836 30.9451 141.533C31.4103 142.229 31.6586 143.047 31.6586 143.885C31.6577 145.007 31.2113 146.084 30.4176 146.877C29.6238 147.671 28.5475 148.117 27.425 148.118ZM27.425 140.036C26.6628 140.036 25.9176 140.261 25.2836 140.684C24.6496 141.107 24.1553 141.709 23.8633 142.413C23.5713 143.117 23.4947 143.891 23.6433 144.639C23.7918 145.386 24.1587 146.073 24.6976 146.612C25.2366 147.151 25.9233 147.518 26.6708 147.666C27.4184 147.815 28.1932 147.738 28.8972 147.446C29.6012 147.154 30.2027 146.66 30.6257 146.026C31.0487 145.392 31.2741 144.647 31.2734 143.885C31.2715 142.865 30.8653 141.888 30.1439 141.167C29.4225 140.446 28.4448 140.041 27.425 140.04V140.036Z" fill="#455A64"/>
<path d="M21.1572 144.511L27.2196 143.859L27.2916 144.371L21.1572 144.979V144.511Z" fill="#37474F"/>
<path d="M15.0842 148.118C14.2469 148.118 13.4283 147.87 12.7321 147.405C12.0359 146.94 11.4933 146.278 11.1729 145.505C10.8524 144.731 10.7686 143.88 10.9319 143.059C11.0953 142.238 11.4985 141.483 12.0906 140.891C12.6827 140.299 13.437 139.896 14.2583 139.732C15.0795 139.569 15.9307 139.653 16.7043 139.973C17.4779 140.294 18.1391 140.836 18.6043 141.533C19.0695 142.229 19.3178 143.047 19.3178 143.885C19.3168 145.007 18.8705 146.084 18.0767 146.877C17.283 147.671 16.2067 148.117 15.0842 148.118ZM15.0842 140.036C14.322 140.036 13.5768 140.261 12.9428 140.684C12.3088 141.107 11.8145 141.709 11.5225 142.413C11.2305 143.117 11.1539 143.891 11.3024 144.639C11.4509 145.386 11.8179 146.073 12.3568 146.612C12.8957 147.151 13.5824 147.518 14.33 147.666C15.0775 147.815 15.8523 147.738 16.5563 147.446C17.2604 147.154 17.8619 146.66 18.2849 146.026C18.7079 145.392 18.9333 144.647 18.9326 143.885C18.9297 142.865 18.5232 141.888 17.802 141.168C17.0808 140.447 16.1036 140.042 15.0842 140.04V140.036Z" fill="#455A64"/>
<path d="M24.5379 137.685L24.2031 136.688L24.4587 136.296L26.0139 135.871L26.1147 136.13L24.7215 136.497L24.5703 136.879L24.8007 137.606L24.5379 137.685Z" fill="#37474F"/>
<path d="M27.1114 143.651L25.0594 138.978L20.9374 144.097L20.5702 143.73L24.8758 138.686L24.7318 138.391L18.5974 139.683L18.4678 139.212L24.5878 138.031L24.4582 137.635L24.8758 137.505L27.4246 143.417L27.1114 143.651Z" fill="#37474F"/>
<path d="M15.2861 144.097L19.1021 144.713L19.1201 144.302L15.4013 143.737L15.2861 144.097Z" fill="#37474F"/>
<path d="M15.0879 143.6L17.9427 139.763L18.4683 140L15.4443 143.863L15.0879 143.6Z" fill="#37474F"/>
<path d="M20.0993 145.886C20.7415 145.886 21.2621 145.366 21.2621 144.724C21.2621 144.081 20.7415 143.561 20.0993 143.561C19.4571 143.561 18.9365 144.081 18.9365 144.724C18.9365 145.366 19.4571 145.886 20.0993 145.886Z" fill="#37474F"/>
<path d="M18.4678 139.212L18.1834 138.236H17.6182L17.9422 139.763L18.4678 140L18.5974 139.684L18.4678 139.212Z" fill="#37474F"/>
<path d="M16.8339 138.218C16.8771 138.355 17.0751 138.938 17.3631 138.938C18.228 138.864 19.0884 138.743 19.9407 138.578C20.1279 138.532 20.2395 138.218 19.7859 138.218C19.1379 138.218 16.7367 137.916 16.8339 138.218Z" fill="#37474F"/>
<path d="M15.5986 143.903C15.5986 144.004 15.5686 144.103 15.5124 144.187C15.4562 144.271 15.3764 144.336 15.283 144.375C15.1896 144.414 15.0868 144.424 14.9876 144.404C14.8885 144.384 14.7974 144.336 14.7259 144.264C14.6544 144.193 14.6057 144.102 14.586 144.003C14.5663 143.903 14.5764 143.801 14.6151 143.707C14.6538 143.614 14.7193 143.534 14.8034 143.478C14.8874 143.422 14.9863 143.392 15.0874 143.392C15.1545 143.392 15.221 143.405 15.283 143.431C15.345 143.456 15.4014 143.494 15.4488 143.541C15.4963 143.589 15.534 143.645 15.5597 143.707C15.5853 143.769 15.5986 143.836 15.5986 143.903Z" fill="#37474F"/>
<path d="M27.9326 143.903C27.9326 144.004 27.9026 144.103 27.8464 144.187C27.7902 144.271 27.7104 144.336 27.617 144.375C27.5236 144.414 27.4208 144.424 27.3216 144.404C27.2225 144.384 27.1314 144.336 27.0599 144.264C26.9884 144.193 26.9397 144.102 26.92 144.003C26.9003 143.903 26.9104 143.801 26.9491 143.707C26.9878 143.614 27.0533 143.534 27.1373 143.478C27.2214 143.422 27.3203 143.392 27.4214 143.392C27.4886 143.391 27.5553 143.404 27.6176 143.43C27.6798 143.455 27.7363 143.493 27.7839 143.54C27.8315 143.588 27.8691 143.644 27.8946 143.707C27.9201 143.769 27.933 143.836 27.9326 143.903Z" fill="#37474F"/>
<path opacity="0.5" d="M24.5379 137.685L24.2031 136.688L24.4587 136.296L26.0139 135.871L26.1147 136.13L24.7215 136.497L24.5703 136.879L24.8007 137.606L24.5379 137.685Z" fill="black"/>
<path opacity="0.5" d="M20.0993 145.886C20.7415 145.886 21.2621 145.366 21.2621 144.724C21.2621 144.081 20.7415 143.561 20.0993 143.561C19.4571 143.561 18.9365 144.081 18.9365 144.724C18.9365 145.366 19.4571 145.886 20.0993 145.886Z" fill="black"/>
<path opacity="0.5" d="M16.8339 138.218C16.8771 138.355 17.0751 138.938 17.3631 138.938C18.228 138.864 19.0884 138.743 19.9407 138.578C20.1279 138.532 20.2395 138.218 19.7859 138.218C19.1379 138.218 16.7367 137.916 16.8339 138.218Z" fill="black"/>
<path opacity="0.5" d="M15.5986 143.903C15.5986 144.004 15.5686 144.103 15.5124 144.187C15.4562 144.271 15.3764 144.336 15.283 144.375C15.1896 144.414 15.0868 144.424 14.9876 144.404C14.8885 144.384 14.7974 144.336 14.7259 144.264C14.6544 144.193 14.6057 144.102 14.586 144.003C14.5663 143.903 14.5764 143.801 14.6151 143.707C14.6538 143.614 14.7193 143.534 14.8034 143.478C14.8874 143.422 14.9863 143.392 15.0874 143.392C15.1545 143.392 15.221 143.405 15.283 143.431C15.345 143.456 15.4014 143.494 15.4488 143.541C15.4963 143.589 15.534 143.645 15.5597 143.707C15.5853 143.769 15.5986 143.836 15.5986 143.903Z" fill="black"/>
<path opacity="0.5" d="M27.9326 143.903C27.9326 144.004 27.9026 144.103 27.8464 144.187C27.7902 144.271 27.7104 144.336 27.617 144.375C27.5236 144.414 27.4208 144.424 27.3216 144.404C27.2225 144.384 27.1314 144.336 27.0599 144.264C26.9884 144.193 26.9397 144.102 26.92 144.003C26.9003 143.903 26.9104 143.801 26.9491 143.707C26.9878 143.614 27.0533 143.534 27.1373 143.478C27.2214 143.422 27.3203 143.392 27.4214 143.392C27.4886 143.391 27.5553 143.404 27.6176 143.43C27.6798 143.455 27.7363 143.493 27.7839 143.54C27.8315 143.588 27.8691 143.644 27.8946 143.707C27.9201 143.769 27.933 143.836 27.9326 143.903Z" fill="black"/>
<path d="M19.9517 144.979V146.61H19.1201V147.017H20.4377V144.979H19.9517Z" fill="#37474F"/>
<path d="M41.4685 148.194H37.9837L37.2637 142.689H42.1669L41.4685 148.194Z" fill="#263238"/>
<path d="M40.4783 141.052C40.8385 140.819 41.264 140.71 41.6915 140.738C41.9216 140.728 42.1484 140.796 42.3359 140.929C42.4253 141 42.4841 141.102 42.5001 141.214C42.5162 141.327 42.4884 141.441 42.4223 141.534C42.3234 141.624 42.196 141.676 42.0623 141.682C41.7325 141.667 41.4067 141.759 41.1335 141.944C41.0003 142.074 40.9247 142.272 40.7735 142.351C40.6874 142.384 40.5929 142.388 40.5044 142.362C40.416 142.336 40.3385 142.281 40.2839 142.207C40.1775 142.055 40.1336 141.868 40.1615 141.685C40.1637 141.563 40.1932 141.442 40.2481 141.332C40.3029 141.223 40.3816 141.127 40.4783 141.052Z" fill="#37474F"/>
<path d="M39.4018 139.507C39.4641 139.563 39.5375 139.606 39.6172 139.631C39.697 139.657 39.7813 139.666 39.8646 139.657C39.9479 139.647 40.0283 139.621 40.1006 139.578C40.1728 139.536 40.2353 139.478 40.2838 139.41C40.4436 139.167 40.5378 138.887 40.5574 138.596C40.7066 137.949 40.6967 137.274 40.5286 136.631C40.4705 136.44 40.3609 136.27 40.2118 136.138C40.1372 136.072 40.0466 136.028 39.9492 136.009C39.8518 135.99 39.7511 135.997 39.6574 136.03C39.5556 136.088 39.4673 136.167 39.3984 136.262C39.3295 136.357 39.2816 136.466 39.2578 136.58C39.0429 137.238 38.9765 137.935 39.0634 138.622C39.0852 138.944 39.203 139.253 39.4018 139.507Z" fill="#37474F"/>
<path d="M38.8365 140.061C38.9308 139.895 38.9839 139.707 38.9914 139.516C38.9989 139.324 38.9606 139.134 38.8797 138.96C38.7043 138.609 38.4367 138.313 38.1057 138.103C37.7265 137.846 37.301 137.665 36.8529 137.57C36.6761 137.533 36.4933 137.533 36.3165 137.57C36.228 137.587 36.1451 137.626 36.0748 137.682C36.0046 137.739 35.9491 137.812 35.9133 137.894C35.8912 138.023 35.8999 138.156 35.9387 138.281C35.9774 138.406 36.0452 138.52 36.1365 138.614C36.4138 138.99 36.7195 139.344 37.0509 139.673C37.3016 139.957 37.6252 140.167 37.9869 140.281C38.1399 140.34 38.3077 140.348 38.4658 140.305C38.6239 140.262 38.7639 140.169 38.8653 140.04" fill="#37474F"/>
<path d="M40.0386 144.443C40.0471 144.393 40.0471 144.342 40.0386 144.292C40.0386 144.184 40.0386 144.047 40.0386 143.881C40.0282 143.68 40.0282 143.478 40.0386 143.276C40.0609 143.034 40.1018 142.793 40.161 142.556C40.2206 142.316 40.3139 142.086 40.4382 141.872C40.5378 141.697 40.6756 141.547 40.8414 141.433C40.9528 141.36 41.074 141.303 41.2014 141.264L41.349 141.224C41.298 141.224 41.2472 141.23 41.1978 141.242C41.061 141.27 40.9304 141.322 40.8126 141.397C40.638 141.51 40.4915 141.662 40.3842 141.84C40.2566 142.058 40.1609 142.293 40.0998 142.538C40.0386 142.782 39.9976 143.03 39.9774 143.28C39.9646 143.485 39.9646 143.691 39.9774 143.896C39.9774 144.068 39.999 144.209 40.0098 144.306C40.0151 144.352 40.0247 144.398 40.0386 144.443Z" fill="#263238"/>
<path d="M40.0277 144.129C40.0293 144.106 40.0293 144.081 40.0277 144.058L40.0025 143.863C39.9773 143.69 39.9449 143.442 39.9161 143.143C39.8477 142.527 39.8153 141.865 39.7937 140.922C39.7721 140.036 39.7685 139.003 39.8153 138.326C39.8153 138.171 39.8369 138.031 39.8513 137.909C39.8657 137.786 39.8513 137.682 39.8801 137.595C39.9089 137.509 39.8801 137.452 39.9017 137.398C39.9233 137.344 39.9017 137.329 39.9017 137.329C39.9017 137.329 39.9017 137.351 39.9017 137.398C39.9017 137.444 39.9017 137.513 39.8693 137.592C39.8369 137.671 39.8441 137.783 39.8297 137.905C39.8153 138.028 39.8009 138.168 39.7865 138.323C39.7222 139.126 39.7006 139.933 39.7217 140.738C39.7364 141.543 39.7917 142.347 39.8873 143.147C39.9233 143.456 39.9629 143.701 39.9917 143.867C39.9917 143.946 40.0205 144.011 40.0313 144.061C40.0257 144.083 40.0245 144.107 40.0277 144.129Z" fill="#263238"/>
<path d="M39.8161 142.495C39.811 142.426 39.8014 142.358 39.7873 142.29C39.7621 142.157 39.7189 141.97 39.6505 141.739C39.5678 141.471 39.4705 141.208 39.3589 140.951C39.2245 140.635 39.0643 140.33 38.8801 140.04C38.5719 139.489 38.1628 139 37.6741 138.6C37.5908 138.532 37.503 138.469 37.4113 138.413C37.3761 138.386 37.3388 138.362 37.2997 138.341L37.2025 138.29C37.1412 138.256 37.0774 138.226 37.0117 138.2C37.2329 138.331 37.4457 138.475 37.6489 138.632C38.12 139.036 38.5193 139.517 38.8297 140.054C39.0044 140.347 39.1607 140.65 39.2977 140.962C39.4237 141.25 39.5209 141.516 39.5965 141.743C39.6721 141.97 39.7189 142.153 39.7513 142.283C39.7665 142.355 39.7881 142.427 39.8161 142.495Z" fill="#263238"/>
<path d="M42.2713 142.689H37.0225V143.298H42.2713V142.689Z" fill="#263238"/>
<path d="M42.1416 143.28C42.1416 143.302 41.0616 143.316 39.7656 143.316C38.4696 143.316 37.3896 143.316 37.3896 143.28C37.3896 143.244 38.4696 143.24 39.7656 143.24C41.0616 143.24 42.1416 143.258 42.1416 143.28Z" fill="#E0E0E0"/>
<path d="M41.8246 145.397C41.8246 145.397 41.7742 145.44 41.677 145.501C41.537 145.591 41.3857 145.663 41.227 145.713C40.9863 145.782 40.7282 145.755 40.507 145.638C40.255 145.512 40.0318 145.299 39.7582 145.148C39.6388 145.068 39.5004 145.021 39.3569 145.012C39.2134 145.002 39.0699 145.031 38.941 145.094C38.6998 145.217 38.5162 145.39 38.329 145.49C38.1851 145.578 38.0187 145.622 37.8502 145.616C37.7884 145.616 37.7276 145.6 37.6738 145.569C37.6738 145.569 37.7386 145.587 37.8502 145.587C38.0121 145.584 38.1694 145.534 38.3038 145.443C38.4802 145.343 38.6638 145.163 38.9086 145.033C39.0423 144.962 39.1929 144.928 39.3442 144.936C39.5033 144.951 39.657 145.002 39.7942 145.083C40.0786 145.242 40.2982 145.443 40.5394 145.573C40.6419 145.632 40.7553 145.67 40.8727 145.685C40.9902 145.7 41.1094 145.691 41.2234 145.659C41.4301 145.587 41.631 145.499 41.8246 145.397Z" fill="#E0E0E0"/>
<path d="M37.9362 144.871C37.9362 144.871 37.9866 144.832 38.0586 144.871C38.0819 144.889 38.0998 144.912 38.1102 144.94C38.1206 144.967 38.1231 144.996 38.1175 145.025C38.1119 145.053 38.0983 145.08 38.0783 145.101C38.0583 145.122 38.0328 145.137 38.0046 145.145C37.9735 145.154 37.9403 145.154 37.909 145.145C37.8777 145.137 37.8496 145.119 37.8282 145.094C37.8138 145.073 37.8044 145.048 37.8006 145.023C37.7969 144.997 37.7989 144.971 37.8066 144.947C37.8354 144.864 37.9002 144.857 37.9002 144.868C37.9002 144.878 37.8678 144.9 37.8606 144.961C37.8563 144.978 37.8566 144.995 37.8614 145.011C37.8663 145.028 37.8755 145.042 37.8881 145.054C37.9007 145.065 37.9162 145.073 37.9329 145.076C37.9497 145.08 37.967 145.079 37.983 145.073C37.999 145.068 38.0135 145.059 38.025 145.046C38.0366 145.034 38.0447 145.019 38.0487 145.003C38.0527 144.987 38.0524 144.97 38.0478 144.953C38.0432 144.937 38.0345 144.923 38.0226 144.911C37.983 144.878 37.9362 144.882 37.9362 144.871Z" fill="#E0E0E0"/>
<path d="M39.2649 145.418C39.2649 145.418 39.2289 145.44 39.2073 145.487C39.2002 145.499 39.1965 145.513 39.1967 145.527C39.1968 145.541 39.2008 145.555 39.2081 145.567C39.2155 145.58 39.226 145.59 39.2385 145.596C39.251 145.603 39.2651 145.606 39.2793 145.606C39.294 145.607 39.3086 145.603 39.3215 145.596C39.3343 145.589 39.3448 145.579 39.3517 145.566C39.3586 145.553 39.3615 145.538 39.3602 145.523C39.3588 145.509 39.3533 145.495 39.3441 145.483C39.3225 145.436 39.2829 145.429 39.2829 145.418C39.2829 145.408 39.3369 145.393 39.3873 145.454C39.4037 145.471 39.4151 145.492 39.4202 145.515C39.4253 145.538 39.4239 145.562 39.4161 145.584C39.4051 145.611 39.3862 145.634 39.3618 145.651C39.3374 145.667 39.3087 145.676 39.2793 145.676C39.2499 145.676 39.2212 145.667 39.1968 145.651C39.1725 145.634 39.1536 145.611 39.1425 145.584C39.1329 145.564 39.1279 145.542 39.1279 145.519C39.1279 145.497 39.1329 145.475 39.1425 145.454C39.2109 145.397 39.2685 145.411 39.2649 145.418Z" fill="#E0E0E0"/>
<path d="M40.9249 145.033C40.9249 145.033 40.8853 145.062 40.8709 145.123C40.8661 145.14 40.8659 145.158 40.8703 145.175C40.8747 145.192 40.8835 145.208 40.8958 145.221C40.9082 145.233 40.9237 145.243 40.9407 145.247C40.9577 145.252 40.9757 145.252 40.9929 145.248C41.01 145.244 41.0257 145.235 41.0384 145.222C41.051 145.21 41.0602 145.195 41.065 145.178C41.0698 145.161 41.07 145.143 41.0656 145.125C41.0612 145.108 41.0524 145.093 41.0401 145.08C41.0077 145.03 40.9609 145.022 40.9609 145.012C40.9609 145.001 41.0185 144.983 41.0797 145.048C41.0977 145.066 41.111 145.088 41.1185 145.112C41.1261 145.137 41.1276 145.163 41.1229 145.188C41.1142 145.219 41.0969 145.247 41.073 145.268C41.049 145.29 41.0195 145.304 40.9877 145.309C40.956 145.315 40.9234 145.311 40.8938 145.298C40.8641 145.286 40.8387 145.265 40.8205 145.238C40.8082 145.216 40.8018 145.19 40.8018 145.165C40.8018 145.139 40.8082 145.113 40.8205 145.091C40.8601 145.026 40.9249 145.022 40.9249 145.033Z" fill="#E0E0E0"/>
<path d="M107.301 143.496H91.5186V148.18H107.301V143.496Z" fill="#455A64"/>
<path d="M107.878 143.219H90.8604V144.119H107.878V143.219Z" fill="#455A64"/>
<path d="M107.233 144.104C107.233 144.155 103.719 144.198 99.3848 144.198C95.0504 144.198 91.5332 144.155 91.5332 144.104C91.5332 144.054 95.0396 144 99.3848 144C103.73 144 107.233 144.054 107.233 144.104Z" fill="#263238"/>
<path d="M107.377 145.332C107.377 145.364 103.813 145.39 99.4212 145.39C95.0292 145.39 91.4688 145.364 91.4688 145.332C91.4688 145.3 95.0292 145.278 99.4212 145.278C103.813 145.278 107.377 145.3 107.377 145.332Z" fill="#FAFAFA"/>
<path d="M107.003 143.219C106.791 142.456 106.456 142.092 105.7 141.962C105.728 141.266 105.508 140.582 105.08 140.031C104.651 139.481 104.042 139.1 103.36 138.956C102.678 138.812 101.966 138.914 101.352 139.244C100.738 139.575 100.261 140.112 100.005 140.76C99.5802 140.404 99.0722 140.162 98.5284 140.056C97.9846 139.951 97.4229 139.986 96.8963 140.158C96.3697 140.33 95.8955 140.633 95.5185 141.039C95.1415 141.444 94.874 141.939 94.7413 142.477C93.6289 141.955 92.3185 142.268 91.8613 143.233L107.003 143.219Z" fill="#263238"/>
<path d="M152.524 130.507C152.524 130.507 151.869 130.32 151.617 131.828C151.477 132.6 151.388 133.381 151.351 134.165C151.351 134.165 151.264 134.492 151.019 134.374C150.775 134.255 150.361 133.83 150.073 134.014C149.785 134.197 149.781 134.611 150.015 135.133C150.249 135.655 150.735 136.814 150.76 136.933C150.785 137.052 150.789 137.21 150.613 137.156C150.436 137.102 149.291 136.436 149.003 136.991C148.715 137.545 149.608 138.892 149.702 139.043C149.795 139.194 149.788 139.27 149.723 139.334C149.659 139.399 149.295 139.136 148.964 138.974C148.633 138.812 148.215 138.647 148.075 138.974C147.934 139.302 148.215 140.44 149.839 141.908L150.638 142.538L151.592 142.178C153.586 141.282 154.198 140.292 154.169 139.928C154.141 139.565 153.701 139.568 153.327 139.644C152.953 139.72 152.531 139.853 152.492 139.77C152.452 139.687 152.463 139.612 152.6 139.496C152.737 139.381 153.993 138.38 153.892 137.758C153.791 137.135 152.499 137.426 152.312 137.423C152.125 137.419 152.168 137.25 152.24 137.164C152.312 137.077 153.115 136.12 153.496 135.695C153.878 135.27 154.007 134.892 153.784 134.615C153.561 134.338 153.043 134.615 152.776 134.658C152.51 134.701 152.524 134.356 152.524 134.356C152.728 133.598 152.883 132.829 152.989 132.052C153.212 130.54 152.51 130.518 152.51 130.518" fill="#37474F"/>
<path d="M152.298 131.857C152.299 131.868 152.299 131.879 152.298 131.89V131.983C152.298 132.066 152.269 132.188 152.248 132.343C152.205 132.656 152.136 133.106 152.053 133.661C151.884 134.77 151.639 136.303 151.362 137.981C151.085 139.658 150.837 141.203 150.664 142.301C150.577 142.852 150.505 143.302 150.459 143.611C150.433 143.766 150.415 143.888 150.401 143.971V144.061C150.402 144.072 150.402 144.083 150.401 144.094C150.4 144.083 150.4 144.072 150.401 144.061V143.968C150.401 143.885 150.43 143.766 150.451 143.608C150.495 143.294 150.559 142.848 150.646 142.29C150.815 141.181 151.06 139.651 151.337 137.97C151.614 136.289 151.863 134.73 152.035 133.65C152.122 133.096 152.194 132.646 152.241 132.336C152.266 132.181 152.284 132.062 152.298 131.976V131.882C152.298 131.874 152.298 131.866 152.298 131.857Z" fill="#263238"/>
<path d="M150.631 134.64C150.648 134.657 150.663 134.676 150.674 134.697C150.703 134.733 150.742 134.791 150.789 134.863C150.883 135.003 151.005 135.201 151.149 135.421L151.484 135.986L151.585 136.159C151.6 136.179 151.612 136.201 151.621 136.224C151.604 136.206 151.588 136.187 151.574 136.166L151.462 136.001C151.372 135.86 151.25 135.659 151.102 135.439L150.764 134.874L150.66 134.705C150.648 134.684 150.639 134.662 150.631 134.64Z" fill="#263238"/>
<path d="M151.704 136.213C151.704 136.213 152.096 135.932 152.59 135.605C153.083 135.277 153.49 135.014 153.497 135.025C153.504 135.036 153.105 135.306 152.611 135.634C152.118 135.961 151.711 136.22 151.704 136.213Z" fill="#263238"/>
<path d="M151.164 138.791L151.232 138.765L151.427 138.704C151.592 138.65 151.819 138.578 152.064 138.488C152.309 138.398 152.532 138.316 152.694 138.251L152.881 138.175L152.953 138.15L152.888 138.186L152.701 138.272C152.546 138.344 152.323 138.434 152.078 138.524C151.834 138.614 151.6 138.679 151.434 138.726L151.236 138.776C151.213 138.784 151.189 138.789 151.164 138.791Z" fill="#263238"/>
<path d="M149.878 137.581L149.932 137.621L150.076 137.747L150.537 138.161L150.991 138.585L151.128 138.719L151.174 138.769C151.174 138.769 151.153 138.769 151.117 138.729L150.976 138.603C150.854 138.499 150.692 138.351 150.512 138.189L150.058 137.765L149.922 137.631C149.893 137.599 149.875 137.581 149.878 137.581Z" fill="#263238"/>
<path d="M149.108 139.795L149.18 139.849L149.364 140.008L149.958 140.537C150.192 140.746 150.397 140.933 150.548 141.073L150.725 141.239L150.786 141.304L150.714 141.25L150.53 141.091L149.936 140.562L149.346 140.04L149.17 139.874L149.108 139.795Z" fill="#263238"/>
<path d="M150.753 141.257L150.843 141.221L151.088 141.134C151.293 141.062 151.577 140.958 151.887 140.839C152.197 140.72 152.474 140.602 152.675 140.515L152.913 140.414C152.941 140.405 152.97 140.4 152.999 140.4L152.917 140.443C152.863 140.472 152.783 140.511 152.683 140.555C152.485 140.648 152.207 140.767 151.894 140.889C151.581 141.012 151.3 141.109 151.091 141.174C150.987 141.21 150.901 141.235 150.843 141.249L150.753 141.257Z" fill="#263238"/>
<path d="M152.6 148.194H149.115L148.392 142.689H153.295L152.6 148.194Z" fill="#263238"/>
<path d="M153.403 142.689H148.154V143.298H153.403V142.689Z" fill="#263238"/>
<path d="M153.27 143.28C153.27 143.302 152.208 143.316 150.897 143.316C149.587 143.316 148.521 143.316 148.521 143.28C148.521 143.244 149.583 143.24 150.897 143.24C152.211 143.24 153.27 143.258 153.27 143.28Z" fill="#E0E0E0"/>
<path d="M152.956 145.397C152.911 145.438 152.86 145.473 152.805 145.501C152.666 145.593 152.514 145.664 152.355 145.714C152.114 145.783 151.856 145.756 151.635 145.638C151.379 145.512 151.156 145.3 150.886 145.148C150.766 145.068 150.627 145.021 150.483 145.012C150.339 145.002 150.195 145.031 150.065 145.094C149.828 145.217 149.644 145.39 149.457 145.49C149.313 145.578 149.147 145.622 148.978 145.616C148.916 145.616 148.856 145.6 148.802 145.57C148.802 145.57 148.863 145.588 148.978 145.588C149.14 145.583 149.297 145.533 149.432 145.444C149.608 145.343 149.792 145.163 150.037 145.033C150.169 144.962 150.318 144.929 150.469 144.936C150.629 144.951 150.784 145.001 150.922 145.084C151.207 145.242 151.426 145.444 151.667 145.573C151.769 145.632 151.882 145.67 151.999 145.685C152.116 145.7 152.234 145.691 152.348 145.66C152.557 145.588 152.76 145.5 152.956 145.397Z" fill="#E0E0E0"/>
<path d="M149.065 144.871C149.065 144.871 149.119 144.832 149.188 144.871C149.208 144.886 149.225 144.905 149.236 144.928C149.248 144.95 149.253 144.975 149.253 145.001C149.25 145.033 149.238 145.065 149.217 145.09C149.197 145.116 149.169 145.135 149.138 145.145C149.107 145.155 149.073 145.156 149.042 145.147C149.01 145.138 148.982 145.119 148.961 145.094C148.947 145.073 148.937 145.048 148.933 145.023C148.93 144.997 148.932 144.971 148.939 144.947C148.968 144.864 149.033 144.857 149.033 144.868C149.033 144.878 148.997 144.9 148.99 144.961C148.986 144.978 148.987 144.995 148.993 145.011C148.998 145.027 149.008 145.042 149.021 145.053C149.033 145.065 149.049 145.072 149.066 145.076C149.082 145.079 149.1 145.078 149.116 145.073C149.132 145.068 149.147 145.059 149.159 145.047C149.171 145.035 149.179 145.019 149.183 145.003C149.187 144.986 149.186 144.969 149.18 144.952C149.175 144.936 149.165 144.922 149.152 144.911C149.112 144.878 149.069 144.882 149.065 144.871Z" fill="#E0E0E0"/>
<path d="M150.397 145.418C150.397 145.418 150.357 145.44 150.339 145.487C150.332 145.499 150.329 145.512 150.328 145.526C150.328 145.54 150.332 145.554 150.339 145.566C150.346 145.578 150.356 145.588 150.368 145.595C150.38 145.602 150.394 145.606 150.408 145.606C150.422 145.606 150.435 145.602 150.447 145.595C150.459 145.588 150.469 145.578 150.476 145.566C150.483 145.554 150.487 145.54 150.487 145.526C150.487 145.512 150.483 145.499 150.476 145.487C150.451 145.44 150.411 145.433 150.415 145.422C150.418 145.411 150.465 145.397 150.519 145.458C150.537 145.478 150.548 145.502 150.552 145.528C150.555 145.554 150.552 145.581 150.541 145.605C150.529 145.629 150.512 145.649 150.489 145.663C150.467 145.678 150.441 145.685 150.415 145.685C150.384 145.687 150.354 145.679 150.328 145.663C150.302 145.647 150.282 145.623 150.271 145.595C150.264 145.573 150.262 145.55 150.266 145.527C150.269 145.505 150.279 145.483 150.292 145.465C150.343 145.397 150.4 145.411 150.397 145.418Z" fill="#E0E0E0"/>
<path d="M152.053 145.033C152.053 145.033 152.017 145.062 152.002 145.123C151.997 145.139 151.996 145.157 151.999 145.173C152.003 145.19 152.011 145.206 152.022 145.218C152.033 145.231 152.048 145.241 152.064 145.246C152.08 145.251 152.097 145.253 152.114 145.249C152.131 145.247 152.147 145.241 152.161 145.231C152.175 145.22 152.186 145.206 152.192 145.19C152.198 145.174 152.2 145.157 152.197 145.14C152.194 145.123 152.187 145.107 152.175 145.094C152.143 145.044 152.1 145.037 152.1 145.026C152.1 145.015 152.157 144.997 152.218 145.062C152.236 145.08 152.25 145.102 152.257 145.127C152.265 145.151 152.266 145.177 152.262 145.202C152.253 145.234 152.236 145.262 152.212 145.284C152.187 145.306 152.157 145.32 152.125 145.325C152.093 145.33 152.06 145.326 152.03 145.314C152 145.301 151.974 145.28 151.956 145.253C151.945 145.23 151.939 145.204 151.939 145.179C151.939 145.153 151.945 145.128 151.956 145.105C151.992 145.026 152.056 145.022 152.053 145.033Z" fill="#E0E0E0"/>
</svg>
