<svg width="25" height="24" viewBox="0 0 25 24" fill="none" xmlns="http://www.w3.org/2000/svg">
<g clip-path="url(#clip0_1000_6081)">
<mask id="mask0_1000_6081" style="mask-type:luminance" maskUnits="userSpaceOnUse" x="0" y="0" width="25" height="24">
<path d="M24.1592 0H0.15918V24H24.1592V0Z" fill="white"/>
</mask>
<g mask="url(#mask0_1000_6081)">
<path opacity="0.4" d="M15.6392 3H7.67918C4.22918 3 2.15918 5.06 2.15918 8.52V16.47C2.15918 19.94 4.22918 22 7.67918 22H15.6292C19.0892 22 21.1492 19.94 21.1492 16.48V8.52C21.1592 5.06 19.0892 3 15.6392 3Z" fill="#616161"/>
<path d="M21.1796 2.98028C19.3896 1.18028 17.6396 1.14028 15.7996 2.98028L14.6696 4.10028C14.5696 4.20028 14.5396 4.34028 14.5796 4.47028C15.2796 6.92028 17.2396 8.88028 19.6896 9.58028C19.7196 9.59028 19.7696 9.59028 19.7996 9.59028C19.8996 9.59028 19.9996 9.55028 20.0696 9.48028L21.1796 8.36028C22.0896 7.45028 22.5396 6.58028 22.5396 5.69028C22.5396 4.79028 22.0896 3.90028 21.1796 2.98028Z" fill="#616161"/>
<path d="M18.0193 10.4198C17.7493 10.2898 17.4893 10.1598 17.2493 10.0098C17.0493 9.88984 16.8493 9.75984 16.6593 9.61984C16.4993 9.51984 16.3193 9.36984 16.1393 9.21984C16.1193 9.20984 16.0593 9.15984 15.9793 9.07984C15.6693 8.82984 15.3393 8.48984 15.0293 8.11984C15.0093 8.09984 14.9493 8.03984 14.8993 7.94984C14.7993 7.83984 14.6493 7.64984 14.5193 7.43984C14.4093 7.29984 14.2793 7.09984 14.1593 6.88984C14.0093 6.63984 13.8793 6.38984 13.7593 6.12984C13.6293 5.84984 13.5293 5.58984 13.4393 5.33984L8.05928 10.7198C7.70928 11.0698 7.36928 11.7298 7.29928 12.2198L6.86928 15.1998C6.77928 15.8298 6.94928 16.4198 7.33928 16.8098C7.66928 17.1398 8.11928 17.3098 8.61928 17.3098C8.72928 17.3098 8.83928 17.2998 8.94928 17.2898L11.9193 16.8698C12.4093 16.7998 13.0693 16.4698 13.4193 16.1098L18.7993 10.7298C18.5493 10.6498 18.2993 10.5398 18.0193 10.4198Z" fill="#616161"/>
</g>
</g>
<defs>
<clipPath id="clip0_1000_6081">
<rect width="24" height="24" fill="white" transform="translate(0.15918)"/>
</clipPath>
</defs>
</svg>
