<svg width="30" height="30" viewBox="0 0 30 30" fill="none" xmlns="http://www.w3.org/2000/svg">
<g clip-path="url(#clip0_114_1114)">
<mask id="mask0_114_1114" style="mask-type:luminance" maskUnits="userSpaceOnUse" x="0" y="0" width="30" height="30">
<path d="M30 0H0V30H30V0Z" fill="white"/>
</mask>
<g mask="url(#mask0_114_1114)">
<path opacity="0.4" d="M22.5 23.5746H21.55C20.55 23.5746 19.6 23.9622 18.9 24.6622L16.7625 26.7747C15.7875 27.7372 14.2 27.7372 13.225 26.7747L11.0875 24.6622C10.3875 23.9622 9.425 23.5746 8.4375 23.5746H7.5C5.425 23.5746 3.75 21.9122 3.75 19.8622V6.22471C3.75 4.17471 5.425 2.51221 7.5 2.51221H22.5C24.575 2.51221 26.25 4.17471 26.25 6.22471V19.8622C26.25 21.8997 24.575 23.5746 22.5 23.5746Z" fill="#00B25D"/>
<path d="M15.35 18.7C15.1625 18.7625 14.85 18.7625 14.65 18.7C13.025 18.1375 9.375 15.825 9.375 11.8875C9.375 10.15 10.775 8.75 12.5 8.75C13.525 8.75 14.425 9.2375 15 10C15.575 9.2375 16.475 8.75 17.5 8.75C19.225 8.75 20.625 10.15 20.625 11.8875C20.6125 15.825 16.975 18.1375 15.35 18.7Z" fill="#00B25D"/>
</g>
</g>
<defs>
<clipPath id="clip0_114_1114">
<rect width="30" height="30" fill="white"/>
</clipPath>
</defs>
</svg>
