<svg width="18" height="18" viewBox="0 0 18 18" fill="none" xmlns="http://www.w3.org/2000/svg">
<g clip-path="url(#clip0_1046_2222)">
<mask id="mask0_1046_2222" style="mask-type:luminance" maskUnits="userSpaceOnUse" x="-2" y="-2" width="20" height="20">
<path d="M18 -2H-2V18H18V-2Z" fill="white"/>
</mask>
<g mask="url(#mask0_1046_2222)">
<path d="M8 9.45841C7.65833 9.45841 7.375 9.17508 7.375 8.83341V4.66675C7.375 4.32508 7.65833 4.04175 8 4.04175C8.34167 4.04175 8.625 4.32508 8.625 4.66675V8.83341C8.625 9.17508 8.34167 9.45841 8 9.45841Z" fill="#21C59F"/>
<path d="M10.4086 0.875081H5.59194C5.25861 0.875081 4.99194 0.608415 4.99194 0.275081C4.99194 -0.0582519 5.25861 -0.333252 5.59194 -0.333252H10.4086C10.7419 -0.333252 11.0086 -0.0665853 11.0086 0.266748C11.0086 0.600081 10.7419 0.875081 10.4086 0.875081Z" fill="#21C59F"/>
<path opacity="0.4" d="M10.5002 14.6419V12.1919C10.5002 11.1336 11.1335 10.5002 12.1918 10.5002H14.6418C14.8002 10.5002 14.9418 10.5169 15.0835 10.5502C15.1752 10.0836 15.2252 9.60024 15.2252 9.10858C15.2252 5.12521 11.9835 1.88354 8.00016 1.88354C4.01681 1.88354 0.775146 5.12521 0.775146 9.10858C0.775146 13.0919 4.01681 16.3336 8.00016 16.3336C9.0085 16.3336 9.96683 16.1252 10.8418 15.7502C10.6252 15.4669 10.5002 15.1002 10.5002 14.6419Z" fill="#21C59F"/>
<path d="M14.6417 10.5H12.1917C11.1333 10.5 10.5 11.1333 10.5 12.1917V14.6417C10.5 15.7 11.1333 16.3333 12.1917 16.3333H14.6417C15.7 16.3333 16.3333 15.7 16.3333 14.6417V12.1917C16.3333 11.1333 15.7 10.5 14.6417 10.5ZM14.4083 14.2167L13.425 14.7833C13.225 14.9 13.025 14.9583 12.8417 14.9583C12.7 14.9583 12.575 14.925 12.4583 14.8583C12.1917 14.7 12.0417 14.3917 12.0417 13.9833V12.85C12.0417 12.4417 12.1917 12.1333 12.4583 11.975C12.725 11.8167 13.0667 11.85 13.425 12.05L14.4083 12.6167C14.7583 12.825 14.9583 13.1083 14.9583 13.4167C14.9583 13.725 14.7667 14.0083 14.4083 14.2167Z" fill="#21C59F"/>
</g>
</g>
<defs>
<clipPath id="clip0_1046_2222">
<rect width="20" height="20" fill="white" transform="translate(-2 -2)"/>
</clipPath>
</defs>
</svg>
