<svg width="52" height="52" viewBox="0 0 52 52" fill="none" xmlns="http://www.w3.org/2000/svg">
<g clip-path="url(#clip0_119_1374)">
<rect width="52" height="52" rx="26" fill="#FFDBD1" fill-opacity="0.4"/>
<path d="M8.23434 29.3152C8.55536 27.331 8.90029 25.2853 9.97947 23.588C10.946 22.0683 12.5306 20.7022 12.4384 18.9025C12.3906 18.0145 11.9227 17.1949 11.8578 16.3035C11.7553 14.8897 12.797 13.5236 14.1425 13.0762C14.6509 12.8975 15.1915 12.8288 15.7284 12.8748C16.2654 12.9207 16.7865 13.0802 17.2571 13.3426V13.2982C18.6744 9.01223 25.9042 7.40028 29.7394 8.19943C31.8177 8.65668 33.741 9.64727 35.3201 11.0737C36.8992 12.5001 38.0796 14.3131 38.7452 16.3343C38.9791 17.2601 39.2641 18.1722 39.5989 19.0664C41.2485 22.823 44.9129 22.4815 46.0877 28.5775C47.0747 33.7344 44.1957 39.3591 41.3065 41.2784C33.7556 46.2782 20.1156 44.9804 15.3173 43.3514C6.81706 40.4725 7.89282 31.4326 8.23434 29.3152Z" fill="#E83F53"/>
<path d="M10.7615 31.4531C10.7615 31.4531 10.2697 37.655 13.8146 42.7231C14.2988 42.9614 14.7986 43.1668 15.3104 43.3378C19.6921 44.8268 31.447 46.0323 39.2164 42.4259C40.924 39.6392 41.6924 35.9782 41.0162 31.4395L10.7615 31.4531Z" fill="#BF2133"/>
<path d="M29.0154 10.0026C35.2685 10.9998 39.0491 17.2905 39.0491 17.2905C38.9637 16.9695 38.8749 16.6485 38.7759 16.3343C38.1073 14.3129 36.9237 12.5005 35.3415 11.0759C33.7593 9.65119 31.8333 8.66335 29.7531 8.20968C25.9179 7.41054 18.688 9.02248 17.2708 13.3085V13.3529C17.2708 13.3529 22.7486 9.00199 29.0154 10.0026Z" fill="#FF7081"/>
<path d="M14.1425 13.0762C13.5639 13.2736 13.0489 13.6227 12.6512 14.087C12.2535 14.5514 11.9878 15.114 11.8817 15.7161C13.4109 14.4683 15.241 13.6439 17.1888 13.3255C16.7264 13.0742 16.2166 12.9222 15.692 12.8793C15.1674 12.8364 14.6397 12.9034 14.1425 13.0762Z" fill="#FF7081"/>
<path d="M15.2386 46.9504C21.2424 44.5359 23.2164 41.5374 22.7041 37.2173H29.3021C28.7899 41.5374 30.7672 44.5359 36.7676 46.9504C42.768 49.3649 43.574 52.0014 43.574 52.0014H8.43567C8.43567 52.0014 9.23823 49.3649 15.2386 46.9504Z" fill="#FFDF57"/>
<path d="M29.3021 37.2173H22.7041C23.0763 40.3592 22.1303 42.801 19.2889 44.8296C20.1728 45.7749 21.2367 46.5339 22.4182 47.062C23.5997 47.59 24.8748 47.8765 26.1686 47.9045C27.4624 47.9325 28.7488 47.7015 29.952 47.225C31.1552 46.7486 32.251 46.0363 33.1749 45.1301C29.9749 43.0435 28.9128 40.5163 29.3021 37.2173Z" fill="#FFA3A3"/>
<path d="M26.8159 37.2173H22.7177C22.9602 39.2664 22.6426 41.0013 21.6112 42.5278C22.9528 43.2581 24.4623 43.6243 25.9894 43.5899C27.5455 43.5221 29.0836 43.2287 30.5554 42.7191C29.4216 41.1447 29.0664 39.3415 29.3158 37.2173H26.8159Z" fill="#FF8282"/>
<path d="M17.4204 29.4239C18.5235 31.5345 18.0624 33.9558 16.3959 34.8301C14.7293 35.7044 12.4719 34.7037 11.3688 32.5932C10.2657 30.4826 10.7267 28.0647 12.3933 27.1904C14.0599 26.3161 16.3173 27.3339 17.4204 29.4239Z" fill="#FF8282"/>
<path d="M16.4539 33.4538C16.4539 33.3684 16.43 33.2933 16.4197 33.2113C16.4197 33.2728 16.4402 33.3206 16.447 33.3616C16.4476 33.0006 16.3852 32.6424 16.2626 32.3029C16.0382 31.2985 15.5164 30.385 14.7653 29.6814C14.0142 28.9779 13.0686 28.5168 12.0518 28.3584C13.3938 29.1311 14.5576 30.1785 15.4669 31.432C14.2682 30.9437 12.4103 31.9819 12.4103 31.9819C14.6131 31.3979 15.6137 31.8794 16.0748 32.4395C16.2382 32.7625 16.3654 33.1027 16.4539 33.4538Z" fill="#FF4F4F"/>
<path d="M34.3461 29.4239C33.243 31.5345 33.704 33.9558 35.3706 34.8301C37.0372 35.7044 39.2946 34.7037 40.3977 32.5932C41.5008 30.4826 41.0397 28.0647 39.3731 27.1904C37.7066 26.3161 35.4492 27.3339 34.3461 29.4239Z" fill="#FF8282"/>
<path d="M35.316 33.4538C35.316 33.3684 35.3365 33.2933 35.3468 33.2113C35.3354 33.2608 35.3274 33.311 35.3229 33.3616C35.3213 33.0008 35.3825 32.6426 35.5039 32.3029C35.7283 31.2985 36.2501 30.385 37.0012 29.6814C37.7522 28.9779 38.6978 28.5168 39.7147 28.3584C38.3741 29.1331 37.2108 30.1802 36.2996 31.432C37.5017 30.9437 39.3561 31.9819 39.3561 31.9819C37.1534 31.3979 36.1527 31.8794 35.6917 32.4395C35.5281 32.7621 35.4021 33.1024 35.316 33.4538Z" fill="#FF4F4F"/>
<path d="M25.9762 41.8458C33.3392 41.4326 36.365 37.1944 36.365 31.4536V25.0161C36.3655 24.0017 36.1661 22.9973 35.7782 22.0601C35.3904 21.1228 34.8217 20.2712 34.1046 19.5538C33.3876 18.8365 32.5362 18.2674 31.5991 17.8791C30.6621 17.4909 29.6577 17.291 28.6434 17.291H23.3056C19.0401 17.291 18.0223 19.6987 17.2539 25.7537C17.0661 27.2256 15.5464 29.0801 15.5839 31.4536C15.6352 37.1944 21.5024 42.0986 25.9762 41.8458Z" fill="#FDBFA8"/>
<path opacity="0.47" d="M25.7439 35.6645C25.7439 35.6645 28.1345 35.8797 29.2444 34.4521C29.2444 34.4521 29.323 35.8182 28.1106 36.1973C26.8982 36.5764 25.7439 35.6645 25.7439 35.6645Z" fill="#FF8282"/>
<path d="M31.1229 28.5774C31.1229 29.38 30.8394 30.0323 30.4876 30.0323C30.1359 30.0323 29.8524 29.38 29.8524 28.5774C29.8524 27.7749 30.1359 27.1226 30.4876 27.1226C30.8394 27.1226 31.1229 27.7714 31.1229 28.5774Z" fill="#2E230E"/>
<path d="M20.8978 28.5774C20.8978 29.38 21.1813 30.0323 21.533 30.0323C21.8848 30.0323 22.1853 29.3834 22.1853 28.5774C22.1853 27.7715 21.9019 27.1192 21.5501 27.1226C21.1984 27.126 20.8978 27.7715 20.8978 28.5774Z" fill="#2E230E"/>
<path d="M18.3774 26.8497C18.3774 26.8497 21.6423 25.0943 23.3943 24.8792C23.3066 24.6211 23.1662 24.384 22.9819 24.1832C22.7977 23.9823 22.5736 23.822 22.324 23.7124C22.0744 23.6029 21.8047 23.5465 21.5321 23.5469C21.2595 23.5473 20.99 23.6044 20.7407 23.7146C20.0745 23.9345 19.4912 24.3525 19.0689 24.9127C18.6466 25.4729 18.4054 26.1487 18.3774 26.8497Z" fill="#A31727"/>
<path d="M33.5714 26.85C33.5714 26.85 30.3065 25.0946 28.5546 24.8794C28.6427 24.6216 28.7833 24.3849 28.9677 24.1844C29.152 23.9838 29.376 23.8237 29.6255 23.7142C29.875 23.6047 30.1445 23.5482 30.4169 23.5483C30.6893 23.5485 30.9588 23.6052 31.2081 23.7149C31.8744 23.9347 32.4576 24.3527 32.8799 24.9129C33.3022 25.4732 33.5435 26.1489 33.5714 26.85Z" fill="#A31727"/>
<path d="M27.5711 31.5897C27.5836 31.7543 27.5619 31.9197 27.5075 32.0755C27.4531 32.2313 27.3671 32.3742 27.2548 32.4952C27.1426 32.6162 27.0066 32.7127 26.8554 32.7788C26.7041 32.8448 26.5409 32.8789 26.3758 32.8789C26.2108 32.8789 26.0475 32.8448 25.8963 32.7788C25.745 32.7127 25.609 32.6162 25.4968 32.4952C25.3846 32.3742 25.2986 32.2313 25.2442 32.0755C25.1898 31.9197 25.1681 31.7543 25.1805 31.5897C25.1805 30.9067 25.7167 29.1104 26.3792 29.1104C27.0418 29.1104 27.5711 30.9135 27.5711 31.5897Z" fill="#FF8282"/>
<path d="M20.8974 33.5195C20.8552 33.5202 20.8133 33.5121 20.7744 33.4956C20.7416 33.481 20.7121 33.4599 20.6877 33.4335C20.6633 33.4072 20.6445 33.3761 20.6323 33.3423C20.6202 33.3085 20.615 33.2726 20.6172 33.2367C20.6193 33.2009 20.6286 33.1658 20.6447 33.1336L21.5326 31.3748C21.5675 31.3101 21.626 31.2612 21.6959 31.2384C21.7658 31.2155 21.8418 31.2203 21.9083 31.2519C21.9699 31.2809 22.0179 31.3327 22.0421 31.3964C22.0663 31.4602 22.0649 31.5308 22.038 31.5934L21.1501 33.3522C21.1281 33.4012 21.0927 33.4429 21.048 33.4725C21.0032 33.5021 20.951 33.5184 20.8974 33.5195Z" fill="#FF8282"/>
<path d="M19.1113 33.5195C19.0691 33.5202 19.0272 33.5121 18.9883 33.4956C18.9555 33.4809 18.926 33.4598 18.9015 33.4336C18.877 33.4073 18.858 33.3764 18.8456 33.3427C18.8332 33.3089 18.8276 33.2731 18.8293 33.2372C18.8309 33.2013 18.8397 33.1661 18.8551 33.1336L19.7465 31.3748C19.7814 31.3101 19.8398 31.2612 19.9098 31.2384C19.9797 31.2155 20.0557 31.2203 20.1221 31.2519C20.1838 31.2809 20.2318 31.3327 20.256 31.3964C20.2802 31.4602 20.2788 31.5308 20.2519 31.5934L19.364 33.3522C19.342 33.4012 19.3066 33.4429 19.2619 33.4725C19.2171 33.5021 19.1649 33.5184 19.1113 33.5195Z" fill="#FF8282"/>
<path d="M31.6585 33.5191C31.6062 33.5198 31.5546 33.5062 31.5095 33.4797C31.4643 33.4532 31.4273 33.4149 31.4024 33.3688L30.5144 31.61C30.4887 31.5469 30.4882 31.4762 30.513 31.4127C30.5377 31.3492 30.5859 31.2976 30.6476 31.2685C30.7141 31.2369 30.7901 31.2321 30.86 31.255C30.9299 31.2778 30.9884 31.3267 31.0233 31.3915L31.9112 33.1502C31.9277 33.1825 31.9372 33.2178 31.9394 33.254C31.9415 33.2901 31.9362 33.3263 31.9237 33.3603C31.9112 33.3943 31.8918 33.4253 31.8667 33.4515C31.8417 33.4776 31.8115 33.4983 31.778 33.5122C31.7391 33.5229 31.6984 33.5252 31.6585 33.5191Z" fill="#FF8282"/>
<path d="M33.0553 33.3657C33.0032 33.3654 32.9521 33.351 32.9076 33.3239C32.8631 33.2968 32.8268 33.2581 32.8026 33.212L31.9146 31.4532C31.8987 31.4213 31.8894 31.3865 31.8873 31.3508C31.8852 31.3152 31.8904 31.2796 31.9025 31.246C31.9147 31.2125 31.9335 31.1817 31.9579 31.1557C31.9823 31.1297 32.0117 31.1089 32.0444 31.0946C32.1111 31.0624 32.1878 31.0576 32.258 31.0812C32.3282 31.1048 32.3864 31.155 32.4201 31.2209L33.308 32.9763C33.324 33.0085 33.3334 33.0435 33.3355 33.0794C33.3376 33.1153 33.3325 33.1512 33.3203 33.185C33.3082 33.2188 33.2894 33.2498 33.265 33.2762C33.2405 33.3025 33.211 33.3237 33.1782 33.3383C33.1395 33.3555 33.0977 33.3648 33.0553 33.3657Z" fill="#FF8282"/>
<path d="M25.9214 34.9163C25.3 34.917 24.6816 34.8308 24.0841 34.6602C23.9976 34.6334 23.9253 34.5735 23.883 34.4934C23.8408 34.4134 23.832 34.3198 23.8587 34.2333C23.8719 34.1901 23.8936 34.15 23.9224 34.1152C23.9513 34.0804 23.9867 34.0517 24.0268 34.0308C24.0668 34.0098 24.1106 33.997 24.1556 33.9931C24.2006 33.9891 24.2459 33.9942 24.289 34.0079C24.3163 34.0079 27.3626 34.9402 28.9745 32.898C29.0303 32.8264 29.1121 32.7799 29.2021 32.7687C29.2921 32.7575 29.3828 32.7825 29.4544 32.8382C29.5259 32.8939 29.5724 32.9758 29.5836 33.0658C29.5948 33.1557 29.5698 33.2465 29.5141 33.318C29.0809 33.8455 28.5305 34.2647 27.9068 34.5421C27.2831 34.8196 26.6033 34.9477 25.9214 34.9163Z" fill="#FF8282"/>
<path d="M34.0115 15.8251L26.5221 13.9331L16.1435 17.2902L15.6722 30.4077C17.3149 28.4167 19.1454 22.1807 20.047 18.8133C22.6255 23.4477 30.8594 23.796 34.7697 23.6867C34.8107 29.3422 36.3133 31.4527 36.3133 31.4527L36.87 23.5774L34.0115 15.8251Z" fill="#E83F53"/>
</g>
<defs>
<clipPath id="clip0_119_1374">
<rect width="52" height="52" rx="26" fill="white"/>
</clipPath>
</defs>
</svg>
