<svg width="18" height="17" viewBox="0 0 18 17" fill="none" xmlns="http://www.w3.org/2000/svg">
<mask id="mask0_332_6823" style="mask-type:luminance" maskUnits="userSpaceOnUse" x="0" y="0" width="18" height="17">
<path d="M18 0H0V16.0843H18V0Z" fill="white"/>
</mask>
<g mask="url(#mask0_332_6823)">
<path d="M16.5001 9.3153V10.85C16.5001 13.2895 14.8726 14.7438 12.1426 14.7438H5.85754C3.94504 14.7438 2.56504 14.0267 1.92004 12.7533L2.00254 12.6997L5.69254 10.4881C6.29254 10.1262 7.14004 10.1664 7.67257 10.5819L7.92757 10.7696C8.51257 11.2186 9.45757 11.2186 10.0426 10.7696L13.1626 8.37705C13.7476 7.92803 14.6926 7.92803 15.2776 8.37705L16.5001 9.3153Z" fill="#00B25D"/>
<path opacity="0.4" d="M15.7275 5.36141H13.5225C12.57 5.36141 12 4.85207 12 4.00095V2.03062C12 1.76255 12.06 1.53468 12.165 1.34033C12.1575 1.34033 12.15 1.34033 12.1425 1.34033H5.8575C3.1275 1.34033 1.5 2.79462 1.5 5.23408V10.8502C1.5 11.5807 1.6425 12.2174 1.92 12.7535L2.0025 12.6999L5.6925 10.4883C6.2925 10.1264 7.14 10.1666 7.6725 10.5821L7.9275 10.7698C8.5125 11.2188 9.4575 11.2188 10.0425 10.7698L13.1625 8.37722C13.7475 7.9282 14.6925 7.9282 15.2775 8.37722L16.5 9.31547V5.23408C16.5 5.22738 16.5 5.22067 16.5 5.21397C16.2825 5.3078 16.0275 5.36141 15.7275 5.36141Z" fill="#00B25D"/>
<path d="M6.75009 6.9564C7.73595 6.9564 8.53507 6.2423 8.53507 5.36139C8.53507 4.48047 7.73595 3.76636 6.75009 3.76636C5.76426 3.76636 4.96509 4.48047 4.96509 5.36139C4.96509 6.2423 5.76426 6.9564 6.75009 6.9564Z" fill="#00B25D"/>
<path d="M15.7275 0.670166H13.5225C12.57 0.670166 12 1.1795 12 2.03063V4.00096C12 4.85209 12.57 5.36143 13.5225 5.36143H15.7275C16.68 5.36143 17.25 4.85209 17.25 4.00096V2.03063C17.25 1.1795 16.68 0.670166 15.7275 0.670166ZM16.4325 3.30397C16.3575 3.37099 16.245 3.4179 16.125 3.42461H15.0675L15.075 4.35616C15.0675 4.47009 15.0225 4.56391 14.9325 4.64433C14.8575 4.71135 14.745 4.75826 14.625 4.75826C14.3775 4.75826 14.175 4.57732 14.175 4.35616V3.4179L13.125 3.42461C12.8775 3.42461 12.675 3.23696 12.675 3.0158C12.675 2.79464 12.8775 2.61369 13.125 2.61369L14.175 2.62039V1.68214C14.175 1.46098 14.3775 1.27333 14.625 1.27333C14.8725 1.27333 15.075 1.46098 15.075 1.68214L15.0675 2.61369H16.125C16.3725 2.61369 16.575 2.79464 16.575 3.0158C16.5675 3.12973 16.515 3.22355 16.4325 3.30397Z" fill="#00B25D"/>
</g>
</svg>
