<svg width="23" height="31" viewBox="0 0 23 31" fill="none" xmlns="http://www.w3.org/2000/svg">
<g clip-path="url(#clip0_104_1084)">
<path d="M6.3418 22.9641C7.29535 24.1067 8.16327 25.3103 8.93927 26.566C9.60178 27.7471 9.87796 28.5479 10.3621 29.971C10.6591 30.7572 10.9274 30.9919 11.5044 30.9919C12.1331 30.9919 12.4184 30.5927 12.6388 29.9753C13.0964 28.6314 13.4555 27.6058 14.0221 26.6367C15.1338 24.7657 16.5153 23.1031 17.8726 21.5052C18.2401 21.0529 20.6159 18.4183 21.6855 16.3394C21.6855 16.3394 23.0001 14.0558 23.0001 10.8665C23.0001 7.88327 21.7036 5.81421 21.7036 5.81421L17.9711 6.75401L15.7043 12.367L15.1435 13.141L15.0314 13.2812L14.8823 13.4568L14.6204 13.7371L14.2463 14.0888L12.2278 15.6349L7.1813 18.3744L6.3418 22.9641Z" fill="#34A853"/>
<path d="M1.13281 15.9554C2.36448 18.6004 4.73959 20.9255 6.34654 22.9659L14.8818 13.4603C14.8818 13.4603 13.6793 14.9388 11.4981 14.9388C9.06844 14.9388 7.10563 13.1147 7.10563 10.8147C7.10563 9.23737 8.11493 8.15381 8.11493 8.15381L2.321 9.61343L1.13281 15.9554Z" fill="#FBBC04"/>
<path d="M14.9771 0.48877C17.8119 1.34807 20.2382 3.15207 21.7058 5.81224L14.8844 13.4548C14.8844 13.4548 15.8937 12.3516 15.8937 10.7841C15.8937 8.43051 13.7857 6.67221 11.5084 6.67221C9.35495 6.67221 8.11816 8.1483 8.11816 8.1483V3.33359L14.9771 0.48877Z" fill="#4285F4"/>
<path d="M2.69629 3.86571C4.38939 1.96119 7.36861 0 11.4759 0C13.4686 0 14.9699 0.491861 14.9699 0.491861L8.11162 8.15258H3.25242L2.69629 3.86571Z" fill="#1A73E8"/>
<path d="M1.13311 15.9555C1.13311 15.9555 0 13.8693 0 10.847C0 7.9905 1.18109 5.4936 2.69666 3.86572L8.11586 8.15327L1.13311 15.9555Z" fill="#EA4335"/>
</g>
<defs>
<clipPath id="clip0_104_1084">
<rect width="23" height="31" fill="white"/>
</clipPath>
</defs>
</svg>
