<svg width="20" height="20" viewBox="0 0 20 20" fill="none" xmlns="http://www.w3.org/2000/svg">
<g clip-path="url(#clip0_984_5705)">
<mask id="mask0_984_5705" style="mask-type:luminance" maskUnits="userSpaceOnUse" x="0" y="0" width="20" height="20">
<path d="M20 0H0V20H20V0Z" fill="white"/>
</mask>
<g mask="url(#mask0_984_5705)">
<path opacity="0.4" d="M3.47483 12.7499L7.24983 16.5249C8.79984 18.0749 11.3165 18.0749 12.8748 16.5249L16.5332 12.8666C18.0832 11.3166 18.0832 8.79992 16.5332 7.24159L12.7498 3.47492C11.9582 2.68325 10.8665 2.25825 9.74984 2.31659L5.58316 2.51659C3.9165 2.59159 2.5915 3.91659 2.50816 5.57492L2.30816 9.74159C2.25816 10.8666 2.68316 11.9583 3.47483 12.7499Z" fill="#21C59F"/>
<path d="M7.9166 10.3168C9.24208 10.3168 10.3166 9.24233 10.3166 7.91685C10.3166 6.59136 9.24208 5.51685 7.9166 5.51685C6.59112 5.51685 5.5166 6.59136 5.5166 7.91685C5.5166 9.24233 6.59112 10.3168 7.9166 10.3168Z" fill="#21C59F"/>
<path d="M10.8334 14.7922C10.675 14.7922 10.5167 14.7339 10.3917 14.6089C10.15 14.3672 10.15 13.9672 10.3917 13.7255L13.725 10.3922C13.9667 10.1505 14.3667 10.1505 14.6084 10.3922C14.85 10.6339 14.85 11.0339 14.6084 11.2755L11.275 14.6089C11.15 14.7339 10.9917 14.7922 10.8334 14.7922Z" fill="#21C59F"/>
</g>
</g>
<defs>
<clipPath id="clip0_984_5705">
<rect width="20" height="20" fill="white"/>
</clipPath>
</defs>
</svg>
