<svg width="19" height="17" viewBox="0 0 19 17" fill="none" xmlns="http://www.w3.org/2000/svg">
<path d="M9.74271 16.5051C9.43514 16.5051 9.14222 16.4619 8.89324 16.3754C5.74429 15.3235 0.75 11.5479 0.75 5.92783C0.75 2.93047 3.21053 0.495117 6.24225 0.495117C7.56045 0.495117 8.77607 0.941841 9.75735 1.74883C10.7386 0.941841 11.9689 0.495117 13.2577 0.495117C16.2895 0.495117 18.75 2.93047 18.75 5.92783C18.75 11.5335 13.7557 15.309 10.5922 16.3754C10.3432 16.4619 10.0356 16.5051 9.74271 16.5051ZM6.22762 2.67107C4.41152 2.67107 2.93227 4.14096 2.93227 5.94224C2.93227 10.9715 7.86802 13.7671 9.59625 14.3435C9.65483 14.358 9.80129 14.358 9.85987 14.3435C11.5881 13.7671 16.5238 10.9715 16.5238 5.94224C16.5238 4.14096 15.0446 2.67107 13.2285 2.67107C12.2032 2.67107 11.222 3.16104 10.6068 3.98243C10.1967 4.53003 9.25939 4.53003 8.8493 3.98243C8.23417 3.14663 7.28218 2.67107 6.22762 2.67107Z" fill="#00B25D"/>
</svg>
