<svg width="400" height="400" viewBox="0 0 400 400" fill="none" xmlns="http://www.w3.org/2000/svg">
<path d="M362.456 310.512C362.76 284.696 339.88 268.24 340.496 248.624C341.128 228.496 360.784 209.856 350.008 157.664C339.232 105.472 286.6 79.368 238.4 90.552C190.2 101.736 200.992 131.568 155.344 130.816C109.696 130.064 73.6 130.072 46.312 193.448C20.896 252.528 37.352 303.848 39.704 310.512H362.456Z" fill="#00B25D"/>
<path opacity="0.7" d="M362.456 310.512C362.76 284.696 339.88 268.24 340.496 248.624C341.128 228.496 360.784 209.856 350.008 157.664C339.232 105.472 286.6 79.368 238.4 90.552C190.2 101.736 200.992 131.568 155.344 130.816C109.696 130.064 73.6 130.072 46.312 193.448C20.896 252.528 37.352 303.848 39.704 310.512H362.456Z" fill="white"/>
<path d="M356.8 309.952L254.96 100.8L216.8 170.048L168.072 138.16L125.792 184.16L105.704 164.776L49.1601 292.824L37.0801 309.952H356.8Z" fill="#00B25D"/>
<path opacity="0.5" d="M356.8 309.952L254.96 100.8L216.8 170.048L168.072 138.16L125.792 184.16L105.704 164.776L49.1601 292.824L37.0801 309.952H356.8Z" fill="white"/>
<path d="M250.264 194.136L252.728 196.024" stroke="white" stroke-linecap="round" stroke-linejoin="round"/>
<path d="M219.96 170.992L246.8 191.488" stroke="white" stroke-linecap="round" stroke-linejoin="round"/>
<path d="M122.112 190.104L103.456 210.584" stroke="white" stroke-linecap="round" stroke-linejoin="round"/>
<path d="M263.032 148.416V126.776L265.672 127.832L265.888 123.24L254.96 100.8L241.136 125.896L248.784 119.392L250.368 126.776L254.592 123.616L263.032 148.416Z" fill="white"/>
<path d="M181.184 155.368L182.704 147.736L168.072 138.16L156.776 150.456L165.2 147.176L170.528 155.368L170.936 149.224L181.184 155.368Z" fill="white"/>
<path d="M341.856 217.336H207.96V309.6H341.856V217.336Z" fill="#00B25D" stroke="#263238" stroke-linecap="round" stroke-linejoin="round"/>
<path d="M289.456 264.8H270.776V309.6H289.456V264.8Z" fill="white" stroke="#263238" stroke-linecap="round" stroke-linejoin="round"/>
<path d="M287.456 268H272.776V309.6H287.456V268Z" fill="#263238" stroke="#263238" stroke-linecap="round" stroke-linejoin="round"/>
<path d="M300.76 258.744H296.792V309.6H300.76V258.744Z" fill="white" stroke="#263238" stroke-linecap="round" stroke-linejoin="round"/>
<path d="M301.456 291.744H296.096V309.6H301.456V291.744Z" fill="white" stroke="#263238" stroke-linecap="round" stroke-linejoin="round"/>
<path d="M345.952 218.528H221.536C221.488 218.528 221.441 218.511 221.404 218.481C221.367 218.45 221.342 218.408 221.332 218.361C221.323 218.314 221.33 218.265 221.353 218.222C221.375 218.18 221.412 218.146 221.456 218.128L256.2 203.08C256.829 202.806 257.507 202.664 258.192 202.664H306.144C306.78 202.663 307.41 202.786 308 203.024L346.032 218.12C346.085 218.132 346.131 218.164 346.16 218.21C346.189 218.255 346.2 218.31 346.189 218.363C346.179 218.416 346.149 218.462 346.104 218.493C346.06 218.524 346.005 218.537 345.952 218.528Z" fill="#263238" stroke="#263238" stroke-linecap="round" stroke-linejoin="round"/>
<path d="M305.32 262.664H233.856L239.2 247.2H295.856L305.32 262.664Z" fill="#263238" stroke="#263238" stroke-linecap="round" stroke-linejoin="round"/>
<path d="M264.456 217.336H203.248V309.6H264.456V217.336Z" fill="white" stroke="#263238" stroke-linecap="round" stroke-linejoin="round"/>
<path d="M264.456 293.6H203.248V309.6H264.456V293.6Z" fill="#00B25D" stroke="#263238" stroke-linecap="round" stroke-linejoin="round"/>
<path d="M232.96 201.976L199.544 217.176C199.499 217.195 199.462 217.229 199.439 217.272C199.417 217.315 199.41 217.365 199.42 217.413C199.431 217.461 199.458 217.503 199.497 217.533C199.535 217.563 199.583 217.578 199.632 217.576H268.08C268.129 217.578 268.177 217.563 268.215 217.533C268.254 217.503 268.281 217.461 268.291 217.413C268.302 217.365 268.295 217.315 268.273 217.272C268.25 217.229 268.213 217.195 268.168 217.176L234.752 201.976C234.471 201.846 234.165 201.778 233.856 201.778C233.546 201.778 233.241 201.846 232.96 201.976Z" fill="#263238" stroke="#263238" stroke-linecap="round" stroke-linejoin="round"/>
<path d="M280.112 276.4C280.995 276.4 281.712 275.684 281.712 274.8C281.712 273.916 280.995 273.2 280.112 273.2C279.228 273.2 278.512 273.916 278.512 274.8C278.512 275.684 279.228 276.4 280.112 276.4Z" fill="white"/>
<path d="M337.856 268.8H308.256V293.6H337.856V268.8Z" fill="white" stroke="#263238" stroke-linecap="round" stroke-linejoin="round"/>
<path d="M326.656 271.056H319.456V276.4H326.656V271.056Z" fill="#263238" stroke="#263238" stroke-linecap="round" stroke-linejoin="round"/>
<path d="M326.656 278.8H319.456V291.344H326.656V278.8Z" fill="#263238" stroke="#263238" stroke-linecap="round" stroke-linejoin="round"/>
<path d="M317.456 271.056H310.944V276.4H317.456V271.056Z" fill="#263238" stroke="#263238" stroke-linecap="round" stroke-linejoin="round"/>
<path d="M335.168 271.056H328.656V276.4H335.168V271.056Z" fill="#263238" stroke="#263238" stroke-linecap="round" stroke-linejoin="round"/>
<path d="M335.168 278.8H328.656V291.344H335.168V278.8Z" fill="#263238" stroke="#263238" stroke-linecap="round" stroke-linejoin="round"/>
<path d="M317.456 278.8H310.944V291.344H317.456V278.8Z" fill="#263238" stroke="#263238" stroke-linecap="round" stroke-linejoin="round"/>
<path d="M252.656 268.8H215.056V293.6H252.656V268.8Z" fill="white" stroke="#263238" stroke-linecap="round" stroke-linejoin="round"/>
<path d="M233.456 271.056H226.256V276.4H233.456V271.056Z" fill="#263238" stroke="#263238" stroke-linecap="round" stroke-linejoin="round"/>
<path d="M233.456 278.8H226.256V291.344H233.456V278.8Z" fill="#263238" stroke="#263238" stroke-linecap="round" stroke-linejoin="round"/>
<path d="M224.256 271.056H217.744V276.4H224.256V271.056Z" fill="#263238" stroke="#263238" stroke-linecap="round" stroke-linejoin="round"/>
<path d="M241.968 271.056H235.456V276.4H241.968V271.056Z" fill="#263238" stroke="#263238" stroke-linecap="round" stroke-linejoin="round"/>
<path d="M241.968 278.8H235.456V291.344H241.968V278.8Z" fill="#263238" stroke="#263238" stroke-linecap="round" stroke-linejoin="round"/>
<path d="M250.368 271.056H243.856V276.4H250.368V271.056Z" fill="#263238" stroke="#263238" stroke-linecap="round" stroke-linejoin="round"/>
<path d="M250.368 278.8H243.856V291.344H250.368V278.8Z" fill="#263238" stroke="#263238" stroke-linecap="round" stroke-linejoin="round"/>
<path d="M224.256 278.8H217.744V291.344H224.256V278.8Z" fill="#263238" stroke="#263238" stroke-linecap="round" stroke-linejoin="round"/>
<path d="M252.656 221.2H215.056V246H252.656V221.2Z" fill="white" stroke="#263238" stroke-linecap="round" stroke-linejoin="round"/>
<path d="M233.456 223.456H226.256V228.8H233.456V223.456Z" fill="#263238" stroke="#263238" stroke-linecap="round" stroke-linejoin="round"/>
<path d="M233.456 231.2H226.256V243.744H233.456V231.2Z" fill="#263238" stroke="#263238" stroke-linecap="round" stroke-linejoin="round"/>
<path d="M224.256 223.456H217.744V228.8H224.256V223.456Z" fill="#263238" stroke="#263238" stroke-linecap="round" stroke-linejoin="round"/>
<path d="M241.968 223.456H235.456V228.8H241.968V223.456Z" fill="#263238" stroke="#263238" stroke-linecap="round" stroke-linejoin="round"/>
<path d="M241.968 231.2H235.456V243.744H241.968V231.2Z" fill="#263238" stroke="#263238" stroke-linecap="round" stroke-linejoin="round"/>
<path d="M250.368 223.456H243.856V228.8H250.368V223.456Z" fill="#263238" stroke="#263238" stroke-linecap="round" stroke-linejoin="round"/>
<path d="M250.368 231.2H243.856V243.744H250.368V231.2Z" fill="#263238" stroke="#263238" stroke-linecap="round" stroke-linejoin="round"/>
<path d="M224.256 231.2H217.744V243.744H224.256V231.2Z" fill="#263238" stroke="#263238" stroke-linecap="round" stroke-linejoin="round"/>
<path d="M337.856 221.2H308.256V246H337.856V221.2Z" fill="white" stroke="#263238" stroke-linecap="round" stroke-linejoin="round"/>
<path d="M326.656 223.456H319.456V228.8H326.656V223.456Z" fill="#263238" stroke="#263238" stroke-linecap="round" stroke-linejoin="round"/>
<path d="M326.656 231.2H319.456V243.744H326.656V231.2Z" fill="#263238" stroke="#263238" stroke-linecap="round" stroke-linejoin="round"/>
<path d="M317.456 223.456H310.944V228.8H317.456V223.456Z" fill="#263238" stroke="#263238" stroke-linecap="round" stroke-linejoin="round"/>
<path d="M335.168 223.456H328.656V228.8H335.168V223.456Z" fill="#263238" stroke="#263238" stroke-linecap="round" stroke-linejoin="round"/>
<path d="M335.168 231.2H328.656V243.744H335.168V231.2Z" fill="#263238" stroke="#263238" stroke-linecap="round" stroke-linejoin="round"/>
<path d="M317.456 231.2H310.944V243.744H317.456V231.2Z" fill="#263238" stroke="#263238" stroke-linecap="round" stroke-linejoin="round"/>
<path d="M291.056 221.2H270.256V246H291.056V221.2Z" fill="white" stroke="#263238" stroke-linecap="round" stroke-linejoin="round"/>
<path d="M288.656 223.456H281.456V228.8H288.656V223.456Z" fill="#263238" stroke="#263238" stroke-linecap="round" stroke-linejoin="round"/>
<path d="M288.656 231.2H281.456V243.744H288.656V231.2Z" fill="#263238" stroke="#263238" stroke-linecap="round" stroke-linejoin="round"/>
<path d="M279.456 223.456H272.944V228.8H279.456V223.456Z" fill="#263238" stroke="#263238" stroke-linecap="round" stroke-linejoin="round"/>
<path d="M279.456 231.2H272.944V243.744H279.456V231.2Z" fill="#263238" stroke="#263238" stroke-linecap="round" stroke-linejoin="round"/>
<path d="M330.056 293.6H316.056V297.6H330.056V293.6Z" fill="#00B25D" stroke="#263238" stroke-linecap="round" stroke-linejoin="round"/>
<path d="M241.52 293.6H227.52V297.6H241.52V293.6Z" fill="#00B25D" stroke="#263238" stroke-linecap="round" stroke-linejoin="round"/>
<path d="M170.848 229.6H62.3599V309.6H170.848V229.6Z" fill="white" stroke="#263238" stroke-linecap="round" stroke-linejoin="round"/>
<path d="M179.984 231.856H53.2236L62.6956 235.304H170.504L179.984 231.856Z" fill="#00B25D" stroke="#263238" stroke-linecap="round" stroke-linejoin="round"/>
<path d="M180 231.864H53.2158L61.8798 219.416C62.1322 219.054 62.4684 218.757 62.8598 218.553C63.2511 218.348 63.6861 218.241 64.1278 218.24H169.072C169.515 218.24 169.951 218.347 170.344 218.552C170.737 218.756 171.074 219.053 171.328 219.416L180 231.864Z" fill="#263238" stroke="#263238" stroke-linecap="round" stroke-linejoin="round"/>
<path d="M73.1916 208.432H64.1836V220.504H73.1916V208.432Z" fill="white" stroke="#263238" stroke-linecap="round" stroke-linejoin="round"/>
<path d="M73.1917 208.432H70.8237V220.504H73.1917V208.432Z" fill="white" stroke="#263238" stroke-linecap="round" stroke-linejoin="round"/>
<path d="M74.6798 204.632H62.6958V210.84H74.6798V204.632Z" fill="white" stroke="#263238" stroke-linecap="round" stroke-linejoin="round"/>
<path d="M74.6796 204.632H70.5356V210.84H74.6796V204.632Z" fill="white" stroke="#263238" stroke-linecap="round" stroke-linejoin="round"/>
<path d="M90.2561 235.768H75.4561V258.8H90.2561V235.768Z" fill="white" stroke="#263238" stroke-linecap="round" stroke-linejoin="round"/>
<path d="M88.6557 237.2H77.0557V257.656H88.6557V237.2Z" fill="#263238" stroke="white" stroke-linecap="round" stroke-linejoin="round"/>
<path d="M88.6557 237.2H77.0557V248.4H88.6557V237.2Z" fill="#263238" stroke="white" stroke-linecap="round" stroke-linejoin="round"/>
<path d="M85.4559 237.2H80.2559V248.4H85.4559V237.2Z" fill="#263238" stroke="white" stroke-linecap="round" stroke-linejoin="round"/>
<path d="M92.6557 280.168H73.0557V303.2H92.6557V280.168Z" fill="white" stroke="#263238" stroke-linecap="round" stroke-linejoin="round"/>
<path d="M90.5358 281.6H75.1758V302.056H90.5358V281.6Z" fill="#263238" stroke="white" stroke-linecap="round" stroke-linejoin="round"/>
<path d="M90.5358 281.6H75.1758V292.8H90.5358V281.6Z" fill="#263238" stroke="white" stroke-linecap="round" stroke-linejoin="round"/>
<path d="M86.304 281.6H79.416V292.8H86.304V281.6Z" fill="#263238" stroke="white" stroke-linecap="round" stroke-linejoin="round"/>
<path d="M159.856 280.168H140.256V303.2H159.856V280.168Z" fill="white" stroke="#263238" stroke-linecap="round" stroke-linejoin="round"/>
<path d="M157.736 281.6H142.376V302.056H157.736V281.6Z" fill="#263238" stroke="white" stroke-linecap="round" stroke-linejoin="round"/>
<path d="M157.736 281.6H142.376V292.8H157.736V281.6Z" fill="#263238" stroke="white" stroke-linecap="round" stroke-linejoin="round"/>
<path d="M153.504 281.6H146.616V292.8H153.504V281.6Z" fill="#263238" stroke="white" stroke-linecap="round" stroke-linejoin="round"/>
<path d="M158.256 235.768H143.456V258.8H158.256V235.768Z" fill="white" stroke="#263238" stroke-linecap="round" stroke-linejoin="round"/>
<path d="M156.656 237.2H145.056V257.656H156.656V237.2Z" fill="#263238" stroke="white" stroke-linecap="round" stroke-linejoin="round"/>
<path d="M156.656 237.2H145.056V248.4H156.656V237.2Z" fill="#263238" stroke="white" stroke-linecap="round" stroke-linejoin="round"/>
<path d="M153.456 237.2H148.256V248.4H153.456V237.2Z" fill="#263238" stroke="white" stroke-linecap="round" stroke-linejoin="round"/>
<path d="M121.056 239.2H110.664V255.368H121.056V239.2Z" fill="white" stroke="#263238" stroke-linecap="round" stroke-linejoin="round"/>
<path d="M119.92 240.208H111.784V254.224H119.92V240.208Z" fill="#263238" stroke="white" stroke-linecap="round" stroke-linejoin="round"/>
<path d="M119.92 240.208H111.784V248.064H119.92V240.208Z" fill="#263238" stroke="white" stroke-linecap="round" stroke-linejoin="round"/>
<path d="M117.68 240.208H114.032V248.064H117.68V240.208Z" fill="#263238" stroke="white" stroke-linecap="round" stroke-linejoin="round"/>
<path d="M130.656 273.6H102.544V302H130.656V273.6Z" fill="#00B25D" stroke="#263238" stroke-linecap="round" stroke-linejoin="round"/>
<path d="M127.456 277.6H105.744V302H127.456V277.6Z" fill="#263238" stroke="#263238" stroke-linecap="round" stroke-linejoin="round"/>
<path d="M112.656 277.6H109.744V302H112.656V277.6Z" fill="white" stroke="#263238" stroke-linecap="round" stroke-linejoin="round"/>
<path d="M122.256 277.6H119.344V302H122.256V277.6Z" fill="white" stroke="#263238" stroke-linecap="round" stroke-linejoin="round"/>
<path d="M107.056 272.128H103.68L116.6 260.928L129.528 272.128H126.256V273.992H136L117.064 257.6C116.936 257.487 116.771 257.425 116.6 257.425C116.429 257.425 116.264 257.487 116.136 257.6L97.208 273.992H107.056V272.128Z" fill="#00B25D" stroke="#263238" stroke-linecap="round" stroke-linejoin="round"/>
<path d="M130.792 302H102.544V304.488H130.792V302Z" fill="#00B25D" stroke="#263238" stroke-linecap="round" stroke-linejoin="round"/>
<path d="M130.792 304.416H102.544V306.904H130.792V304.416Z" fill="#00B25D" stroke="#263238" stroke-linecap="round" stroke-linejoin="round"/>
<path d="M130.792 306.832H102.544V309.32H130.792V306.832Z" fill="#00B25D" stroke="#263238" stroke-linecap="round" stroke-linejoin="round"/>
<path d="M105.744 277.6H102.92" stroke="#263238" stroke-linecap="round" stroke-linejoin="round"/>
<path d="M130.544 277.6H127.72" stroke="#263238" stroke-linecap="round" stroke-linejoin="round"/>
<path d="M201.056 294.68C201.056 294.68 208.584 295.424 212.4 300.088C213.771 298.427 215.493 297.091 217.442 296.175C219.391 295.259 221.519 294.787 223.672 294.792C225.44 292.657 226.565 290.065 226.917 287.316C227.268 284.566 226.832 281.774 225.658 279.263C224.485 276.753 222.622 274.627 220.287 273.133C217.953 271.64 215.242 270.84 212.47 270.828C209.699 270.815 206.981 271.589 204.632 273.061C202.284 274.533 200.402 276.642 199.205 279.142C198.009 281.642 197.546 284.43 197.873 287.182C198.199 289.934 199.3 292.537 201.048 294.688L201.056 294.68Z" fill="#00B25D"/>
<path opacity="0.5" d="M201.056 294.68C201.056 294.68 208.584 295.424 212.4 300.088C213.771 298.427 215.493 297.091 217.442 296.175C219.391 295.259 221.519 294.787 223.672 294.792C225.44 292.657 226.565 290.065 226.917 287.316C227.268 284.566 226.832 281.774 225.658 279.263C224.485 276.753 222.622 274.627 220.287 273.133C217.953 271.64 215.242 270.84 212.47 270.828C209.699 270.815 206.981 271.589 204.632 273.061C202.284 274.533 200.402 276.642 199.205 279.142C198.009 281.642 197.546 284.43 197.873 287.182C198.199 289.934 199.3 292.537 201.048 294.688L201.056 294.68Z" fill="white"/>
<path d="M212.152 271.848L211.896 309.6H213.168L212.152 271.848Z" fill="#263238"/>
<path d="M212.528 298.672C212.528 298.672 215.072 294.096 219.648 292.696C219.648 292.696 214.848 293.84 212.408 297.776L212.528 298.672Z" fill="#263238"/>
<path d="M212.528 285.704C212.528 285.704 215.072 281.128 219.648 279.728C219.648 279.728 214.848 280.872 212.408 284.816L212.528 285.704Z" fill="#263238"/>
<path d="M212.528 292.184C212.528 292.184 215.072 287.608 219.648 286.216C219.648 286.216 214.848 287.36 212.408 291.296L212.528 292.184Z" fill="#263238"/>
<path d="M212.152 289.008C212.152 289.008 209.704 284.432 205.288 283.032C205.288 283.032 209.944 284.176 212.28 288.12L212.152 289.008Z" fill="#263238"/>
<path d="M212.152 295.36C212.152 295.36 209.704 290.792 205.288 289.392C205.288 289.392 209.944 290.536 212.28 294.472L212.152 295.36Z" fill="#263238"/>
<path d="M340.496 294.68C340.496 294.68 348.024 295.424 351.848 300.088C353.219 298.427 354.941 297.091 356.89 296.175C358.839 295.259 360.967 294.787 363.12 294.792C364.888 292.657 366.013 290.065 366.365 287.316C366.716 284.566 366.28 281.774 365.106 279.263C363.932 276.753 362.07 274.627 359.735 273.133C357.4 271.64 354.69 270.84 351.918 270.828C349.147 270.815 346.428 271.589 344.08 273.061C341.732 274.533 339.85 276.642 338.653 279.142C337.456 281.642 336.994 284.43 337.321 287.182C337.647 289.934 338.748 292.537 340.496 294.688V294.68Z" fill="#00B25D"/>
<path opacity="0.5" d="M340.496 294.68C340.496 294.68 348.024 295.424 351.848 300.088C353.219 298.427 354.941 297.091 356.89 296.175C358.839 295.259 360.967 294.787 363.12 294.792C364.888 292.657 366.013 290.065 366.365 287.316C366.716 284.566 366.28 281.774 365.106 279.263C363.932 276.753 362.07 274.627 359.735 273.133C357.4 271.64 354.69 270.84 351.918 270.828C349.147 270.815 346.428 271.589 344.08 273.061C341.732 274.533 339.85 276.642 338.653 279.142C337.456 281.642 336.994 284.43 337.321 287.182C337.647 289.934 338.748 292.537 340.496 294.688V294.68Z" fill="white"/>
<path d="M351.592 271.848L351.344 309.6H352.608L351.592 271.848Z" fill="#263238"/>
<path d="M352 298.672C352 298.672 354.544 294.096 359.12 292.696C359.12 292.696 354.32 293.84 351.872 297.776L352 298.672Z" fill="#263238"/>
<path d="M352 285.704C352 285.704 354.544 281.128 359.12 279.728C359.12 279.728 354.32 280.872 351.872 284.816L352 285.704Z" fill="#263238"/>
<path d="M352 292.184C352 292.184 354.544 287.608 359.12 286.216C359.12 286.216 354.32 287.36 351.872 291.296L352 292.184Z" fill="#263238"/>
<path d="M351.6 289.008C351.6 289.008 349.144 284.432 344.728 283.032C344.728 283.032 349.392 284.176 351.72 288.12L351.6 289.008Z" fill="#263238"/>
<path d="M351.6 295.36C351.6 295.36 349.144 290.792 344.728 289.392C344.728 289.392 349.392 290.536 351.72 294.472L351.6 295.36Z" fill="#263238"/>
<path d="M38.0962 294.68C38.0962 294.68 45.6242 295.424 49.4482 300.088C50.8188 298.427 52.5406 297.091 54.4897 296.175C56.4388 295.259 58.5667 294.787 60.7202 294.792C62.4879 292.657 63.6131 290.065 63.9646 287.316C64.3162 284.566 63.8798 281.774 62.7062 279.263C61.5325 276.753 59.6699 274.627 57.3352 273.133C55.0005 271.64 52.2896 270.84 49.5181 270.828C46.7466 270.815 44.0285 271.589 41.6802 273.061C39.3318 274.533 37.4497 276.642 36.2531 279.142C35.0564 281.642 34.5943 284.43 34.9206 287.182C35.2469 289.934 36.3482 292.537 38.0962 294.688V294.68Z" fill="#00B25D"/>
<path opacity="0.5" d="M38.0962 294.68C38.0962 294.68 45.6242 295.424 49.4482 300.088C50.8188 298.427 52.5406 297.091 54.4897 296.175C56.4388 295.259 58.5667 294.787 60.7202 294.792C62.4879 292.657 63.6131 290.065 63.9646 287.316C64.3162 284.566 63.8798 281.774 62.7062 279.263C61.5325 276.753 59.6699 274.627 57.3352 273.133C55.0005 271.64 52.2896 270.84 49.5181 270.828C46.7466 270.815 44.0285 271.589 41.6802 273.061C39.3318 274.533 37.4497 276.642 36.2531 279.142C35.0564 281.642 34.5943 284.43 34.9206 287.182C35.2469 289.934 36.3482 292.537 38.0962 294.688V294.68Z" fill="white"/>
<path d="M49.1923 271.848L48.9443 309.6H50.2163L49.1923 271.848Z" fill="#263238"/>
<path d="M49.6002 298.672C49.6002 298.672 52.1442 294.096 56.7202 292.696C56.7202 292.696 51.9202 293.84 49.4722 297.776L49.6002 298.672Z" fill="#263238"/>
<path d="M49.6002 285.704C49.6002 285.704 52.1442 281.128 56.7202 279.728C56.7202 279.728 51.9202 280.872 49.4722 284.816L49.6002 285.704Z" fill="#263238"/>
<path d="M49.6002 292.184C49.6002 292.184 52.1442 287.608 56.7202 286.216C56.7202 286.216 51.9202 287.36 49.4722 291.296L49.6002 292.184Z" fill="#263238"/>
<path d="M49.2001 289.008C49.2001 289.008 46.7441 284.432 42.3281 283.032C42.3281 283.032 46.9921 284.176 49.3201 288.12L49.2001 289.008Z" fill="#263238"/>
<path d="M49.2001 295.36C49.2001 295.36 46.7441 290.792 42.3281 289.392C42.3281 289.392 46.9921 290.536 49.3201 294.472L49.2001 295.36Z" fill="#263238"/>
<path d="M160.6 283.536C160.6 283.536 173.752 284.84 180.416 292.992C180.416 292.992 187.456 283.552 200.112 283.744C203.215 280.012 205.193 275.475 205.816 270.662C206.439 265.849 205.681 260.958 203.631 256.56C201.58 252.161 198.321 248.436 194.234 245.818C190.147 243.201 185.4 241.799 180.547 241.777C175.694 241.754 170.935 243.112 166.823 245.691C162.712 248.27 159.419 251.965 157.327 256.344C155.236 260.723 154.432 265.607 155.01 270.426C155.588 275.244 157.524 279.8 160.592 283.56L160.6 283.536Z" fill="#00B25D"/>
<path opacity="0.3" d="M160.6 283.536C160.6 283.536 173.752 284.84 180.416 292.992C180.416 292.992 187.456 283.552 200.112 283.744C203.215 280.012 205.193 275.475 205.816 270.662C206.439 265.849 205.681 260.958 203.631 256.56C201.58 252.161 198.321 248.436 194.234 245.818C190.147 243.201 185.4 241.799 180.547 241.777C175.694 241.754 170.935 243.112 166.823 245.691C162.712 248.27 159.419 251.965 157.327 256.344C155.236 260.723 154.432 265.607 155.01 270.426C155.588 275.244 157.524 279.8 160.592 283.56L160.6 283.536Z" fill="white"/>
<path d="M179.984 243.672L179.536 309.6H181.76L179.984 243.672Z" fill="#263238"/>
<path d="M180.648 290.512C180.648 290.512 185.088 282.512 193.08 280.072C193.08 280.072 184.64 282.072 180.424 288.952L180.648 290.512Z" fill="#263238"/>
<path d="M180.648 267.864C180.648 267.864 185.088 259.864 193.08 257.464C193.08 257.464 184.64 259.464 180.424 266.344L180.648 267.864Z" fill="#263238"/>
<path d="M180.648 279.2C180.648 279.2 185.088 271.2 193.08 268.8C193.08 268.8 184.64 270.8 180.424 277.68L180.648 279.2Z" fill="#263238"/>
<path d="M180 273.64C180 273.64 175.712 265.64 168 263.24C168 263.24 176.144 265.232 180.208 272.112L180 273.64Z" fill="#263238"/>
<path d="M180 284.736C180 284.736 175.712 276.736 168 274.336C168 274.336 176.144 276.336 180.208 283.216L180 284.736Z" fill="#263238"/>
<path d="M362.384 309.064H36.52V312.264H362.384V309.064Z" fill="#263238" stroke="#263238" stroke-linecap="round" stroke-linejoin="round"/>
<path d="M191.128 192.152C188.488 190.704 187.288 191.912 186.328 190.704C185.368 189.496 188.976 186.376 181.76 183.256C181.76 183.256 181.28 176.52 171.424 176.28C161.568 176.04 164.224 183.016 161.568 184.696C158.912 186.376 158.2 183.736 155.56 185.416C152.92 187.096 154.112 190.464 151.952 190.944C149.792 191.424 146.904 188.784 144.256 190.464C141.608 192.144 141.6 193.6 140.4 193.6C139.2 193.6 136.8 192.64 135.352 193.6C133.904 194.56 132.232 195.76 132.232 195.76H193.032C193.032 195.76 193.776 193.6 191.128 192.152Z" fill="white"/>
<path d="M165.68 182.768C163.76 181.712 162.88 182.592 162.184 181.712C161.488 180.832 164.104 178.56 158.856 176.288C158.856 176.288 158.504 171.384 151.32 171.208C144.136 171.032 146.072 176.112 144.12 177.336C142.168 178.56 141.664 176.64 139.736 177.864C137.808 179.088 138.688 181.544 137.112 181.864C135.536 182.184 133.432 180.264 131.512 181.52C129.592 182.776 129.592 183.792 128.712 183.792C127.832 183.792 126.088 183.096 125.032 183.792C123.976 184.488 122.76 185.392 122.76 185.392H167.072C167.072 185.392 167.608 183.816 165.68 182.768Z" fill="white"/>
<path d="M180.88 106.72C177.28 104.76 175.64 106.392 174.336 104.76C173.032 103.128 177.936 98.864 168.112 94.608C168.112 94.608 167.456 85.44 154.032 85.112C140.608 84.784 144.216 94.28 140.608 96.576C137 98.872 136.032 95.264 132.424 97.552C128.816 99.84 130.464 104.432 127.52 105.088C124.576 105.744 120.64 102.136 117.04 104.432C113.44 106.728 113.44 108.688 111.8 108.688C110.16 108.688 106.888 107.376 104.928 108.688C102.968 110 100.672 111.632 100.672 111.632H183.496C183.496 111.632 184.48 108.688 180.88 106.72Z" fill="#00B25D"/>
<path opacity="0.8" d="M180.88 106.72C177.28 104.76 175.64 106.392 174.336 104.76C173.032 103.128 177.936 98.864 168.112 94.608C168.112 94.608 167.456 85.44 154.032 85.112C140.608 84.784 144.216 94.28 140.608 96.576C137 98.872 136.032 95.264 132.424 97.552C128.816 99.84 130.464 104.432 127.52 105.088C124.576 105.744 120.64 102.136 117.04 104.432C113.44 106.728 113.44 108.688 111.8 108.688C110.16 108.688 106.888 107.376 104.928 108.688C102.968 110 100.672 111.632 100.672 111.632H183.496C183.496 111.632 184.48 108.688 180.88 106.72Z" fill="white"/>
</svg>
