<svg width="180" height="180" viewBox="0 0 180 180" fill="none" xmlns="http://www.w3.org/2000/svg">
<path d="M30.8124 139.284C63.3456 156.719 116.093 156.719 148.626 139.284C181.159 121.849 181.156 93.5856 148.626 76.1508C116.096 58.716 63.3456 58.716 30.8124 76.1508C-1.72083 93.5856 -1.71723 121.853 30.8124 139.284Z" fill="#F5F5F5"/>
<path d="M41.4 26.4743L38.88 27.9143C38.88 27.8027 38.9016 27.6911 38.9016 27.5831V26.8631C38.9016 25.5743 37.9944 25.0631 36.8784 25.6967C36.3968 25.9906 35.9852 26.3863 35.6724 26.8559C35.4888 25.2323 34.2324 24.6275 32.67 25.5203C30.9996 26.4851 29.6424 28.8323 29.6424 30.7655V31.8455C29.6372 32.2862 29.7333 32.7222 29.9232 33.1199L27.846 34.3187C27.5193 34.5318 27.2473 34.8188 27.0522 35.1565C26.8571 35.4943 26.7442 35.8732 26.7228 36.2627C26.7228 36.9827 27.2268 37.2707 27.846 36.9107L41.4 29.0663C41.7269 28.8534 41.999 28.5664 42.1941 28.2286C42.3893 27.8909 42.502 27.5118 42.5232 27.1223C42.5304 26.4095 42.0264 26.1179 41.4 26.4743Z" fill="#EBEBEB"/>
<path d="M52.1172 33.768L50.2272 34.848C50.2324 34.7641 50.2324 34.6799 50.2272 34.596V34.0596C50.2272 33.0876 49.5432 32.6916 48.7008 33.1776C48.3385 33.4011 48.028 33.6994 47.79 34.0524C47.6532 32.8284 46.692 32.3748 45.5256 33.048C44.8593 33.4811 44.3049 34.0656 43.9077 34.7538C43.5104 35.442 43.2814 36.2144 43.2396 37.008V37.8252C43.2325 38.1525 43.2989 38.4773 43.434 38.7756L41.8644 39.6792C41.618 39.8404 41.413 40.0574 41.266 40.3126C41.119 40.5677 41.0342 40.8539 41.0184 41.148C41.0184 41.688 41.3964 41.9076 41.8644 41.6376L52.0992 35.7264C52.3455 35.5659 52.5505 35.3496 52.6975 35.095C52.8445 34.8404 52.9294 34.5547 52.9452 34.2612C52.9632 33.7176 52.5852 33.498 52.1172 33.768Z" fill="#EBEBEB"/>
<path d="M153.27 43.5851L151.38 44.6651C151.385 44.5811 151.385 44.497 151.38 44.4131V43.8659C151.38 42.8939 150.696 42.4979 149.854 42.9875C149.49 43.2089 149.179 43.5076 148.943 43.8623C148.806 42.6383 147.863 42.1811 146.678 42.8543C146.013 43.2878 145.459 43.8725 145.062 44.5607C144.666 45.2488 144.437 46.021 144.396 46.8143V47.6315C144.387 47.9586 144.452 48.2836 144.587 48.5819L143.021 49.4855C142.774 49.6465 142.568 49.8634 142.421 50.1185C142.273 50.3737 142.188 50.66 142.171 50.9543C142.171 51.4943 142.553 51.7139 143.021 51.4439L153.256 45.5327C153.502 45.3722 153.707 45.1559 153.854 44.9013C154.001 44.6467 154.086 44.361 154.102 44.0675C154.116 43.5347 153.738 43.3151 153.27 43.5851Z" fill="#EBEBEB"/>
<path d="M40.4459 78.6384L12.3696 94.8492V96.1992L38.106 111.056L66.1823 94.8492V93.4992L40.4459 78.6384Z" fill="#00B25D"/>
<path opacity="0.15" d="M12.3696 94.8491L38.106 109.706V111.056L12.3696 96.1991V94.8491Z" fill="black"/>
<path opacity="0.1" d="M38.106 109.706L66.1824 93.4993V94.8493L38.106 111.056V109.706Z" fill="black"/>
<path d="M63.6843 88.6249L62.5747 90.811L62.7545 90.9023L63.864 88.7161L63.6843 88.6249Z" fill="#455A64"/>
<path d="M61.6336 88.4535L61.4622 88.5596L62.5441 90.3074L62.7156 90.2012L61.6336 88.4535Z" fill="#455A64"/>
<path d="M62.8344 88.2505V93.5209C62.8336 93.5355 62.8289 93.5496 62.8206 93.5617C62.8124 93.5738 62.8009 93.5833 62.7876 93.5893C62.751 93.6088 62.7102 93.6191 62.6688 93.6191C62.6273 93.6191 62.5865 93.6088 62.55 93.5893C62.5359 93.5839 62.5237 93.5745 62.5148 93.5624C62.5059 93.5503 62.5006 93.5359 62.4996 93.5209V88.2505H62.8344Z" fill="#455A64"/>
<path d="M66.8196 86.6123C66.8196 87.0965 66.676 87.5698 66.407 87.9723C66.138 88.3749 65.7557 88.6887 65.3084 88.874C64.8611 89.0592 64.3689 89.1077 63.894 89.0133C63.4191 88.9188 62.9829 88.6857 62.6406 88.3433C62.2982 88.0009 62.0651 87.5648 61.9706 87.0899C61.8762 86.615 61.9246 86.1228 62.1099 85.6755C62.2952 85.2282 62.609 84.8459 63.0115 84.5769C63.4141 84.3079 63.8874 84.1643 64.3716 84.1643C65.0205 84.1653 65.6426 84.4235 66.1015 84.8824C66.5604 85.3412 66.8186 85.9633 66.8196 86.6123Z" fill="#00B25D"/>
<path opacity="0.2" d="M65.1384 85.9859C65.4552 84.9923 65.79 84.6035 65.5776 84.4811C65.1722 84.251 64.7096 84.1415 64.2441 84.1653C63.7786 84.1892 63.3295 84.3454 62.9498 84.6157C62.57 84.8859 62.2753 85.259 62.1003 85.691C61.9253 86.1231 61.8773 86.5961 61.9619 87.0544C62.0465 87.5128 62.2602 87.9375 62.5779 88.2786C62.8956 88.6197 63.3041 88.863 63.7553 88.9799C64.2065 89.0968 64.6817 89.0824 65.1251 88.9385C65.5684 88.7946 65.9614 88.5271 66.258 88.1675C65.52 88.3799 64.728 87.2747 65.1384 85.9859Z" fill="black"/>
<path d="M62.2368 87.3036C62.2368 87.6439 62.1359 87.9766 61.9468 88.2596C61.7577 88.5426 61.489 88.7631 61.1746 88.8934C60.8601 89.0236 60.5141 89.0577 60.1803 88.9913C59.8465 88.9249 59.5399 88.761 59.2992 88.5204C59.0586 88.2797 58.8947 87.9731 58.8283 87.6393C58.7619 87.3055 58.796 86.9595 58.9262 86.645C59.0565 86.3306 59.277 86.0619 59.56 85.8728C59.843 85.6837 60.1757 85.5828 60.516 85.5828C60.9724 85.5828 61.4101 85.7641 61.7328 86.0868C62.0555 86.4095 62.2368 86.8472 62.2368 87.3036Z" fill="#00B25D"/>
<path opacity="0.2" d="M60.516 85.5828C60.1549 85.5827 59.8032 85.6974 59.5116 85.9104C59.4648 86.958 60.3576 87.984 60.1056 88.3296C59.8536 88.6752 59.2452 88.4628 59.0256 88.1676C59.1772 88.4287 59.3948 88.6453 59.6566 88.7957C59.9185 88.9461 60.2153 89.025 60.5172 89.0244C60.8191 89.0238 61.1156 88.9437 61.3768 88.7923C61.6381 88.6408 61.8548 88.4233 62.0054 88.1616C62.1559 87.8998 62.235 87.6031 62.2345 87.3011C62.2341 86.9992 62.1543 86.7027 62.003 86.4414C61.8517 86.1801 61.6343 85.9632 61.3727 85.8124C61.111 85.6617 60.8143 85.5825 60.5124 85.5828H60.516Z" fill="black"/>
<path d="M62.6687 88.6069C64.4124 88.6069 65.8259 87.1934 65.8259 85.4497C65.8259 83.706 64.4124 82.2925 62.6687 82.2925C60.9251 82.2925 59.5115 83.706 59.5115 85.4497C59.5115 87.1934 60.9251 88.6069 62.6687 88.6069Z" fill="#00B25D"/>
<path opacity="0.1" d="M65.7396 86.1697C65.6204 86.6809 65.3756 87.1543 65.0274 87.5471C64.6792 87.9398 64.2386 88.2396 63.7454 88.4192C63.2522 88.5989 62.7219 88.6527 62.2027 88.5759C61.6834 88.499 61.1916 88.2939 60.7715 87.9791C60.3515 87.6644 60.0165 87.2498 59.797 86.773C59.5775 86.2962 59.4803 85.7722 59.5143 85.2484C59.5483 84.7246 59.7123 84.2175 59.9915 83.7731C60.2708 83.3286 60.6564 82.9608 61.1136 82.7029C60.8468 82.8602 60.6043 83.0555 60.3936 83.2825C60.2367 83.9574 60.3064 84.6651 60.5919 85.2965C60.8775 85.9278 61.363 86.4475 61.9735 86.7752C62.5839 87.103 63.2853 87.2206 63.9693 87.1098C64.6533 86.9991 65.2818 86.6661 65.7576 86.1625L65.7396 86.1697Z" fill="black"/>
<path d="M16.9066 89.9701L15.7971 92.1562L15.9768 92.2475L17.0864 90.0614L16.9066 89.9701Z" fill="#455A64"/>
<path d="M14.8473 89.796L14.6759 89.9021L15.7579 91.6499L15.9293 91.5438L14.8473 89.796Z" fill="#455A64"/>
<path d="M16.0524 89.5933V94.8637C16.051 94.8786 16.0455 94.8928 16.0366 94.9048C16.0278 94.9169 16.0158 94.9263 16.002 94.9321C15.9649 94.9499 15.9243 94.9592 15.8832 94.9592C15.8421 94.9592 15.8014 94.9499 15.7644 94.9321C15.751 94.9261 15.7396 94.9165 15.7313 94.9045C15.7231 94.8924 15.7183 94.8783 15.7176 94.8637V89.5933H16.0524Z" fill="#455A64"/>
<path d="M20.0376 87.9517C20.0376 88.4358 19.894 88.9091 19.625 89.3117C19.356 89.7143 18.9737 90.028 18.5264 90.2133C18.0791 90.3986 17.5869 90.4471 17.112 90.3526C16.6372 90.2582 16.201 90.025 15.8586 89.6827C15.5162 89.3403 15.2831 88.9041 15.1886 88.4292C15.0942 87.9544 15.1427 87.4622 15.3279 87.0149C15.5132 86.5675 15.827 86.1852 16.2296 85.9162C16.6321 85.6472 17.1054 85.5037 17.5896 85.5037C18.2389 85.5037 18.8615 85.7616 19.3206 86.2207C19.7797 86.6798 20.0376 87.3024 20.0376 87.9517Z" fill="#00B25D"/>
<path opacity="0.2" d="M18.36 87.3253C18.6768 86.3317 19.0116 85.9429 18.7992 85.8241C18.4324 85.613 18.0164 85.5025 17.5932 85.5037C17.1807 85.5035 16.7749 85.6075 16.4134 85.8061C16.0518 86.0047 15.7464 86.2914 15.5253 86.6397C15.3042 86.9879 15.1748 87.3864 15.1489 87.798C15.123 88.2097 15.2015 88.6212 15.3772 88.9944C15.5529 89.3676 15.8201 89.6903 16.1539 89.9327C16.4876 90.175 16.8772 90.329 17.2865 90.3805C17.6958 90.432 18.1114 90.3792 18.4948 90.2271C18.8782 90.075 19.2169 89.8285 19.4796 89.5105C18.7524 89.7229 17.946 88.6141 18.36 87.3253Z" fill="black"/>
<path d="M15.4548 88.6463C15.4548 88.9867 15.3539 89.3194 15.1648 89.6024C14.9757 89.8853 14.7069 90.1059 14.3925 90.2362C14.0781 90.3664 13.7321 90.4005 13.3983 90.3341C13.0645 90.2677 12.7579 90.1038 12.5172 89.8631C12.2765 89.6225 12.1126 89.3159 12.0462 88.982C11.9799 88.6482 12.0139 88.3022 12.1442 87.9878C12.2744 87.6734 12.495 87.4046 12.778 87.2155C13.0609 87.0265 13.3936 86.9255 13.734 86.9255C13.9601 86.9251 14.1841 86.9692 14.3931 87.0556C14.6021 87.1419 14.7919 87.2686 14.9518 87.4285C15.1117 87.5884 15.2385 87.7783 15.3248 87.9873C15.4111 88.1962 15.4553 88.4202 15.4548 88.6463Z" fill="#00B25D"/>
<path opacity="0.2" d="M13.734 86.9255C13.3733 86.9242 13.0215 87.0377 12.7296 87.2495C12.6828 88.3007 13.572 89.3267 13.3236 89.6687C13.0752 90.0107 12.4596 89.8019 12.2436 89.5103C12.3952 89.7715 12.6128 89.9881 12.8747 90.1385C13.1365 90.2889 13.4333 90.3678 13.7352 90.3671C14.0372 90.3665 14.3336 90.2865 14.5949 90.135C14.8561 89.9836 15.0729 89.7661 15.2234 89.5043C15.374 89.2426 15.453 88.9459 15.4526 88.6439C15.4521 88.342 15.3723 88.0455 15.221 87.7842C15.0697 87.5228 14.8523 87.3059 14.5907 87.1552C14.329 87.0045 14.0323 86.9253 13.7304 86.9255H13.734Z" fill="black"/>
<path d="M15.8832 89.946C17.6269 89.946 19.0404 88.5325 19.0404 86.7888C19.0404 85.0451 17.6269 83.6316 15.8832 83.6316C14.1395 83.6316 12.726 85.0451 12.726 86.7888C12.726 88.5325 14.1395 89.946 15.8832 89.946Z" fill="#00B25D"/>
<path opacity="0.1" d="M18.954 87.5124C18.8335 88.022 18.5879 88.4936 18.2395 88.8846C17.8911 89.2755 17.4508 89.5736 16.9583 89.7518C16.4659 89.93 15.9368 89.9828 15.4189 89.9054C14.901 89.8279 14.4105 89.6228 13.9917 89.3083C13.5729 88.9939 13.239 88.5802 13.0201 88.1044C12.8013 87.6287 12.7043 87.1059 12.7381 86.5833C12.7718 86.0607 12.9351 85.5547 13.2133 85.111C13.4916 84.6674 13.8759 84.3 14.3316 84.042C14.0593 84.1991 13.8108 84.3942 13.5936 84.6216C13.438 85.2957 13.5084 86.0023 13.794 86.6325C14.0795 87.2627 14.5644 87.7814 15.1739 88.1089C15.7833 88.4363 16.4835 88.5543 17.1666 88.4445C17.8497 88.3348 18.4778 88.0035 18.954 87.5016V87.5124Z" fill="black"/>
<path d="M46.818 100.624L50.7384 98.3628L54.2556 100.393L50.3388 102.65L46.818 100.624Z" fill="#F0F0F0"/>
<path d="M19.3932 94.8491L19.3896 82.6919L38.1096 93.4955V105.656L19.3932 94.8491Z" fill="#F0F0F0"/>
<path d="M19.3896 87.5159L38.1096 98.3267V93.4955L19.3896 82.6919V87.5159Z" fill="#E0E0E0"/>
<path d="M59.1624 93.4956V81.6768L52.1424 79.9884V78.6384L38.1096 93.4956V105.656L59.1624 93.4956Z" fill="#FAFAFA"/>
<path d="M52.1424 78.6384V79.9884L60.3324 82.0152V80.6652L52.1424 78.6384Z" fill="#263238"/>
<path d="M41.6196 69.8581L60.3324 80.6653L52.1424 78.6385L33.426 67.8313L41.6196 69.8581Z" fill="#37474F"/>
<path d="M36.936 95.5295L52.146 78.6383V77.2883L35.766 96.1991L36.936 95.5295Z" fill="#37474F"/>
<path d="M33.4296 66.4812L52.146 77.2884L35.7948 96.2172L17.0496 85.392L33.4296 66.4812Z" fill="#455A64"/>
<path d="M27.558 83.9917L29.916 85.3525V88.7689L27.558 87.4189V83.9917Z" fill="#263238"/>
<path d="M29.916 85.3525L32.2704 83.9917V86.0689L29.916 88.7689V85.3525Z" fill="#37474F"/>
<path d="M29.916 81.6768L27.3132 83.178V83.8584L29.916 85.3524L32.5152 83.8584V83.178L29.916 81.6768Z" fill="#F5F5F5"/>
<path d="M27.3132 83.8584L29.916 85.3524V84.672L27.3132 83.178V83.8584Z" fill="#E0E0E0"/>
<path d="M32.5152 83.8584L29.916 85.3524V84.672L32.5152 83.178V83.8584Z" fill="#EBEBEB"/>
<path d="M28.188 83.1779L29.916 82.1807L31.644 83.1779L29.916 84.1715L28.188 83.1779Z" fill="#00B25D"/>
<path d="M29.916 82.1807V84.1715L28.188 83.1779L29.916 82.1807Z" fill="#37474F"/>
<path d="M29.916 82.1807L31.644 83.1779L29.916 84.1715V82.1807Z" fill="#263238"/>
<path d="M39.6252 96.6744L44.892 93.636V97.6896L39.6252 100.728V96.6744Z" fill="#455A64"/>
<path d="M44.658 97.5527V93.7727L39.6252 96.6743V100.458L44.658 97.5527Z" fill="#E0E0E0"/>
<path d="M44.892 97.6895L44.658 97.5527L39.6252 100.458V100.728L44.892 97.6895Z" fill="#37474F"/>
<path d="M39.6252 98.7012L44.892 95.6628V95.3892L39.6252 98.4276V98.7012Z" fill="#455A64"/>
<path d="M52.4952 89.2403L57.7584 86.2019V90.2555L52.4952 93.2939V89.2403Z" fill="#455A64"/>
<path d="M57.5244 90.1189V86.3389L52.4952 89.2405V93.0241L57.5244 90.1189Z" fill="#E0E0E0"/>
<path d="M57.7584 90.2557L57.5244 90.1189L52.4952 93.0241V93.2941L57.7584 90.2557Z" fill="#37474F"/>
<path d="M52.4952 91.2671L57.7584 88.2287V87.9551L52.4952 90.9971V91.2671Z" fill="#455A64"/>
<path d="M46.818 100.624V92.5201L50.7384 90.2593V98.3629L46.818 100.624Z" fill="#37474F"/>
<path d="M50.6016 98.2584V90.3384L46.818 92.52V100.44L50.6016 98.2584Z" fill="#455A64"/>
<path d="M50.7536 90.2593L50.6016 90.3385V98.2585L50.7536 98.3629V90.2593Z" fill="#263238"/>
<path d="M33.8364 95.0869L31.086 93.4993V97.5493L33.8364 99.1369V95.0869Z" fill="#455A64"/>
<path d="M31.32 97.4123V93.6323L33.8364 95.0867V98.8667L31.32 97.4123Z" fill="#FAFAFA"/>
<path d="M31.086 97.5492L31.32 97.4124L33.8364 98.8668V99.1368L31.086 97.5492Z" fill="#37474F"/>
<path d="M33.8364 97.0992L31.086 95.5224V95.2488L33.8364 96.8256V97.0992Z" fill="#455A64"/>
<path d="M31.32 93.6323L33.8364 95.0867V95.8679L31.32 94.4243V93.6323Z" fill="#F5F5F5"/>
<path d="M25.6464 90.3564L22.896 88.7688V92.8224L25.6464 94.41V90.3564Z" fill="#455A64"/>
<path d="M23.1336 92.6855V88.9055L25.6464 90.3563V94.1363L23.1336 92.6855Z" fill="#FAFAFA"/>
<path d="M22.896 92.8223L23.1336 92.6855L25.6464 94.1363V94.41L22.896 92.8223Z" fill="#37474F"/>
<path d="M25.6464 92.3687L22.896 90.7919V90.5183L25.6464 92.0951V92.3687Z" fill="#455A64"/>
<path d="M23.1336 88.9055L25.6464 90.3563V91.1051L23.1336 89.6651V88.9055Z" fill="#F5F5F5"/>
<path d="M137.83 77.4575L109.753 93.6683V95.0183L137.83 111.229L165.91 95.0183V93.6683L137.83 77.4575Z" fill="#00B25D"/>
<path opacity="0.15" d="M109.753 93.6682L137.833 109.879L137.83 111.229L109.753 95.0182V93.6682Z" fill="black"/>
<path opacity="0.1" d="M137.833 109.879L165.91 93.6682V95.0182L137.83 111.229L137.833 109.879Z" fill="black"/>
<path d="M163.489 88.838L162.38 91.0242L162.559 91.1154L163.669 88.9293L163.489 88.838Z" fill="#455A64"/>
<path d="M161.72 88.0521L161.549 88.1589L162.638 89.9062L162.81 89.7994L161.72 88.0521Z" fill="#455A64"/>
<path d="M162.644 88.4663V93.7367C162.644 93.7513 162.639 93.7654 162.631 93.7775C162.622 93.7896 162.611 93.7991 162.598 93.8051C162.561 93.8247 162.52 93.8349 162.479 93.8349C162.437 93.8349 162.397 93.8247 162.36 93.8051C162.346 93.7993 162.334 93.7899 162.325 93.7779C162.316 93.7658 162.311 93.7516 162.31 93.7367V88.4663H162.644Z" fill="#455A64"/>
<path d="M166.63 86.8284C166.63 87.3125 166.486 87.7858 166.217 88.1884C165.948 88.591 165.566 88.9047 165.118 89.09C164.671 89.2753 164.179 89.3238 163.704 89.2293C163.229 89.1349 162.793 88.9017 162.451 88.5594C162.108 88.217 161.875 87.7808 161.781 87.306C161.686 86.8311 161.735 86.3389 161.92 85.8916C162.105 85.4442 162.419 85.0619 162.822 84.7929C163.224 84.5239 163.697 84.3804 164.182 84.3804C164.831 84.3804 165.453 84.6383 165.913 85.0974C166.372 85.5565 166.63 86.1791 166.63 86.8284Z" fill="#00B25D"/>
<path opacity="0.2" d="M164.948 86.202C165.265 85.2084 165.604 84.8196 165.388 84.6972C164.982 84.4677 164.519 84.3586 164.054 84.383C163.588 84.4073 163.14 84.564 162.76 84.8347C162.381 85.1053 162.086 85.4787 161.912 85.9108C161.737 86.343 161.69 86.816 161.775 87.2742C161.86 87.7325 162.074 88.1569 162.392 88.4977C162.71 88.8385 163.118 89.0814 163.57 89.1979C164.021 89.3144 164.496 89.2997 164.939 89.1554C165.383 89.0112 165.775 88.7434 166.072 88.3836C165.344 88.596 164.542 87.48 164.948 86.202Z" fill="black"/>
<path d="M162.047 87.5196C162.047 87.86 161.946 88.1927 161.757 88.4757C161.568 88.7586 161.299 88.9792 160.985 89.1094C160.67 89.2397 160.324 89.2738 159.99 89.2074C159.656 89.141 159.35 88.9771 159.109 88.7364C158.869 88.4958 158.705 88.1891 158.638 87.8553C158.572 87.5215 158.606 87.1755 158.736 86.8611C158.866 86.5467 159.087 86.2779 159.37 86.0888C159.653 85.8998 159.986 85.7988 160.326 85.7988C160.782 85.7988 161.22 85.9801 161.543 86.3028C161.866 86.6255 162.047 87.0632 162.047 87.5196Z" fill="#00B25D"/>
<path opacity="0.2" d="M160.326 85.7988C159.965 85.7993 159.613 85.914 159.322 86.1264C159.275 87.174 160.168 88.2 159.919 88.5456C159.671 88.8912 159.055 88.6788 158.839 88.3836C158.991 88.6448 159.208 88.8614 159.47 89.0118C159.732 89.1622 160.029 89.241 160.331 89.2404C160.633 89.2398 160.929 89.1598 161.19 89.0083C161.452 88.8569 161.668 88.6394 161.819 88.3776C161.97 88.1159 162.049 87.8192 162.048 87.5172C162.048 87.2153 161.968 86.9187 161.817 86.6574C161.665 86.3961 161.448 86.1792 161.186 86.0285C160.925 85.8778 160.628 85.7986 160.326 85.7988Z" fill="black"/>
<path d="M162.479 88.8227C164.222 88.8227 165.636 87.4092 165.636 85.6655C165.636 83.9218 164.222 82.5083 162.479 82.5083C160.735 82.5083 159.322 83.9218 159.322 85.6655C159.322 87.4092 160.735 88.8227 162.479 88.8227Z" fill="#00B25D"/>
<path opacity="0.1" d="M165.55 86.3999C165.428 86.9092 165.181 87.38 164.831 87.7702C164.482 88.1603 164.041 88.4574 163.548 88.6347C163.056 88.812 162.526 88.8639 162.009 88.7858C161.491 88.7077 161 88.5021 160.582 88.1873C160.163 87.8726 159.83 87.4587 159.611 86.9829C159.392 86.5071 159.295 85.9844 159.329 85.4617C159.362 84.9391 159.525 84.4331 159.803 83.9891C160.081 83.5452 160.465 83.1774 160.92 82.9187C160.645 83.0736 160.395 83.269 160.178 83.4983C160.021 84.1732 160.091 84.881 160.377 85.5123C160.662 86.1436 161.148 86.6633 161.758 86.991C162.369 87.3188 163.07 87.4364 163.754 87.3256C164.438 87.2149 165.067 86.882 165.542 86.3783L165.55 86.3999Z" fill="black"/>
<path d="M114.281 88.7228L113.172 90.9089L113.351 91.0002L114.461 88.814L114.281 88.7228Z" fill="#455A64"/>
<path d="M112.526 88.1114L112.354 88.2183L113.444 89.9655L113.615 89.8587L112.526 88.1114Z" fill="#455A64"/>
<path d="M113.436 88.3511V93.6215C113.434 93.6362 113.429 93.6503 113.42 93.6623C113.411 93.6743 113.399 93.6838 113.386 93.6899C113.349 93.7077 113.308 93.717 113.267 93.717C113.226 93.717 113.185 93.7077 113.148 93.6899C113.135 93.6831 113.124 93.6733 113.116 93.6614C113.108 93.6495 113.103 93.6358 113.101 93.6215V88.3511H113.436Z" fill="#455A64"/>
<path d="M117.421 86.7095C117.421 87.1936 117.278 87.6669 117.009 88.0695C116.74 88.4721 116.357 88.7858 115.91 88.9711C115.463 89.1564 114.97 89.2049 114.496 89.1104C114.021 89.016 113.585 88.7828 113.242 88.4405C112.9 88.0981 112.667 87.6619 112.572 87.1871C112.478 86.7122 112.526 86.22 112.712 85.7727C112.897 85.3254 113.211 84.943 113.613 84.674C114.016 84.405 114.489 84.2615 114.973 84.2615C115.622 84.2624 116.244 84.5206 116.703 84.9795C117.162 85.4384 117.42 86.0605 117.421 86.7095Z" fill="#00B25D"/>
<path opacity="0.2" d="M115.74 86.0831C116.057 85.0895 116.392 84.7007 116.179 84.5783C115.774 84.3488 115.311 84.2396 114.846 84.2638C114.381 84.2879 113.932 84.4443 113.553 84.7146C113.173 84.9849 112.879 85.3579 112.704 85.7897C112.529 86.2215 112.481 86.6942 112.565 87.1524C112.65 87.6106 112.863 88.0351 113.181 88.3761C113.498 88.7172 113.906 88.9606 114.357 89.0778C114.808 89.195 115.283 89.1811 115.726 89.0377C116.17 88.8943 116.563 88.6274 116.86 88.2683C116.136 88.4771 115.33 87.3719 115.74 86.0831Z" fill="black"/>
<path d="M112.838 87.4008C112.839 87.7413 112.739 88.0743 112.55 88.3578C112.361 88.6413 112.093 88.8624 111.779 88.9932C111.464 89.124 111.118 89.1586 110.784 89.0926C110.45 89.0266 110.143 88.863 109.902 88.6225C109.661 88.3819 109.497 88.0753 109.43 87.7414C109.363 87.4075 109.397 87.0614 109.527 86.7467C109.658 86.4321 109.878 86.1631 110.161 85.9739C110.444 85.7846 110.777 85.6836 111.118 85.6836C111.573 85.6836 112.01 85.8644 112.333 86.1863C112.656 86.5083 112.837 86.945 112.838 87.4008Z" fill="#00B25D"/>
<path opacity="0.2" d="M111.118 85.6799C110.757 85.6786 110.405 85.7921 110.113 86.0039C110.066 87.0551 110.959 88.0775 110.707 88.4231C110.455 88.7687 109.843 88.5563 109.627 88.2647C109.779 88.5259 109.996 88.7425 110.258 88.8929C110.52 89.0433 110.817 89.1221 111.119 89.1215C111.421 89.1209 111.717 89.0409 111.978 88.8894C112.24 88.738 112.456 88.5205 112.607 88.2587C112.758 87.997 112.837 87.7003 112.836 87.3983C112.836 87.0964 112.756 86.7999 112.605 86.5386C112.453 86.2772 112.236 86.0603 111.974 85.9096C111.713 85.7589 111.416 85.6797 111.114 85.6799H111.118Z" fill="black"/>
<path d="M113.267 88.7038C115.01 88.7038 116.424 87.2903 116.424 85.5466C116.424 83.8029 115.01 82.3894 113.267 82.3894C111.523 82.3894 110.11 83.8029 110.11 85.5466C110.11 87.2903 111.523 88.7038 113.267 88.7038Z" fill="#00B25D"/>
<path opacity="0.1" d="M116.341 86.2702C116.221 86.781 115.976 87.2539 115.628 87.6461C115.279 88.0383 114.838 88.3375 114.345 88.5166C113.852 88.6957 113.322 88.7491 112.803 88.6719C112.284 88.5947 111.793 88.3894 111.373 88.0746C110.953 87.7597 110.619 87.3452 110.399 86.8686C110.18 86.3919 110.083 85.8681 110.117 85.3446C110.151 84.821 110.315 84.3141 110.594 83.8698C110.873 83.4255 111.258 83.0578 111.715 82.7998C111.442 82.9557 111.193 83.151 110.977 83.3794C110.823 84.0535 110.895 84.7595 111.181 85.3888C111.468 86.0182 111.953 86.5362 112.562 86.8633C113.171 87.1903 113.871 87.3084 114.553 87.1993C115.236 87.0902 115.864 86.76 116.341 86.2594V86.2702Z" fill="black"/>
<path d="M143.485 70.4087L145.84 71.7695V74.4911L143.485 73.1303V70.4087Z" fill="#E0E0E0"/>
<path d="M145.84 71.7695L148.198 70.4087V75.8483L145.84 74.4911V71.7695Z" fill="#F0F0F0"/>
<path d="M145.84 68.094L143.24 69.5916V70.272L145.84 71.7696L148.442 70.272V69.5916L145.84 68.094Z" fill="#455A64"/>
<path d="M143.24 70.272L145.84 71.7696V71.0892L143.24 69.5916V70.272Z" fill="#37474F"/>
<path d="M148.442 70.272L145.84 71.7696V71.0892L148.442 69.5916V70.272Z" fill="#263238"/>
<path d="M144.112 69.5915L145.84 68.5979L147.571 69.5915L145.84 70.5887L144.112 69.5915Z" fill="#00B25D"/>
<path d="M145.84 68.5979V70.5887L144.112 69.5915L145.84 68.5979Z" fill="#37474F"/>
<path d="M145.84 68.5979L147.571 69.5915L145.84 70.5887V68.5979Z" fill="#263238"/>
<path d="M137.833 97.7219L137.83 85.5647L144.839 89.6147V101.772L137.833 97.7219Z" fill="#F0F0F0"/>
<path d="M137.83 85.5647L144.839 89.6147V94.4567L137.83 90.4139V85.5647Z" fill="#E0E0E0"/>
<path d="M158.89 93.6683V81.5111L151.855 77.4575L144.839 89.6147V101.772L158.89 93.6683Z" fill="#FAFAFA"/>
<path d="M143.68 91.6414L151.855 77.4574V76.1074L142.51 92.3182L143.68 91.6414Z" fill="#37474F"/>
<path d="M137.83 68.0039L151.855 76.1075L142.51 92.3183L137.833 89.6147L137.83 68.0039Z" fill="#455A64"/>
<path d="M151.855 77.4574L160.06 82.1842L161.23 81.511L151.855 76.1074V77.4574Z" fill="#263238"/>
<path d="M154.789 88.182L157.54 86.6052V90.6588L154.789 92.2356V88.182Z" fill="#455A64"/>
<path d="M157.306 90.5219V86.7419L154.789 88.1819V91.9619L157.306 90.5219Z" fill="#E0E0E0"/>
<path d="M157.54 90.6588L157.306 90.522L154.789 91.962V92.2356L157.54 90.6588Z" fill="#37474F"/>
<path d="M154.789 90.2088L157.54 88.632V88.3584L154.789 89.9352V90.2088Z" fill="#455A64"/>
<path d="M146.156 93.1608L148.907 91.584V95.634L146.156 97.2144V93.1608Z" fill="#455A64"/>
<path d="M148.673 95.5006V91.717L146.156 93.1606V96.9406L148.673 95.5006Z" fill="#E0E0E0"/>
<path d="M148.907 95.6339L148.673 95.5007L146.156 96.9407V97.2143L148.907 95.6339Z" fill="#37474F"/>
<path d="M146.156 95.1876L148.907 93.6108V93.3372L146.156 94.914V95.1876Z" fill="#455A64"/>
<path d="M150.102 83.538L153.612 81.5112V84.5496L150.102 86.5764V83.538Z" fill="#455A64"/>
<path d="M153.378 84.4127V81.6443L150.102 83.5379V86.3063L153.378 84.4127Z" fill="#E0E0E0"/>
<path d="M153.612 84.5494L153.378 84.4126L150.102 86.3062V86.5762L153.612 84.5494Z" fill="#37474F"/>
<path d="M160.06 82.1844H158.89V81.5112L160.06 82.1844Z" fill="black"/>
<path d="M149.897 98.8488V90.7452L153.817 88.4844V96.588L149.897 98.8488Z" fill="#37474F"/>
<path d="M153.68 96.4835V88.5635L149.897 90.7451V98.6651L153.68 96.4835Z" fill="#455A64"/>
<path d="M153.832 88.4844L153.68 88.5636V96.4836L153.832 96.588V88.4844Z" fill="#263238"/>
<path d="M137.83 97.7219V85.5647L130.824 89.6147V101.772L137.83 97.7219Z" fill="#FAFAFA"/>
<path d="M137.83 85.5647L130.824 89.6147V94.4567L137.833 90.4139L137.83 85.5647Z" fill="#F5F5F5"/>
<path d="M116.773 93.6683V81.5111L123.804 77.4575L130.824 89.6147V101.772L116.773 93.6683Z" fill="#EBEBEB"/>
<path d="M131.983 91.6414L123.804 77.4574V76.1074L133.153 92.3182L131.983 91.6414Z" fill="#455A64"/>
<path d="M137.83 68.0039L123.804 76.1075L133.153 92.3183L137.83 89.6147V68.0039Z" fill="#37474F"/>
<path d="M123.804 77.4574L115.603 82.1842L114.433 81.511L123.804 76.1074V77.4574Z" fill="#263238"/>
<path d="M121.864 88.4916L119.113 86.9148V90.9684L121.864 92.5416V88.4916Z" fill="#455A64"/>
<path d="M119.347 90.8315V87.0479L121.864 88.4915V92.2715L119.347 90.8315Z" fill="#FAFAFA"/>
<path d="M119.347 87.0479L121.864 88.5022V89.0026L119.347 87.5591V87.0479Z" fill="#F5F5F5"/>
<path d="M125.957 90.8638L128.473 92.3182V92.8186L125.957 91.375V90.8638Z" fill="#F5F5F5"/>
<path d="M119.113 90.9683L119.347 90.8315L121.864 92.2715V92.5415L119.113 90.9683Z" fill="#37474F"/>
<path d="M121.864 90.5184L119.113 88.9416V88.668L121.864 90.2448V90.5184Z" fill="#455A64"/>
<path d="M125.561 83.538L122.051 81.5112V84.5496L125.561 86.5764V83.538Z" fill="#455A64"/>
<path d="M122.285 84.4127V81.6443L125.561 83.5379V86.3063L122.285 84.4127Z" fill="#FAFAFA"/>
<path d="M122.285 81.6443L125.561 83.5379V84.0383L122.285 82.1591V81.6443Z" fill="#F5F5F5"/>
<path d="M122.051 84.5494L122.285 84.4126L125.561 86.3062V86.5762L122.051 84.5494Z" fill="#37474F"/>
<path d="M115.603 82.1844H116.773V81.5112L115.603 82.1844Z" fill="black"/>
<path d="M128.473 92.3183L125.723 90.7307V94.7807L128.473 96.3683V92.3183Z" fill="#455A64"/>
<path d="M125.957 94.6438V90.8638L128.473 92.3182V96.0982L125.957 94.6438Z" fill="#FAFAFA"/>
<path d="M125.723 94.7806L125.957 94.6438L128.473 96.0982V96.3682L125.723 94.7806Z" fill="#37474F"/>
<path d="M128.473 94.3306L125.723 92.7538V92.4802L128.473 94.057V94.3306Z" fill="#455A64"/>
<path d="M125.957 90.8638L128.473 92.3182V92.8186L125.957 91.375V90.8638Z" fill="#F5F5F5"/>
<path d="M142.51 92.3182L138.996 90.2878V94.0246L142.51 96.0514V92.3182Z" fill="#263238"/>
<path d="M139.212 93.8986V90.4138L142.51 92.3182V95.803L139.212 93.8986Z" fill="#FAFAFA"/>
<path d="M139.212 90.4138V91.2238L142.51 93.1318V92.3182L139.212 90.4138Z" fill="#F0F0F0"/>
<path d="M138.996 94.0247L139.212 93.8987L142.51 95.8031V96.0515L138.996 94.0247Z" fill="#37474F"/>
<path d="M138.996 92.1563L139.212 92.0303L142.51 93.9347V94.1867L138.996 92.1563Z" fill="#37474F"/>
<path d="M140.681 94.9968L140.897 95.1192V91.386L140.681 91.26V94.9968Z" fill="#37474F"/>
<path d="M135.428 100.44L136.051 100.08C136.223 99.0676 136.248 98.0358 136.127 97.0163C135.814 95.0291 134.456 94.3415 133.967 94.5395C133.477 94.7375 133.362 95.3279 134.251 96.4763C135.055 97.6387 135.467 99.0271 135.428 100.44Z" fill="#00B25D"/>
<g opacity="0.2">
<path d="M135.428 100.44L136.051 100.08C136.223 99.0676 136.248 98.0358 136.127 97.0163C135.814 95.0291 134.456 94.3415 133.967 94.5395C133.477 94.7375 133.362 95.3279 134.251 96.4763C135.055 97.6387 135.467 99.0271 135.428 100.44Z" fill="black"/>
</g>
<path d="M135.655 99.6623C135.649 99.6619 135.643 99.6603 135.638 99.6574C135.633 99.6546 135.628 99.6507 135.624 99.6459C135.62 99.6412 135.618 99.6357 135.616 99.6299C135.615 99.624 135.615 99.6179 135.616 99.612C135.875 97.7508 135.126 95.7096 134.284 94.8852C134.275 94.877 134.271 94.866 134.271 94.8545C134.271 94.8431 134.275 94.8321 134.284 94.8239C134.292 94.8158 134.303 94.8113 134.314 94.8113C134.326 94.8113 134.337 94.8158 134.345 94.8239C135.202 95.6591 135.965 97.7327 135.706 99.6263C135.705 99.6321 135.703 99.6375 135.7 99.6425C135.697 99.6474 135.693 99.6516 135.688 99.655C135.683 99.6584 135.678 99.6607 135.672 99.662C135.667 99.6633 135.661 99.6634 135.655 99.6623Z" fill="white"/>
<path d="M133.7 101.451C133.6 101.509 133.398 101.387 133.319 101.333C133.186 101.241 133.08 101.117 133.009 100.973C132.929 100.81 132.902 100.626 132.93 100.447C132.946 100.352 132.967 100.258 132.995 100.166C133.024 100.073 133.049 99.9826 133.074 99.8926C133.107 99.804 133.12 99.7095 133.114 99.6153C133.089 99.5248 133.046 99.4401 132.988 99.3665C132.93 99.2929 132.858 99.2318 132.775 99.1869C132.683 99.1334 132.604 99.0589 132.545 98.9696C132.486 98.8802 132.449 98.7784 132.437 98.6721C132.449 98.4973 132.518 98.3314 132.635 98.2005C132.743 98.0637 132.869 97.945 132.966 97.801C133.032 97.7233 133.072 97.6263 133.078 97.5243C133.085 97.4224 133.058 97.3212 133.002 97.2357C132.911 97.0961 132.831 96.9492 132.764 96.7965C132.732 96.7199 132.721 96.6356 132.735 96.5534C132.748 96.4711 132.785 96.3944 132.84 96.3321C132.895 96.2912 132.957 96.2616 133.023 96.2449C133.089 96.2282 133.158 96.2248 133.225 96.2349C133.353 96.2496 133.476 96.2927 133.585 96.361C133.945 96.559 134.147 96.9838 134.525 97.135C134.674 97.1827 134.827 97.22 134.982 97.2465C135.06 97.2603 135.134 97.2905 135.199 97.3353C135.264 97.38 135.319 97.4381 135.36 97.5057C135.5 97.783 135.241 98.125 135.338 98.4202C135.436 98.7154 135.68 98.7801 135.821 99.0177C135.881 99.1196 135.905 99.2389 135.889 99.3561C135.876 99.5564 135.828 99.7528 135.745 99.9358C135.651 100.115 135.545 100.289 135.428 100.454L133.7 101.451Z" fill="#00B25D"/>
<g opacity="0.1">
<path d="M133.7 101.451C133.6 101.509 133.398 101.387 133.319 101.333C133.186 101.241 133.08 101.117 133.009 100.973C132.929 100.81 132.902 100.626 132.93 100.447C132.946 100.352 132.967 100.258 132.995 100.166C133.024 100.073 133.049 99.9826 133.074 99.8926C133.107 99.804 133.12 99.7095 133.114 99.6153C133.089 99.5248 133.046 99.4401 132.988 99.3665C132.93 99.2929 132.858 99.2318 132.775 99.1869C132.683 99.1334 132.604 99.0589 132.545 98.9696C132.486 98.8802 132.449 98.7784 132.437 98.6721C132.449 98.4973 132.518 98.3314 132.635 98.2005C132.743 98.0637 132.869 97.945 132.966 97.801C133.032 97.7233 133.072 97.6263 133.078 97.5243C133.085 97.4224 133.058 97.3212 133.002 97.2357C132.911 97.0961 132.831 96.9492 132.764 96.7965C132.732 96.7199 132.721 96.6356 132.735 96.5534C132.748 96.4711 132.785 96.3944 132.84 96.3321C132.895 96.2912 132.957 96.2616 133.023 96.2449C133.089 96.2282 133.158 96.2248 133.225 96.2349C133.353 96.2496 133.476 96.2927 133.585 96.361C133.945 96.559 134.147 96.9838 134.525 97.135C134.674 97.1827 134.827 97.22 134.982 97.2465C135.06 97.2603 135.134 97.2905 135.199 97.3353C135.264 97.38 135.319 97.4381 135.36 97.5057C135.5 97.783 135.241 98.125 135.338 98.4202C135.436 98.7154 135.68 98.7801 135.821 99.0177C135.881 99.1196 135.905 99.2389 135.889 99.3561C135.876 99.5564 135.828 99.7528 135.745 99.9358C135.651 100.115 135.545 100.289 135.428 100.454L133.7 101.451Z" fill="black"/>
</g>
<path d="M134.712 100.915C134.701 100.913 134.69 100.908 134.682 100.899C134.674 100.891 134.67 100.88 134.669 100.868C134.744 99.1042 133.913 97.1566 133.308 96.5914C133.304 96.5874 133.3 96.5825 133.298 96.5772C133.296 96.5719 133.294 96.5661 133.294 96.5602C133.294 96.5544 133.295 96.5486 133.297 96.5431C133.299 96.5376 133.302 96.5326 133.306 96.5284C133.31 96.5241 133.315 96.5207 133.32 96.5183C133.326 96.5159 133.331 96.5146 133.337 96.5144C133.343 96.5143 133.349 96.5152 133.354 96.5173C133.36 96.5194 133.365 96.5226 133.369 96.5266C133.985 97.1026 134.834 99.0826 134.759 100.872C134.758 100.884 134.753 100.895 134.744 100.903C134.735 100.911 134.724 100.915 134.712 100.915Z" fill="white"/>
<path d="M134.446 98.8306C134.027 98.717 133.597 98.6482 133.164 98.6254C133.158 98.6254 133.152 98.6242 133.147 98.6218C133.141 98.6194 133.136 98.6159 133.132 98.6115C133.128 98.6071 133.125 98.6019 133.123 98.5962C133.121 98.5906 133.12 98.5846 133.121 98.5786C133.122 98.5668 133.127 98.5558 133.136 98.5478C133.144 98.5398 133.156 98.5354 133.168 98.5354C133.608 98.5583 134.045 98.6296 134.471 98.7478C134.476 98.7494 134.481 98.7522 134.486 98.7558C134.49 98.7594 134.494 98.7638 134.496 98.7688C134.499 98.7738 134.501 98.7793 134.501 98.785C134.502 98.7907 134.501 98.7964 134.5 98.8018C134.496 98.8123 134.488 98.821 134.478 98.8263C134.468 98.8315 134.457 98.8331 134.446 98.8306Z" fill="white"/>
<path d="M149.897 98.8487L153.817 96.5879L157.334 98.6183L153.414 100.875L149.897 98.8487Z" fill="#F0F0F0"/>
<path d="M86.5008 104.724L52.2792 124.481V126L87.8148 146.516L122.033 126.76V125.241L86.5008 104.724Z" fill="#00B25D"/>
<path d="M102.294 132.08L106.218 134.374L112.81 130.568L108.875 128.282L102.294 132.08Z" fill="#F0F0F0"/>
<path opacity="0.15" d="M52.2792 124.481L87.8148 144.997V146.516L52.2792 126V124.481Z" fill="black"/>
<path opacity="0.1" d="M87.8148 144.997L122.033 125.24V126.76L87.8148 146.516V144.997Z" fill="black"/>
<path d="M118.188 118.513L116.663 121.518L116.91 121.643L118.435 118.638L118.188 118.513Z" fill="#263238"/>
<path d="M115.354 118.257L115.122 118.401L116.609 120.804L116.842 120.66L115.354 118.257Z" fill="#263238"/>
<path d="M117 117.979V125.219C116.998 125.239 116.99 125.258 116.978 125.275C116.966 125.291 116.95 125.304 116.932 125.312C116.881 125.338 116.825 125.352 116.768 125.352C116.711 125.352 116.655 125.338 116.604 125.312C116.586 125.304 116.57 125.291 116.559 125.275C116.547 125.258 116.541 125.239 116.539 125.219V117.979H117Z" fill="#263238"/>
<path d="M119.12 119.088C120.977 119.088 122.483 117.583 122.483 115.726C122.483 113.869 120.977 112.363 119.12 112.363C117.263 112.363 115.758 113.869 115.758 115.726C115.758 117.583 117.263 119.088 119.12 119.088Z" fill="#455A64"/>
<path d="M120.175 114.869C120.607 113.501 121.072 112.968 120.776 112.802C120.22 112.487 119.584 112.337 118.945 112.37C118.306 112.403 117.689 112.618 117.168 112.989C116.647 113.361 116.242 113.873 116.002 114.467C115.762 115.06 115.696 115.709 115.812 116.339C115.929 116.968 116.222 117.551 116.659 118.02C117.095 118.488 117.656 118.822 118.275 118.983C118.895 119.143 119.548 119.124 120.156 118.926C120.765 118.729 121.305 118.361 121.712 117.868C120.719 118.156 119.614 116.64 120.175 114.869Z" fill="#37474F"/>
<path d="M113.825 119.041C115.129 119.041 116.186 117.984 116.186 116.679C116.186 115.375 115.129 114.318 113.825 114.318C112.521 114.318 111.463 115.375 111.463 116.679C111.463 117.984 112.521 119.041 113.825 119.041Z" fill="#455A64"/>
<path d="M113.825 114.314C113.328 114.314 112.845 114.47 112.442 114.761C112.381 116.201 113.605 117.612 113.263 118.087C112.921 118.562 112.075 118.267 111.784 117.868C111.992 118.225 112.291 118.521 112.651 118.727C113.01 118.932 113.417 119.039 113.831 119.038C114.245 119.036 114.651 118.926 115.009 118.718C115.367 118.51 115.664 118.211 115.87 117.852C116.076 117.494 116.185 117.087 116.184 116.673C116.183 116.259 116.074 115.852 115.867 115.494C115.66 115.136 115.362 114.838 115.004 114.631C114.645 114.424 114.239 114.315 113.825 114.314Z" fill="#37474F"/>
<path d="M120.995 115.119C121.544 112.789 120.102 110.455 117.772 109.905C115.442 109.355 113.107 110.798 112.558 113.128C112.008 115.458 113.451 117.792 115.78 118.342C118.11 118.892 120.445 117.449 120.995 115.119Z" fill="#455A64"/>
<path d="M121 115.121C120.831 115.815 120.492 116.457 120.014 116.989C119.537 117.521 118.934 117.926 118.261 118.167C117.588 118.409 116.866 118.48 116.159 118.373C115.452 118.267 114.783 117.987 114.21 117.558C113.638 117.129 113.182 116.565 112.881 115.917C112.581 115.268 112.446 114.555 112.489 113.841C112.532 113.127 112.752 112.435 113.128 111.828C113.505 111.22 114.026 110.715 114.646 110.358C114.27 110.572 113.928 110.84 113.63 111.154C113.555 111.478 113.516 111.81 113.515 112.144C113.508 113.014 113.764 113.867 114.25 114.59C114.736 115.313 115.429 115.872 116.238 116.194C117.048 116.516 117.935 116.586 118.785 116.394C119.635 116.203 120.407 115.759 121 115.121Z" fill="#37474F"/>
<path d="M58.9997 117.654L57.4746 120.659L57.7218 120.784L59.2468 117.78L58.9997 117.654Z" fill="#263238"/>
<path d="M56.1733 117.415L55.9407 117.559L57.4282 119.962L57.6608 119.818L56.1733 117.415Z" fill="#263238"/>
<path d="M57.8268 117.133V124.373C57.8254 124.393 57.8186 124.412 57.8072 124.428C57.7958 124.445 57.7802 124.458 57.762 124.466C57.7113 124.492 57.6551 124.506 57.5982 124.506C57.5412 124.506 57.4851 124.492 57.4344 124.466C57.4157 124.458 57.3995 124.445 57.3875 124.429C57.3755 124.412 57.3681 124.393 57.366 124.373V117.133H57.8268Z" fill="#263238"/>
<path d="M59.94 118.246C61.797 118.246 63.3024 116.74 63.3024 114.883C63.3024 113.026 61.797 111.521 59.94 111.521C58.083 111.521 56.5776 113.026 56.5776 114.883C56.5776 116.74 58.083 118.246 59.94 118.246Z" fill="#455A64"/>
<path d="M60.9948 114.023C61.4268 112.655 61.8876 112.122 61.596 111.956C61.0391 111.641 60.4037 111.491 59.7645 111.524C59.1252 111.557 58.5087 111.772 57.9874 112.143C57.4661 112.515 57.0616 113.027 56.8215 113.62C56.5814 114.214 56.5156 114.863 56.6319 115.493C56.7482 116.122 57.0418 116.705 57.4781 117.174C57.9144 117.642 58.4753 117.976 59.0949 118.137C59.7145 118.297 60.3671 118.278 60.976 118.08C61.5848 117.882 62.1246 117.515 62.532 117.021C61.5384 117.313 60.4296 115.794 60.9948 114.023Z" fill="#37474F"/>
<path d="M54.6444 118.195C55.9487 118.195 57.006 117.138 57.006 115.834C57.006 114.529 55.9487 113.472 54.6444 113.472C53.3401 113.472 52.2828 114.529 52.2828 115.834C52.2828 117.138 53.3401 118.195 54.6444 118.195Z" fill="#455A64"/>
<path d="M54.6444 113.472C54.1486 113.471 53.6651 113.626 53.262 113.915C53.1972 115.355 54.4248 116.766 54.0828 117.241C53.7408 117.716 52.8948 117.421 52.5996 117.022C52.8079 117.379 53.1066 117.676 53.4657 117.882C53.8249 118.088 54.2319 118.196 54.6459 118.195C55.06 118.194 55.4665 118.084 55.8247 117.877C56.183 117.669 56.4803 117.371 56.687 117.012C56.8937 116.654 57.0024 116.247 57.0022 115.833C57.0021 115.419 56.8931 115.012 56.6862 114.653C56.4793 114.295 56.1818 113.997 55.8234 113.789C55.465 113.582 55.0584 113.473 54.6444 113.472Z" fill="#37474F"/>
<path d="M60.6622 116.351C62.3549 114.658 62.3549 111.913 60.6622 110.221C58.9695 108.528 56.2251 108.528 54.5324 110.221C52.8397 111.913 52.8397 114.658 54.5324 116.351C56.2251 118.043 58.9695 118.043 60.6622 116.351Z" fill="#455A64"/>
<path d="M61.8156 114.275C61.6472 114.97 61.3089 115.612 60.831 116.145C60.353 116.677 59.7504 117.082 59.0773 117.324C58.4042 117.565 57.6815 117.636 56.9742 117.53C56.2669 117.423 55.5971 117.143 55.0249 116.714C54.4527 116.285 53.996 115.72 53.6959 115.071C53.3957 114.422 53.2613 113.708 53.305 112.994C53.3486 112.28 53.5688 111.589 53.9459 110.981C54.3229 110.373 54.845 109.868 55.4652 109.512C55.0885 109.724 54.7462 109.993 54.45 110.308C54.3747 110.632 54.3361 110.964 54.3348 111.298C54.3282 112.168 54.5846 113.02 55.0704 113.742C55.5562 114.464 56.2487 115.022 57.0572 115.344C57.8658 115.666 58.7526 115.736 59.6017 115.545C60.4507 115.354 61.2224 114.911 61.8156 114.275Z" fill="#37474F"/>
<path d="M68.0724 119.923L95.7132 135.878V111.564L68.0724 95.6089V119.923Z" fill="#F0F0F0"/>
<path d="M87.8148 126.76V140.44L60.1776 124.481V110.804L87.8148 126.76Z" fill="#F0F0F0"/>
<path d="M60.1776 115.362L87.8148 131.321V126.76L60.1776 110.804V115.362Z" fill="#E0E0E0"/>
<path d="M68.0724 100.166L95.7132 116.122V111.564L68.0724 95.6052V100.166Z" fill="#E0E0E0"/>
<path d="M95.7132 111.564L114.138 100.926V125.24L95.7132 135.878V111.564Z" fill="#FAFAFA"/>
<path d="M87.8148 126.76L95.7132 119.164V135.878L87.8148 140.44V126.76Z" fill="#FAFAFA"/>
<path d="M104.926 95.6052L95.7132 111.564L114.138 100.926L104.926 95.6052Z" fill="#FAFAFA"/>
<path d="M94.3956 113.843L104.926 95.6051V94.4675L94.3956 112.705V113.843Z" fill="#00B25D"/>
<path opacity="0.1" d="M94.3956 113.843L104.926 95.6051V94.4675L94.3956 112.705V113.843Z" fill="black"/>
<path d="M77.2859 78.5119L66.7577 96.7473L94.396 112.704L104.924 94.4689L77.2859 78.5119Z" fill="#00B25D"/>
<path d="M66.7584 96.7463L94.3956 112.705V113.843L66.7584 97.8875V96.7463Z" fill="#00B25D"/>
<path opacity="0.15" d="M66.7584 96.7463L94.3956 112.705V113.843L66.7584 97.8875V96.7463Z" fill="black"/>
<path d="M104.926 94.4675L116.442 101.117L115.452 101.686L104.926 95.6051V94.4675Z" fill="#00B25D"/>
<path opacity="0.15" d="M104.926 94.4675L116.442 101.117L115.452 101.686L104.926 95.6051V94.4675Z" fill="black"/>
<path d="M115.452 101.686H114.138V100.926L115.452 101.686Z" fill="#00B25D"/>
<path opacity="0.3" d="M115.452 101.686H114.138V100.926L115.452 101.686Z" fill="black"/>
<path d="M72.3132 96.5305V91.0585L75.4632 89.2405L78.6024 94.6765V100.166L72.3132 96.5305Z" fill="#F0F0F0"/>
<path opacity="0.2" d="M75.4632 89.2403L71.5752 91.4831L71.0784 91.1951L75.4632 88.6643V89.2403Z" fill="black"/>
<path d="M78.6024 100.166L81.7452 94.7161L83.3508 91.9297L78.6024 94.6765V100.166Z" fill="#FAFAFA"/>
<path opacity="0.4" d="M71.5752 91.4831H72.3132V91.0583L71.5752 91.4831Z" fill="black"/>
<path d="M79.3511 95.9723L75.4631 89.2403V88.6643L79.8371 96.2531L79.3511 95.9723Z" fill="#00B25D"/>
<path opacity="0.1" d="M79.3511 95.9723L75.4631 89.2403V88.6643L79.8371 96.2531L79.3511 95.9723Z" fill="black"/>
<path d="M79.8371 96.2532L75.4631 88.6644L79.9883 86.0508L84.3623 93.6396L79.8371 96.2532Z" fill="#00B25D"/>
<path opacity="0.3" d="M79.8371 96.2532L75.4631 88.6644L79.9883 86.0508L84.3623 93.6396L79.8371 96.2532Z" fill="white"/>
<path d="M77.0328 93.798L73.8864 91.98V95.6088L77.0328 97.4268V93.798Z" fill="#455A64"/>
<path d="M74.2068 95.4216V92.1636L77.0328 93.798V97.0524L74.2068 95.4216Z" fill="#E0E0E0"/>
<path d="M73.8864 95.6088L74.2068 95.4216L77.0328 97.0524V97.4268L73.8864 95.6088Z" fill="#37474F"/>
<path d="M85.4712 104.13V98.6581L88.6248 96.8401L91.764 102.276V107.766L85.4712 104.13Z" fill="#F0F0F0"/>
<path opacity="0.2" d="M88.6248 96.8399L84.7368 99.0827L84.2365 98.7947L88.6248 96.2639V96.8399Z" fill="black"/>
<path d="M91.7639 107.766L94.9031 102.316L96.5087 99.5293L91.7639 102.276V107.766Z" fill="#FAFAFA"/>
<path opacity="0.4" d="M84.7368 99.0828H85.4712V98.658L84.7368 99.0828Z" fill="black"/>
<path d="M92.5128 103.572L88.6248 96.8399V96.2639L92.9952 103.853L92.5128 103.572Z" fill="#00B25D"/>
<path opacity="0.1" d="M92.5128 103.572L88.6248 96.8399V96.2639L92.9952 103.853L92.5128 103.572Z" fill="black"/>
<path d="M92.9952 103.853L88.6248 96.2639L93.1464 93.6467L97.5204 101.236L92.9952 103.853Z" fill="#00B25D"/>
<path opacity="0.3" d="M92.9952 103.853L88.6248 96.2639L93.1464 93.6467L97.5204 101.236L92.9952 103.853Z" fill="white"/>
<path d="M90.1908 101.394L87.0444 99.5796V103.208L90.1908 105.026V101.394Z" fill="#455A64"/>
<path d="M87.3684 103.021V99.7632L90.1908 101.394V104.652L87.3684 103.021Z" fill="#E0E0E0"/>
<path d="M87.0444 103.208L87.3684 103.021L90.1908 104.652V105.026L87.0444 103.208Z" fill="#37474F"/>
<path d="M68.0724 102.179L95.7132 118.134V119.164L86.5008 129.042L58.86 113.083V112.057L68.0724 102.179Z" fill="#00B25D"/>
<path d="M68.0724 102.179L95.7132 118.134L86.5008 128.012L58.86 112.057L68.0724 102.179Z" fill="#00B25D"/>
<path opacity="0.1" d="M86.5008 128.012V129.042L95.7132 119.164V118.134L86.5008 128.012Z" fill="black"/>
<path opacity="0.15" d="M86.5008 129.042L58.86 113.083V112.057L86.5008 128.012V129.042Z" fill="black"/>
<path d="M70.7076 119.92L64.1268 116.122V123.113L70.7076 126.911V119.92Z" fill="#263238"/>
<path d="M64.53 122.879V116.355L70.7076 119.923V126.443L64.53 122.879Z" fill="#FAFAFA"/>
<path d="M64.53 116.355V117.878L70.7076 121.442V119.919L64.53 116.355Z" fill="#F0F0F0"/>
<path d="M64.1268 123.113L64.53 122.879L70.7076 126.443V126.911L64.1268 123.113Z" fill="#37474F"/>
<path d="M64.1268 119.617L64.53 119.383L70.7076 122.947V123.415L64.1268 119.617Z" fill="#37474F"/>
<path d="M67.2803 124.934L67.6835 125.168V118.177L67.2803 117.943V124.934Z" fill="#37474F"/>
<path d="M82.5516 126.76L75.9708 122.962V129.953L82.5516 133.751V126.76Z" fill="#263238"/>
<path d="M76.374 129.719V123.196L82.5516 126.76V133.283L76.374 129.719Z" fill="#FAFAFA"/>
<path d="M76.374 123.196V124.715L82.5516 128.282V126.76L76.374 123.196Z" fill="#F0F0F0"/>
<path d="M75.9708 129.953L76.374 129.719L82.5516 133.283V133.751L75.9708 129.953Z" fill="#37474F"/>
<path d="M75.9708 126.457L76.374 126.223L82.5516 129.787V130.255L75.9708 126.457Z" fill="#37474F"/>
<path d="M79.1244 131.774L79.5276 132.008V125.017L79.1244 124.783V131.774Z" fill="#37474F"/>
<path d="M91.7639 127.523L98.3447 123.721V130.712L91.7639 134.51V127.523Z" fill="#263238"/>
<path d="M97.9415 130.478V123.955L91.7639 127.523V134.042L97.9415 130.478Z" fill="#E6E6E6"/>
<path d="M97.9415 123.955V124.625L91.7639 128.189V127.523L97.9415 123.955Z" fill="#E0E0E0"/>
<path d="M98.3447 130.713L97.9415 130.479L91.7639 134.043V134.511L98.3447 130.713Z" fill="#37474F"/>
<path d="M98.3447 127.217L97.9415 126.983L91.7639 130.547V131.015L98.3447 127.217Z" fill="#37474F"/>
<path d="M95.1912 132.534L94.788 132.768V125.777L95.1912 125.543V132.534Z" fill="#37474F"/>
<path d="M102.172 104.897L108.752 101.099V108.09L102.172 111.888V104.897Z" fill="#263238"/>
<path d="M108.349 107.856V101.333L102.172 104.897V111.42L108.349 107.856Z" fill="#E6E6E6"/>
<path d="M108.349 101.333V102.002L102.172 105.566V104.897L108.349 101.333Z" fill="#E0E0E0"/>
<path d="M108.752 108.09L108.349 107.856L102.172 111.42V111.888L108.752 108.09Z" fill="#37474F"/>
<path d="M108.752 104.594L108.349 104.36L102.172 107.928V108.396L108.752 104.594Z" fill="#37474F"/>
<path d="M105.599 109.912L105.196 110.146V103.154L105.599 102.92V109.912Z" fill="#37474F"/>
<path d="M102.294 132.08V119.923L108.875 116.122V128.282L102.294 132.08Z" fill="#37474F"/>
<path d="M108.634 128.099V116.262L102.294 119.923V131.76L108.634 128.099Z" fill="#455A64"/>
<path d="M108.875 116.122L108.634 116.262V128.099L108.875 128.282V116.122Z" fill="#263238"/>
<path d="M139.838 31.1221C139.818 30.1687 139.574 29.2335 139.125 28.3923C138.676 27.551 138.035 26.8274 137.254 26.2801C136.534 25.8229 135.842 25.7545 135.338 26.0137C132.296 27.5401 110.92 41.2453 109.555 41.9221H109.537C109.393 42.0176 109.278 42.1496 109.202 42.3046C109.126 42.4596 109.092 42.632 109.105 42.8041C109.114 43.2847 109.236 43.7565 109.462 44.1807C109.688 44.605 110.011 44.9697 110.405 45.2449C110.541 45.3514 110.703 45.4196 110.875 45.4423C111.047 45.4651 111.221 45.4417 111.38 45.3745H111.402C113.562 44.1829 134.662 35.1901 138.974 32.8789C139.482 32.5981 139.81 31.9933 139.838 31.1221Z" fill="#00B25D"/>
<path opacity="0.1" d="M139 28.1664C138.577 27.4072 137.978 26.7604 137.254 26.28C136.534 25.8228 135.85 25.7544 135.346 26.01L135.281 26.046C132.505 27.4644 116.597 37.6128 111.244 40.914L111.208 40.9356L110.992 41.0688L110.927 41.1084L110.804 41.184L110.66 41.2704C110.095 41.6304 109.714 41.8392 109.58 41.9148H109.562C109.517 41.942 109.474 41.9746 109.436 42.012C109.335 42.1157 109.256 42.2386 109.204 42.3734C109.151 42.5082 109.126 42.6522 109.13 42.7968C109.123 42.8987 109.123 43.001 109.13 43.1028C109.13 43.1424 109.13 43.182 109.148 43.2216C109.166 43.2612 109.17 43.344 109.184 43.4088C109.199 43.4736 109.21 43.5096 109.224 43.5564C109.238 43.6032 109.26 43.6752 109.282 43.7328C109.303 43.7904 109.314 43.8192 109.328 43.8624V43.884L139 28.1664Z" fill="black"/>
<path d="M110.401 45.2484C110.009 44.9738 109.687 44.6108 109.461 44.1886C109.235 43.7664 109.112 43.297 109.102 42.8184C109.134 41.94 109.76 41.6016 110.506 42.066C110.898 42.3409 111.221 42.7046 111.446 43.1274C111.672 43.5503 111.795 44.0204 111.805 44.4996C111.776 45.378 111.146 45.72 110.401 45.2484Z" fill="#00B25D"/>
<path d="M104.011 45.8389C104.02 46.2066 104.114 46.5672 104.287 46.8917C104.461 47.2163 104.708 47.4956 105.008 47.7073C105.113 47.7881 105.237 47.8396 105.368 47.8567C105.499 47.8738 105.632 47.8558 105.754 47.8045L110.923 45.0505C111.033 44.9776 111.121 44.8769 111.18 44.7586C111.238 44.6403 111.264 44.5088 111.254 44.3773C111.247 44.0094 111.152 43.6486 110.979 43.324C110.806 42.9994 110.558 42.7202 110.257 42.5089C110.153 42.4272 110.029 42.3748 109.898 42.357C109.767 42.3393 109.634 42.3569 109.512 42.4081L104.342 45.1621C104.232 45.2353 104.143 45.3366 104.085 45.4555C104.027 45.5745 104.001 45.7068 104.011 45.8389Z" fill="#37474F"/>
<path d="M104.35 45.1621C104.238 45.2344 104.148 45.3353 104.088 45.4543C104.029 45.5734 104.002 45.7061 104.011 45.8389C104.009 46.1121 104.063 46.3828 104.17 46.6345L110.837 43.0777C110.686 42.852 110.491 42.6586 110.264 42.5089C110.16 42.4272 110.037 42.3748 109.905 42.357C109.774 42.3393 109.641 42.3569 109.519 42.4081L104.35 45.1621Z" fill="#263238"/>
<path d="M110.647 50.4252C110.647 47.1132 108.458 43.8012 104.077 41.274C95.3216 36.216 81.1232 36.216 72.3644 41.274C67.9868 43.794 65.798 47.1132 65.798 50.4252V56.5452C65.798 59.8572 67.9868 63.1691 72.368 65.6999C81.1232 70.7399 95.3216 70.7399 104.077 65.6999C108.458 63.1799 110.647 59.8572 110.647 56.5452V50.4252ZM73.4408 43.1496C77.3504 40.8924 82.5956 39.6504 88.2008 39.6504C93.806 39.6504 99.062 40.8924 102.961 43.1496C106.496 45.1908 108.444 47.7756 108.444 50.4288C108.444 53.082 106.496 55.6632 102.961 57.7044C99.0512 59.9615 93.806 61.2035 88.2008 61.2035C82.5956 61.2035 77.3396 59.9615 73.4408 57.7044C69.902 55.6632 67.958 53.0784 67.958 50.4288C67.958 47.7792 69.9128 45.1908 73.4408 43.1496Z" fill="#00B25D"/>
<path opacity="0.3" d="M72.3603 59.5801C81.1191 64.6381 95.3139 64.6381 104.073 59.5801C112.832 54.5221 112.832 46.3285 104.073 41.2741C95.3139 36.2197 81.1191 36.2161 72.3603 41.2741C63.6015 46.3321 63.6087 54.5257 72.3603 59.5801ZM67.9611 50.4289C67.9611 47.7757 69.9087 45.1909 73.4439 43.1497C77.3571 40.8925 82.6023 39.6505 88.2039 39.6505C93.8055 39.6505 99.0652 40.8925 102.964 43.1497C106.499 45.1909 108.447 47.7757 108.447 50.4289C108.447 53.0821 106.499 55.6633 102.964 57.7045C99.0508 59.9617 93.8055 61.2037 88.2039 61.2037C82.6023 61.2037 77.3427 59.9617 73.4439 57.7045C69.9123 55.6633 67.9647 53.0785 67.9647 50.4289H67.9611Z" fill="white"/>
<path d="M67.9644 50.4252C67.9771 51.5039 68.2792 52.5594 68.8392 53.4816C69.7284 51.9408 71.2944 50.4972 73.4508 49.2552C77.3568 46.9944 82.6056 45.7524 88.2108 45.7524C93.816 45.7524 99.072 46.9944 102.971 49.2552C105.131 50.4972 106.693 51.9408 107.586 53.4816C108.143 52.5585 108.444 51.5034 108.457 50.4252C108.457 47.7756 106.51 45.1908 102.971 43.1496C99.0648 40.8924 93.816 39.6504 88.2108 39.6504C82.6056 39.6504 77.346 40.8924 73.4508 43.1496C69.912 45.1908 67.9644 47.7756 67.9644 50.4252Z" fill="#00B25D"/>
<path opacity="0.1" d="M67.9644 50.4252C67.9771 51.5039 68.2792 52.5594 68.8392 53.4816C69.7284 51.9408 71.2944 50.4972 73.4508 49.2552C77.3568 46.9944 82.6056 45.7524 88.2108 45.7524C93.816 45.7524 99.072 46.9944 102.971 49.2552C105.131 50.4972 106.693 51.9408 107.586 53.4816C108.143 52.5585 108.444 51.5034 108.457 50.4252C108.457 47.7756 106.51 45.1908 102.971 43.1496C99.0648 40.8924 93.816 39.6504 88.2108 39.6504C82.6056 39.6504 77.346 40.8924 73.4508 43.1496C69.912 45.1908 67.9644 47.7756 67.9644 50.4252Z" fill="black"/>
<path opacity="0.4" d="M73.44 45.9144C77.3532 43.6572 82.5984 42.4116 88.2 42.4116C93.8016 42.4116 99.0612 43.6572 102.96 45.9144C105.876 47.5992 107.708 49.6512 108.263 51.8076C107.708 53.9676 105.876 56.0196 102.96 57.7044C99.0468 59.9616 93.8016 61.2036 88.2 61.2036C82.5984 61.2036 77.3388 59.9616 73.44 57.7044C70.524 56.0196 68.6916 53.964 68.1372 51.8076C68.6988 49.6512 70.5312 47.5992 73.44 45.9144Z" fill="white"/>
<path opacity="0.1" d="M82.9367 63.0001V69.1201C79.0631 68.5801 75.3767 67.4389 72.3671 65.6929C67.9859 63.1729 65.7971 59.8501 65.7971 56.5345V50.4145C65.7987 49.7397 65.8882 49.0681 66.0635 48.4165C64.9835 52.3585 67.1003 56.5309 72.3599 59.5765C75.3911 61.3297 79.0631 62.4709 82.9367 63.0001Z" fill="black"/>
</svg>
