<svg width="21" height="21" viewBox="0 0 21 21" fill="none" xmlns="http://www.w3.org/2000/svg">
<g clip-path="url(#clip0_1068_2668)">
<mask id="mask0_1068_2668" style="mask-type:luminance" maskUnits="userSpaceOnUse" x="0" y="0" width="21" height="21">
<path d="M20.2085 0.5H0.208496V20.5H20.2085V0.5Z" fill="white"/>
</mask>
<g mask="url(#mask0_1068_2668)">
<path d="M7.20007 15.9089V7.44227C7.20007 7.10893 7.30007 6.78393 7.48341 6.50893L9.75841 3.1256C10.1167 2.58393 11.0084 2.2006 11.7667 2.48393C12.5834 2.75893 13.1251 3.6756 12.9501 4.49227L12.5167 7.21727C12.4834 7.46727 12.5501 7.69227 12.6917 7.86727C12.8334 8.0256 13.0417 8.1256 13.2667 8.1256H16.6917C17.3501 8.1256 17.9167 8.39227 18.2501 8.85892C18.5667 9.30893 18.6251 9.89226 18.4167 10.4839L16.3667 16.7256C16.1084 17.7589 14.9834 18.6006 13.8667 18.6006H10.6167C10.0584 18.6006 9.27508 18.4089 8.91675 18.0506L7.85007 17.2256C7.44174 16.9173 7.20007 16.4256 7.20007 15.9089Z" fill="#24AFFF"/>
<path d="M4.55012 5.81738H3.69179C2.40012 5.81738 1.87512 6.31738 1.87512 7.55072V15.9341C1.87512 17.1674 2.40012 17.6674 3.69179 17.6674H4.55012C5.84179 17.6674 6.36679 17.1674 6.36679 15.9341V7.55072C6.36679 6.31738 5.84179 5.81738 4.55012 5.81738Z" fill="#24AFFF"/>
</g>
</g>
<defs>
<clipPath id="clip0_1068_2668">
<rect width="20" height="20" fill="white" transform="translate(0.208496 0.5)"/>
</clipPath>
</defs>
</svg>
