<svg width="21" height="21" viewBox="0 0 21 21" fill="none" xmlns="http://www.w3.org/2000/svg">
<g clip-path="url(#clip0_91_6030)">
<mask id="mask0_91_6030" style="mask-type:luminance" maskUnits="userSpaceOnUse" x="0" y="0" width="21" height="21">
<path d="M20.2085 0.5H0.208496V20.5H20.2085V0.5Z" fill="white"/>
</mask>
<g mask="url(#mask0_91_6030)">
<path d="M13.7753 18.9171H10.6086C10.142 18.9171 9.12528 18.7754 8.58362 18.2337L6.05863 16.2837L6.82529 15.2921L9.40862 17.2921C9.61695 17.4921 10.142 17.6587 10.6086 17.6587H13.7753C14.5253 17.6587 15.3336 17.0587 15.5003 16.3837L17.517 10.2587C17.6503 9.89208 17.6253 9.55875 17.4503 9.31708C17.267 9.05875 16.9336 8.90875 16.5253 8.90875H13.192C12.7586 8.90875 12.3586 8.7254 12.0836 8.40873C11.8003 8.08373 11.6753 7.6504 11.742 7.2004L12.1586 4.5254C12.2586 4.05873 11.942 3.53373 11.492 3.38373C11.0836 3.23373 10.5586 3.4504 10.3753 3.71707L6.95863 8.8004L5.92529 8.10873L9.34195 3.0254C9.86695 2.24207 11.017 1.86707 11.917 2.20873C12.9586 2.5504 13.6253 3.7004 13.392 4.76707L12.9836 7.39207C12.9753 7.4504 12.9753 7.53373 13.0336 7.6004C13.0753 7.64207 13.1336 7.66707 13.2003 7.66707H16.5336C17.3503 7.66707 18.0586 8.00873 18.4753 8.6004C18.8836 9.17542 18.967 9.93375 18.7003 10.6671L16.7086 16.7337C16.4003 17.9421 15.117 18.9171 13.7753 18.9171Z" fill="#00B25D"/>
<path d="M4.69165 18.0003H3.85832C2.31665 18.0003 1.56665 17.2753 1.56665 15.792V7.62533C1.56665 6.14199 2.31665 5.41699 3.85832 5.41699H4.69165C6.23332 5.41699 6.98332 6.14199 6.98332 7.62533V15.792C6.98332 17.2753 6.23332 18.0003 4.69165 18.0003ZM3.85832 6.66699C2.94998 6.66699 2.81665 6.88366 2.81665 7.62533V15.792C2.81665 16.5337 2.94998 16.7503 3.85832 16.7503H4.69165C5.59998 16.7503 5.73332 16.5337 5.73332 15.792V7.62533C5.73332 6.88366 5.59998 6.66699 4.69165 6.66699H3.85832Z" fill="#00B25D"/>
</g>
</g>
<defs>
<clipPath id="clip0_91_6030">
<rect width="20" height="20" fill="white" transform="translate(0.208496 0.5)"/>
</clipPath>
</defs>
</svg>
