<svg width="13" height="14" viewBox="0 0 13 14" fill="none" xmlns="http://www.w3.org/2000/svg">
<g clip-path="url(#clip0_91_6010)">
<mask id="mask0_91_6010" style="mask-type:luminance" maskUnits="userSpaceOnUse" x="0" y="0" width="13" height="14">
<path d="M13 0.5H0V13.5H13V0.5Z" fill="white"/>
</mask>
<g mask="url(#mask0_91_6010)">
<path opacity="0.4" d="M11.1693 5.07716C10.6006 2.57466 8.41767 1.448 6.50017 1.448C6.50017 1.448 6.50017 1.448 6.49476 1.448C4.58267 1.448 2.39434 2.56925 1.82559 5.07175C1.19184 7.86675 2.90351 10.2338 4.45267 11.7234C5.02684 12.2759 5.76351 12.5522 6.50017 12.5522C7.23684 12.5522 7.97351 12.2759 8.54226 11.7234C10.0914 10.2338 11.8031 7.87216 11.1693 5.07716Z" fill="#00B25D"/>
<path d="M6.5002 7.79094C7.44253 7.79094 8.20645 7.02703 8.20645 6.08469C8.20645 5.14233 7.44253 4.37842 6.5002 4.37842C5.55786 4.37842 4.79395 5.14233 4.79395 6.08469C4.79395 7.02703 5.55786 7.79094 6.5002 7.79094Z" fill="#00B25D"/>
</g>
</g>
<defs>
<clipPath id="clip0_91_6010">
<rect width="13" height="13" fill="white" transform="translate(0 0.5)"/>
</clipPath>
</defs>
</svg>
