<svg width="24" height="24" viewBox="0 0 24 24" fill="none" xmlns="http://www.w3.org/2000/svg">
<path d="M12.5942 23.2579L12.5822 23.2599L12.5112 23.2949L12.4912 23.2989L12.4772 23.2949L12.4062 23.2589C12.3955 23.2563 12.3875 23.2583 12.3822 23.2649L12.3782 23.2749L12.3612 23.7029L12.3662 23.7229L12.3762 23.7359L12.4802 23.8099L12.4952 23.8139L12.5072 23.8099L12.6112 23.7359L12.6232 23.7199L12.6272 23.7029L12.6102 23.2759C12.6075 23.2653 12.6022 23.2593 12.5942 23.2579ZM12.8582 23.1449L12.8442 23.1469L12.6602 23.2399L12.6502 23.2499L12.6472 23.2609L12.6652 23.6909L12.6702 23.7029L12.6782 23.7109L12.8792 23.8029C12.8918 23.8063 12.9015 23.8036 12.9082 23.7949L12.9122 23.7809L12.8782 23.1669C12.8748 23.1543 12.8682 23.1469 12.8582 23.1449ZM12.1432 23.1469C12.1388 23.1443 12.1335 23.1434 12.1285 23.1445C12.1234 23.1456 12.119 23.1487 12.1162 23.1529L12.1102 23.1669L12.0762 23.7809C12.0768 23.7929 12.0825 23.8009 12.0932 23.8049L12.1082 23.8029L12.3092 23.7099L12.3192 23.7019L12.3222 23.6909L12.3402 23.2609L12.3372 23.2489L12.3272 23.2389L12.1432 23.1469Z" fill="url(#paint0_linear_1341_3384)"/>
<path d="M9.1071 5.448C9.7051 3.698 12.1231 3.645 12.8321 5.289L12.8921 5.449L13.6991 7.809C13.884 8.35023 14.1829 8.84551 14.5755 9.26142C14.9682 9.67734 15.4454 10.0042 15.9751 10.22L16.1921 10.301L18.5521 11.107C20.3021 11.705 20.3551 14.123 18.7121 14.832L18.5521 14.892L16.1921 15.699C15.6507 15.8838 15.1552 16.1826 14.7391 16.5753C14.323 16.9679 13.996 17.4452 13.7801 17.975L13.6991 18.191L12.8931 20.552C12.2951 22.302 9.8771 22.355 9.1691 20.712L9.1071 20.552L8.3011 18.192C8.11628 17.6506 7.81748 17.1551 7.42485 16.739C7.03222 16.3229 6.5549 15.9959 6.0251 15.78L5.8091 15.699L3.4491 14.893C1.6981 14.295 1.6451 11.877 3.2891 11.169L3.4491 11.107L5.8091 10.301C6.35034 10.1161 6.84562 9.81719 7.26153 9.42457C7.67744 9.03195 8.00432 8.55469 8.2201 8.025L8.3011 7.809L9.1071 5.448ZM19.0001 2C19.1872 2 19.3705 2.05248 19.5293 2.15147C19.688 2.25046 19.8158 2.392 19.8981 2.56L19.9461 2.677L20.2961 3.703L21.3231 4.053C21.5106 4.1167 21.6749 4.23462 21.7953 4.39182C21.9157 4.54902 21.9867 4.73842 21.9994 4.93602C22.012 5.13362 21.9657 5.33053 21.8663 5.50179C21.7669 5.67304 21.6189 5.81094 21.4411 5.898L21.3231 5.946L20.2971 6.296L19.9471 7.323C19.8833 7.51043 19.7653 7.6747 19.608 7.79499C19.4508 7.91529 19.2613 7.98619 19.0637 7.99872C18.8661 8.01125 18.6693 7.96484 18.4981 7.86538C18.3269 7.76591 18.1891 7.61787 18.1021 7.44L18.0541 7.323L17.7041 6.297L16.6771 5.947C16.4896 5.8833 16.3253 5.76538 16.2049 5.60819C16.0845 5.45099 16.0135 5.26158 16.0008 5.06398C15.9882 4.86638 16.0345 4.66947 16.1339 4.49821C16.2333 4.32696 16.3813 4.18906 16.5591 4.102L16.6771 4.054L17.7031 3.704L18.0531 2.677C18.1205 2.47943 18.2481 2.30791 18.4179 2.1865C18.5878 2.06509 18.7913 1.99987 19.0001 2Z" fill="url(#paint1_linear_1341_3384)"/>
<defs>
<linearGradient id="paint0_linear_1341_3384" x1="12.4942" y1="23.144" x2="12.4942" y2="23.8139" gradientUnits="userSpaceOnUse">
<stop stop-color="#00B25D" stop-opacity="0.8"/>
<stop offset="1" stop-color="#7C3AED" stop-opacity="0.8"/>
</linearGradient>
<linearGradient id="paint1_linear_1341_3384" x1="12.0481" y1="2" x2="12.0481" y2="21.9056" gradientUnits="userSpaceOnUse">
<stop stop-color="#00B25D" stop-opacity="0.8"/>
<stop offset="1" stop-color="#7C3AED" stop-opacity="0.8"/>
</linearGradient>
</defs>
</svg>
