<svg width="22" height="22" viewBox="0 0 22 22" fill="none" xmlns="http://www.w3.org/2000/svg">
<mask id="mask0_107_3702" style="mask-type:luminance" maskUnits="userSpaceOnUse" x="0" y="0" width="22" height="21">
<path d="M21.4885 0.814941H0.027832V20.8149H21.4885V0.814941Z" fill="white"/>
</mask>
<g mask="url(#mask0_107_3702)">
<path d="M10.7582 2.48145C8.41538 2.48145 6.51074 4.25645 6.51074 6.43978C6.51074 8.58145 8.30807 10.3148 10.6509 10.3898C10.7224 10.3814 10.7939 10.3814 10.8476 10.3898C10.8655 10.3898 10.8744 10.3898 10.8923 10.3898C10.9012 10.3898 10.9012 10.3898 10.9102 10.3898C13.1993 10.3148 14.9967 8.58145 15.0056 6.43978C15.0056 4.25645 13.101 2.48145 10.7582 2.48145Z" fill="#00B25D"/>
<path opacity="0.4" d="M15.3006 12.6063C12.8058 11.0563 8.73726 11.0563 6.22458 12.6063C5.08895 13.3147 4.46301 14.273 4.46301 15.298C4.46301 16.323 5.08895 17.273 6.21563 17.973C7.46751 18.7563 9.11281 19.148 10.7581 19.148C12.4034 19.148 14.0488 18.7563 15.3006 17.973C16.4273 17.2647 17.0533 16.3147 17.0533 15.2813C17.0443 14.2563 16.4273 13.3063 15.3006 12.6063Z" fill="#00B25D"/>
<path d="M11.706 15.2984L12.4929 14.5651C12.7522 14.3234 12.7522 13.9234 12.4929 13.6817C12.2336 13.4401 11.8044 13.4401 11.5451 13.6817L10.7582 14.4151L9.97129 13.6817C9.71198 13.4401 9.28276 13.4401 9.02345 13.6817C8.76416 13.9234 8.76416 14.3234 9.02345 14.5651L9.81034 15.2984L9.02345 16.0317C8.76416 16.2734 8.76416 16.6734 9.02345 16.9151C9.15758 17.0401 9.32747 17.0984 9.49737 17.0984C9.66727 17.0984 9.83716 17.0401 9.97129 16.9151L10.7582 16.1817L11.5451 16.9151C11.6792 17.0401 11.8491 17.0984 12.019 17.0984C12.1889 17.0984 12.3588 17.0401 12.4929 16.9151C12.7522 16.6734 12.7522 16.2734 12.4929 16.0317L11.706 15.2984Z" fill="#00B25D"/>
</g>
</svg>
