<svg width="22" height="22" viewBox="0 0 22 22" fill="none" xmlns="http://www.w3.org/2000/svg">
<g clip-path="url(#clip0_107_3684)">
<mask id="mask0_107_3684" style="mask-type:luminance" maskUnits="userSpaceOnUse" x="0" y="0" width="22" height="22">
<path d="M21.4885 0.651855H0.027832V21.837H21.4885V0.651855Z" fill="white"/>
</mask>
<g mask="url(#mask0_107_3684)">
<path opacity="0.4" d="M17.7241 4.37733C15.0773 1.77331 10.7851 1.77331 8.15624 4.37733C6.30526 6.18689 5.75086 8.7909 6.46621 11.086L2.2635 15.2347C1.96841 15.5348 1.76275 16.1263 1.82534 16.55L2.0936 18.4743C2.19196 19.1098 2.79107 19.7101 3.43489 19.7984L5.38424 20.0632C5.81345 20.125 6.41256 19.9308 6.71659 19.6218L7.44983 18.898C7.62867 18.7303 7.62867 18.4478 7.44983 18.2713L5.71509 16.5588C5.45577 16.3028 5.45577 15.8791 5.71509 15.6231C5.97441 15.3671 6.40362 15.3671 6.66294 15.6231L8.40662 17.3444C8.57651 17.5121 8.86266 17.5121 9.03251 17.3444L10.9282 15.4819C13.2442 16.1969 15.882 15.6408 17.7241 13.8312C20.362 11.2272 20.362 6.98134 17.7241 4.37733ZM12.9938 11.2448C11.7598 11.2448 10.7583 10.2562 10.7583 9.03807C10.7583 7.81992 11.7598 6.83128 12.9938 6.83128C14.2278 6.83128 15.2293 7.81992 15.2293 9.03807C15.2293 10.2562 14.2278 11.2448 12.9938 11.2448Z" fill="#00B25D"/>
<path d="M12.9937 11.2446C14.2283 11.2446 15.2292 10.2566 15.2292 9.03784C15.2292 7.81907 14.2283 6.83105 12.9937 6.83105C11.7591 6.83105 10.7582 7.81907 10.7582 9.03784C10.7582 10.2566 11.7591 11.2446 12.9937 11.2446Z" fill="#00B25D"/>
</g>
</g>
<defs>
<clipPath id="clip0_107_3684">
<rect width="21.4607" height="21.1852" fill="white" transform="translate(0.027832 0.651855)"/>
</clipPath>
</defs>
</svg>
