<svg width="22" height="23" viewBox="0 0 22 23" fill="none" xmlns="http://www.w3.org/2000/svg">
<mask id="mask0_107_4101" style="mask-type:luminance" maskUnits="userSpaceOnUse" x="0" y="0" width="22" height="23">
<path d="M21.4888 0.660645H0.0280762V22.2489H21.4888V0.660645Z" fill="white"/>
</mask>
<g mask="url(#mask0_107_4101)">
<path opacity="0.4" d="M10.7584 20.4497C15.6968 20.4497 19.7003 16.4224 19.7003 11.4546C19.7003 6.48671 15.6968 2.45947 10.7584 2.45947C5.81985 2.45947 1.81641 6.48671 1.81641 11.4546C1.81641 16.4224 5.81985 20.4497 10.7584 20.4497Z" fill="#00B25D"/>
<path d="M10.7584 13.0289C11.125 13.0289 11.4291 12.7231 11.4291 12.3543V7.85676C11.4291 7.48796 11.125 7.18213 10.7584 7.18213C10.3918 7.18213 10.0878 7.48796 10.0878 7.85676V12.3543C10.0878 12.7231 10.3918 13.0289 10.7584 13.0289Z" fill="#00B25D"/>
<path d="M11.581 14.7114C11.5363 14.6035 11.4737 14.5045 11.3932 14.4146C11.3038 14.3336 11.2054 14.2706 11.0981 14.2257C10.8835 14.1357 10.6331 14.1357 10.4185 14.2257C10.3112 14.2706 10.2129 14.3336 10.1235 14.4146C10.043 14.5045 9.98038 14.6035 9.93567 14.7114C9.89096 14.8193 9.86414 14.9363 9.86414 15.0532C9.86414 15.1702 9.89096 15.2871 9.93567 15.395C9.98038 15.512 10.043 15.6019 10.1235 15.6919C10.2129 15.7728 10.3112 15.8358 10.4185 15.8808C10.5258 15.9257 10.6421 15.9527 10.7583 15.9527C10.8746 15.9527 10.9908 15.9257 11.0981 15.8808C11.2054 15.8358 11.3038 15.7728 11.3932 15.6919C11.4737 15.6019 11.5363 15.512 11.581 15.395C11.6257 15.2871 11.6525 15.1702 11.6525 15.0532C11.6525 14.9363 11.6257 14.8193 11.581 14.7114Z" fill="#00B25D"/>
</g>
</svg>
