<svg width="22" height="23" viewBox="0 0 22 23" fill="none" xmlns="http://www.w3.org/2000/svg">
<mask id="mask0_107_3896" style="mask-type:luminance" maskUnits="userSpaceOnUse" x="0" y="0" width="22" height="23">
<path d="M21.4885 0.694336H0.027832V22.2826H21.4885V0.694336Z" fill="white"/>
</mask>
<g mask="url(#mask0_107_3896)">
<path opacity="0.4" d="M18.806 6.99071V15.9858C18.806 18.6843 17.4647 20.4834 14.335 20.4834H7.18142C4.05174 20.4834 2.71045 18.6843 2.71045 15.9858V6.99071C2.71045 4.29218 4.05174 2.49316 7.18142 2.49316H14.335C17.4647 2.49316 18.806 4.29218 18.806 6.99071Z" fill="#00B25D"/>
<path d="M16.5704 9.01469H14.782C13.4229 9.01469 12.323 7.90829 12.323 6.54103V4.74202C12.323 4.37322 12.627 4.06738 12.9936 4.06738C13.3603 4.06738 13.6643 4.37322 13.6643 4.74202V6.54103C13.6643 7.1617 14.165 7.66542 14.782 7.66542H16.5704C16.937 7.66542 17.2411 7.97125 17.2411 8.34005C17.2411 8.70885 16.937 9.01469 16.5704 9.01469Z" fill="#00B25D"/>
<path d="M10.7582 13.0626H7.18139C6.81477 13.0626 6.51074 12.7568 6.51074 12.388C6.51074 12.0192 6.81477 11.7134 7.18139 11.7134H10.7582C11.1248 11.7134 11.4288 12.0192 11.4288 12.388C11.4288 12.7568 11.1248 13.0626 10.7582 13.0626Z" fill="#00B25D"/>
<path d="M14.3349 16.6603H7.18139C6.81477 16.6603 6.51074 16.3545 6.51074 15.9857C6.51074 15.6169 6.81477 15.311 7.18139 15.311H14.3349C14.7016 15.311 15.0056 15.6169 15.0056 15.9857C15.0056 16.3545 14.7016 16.6603 14.3349 16.6603Z" fill="#00B25D"/>
</g>
</svg>
