<svg width="22" height="22" viewBox="0 0 22 22" fill="none" xmlns="http://www.w3.org/2000/svg">
<path opacity="0.4" d="M11.867 2.81445C12.2873 2.81445 12.636 3.13112 12.636 3.53112V18.7728C12.636 19.1645 12.2962 19.4895 11.867 19.4895C6.60019 19.4895 2.92505 16.0645 2.92505 11.1561C2.92505 6.24779 6.60913 2.81445 11.867 2.81445Z" fill="#00B25D"/>
<path d="M18.3946 10.7648L15.8551 8.38975C15.5958 8.14808 15.1666 8.14808 14.9072 8.38975C14.6479 8.63141 14.6479 9.03141 14.9072 9.27308L16.3022 10.5731H7.74474C7.37812 10.5731 7.0741 10.8564 7.0741 11.1981C7.0741 11.5398 7.37812 11.8231 7.74474 11.8231H16.3022L14.9072 13.1231C14.6479 13.3648 14.6479 13.7648 14.9072 14.0064C15.0414 14.1314 15.2113 14.1898 15.3812 14.1898C15.5511 14.1898 15.721 14.1314 15.8551 14.0064L18.3946 11.6314C18.6539 11.3981 18.6539 11.0064 18.3946 10.7648Z" fill="#00B25D"/>
</svg>
