<svg width="17" height="6" viewBox="0 0 17 6" fill="none" xmlns="http://www.w3.org/2000/svg">
<path d="M13.077 3.00004C13.077 1.72752 13.9569 0.692383 15.0385 0.692383C16.1201 0.692383 17 1.72752 17 3.00004C17 4.27256 16.1201 5.30769 15.0385 5.30769C13.9569 5.30769 13.077 4.27256 13.077 3.00004ZM15.6923 3.00004C15.6923 2.57558 15.3993 2.23082 15.0385 2.23082C14.6777 2.23082 14.3847 2.57558 14.3847 3.00004C14.3847 3.42449 14.6777 3.76926 15.0385 3.76926C15.3993 3.76926 15.6923 3.42449 15.6923 3.00004Z" fill="black"/>
<path d="M6.54122 3.00004C6.54122 1.72752 7.42109 0.692383 8.50273 0.692383C9.58437 0.692383 10.4642 1.72752 10.4642 3.00004C10.4642 4.27256 9.58437 5.30769 8.50273 5.30769C7.42109 5.30769 6.54122 4.27256 6.54122 3.00004ZM9.15656 3.00004C9.15656 2.57558 8.86351 2.23082 8.50273 2.23082C8.14194 2.23082 7.84889 2.57558 7.84889 3.00004C7.84889 3.42449 8.14194 3.76926 8.50273 3.76926C8.86351 3.76926 9.15656 3.42449 9.15656 3.00004Z" fill="black"/>
<path d="M0.000204939 3.00004C0.000204995 1.72752 0.880071 0.692383 1.96171 0.692383C3.04335 0.692383 3.92322 1.72752 3.92322 3.00004C3.92322 4.27256 3.04335 5.30769 1.96171 5.30769C0.880071 5.30769 0.000204883 4.27256 0.000204939 3.00004ZM2.61555 3.00004C2.61555 2.57558 2.3225 2.23082 1.96171 2.23082C1.60092 2.23082 1.30788 2.57558 1.30788 3.00004C1.30788 3.42449 1.60092 3.76926 1.96171 3.76926C2.3225 3.76926 2.61555 3.42449 2.61555 3.00004Z" fill="black"/>
</svg>
