<svg width="22" height="24" viewBox="0 0 22 24" fill="none" xmlns="http://www.w3.org/2000/svg">
<path opacity="0.4" d="M14.5048 2.72754H7.01143C3.75656 2.72754 1.81616 4.67948 1.81616 7.95369V15.4826C1.81616 18.7658 3.75656 20.7177 7.01143 20.7177H14.4958C17.7507 20.7177 19.6911 18.7658 19.6911 15.4916V7.95369C19.7001 4.67948 17.7597 2.72754 14.5048 2.72754Z" fill="#00B25D"/>
<path d="M15.0038 7.2251H10.6849C10.3183 7.2251 10.0142 7.53093 10.0142 7.89973C10.0142 8.26853 10.3183 8.57436 10.6849 8.57436H13.3853L6.48221 15.5186C6.22289 15.7794 6.22289 16.2112 6.48221 16.4721C6.61634 16.607 6.78623 16.67 6.95613 16.67C7.12603 16.67 7.29592 16.607 7.43005 16.4721L14.3332 9.52784V12.2444C14.3332 12.6132 14.6372 12.919 15.0038 12.919C15.3705 12.919 15.6745 12.6132 15.6745 12.2444V7.89973C15.6745 7.53093 15.3705 7.2251 15.0038 7.2251Z" fill="#00B25D"/>
</svg>
