<svg width="22" height="24" viewBox="0 0 22 24" fill="none" xmlns="http://www.w3.org/2000/svg">
<mask id="mask0_107_3879" style="mask-type:luminance" maskUnits="userSpaceOnUse" x="0" y="1" width="22" height="22">
<path d="M21.4885 1.24268H0.027832V22.8309H21.4885V1.24268Z" fill="white"/>
</mask>
<g mask="url(#mask0_107_3879)">
<path d="M20.2276 18.5942C20.2276 18.6572 20.1918 18.8011 20.0219 18.8551L19.1456 19.0979C18.3856 19.3048 17.8133 19.8805 17.6076 20.6451L17.3751 21.5086C17.3215 21.7065 17.1694 21.7245 17.0979 21.7245C17.0264 21.7245 16.8744 21.7065 16.8207 21.5086L16.5882 20.6361C16.3826 19.8805 15.8013 19.3048 15.0502 19.0979L14.1828 18.8641C13.9951 18.8101 13.9772 18.6482 13.9772 18.5852C13.9772 18.5133 13.9951 18.3513 14.1828 18.2974L15.0591 18.0635C15.8103 17.8476 16.3826 17.2719 16.5882 16.5163L16.8386 15.5988C16.9012 15.4459 17.0443 15.4189 17.0979 15.4189C17.1516 15.4189 17.3036 15.4369 17.3572 15.5809L17.6076 16.5074C17.8133 17.2629 18.3945 17.8386 19.1456 18.0545L20.0398 18.3064C20.2187 18.3783 20.2276 18.5402 20.2276 18.5942Z" fill="#00B25D"/>
<path opacity="0.4" d="M19.1278 5.35348V17.1101C18.7969 16.9482 18.5376 16.6513 18.4393 16.2825L18.1621 15.2751C17.9922 14.8253 17.5898 14.5195 17.089 14.5195C16.5972 14.5195 16.168 14.8163 15.9981 15.2661L15.9445 15.419L15.712 16.2735C15.5868 16.7233 15.2559 17.0561 14.7999 17.191L13.9415 17.4159C13.4049 17.5688 13.0651 18.0186 13.0651 18.5673C13.0651 19.116 13.4139 19.5658 13.9236 19.7097L14.7999 19.9525C15.0324 20.0155 15.2291 20.1414 15.3901 20.3034H4.27518C2.62092 20.3034 1.28857 18.9631 1.28857 17.299V5.35348C1.28857 3.69839 2.62092 2.34912 4.27518 2.34912H16.1412C17.7954 2.34912 19.1278 3.69839 19.1278 5.35348Z" fill="#00B25D"/>
<path d="M12.0189 13.8987C12.162 14.4025 11.7775 14.9152 11.2499 14.9152H9.14857C8.61202 14.9152 8.23645 14.4114 8.37953 13.8987L8.96075 11.8658C9.0055 11.7129 8.94287 11.551 8.81768 11.4431C8.37953 11.0563 8.09338 10.4806 8.09338 9.84195C8.09338 8.49268 9.35423 7.43126 10.7581 7.80006C11.4645 7.97996 12.0368 8.55565 12.2246 9.26626C12.4481 10.1298 12.1441 10.9393 11.5718 11.4431C11.4556 11.551 11.393 11.7039 11.4377 11.8568L12.0189 13.8987Z" fill="#00B25D"/>
</g>
</svg>
