<svg width="22" height="24" viewBox="0 0 22 24" fill="none" xmlns="http://www.w3.org/2000/svg">
<mask id="mask0_107_3911" style="mask-type:luminance" maskUnits="userSpaceOnUse" x="0" y="1" width="22" height="23">
<path d="M21.4885 1.46387H0.027832V23.0521H21.4885V1.46387Z" fill="white"/>
</mask>
<g mask="url(#mask0_107_3911)">
<path d="M10.8208 9.51395C10.7851 9.51395 10.7314 9.51395 10.6867 9.51395C9.7478 9.47797 9.00562 8.71338 9.00562 7.7599C9.00562 6.78843 9.78356 6.00586 10.7493 6.00586C11.715 6.00586 12.493 6.79743 12.493 7.7599C12.5019 8.71338 11.7597 9.48696 10.8208 9.51395Z" fill="#00B25D"/>
<path d="M8.29919 12.222C7.10991 13.0226 7.10991 14.3268 8.29919 15.1274C9.64942 16.0359 11.867 16.0359 13.2173 15.1274C14.4065 14.3268 14.4065 13.0226 13.2173 12.222C11.867 11.3225 9.65836 11.3225 8.29919 12.222Z" fill="#00B25D"/>
<path opacity="0.4" d="M16.1234 3.2627H5.39303C3.90867 3.2627 2.71045 4.45904 2.71045 5.93424V15.7479C2.71045 17.2231 3.90867 18.4194 5.39303 18.4194H6.07262C6.78798 18.4194 7.46757 18.6983 7.96831 19.202L9.49739 20.7222C10.1949 21.4148 11.3305 21.4148 12.028 20.7222L13.557 19.202C14.0578 18.6983 14.7463 18.4194 15.4527 18.4194H16.1234C17.6077 18.4194 18.806 17.2231 18.806 15.7479V5.93424C18.806 4.45904 17.6077 3.2627 16.1234 3.2627ZM10.7582 6.0062C11.7239 6.0062 12.5019 6.79777 12.5019 7.76024C12.5019 8.71372 11.7508 9.47831 10.8208 9.51429C10.785 9.51429 10.7314 9.51429 10.6867 9.51429C9.74776 9.47831 9.00558 8.71372 9.00558 7.76024C9.01452 6.79777 9.79247 6.0062 10.7582 6.0062ZM13.2172 15.1272C11.867 16.0357 9.6494 16.0357 8.29917 15.1272C7.10989 14.3357 7.10989 13.0224 8.29917 12.2218C9.65834 11.3133 11.8759 11.3133 13.2172 12.2218C14.4065 13.0224 14.4065 14.3267 13.2172 15.1272Z" fill="#00B25D"/>
</g>
</svg>
