<svg width="22" height="24" viewBox="0 0 22 24" fill="none" xmlns="http://www.w3.org/2000/svg">
<mask id="mask0_107_4083" style="mask-type:luminance" maskUnits="userSpaceOnUse" x="0" y="1" width="22" height="22">
<path d="M21.4885 1.19629H0.027832V22.7845H21.4885V1.19629Z" fill="white"/>
</mask>
<g mask="url(#mask0_107_4083)">
<path opacity="0.4" d="M5.16043 15.5883C5.25879 15.1475 5.07995 14.5178 4.76699 14.203L2.59409 12.0172C1.9145 11.3336 1.64625 10.605 1.84297 9.97531C2.04863 9.34566 2.68351 8.91389 3.63136 8.75198L6.42125 8.28424C6.82363 8.21227 7.31544 7.85247 7.50322 7.48367L9.04127 4.38036C9.48837 3.48985 10.0964 2.99512 10.7581 2.99512C11.4198 2.99512 12.0279 3.48985 12.475 4.38036L14.013 7.48367C14.1292 7.71754 14.3707 7.94242 14.63 8.09534L4.99948 17.7831C4.87429 17.909 4.65968 17.7921 4.69545 17.6122L5.16043 15.5883Z" fill="#00B25D"/>
<path d="M16.7491 14.203C16.4272 14.5268 16.2483 15.1475 16.3556 15.5883L16.9726 18.2958C17.232 19.4202 17.071 20.2657 16.5166 20.6705C16.2931 20.8324 16.0248 20.9134 15.7118 20.9134C15.2558 20.9134 14.7193 20.7425 14.1291 20.3917L11.5091 18.8265C11.0978 18.5836 10.4182 18.5836 10.0069 18.8265L7.38687 20.3917C6.39432 20.9763 5.54483 21.0753 4.99937 20.6705C4.79371 20.5176 4.6417 20.3107 4.54333 20.0408L15.4167 9.10281C15.8281 8.68903 16.4093 8.50013 16.9726 8.59908L17.8758 8.752C18.8236 8.91391 19.4585 9.34567 19.6642 9.97533C19.8609 10.605 19.5926 11.3336 18.913 12.0172L16.7491 14.203Z" fill="#00B25D"/>
</g>
</svg>
