<svg width="22" height="24" viewBox="0 0 22 24" fill="none" xmlns="http://www.w3.org/2000/svg">
<mask id="mask0_107_4117" style="mask-type:luminance" maskUnits="userSpaceOnUse" x="0" y="1" width="22" height="22">
<path d="M21.4885 1.2168H0.027832V22.805H21.4885V1.2168Z" fill="white"/>
</mask>
<g mask="url(#mask0_107_4117)">
<path opacity="0.4" d="M9.64031 3.42098C10.2662 2.89027 11.2767 2.89027 11.8847 3.42098L13.2976 4.63532C13.5658 4.8602 14.0755 5.0491 14.4332 5.0491H15.9533C16.9012 5.0491 17.6791 5.83167 17.6791 6.78515V8.31432C17.6791 8.67412 17.8669 9.17784 18.0904 9.4477L19.2976 10.8689C19.8252 11.4986 19.8252 12.515 19.2976 13.1267L18.0904 14.5479C17.8669 14.8178 17.6791 15.3215 17.6791 15.6813V17.2105C17.6791 18.1639 16.9012 18.9465 15.9533 18.9465H14.4332C14.0755 18.9465 13.5748 19.1354 13.3065 19.3603L11.8937 20.5746C11.2677 21.1053 10.2573 21.1053 9.64925 20.5746L8.2364 19.3603C7.96815 19.1354 7.45845 18.9465 7.10972 18.9465H5.54488C4.59703 18.9465 3.81908 18.1639 3.81908 17.2105V15.6723C3.81908 15.3215 3.64024 14.8088 3.41669 14.5479L2.20953 13.1177C1.6909 12.497 1.6909 11.4896 2.20953 10.8689L3.41669 9.4387C3.64024 9.16885 3.81908 8.66512 3.81908 8.31432V6.79414C3.81908 5.84066 4.59703 5.05809 5.54488 5.05809H7.09184C7.44951 5.05809 7.95026 4.86919 8.21852 4.64432L9.64031 3.42098Z" fill="#00B25D"/>
<path d="M10.7581 16.3908C10.2663 16.3908 9.86389 15.986 9.86389 15.4913C9.86389 14.9966 10.2573 14.5918 10.7581 14.5918C11.2499 14.5918 11.6523 14.9966 11.6523 15.4913C11.6523 15.986 11.2588 16.3908 10.7581 16.3908Z" fill="#00B25D"/>
<path d="M10.7582 13.5589C10.3916 13.5589 10.0875 13.2531 10.0875 12.8843V8.53059C10.0875 8.16179 10.3916 7.85596 10.7582 7.85596C11.1248 7.85596 11.4288 8.16179 11.4288 8.53059V12.8753C11.4288 13.2531 11.1337 13.5589 10.7582 13.5589Z" fill="#00B25D"/>
</g>
</svg>
