<svg width="30" height="30" viewBox="0 0 30 30" fill="none" xmlns="http://www.w3.org/2000/svg">
<g clip-path="url(#clip0_90_1756)">
<mask id="mask0_90_1756" style="mask-type:luminance" maskUnits="userSpaceOnUse" x="0" y="0" width="30" height="30">
<path d="M30 0H0V30H30V0Z" fill="white"/>
</mask>
<g mask="url(#mask0_90_1756)">
<path d="M15.0251 25.6624C12.1126 25.6624 9.20008 25.1999 6.43758 24.2749C5.38758 23.9124 4.58758 23.1749 4.23758 22.2124C3.87508 21.2499 4.00008 20.1874 4.57508 19.2374L6.01258 16.8499C6.31258 16.3499 6.58758 15.3499 6.58758 14.7624V11.1499C6.58758 6.4999 10.3751 2.7124 15.0251 2.7124C19.6751 2.7124 23.4626 6.4999 23.4626 11.1499V14.7624C23.4626 15.3374 23.7376 16.3499 24.0376 16.8624L25.4626 19.2374C26.0001 20.1374 26.1001 21.2249 25.7376 22.2124C25.3751 23.1999 24.5876 23.9499 23.6001 24.2749C20.8501 25.1999 17.9376 25.6624 15.0251 25.6624ZM15.0251 4.5874C11.4126 4.5874 8.46258 7.5249 8.46258 11.1499V14.7624C8.46258 15.6749 8.08758 17.0249 7.62508 17.8124L6.18758 20.1999C5.91258 20.6624 5.83758 21.1499 6.00008 21.5624C6.15008 21.9874 6.52508 22.3124 7.03758 22.4874C12.2626 24.2374 17.8001 24.2374 23.0251 22.4874C23.4751 22.3374 23.8251 21.9999 23.9876 21.5499C24.1501 21.0999 24.1126 20.6124 23.8626 20.1999L22.4251 17.8124C21.9501 16.9999 21.5876 15.6624 21.5876 14.7499V11.1499C21.5876 7.5249 18.6501 4.5874 15.0251 4.5874Z" fill="#00B25D"/>
<path d="M17.35 4.92461C17.2625 4.92461 17.175 4.91211 17.0875 4.88711C16.725 4.78711 16.375 4.71211 16.0375 4.66211C14.975 4.52461 13.95 4.59961 12.9875 4.88711C12.6375 4.99961 12.2625 4.88711 12.025 4.62461C11.7875 4.36211 11.7125 3.98711 11.85 3.64961C12.3625 2.33711 13.6125 1.47461 15.0375 1.47461C16.4625 1.47461 17.7125 2.32461 18.225 3.64961C18.35 3.98711 18.2875 4.36211 18.05 4.62461C17.8625 4.82461 17.6 4.92461 17.35 4.92461Z" fill="#00B25D"/>
<path d="M15.0249 28.5132C13.7874 28.5132 12.5874 28.0132 11.7124 27.1382C10.8374 26.2632 10.3374 25.0632 10.3374 23.8257H12.2124C12.2124 24.5632 12.5124 25.2882 13.0374 25.8132C13.5624 26.3382 14.2874 26.6382 15.0249 26.6382C16.5749 26.6382 17.8374 25.3757 17.8374 23.8257H19.7124C19.7124 26.4132 17.6124 28.5132 15.0249 28.5132Z" fill="#00B25D"/>
</g>
</g>
<defs>
<clipPath id="clip0_90_1756">
<rect width="30" height="30" fill="white"/>
</clipPath>
</defs>
</svg>
