<svg width="28" height="28" viewBox="0 0 28 28" fill="none" xmlns="http://www.w3.org/2000/svg">
<g clip-path="url(#clip0_978_5278)">
<mask id="mask0_978_5278" style="mask-type:luminance" maskUnits="userSpaceOnUse" x="0" y="0" width="28" height="28">
<path d="M28 0H0V28H28V0Z" fill="white"/>
</mask>
<g mask="url(#mask0_978_5278)">
<path d="M24.4999 6.125H16.3333C15.8549 6.125 15.4583 5.72833 15.4583 5.25C15.4583 4.77167 15.8549 4.375 16.3333 4.375H24.4999C24.9783 4.375 25.3749 4.77167 25.3749 5.25C25.3749 5.72833 24.9783 6.125 24.4999 6.125Z" fill="black"/>
<path opacity="0.4" d="M24.4999 11.9583H16.3333C15.8549 11.9583 15.4583 11.5616 15.4583 11.0833C15.4583 10.6049 15.8549 10.2083 16.3333 10.2083H24.4999C24.9783 10.2083 25.3749 10.6049 25.3749 11.0833C25.3749 11.5616 24.9783 11.9583 24.4999 11.9583Z" fill="black"/>
<path d="M24.5 17.7915H3.5C3.02167 17.7915 2.625 17.3948 2.625 16.9165C2.625 16.4382 3.02167 16.0415 3.5 16.0415H24.5C24.9783 16.0415 25.375 16.4382 25.375 16.9165C25.375 17.3948 24.9783 17.7915 24.5 17.7915Z" fill="black"/>
<path opacity="0.4" d="M24.5 23.625H3.5C3.02167 23.625 2.625 23.2283 2.625 22.75C2.625 22.2717 3.02167 21.875 3.5 21.875H24.5C24.9783 21.875 25.375 22.2717 25.375 22.75C25.375 23.2283 24.9783 23.625 24.5 23.625Z" fill="black"/>
<path opacity="0.4" d="M9.24 4.08325H5.92667C4.29333 4.08325 3.5 4.87659 3.5 6.50992V9.83492C3.5 11.4683 4.29333 12.2616 5.92667 12.2616H9.25167C10.885 12.2616 11.6783 11.4683 11.6783 9.83492V6.50992C11.6667 4.87659 10.8733 4.08325 9.24 4.08325Z" fill="black"/>
</g>
</g>
<defs>
<clipPath id="clip0_978_5278">
<rect width="28" height="28" fill="white"/>
</clipPath>
</defs>
</svg>
