<svg width="24" height="25" viewBox="0 0 24 25" fill="none" xmlns="http://www.w3.org/2000/svg">
<g clip-path="url(#clip0_974_3843)">
<mask id="mask0_974_3843" style="mask-type:luminance" maskUnits="userSpaceOnUse" x="0" y="0" width="24" height="25">
<path d="M24 0.5H0V24.5H24V0.5Z" fill="white"/>
</mask>
<g mask="url(#mask0_974_3843)">
<path d="M21.9998 6.20951V15.7895C21.9998 18.5495 19.7598 20.7895 16.9998 20.7895H6.99983C6.53983 20.7895 6.09983 20.7295 5.66983 20.6095C5.04983 20.4395 4.84983 19.6495 5.30983 19.1895L15.9398 8.55951C16.1598 8.33951 16.4898 8.28951 16.7998 8.34951C17.1198 8.40951 17.4698 8.31951 17.7198 8.07951L20.2898 5.49951C21.2298 4.55951 21.9998 4.86951 21.9998 6.20951Z" fill="#FFEE00"/>
<path opacity="0.4" d="M14.64 7.85953L4.17 18.3295C3.69 18.8095 2.89 18.6895 2.57 18.0895C2.2 17.4095 2 16.6195 2 15.7895V6.20953C2 4.86953 2.77 4.55953 3.71 5.49953L6.29 8.08953C6.68 8.46953 7.32 8.46953 7.71 8.08953L11.29 4.49953C11.68 4.10953 12.32 4.10953 12.71 4.49953L14.65 6.43953C15.03 6.82953 15.03 7.46953 14.64 7.85953Z" fill="#FFEE00"/>
</g>
</g>
<defs>
<clipPath id="clip0_974_3843">
<rect width="24" height="24" fill="white" transform="translate(0 0.5)"/>
</clipPath>
</defs>
</svg>
