<svg width="132" height="132" viewBox="0 0 132 132" fill="none" xmlns="http://www.w3.org/2000/svg">
<path d="M128.906 65.625C128.906 73.9352 127.269 82.164 124.089 89.8417C120.909 97.5193 116.247 104.495 110.371 110.372C104.495 116.248 97.5188 120.909 89.8412 124.089C82.1636 127.269 73.9347 128.906 65.6245 128.906C57.3143 128.906 49.0855 127.269 41.4078 124.089C33.7302 120.909 26.7541 116.248 20.8779 110.372C15.0017 104.495 10.3404 97.5193 7.16026 89.8417C3.98008 82.164 2.34326 73.9352 2.34326 65.625C2.34326 57.3148 3.98008 49.0859 7.16026 41.4083C10.3404 33.7307 15.0017 26.7546 20.8779 20.8784C26.7541 15.0022 33.7302 10.3409 41.4078 7.16075C49.0855 3.98057 57.3143 2.34375 65.6245 2.34375C73.9347 2.34375 82.1636 3.98057 89.8412 7.16075C97.5188 10.3409 104.495 15.0022 110.371 20.8784C116.247 26.7546 120.909 33.7307 124.089 41.4083C127.269 49.0859 128.906 57.3148 128.906 65.625Z" fill="#BDCDD4"/>
<path d="M87.2128 37.5024C85.3898 37.5023 83.6413 38.2298 82.3516 39.525L65.5983 56.3649L48.8084 39.6715C47.6385 38.382 46.0012 37.6075 44.2569 37.5182C42.5126 37.429 40.804 38.0323 39.5071 39.1956C38.2113 40.4847 37.4834 42.2327 37.4834 44.0553C37.4834 45.8779 38.2113 47.6259 39.5071 48.9151L56.352 65.6634L39.6536 82.4483C38.3638 83.6179 37.589 85.2546 37.4997 86.9984C37.4104 88.7422 38.014 90.4502 39.1776 91.7468C40.4671 93.0422 42.2156 93.7699 44.0388 93.7699C45.8619 93.7699 47.6104 93.0422 48.9 91.7468L65.6533 74.907L82.4432 91.6003C83.6131 92.8898 85.2504 93.6643 86.9947 93.7536C88.739 93.8428 90.4476 93.2395 91.7445 92.0762C93.0403 90.7871 93.7682 89.0391 93.7682 87.2165C93.7682 85.3939 93.0403 83.6459 91.7445 82.3567L74.8996 65.6085L91.598 48.8235C92.8878 47.6539 93.6626 46.0172 93.7519 44.2734C93.8411 42.5296 93.2376 40.8216 92.074 39.525C90.7844 38.2298 89.0359 37.5023 87.2128 37.5024Z" fill="#FF4141"/>
<path d="M65.0767 0.00251563C48.3381 0.148828 31.7605 6.67686 19.2179 19.2194C-3.08 41.5173 -6.36292 76.5563 11.4085 102.606C11.5814 102.861 11.8029 103.079 12.0604 103.249C12.3179 103.418 12.6062 103.535 12.909 103.593C13.2117 103.651 13.5229 103.648 13.8247 103.586C14.1265 103.523 14.413 103.402 14.6677 103.228C14.9222 103.055 15.1399 102.833 15.3084 102.575C15.477 102.317 15.5931 102.028 15.65 101.726C15.707 101.423 15.7037 101.112 15.6404 100.811C15.5771 100.509 15.4551 100.223 15.2811 99.9689C-1.23717 75.7563 1.80645 43.2593 22.5321 22.5336C43.2578 1.80797 75.7548 -1.23565 99.9674 15.2827C100.222 15.4566 100.508 15.5787 100.809 15.642C101.111 15.7053 101.422 15.7085 101.724 15.6515C102.027 15.5946 102.315 15.4785 102.573 15.3099C102.831 15.1414 103.053 14.9237 103.227 14.6693C103.4 14.4145 103.522 14.128 103.584 13.8262C103.647 13.5244 103.649 13.2132 103.591 12.9105C103.534 12.6077 103.417 12.3194 103.247 12.0619C103.078 11.8044 102.859 11.5829 102.604 11.41C91.2075 3.63501 78.0956 -0.111283 65.0767 0.00251563ZM108.802 16.9032C108.46 16.8847 108.118 16.9415 107.8 17.0696C107.482 17.1977 107.196 17.3941 106.962 17.6447C106.751 17.8709 106.587 18.1365 106.48 18.4262C106.372 18.716 106.323 19.0242 106.335 19.3331C106.346 19.642 106.419 19.9455 106.549 20.2261C106.679 20.5067 106.863 20.7589 107.09 20.9681C107.643 21.4815 108.186 22 108.72 22.5336C109.235 23.0486 109.743 23.5753 110.24 24.1083C110.663 24.5612 111.248 24.8279 111.868 24.8502C112.487 24.8725 113.09 24.6486 113.545 24.2274C113.77 24.0177 113.952 23.7655 114.08 23.4854C114.208 23.2053 114.28 22.9027 114.291 22.5949C114.302 22.2871 114.252 21.9802 114.145 21.6916C114.037 21.403 113.874 21.1385 113.664 20.9132C113.129 20.3391 112.589 19.774 112.034 19.2194C111.459 18.6447 110.872 18.0786 110.276 17.5257C109.873 17.1517 109.351 16.9313 108.802 16.9032ZM117.683 27.5507C117.27 27.5807 116.871 27.7197 116.529 27.9536C116.276 28.1279 116.059 28.3505 115.891 28.6086C115.723 28.8667 115.608 29.1554 115.552 29.458C115.496 29.7607 115.5 30.0715 115.564 30.3725C115.628 30.6736 115.751 30.9592 115.925 31.2128C132.493 55.4288 129.467 87.974 108.72 108.721C87.9725 129.469 55.4273 132.495 31.2113 115.927C30.9576 115.752 30.6721 115.63 30.371 115.566C30.0699 115.502 29.7592 115.498 29.4565 115.554C29.1539 115.61 28.8652 115.725 28.6071 115.893C28.3489 116.06 28.1264 116.277 27.952 116.531C27.7781 116.785 27.656 117.071 27.5928 117.373C27.5295 117.674 27.5262 117.985 27.5832 118.288C27.6401 118.59 27.7562 118.879 27.9248 119.137C28.0933 119.394 28.311 119.617 28.5655 119.79C54.6183 137.615 89.7129 134.357 112.034 112.036C134.355 89.7144 137.613 54.6198 119.789 28.567C119.557 28.2281 119.241 27.9559 118.872 27.7775C118.502 27.5992 118.092 27.521 117.683 27.5507ZM87.2141 35.1588C84.7674 35.1586 82.4138 36.1338 80.6864 37.8687L65.5894 53.0482L50.4649 38.0061C47.165 34.4691 41.5526 34.2078 37.9404 37.4476C37.9123 37.4744 37.8848 37.5018 37.858 37.53C34.2622 41.1074 34.2622 46.9988 37.858 50.5762L53.0375 65.6733L38.0778 80.7154C34.453 84.0023 34.1683 89.6711 37.4369 93.3131C37.4636 93.3443 37.491 93.3748 37.5193 93.4046C41.0978 96.9994 46.9871 96.9994 50.5656 93.4046C50.5656 93.4015 50.5656 93.3984 50.5656 93.3952L65.6626 78.2249L80.7047 93.1755C83.9927 96.7992 89.6685 97.0839 93.3115 93.8164C93.3397 93.7896 93.3672 93.7621 93.3939 93.734C96.9898 90.1566 96.9898 84.2743 93.3939 80.6969L78.2145 65.5998L93.1742 50.5577C96.7989 47.2708 97.0837 41.6021 93.8151 37.96C93.7884 37.9288 93.7609 37.8983 93.7327 37.8685C92.0053 36.1341 89.6608 35.1586 87.2141 35.1588ZM44.1386 39.8463C45.2208 39.9016 46.2851 40.3738 47.0774 41.247C47.1042 41.2752 47.1317 41.3026 47.1598 41.3294L63.9506 58.0286C64.391 58.464 64.9858 58.7074 65.6051 58.7056C66.2243 58.7038 66.8177 58.4571 67.2556 58.0193L84.0098 41.1827C84.8617 40.3271 86.0147 39.846 87.2141 39.8461C88.3923 39.846 89.5074 40.328 90.3544 41.1553C91.8788 42.9129 91.7533 45.5205 90.0248 47.0879C89.9936 47.1145 89.9631 47.142 89.9333 47.1703L73.2341 63.9519C72.7959 64.3927 72.5508 64.9894 72.5525 65.6109C72.5543 66.2324 72.8028 66.8278 73.2434 67.2661L90.0891 84.0202C91.8739 85.7959 91.8697 88.5623 90.1168 90.3557C88.3585 91.8797 85.7428 91.754 84.175 90.0261C84.1484 89.9949 84.1209 89.9644 84.0926 89.9346L67.3014 73.2447C66.861 72.8094 66.2662 72.566 65.647 72.5677C65.0277 72.5695 64.4343 72.8163 63.9964 73.2541L47.2422 90.0906C45.466 91.8749 42.6915 91.8707 40.8976 90.1183C39.3732 88.3606 39.4987 85.753 41.2272 84.1857C41.2584 84.159 41.2889 84.1315 41.3187 84.1033L58.0179 67.3125C58.4561 66.8717 58.7012 66.2749 58.6995 65.6534C58.6977 65.0319 58.4492 64.4366 58.0086 63.9983L41.1629 47.2533C39.378 45.4776 39.3822 42.702 41.1352 40.9087C42.0053 40.1545 43.0794 39.7921 44.1386 39.8463ZM19.1264 106.341C18.574 106.367 18.0487 106.588 17.6432 106.964C17.4176 107.173 17.2356 107.425 17.1075 107.705C16.9794 107.986 16.9078 108.288 16.8968 108.596C16.8857 108.904 16.9354 109.211 17.0431 109.499C17.1508 109.788 17.3142 110.052 17.5242 110.278C18.0771 110.873 18.6432 111.461 19.2179 112.036C19.7725 112.59 20.3375 113.131 20.9116 113.665C21.137 113.875 21.4015 114.039 21.6901 114.146C21.9787 114.254 22.2856 114.304 22.5934 114.293C22.9012 114.282 23.2038 114.21 23.4839 114.082C23.764 113.954 24.0161 113.772 24.2259 113.546C24.647 113.092 24.871 112.489 24.8487 111.869C24.8264 111.25 24.5596 110.664 24.1068 110.241C23.5736 109.745 23.0471 109.236 22.5321 108.721C21.9985 108.188 21.48 107.645 20.9666 107.092C20.7336 106.839 20.448 106.641 20.13 106.512C19.812 106.382 19.4694 106.324 19.1264 106.341Z" fill="#0E232E"/>
<path d="M44.5304 42.1875C43.9088 42.1876 43.3128 42.4346 42.8733 42.8741C42.4339 43.3137 42.187 43.9097 42.187 44.5312C42.187 45.1528 42.4339 45.7488 42.8733 46.1884L45.2171 48.5321C45.6566 48.9715 46.2526 49.2184 46.8742 49.2184C47.4957 49.2184 48.0917 48.9715 48.5313 48.5321C48.9707 48.0926 49.2176 47.4965 49.2176 46.875C49.2176 46.2535 48.9707 45.6574 48.5313 45.2179L46.1875 42.8741C45.7481 42.4346 45.152 42.1876 44.5304 42.1875Z" fill="white" fill-opacity="0.988235"/>
</svg>
