<svg width="20" height="21" viewBox="0 0 20 21" fill="none" xmlns="http://www.w3.org/2000/svg">
<path fill-rule="evenodd" clip-rule="evenodd" d="M11.5023 4.94426C11.5023 3.41092 12.7523 2.16676 14.2923 2.16676C14.658 2.16577 15.0203 2.23684 15.3584 2.37591C15.6966 2.51498 16.0041 2.71932 16.2632 2.97726C16.5224 3.2352 16.7282 3.54167 16.8689 3.87918C17.0096 4.21669 17.0824 4.5786 17.0832 4.94426C17.0832 6.47843 15.8332 7.72259 14.2923 7.72259C13.9229 7.72286 13.557 7.64978 13.216 7.50759C12.8749 7.3654 12.5655 7.15693 12.3057 6.89426L8.44317 9.52426C8.55054 10.0601 8.49779 10.6157 8.2915 11.1218L12.5265 13.9051C13.0255 13.4985 13.6496 13.2769 14.2932 13.2776C14.6588 13.2767 15.0211 13.3479 15.3592 13.4871C15.6973 13.6262 16.0047 13.8307 16.2638 14.0887C16.5229 14.3467 16.7286 14.6532 16.8692 14.9908C17.0098 15.3283 17.0825 15.6903 17.0832 16.0559C17.0832 17.5893 15.8332 18.8334 14.2923 18.8334C13.9268 18.8343 13.5646 18.7631 13.2265 18.624C12.8884 18.4849 12.5811 18.2806 12.322 18.0226C12.0629 17.7647 11.8572 17.4583 11.7165 17.1208C11.5759 16.7834 11.5031 16.4215 11.5023 16.0559C11.5017 15.6665 11.5838 15.2813 11.7432 14.9259L7.5415 12.1668C7.03252 12.6089 6.38072 12.8519 5.7065 12.8509C5.34085 12.8518 4.97861 12.7806 4.64048 12.6414C4.30234 12.5023 3.99494 12.2978 3.73585 12.0398C3.47675 11.7818 3.27103 11.4753 3.13044 11.1377C2.98986 10.8002 2.91716 10.4382 2.9165 10.0726C2.91727 9.70701 2.99005 9.34516 3.13068 9.00771C3.27132 8.67026 3.47705 8.36381 3.73614 8.10589C3.99523 7.84796 4.30259 7.6436 4.64067 7.50449C4.97875 7.36537 5.34092 7.29422 5.7065 7.29509C6.59317 7.29509 7.3815 7.70592 7.89234 8.34592L11.6365 5.79676C11.5472 5.52142 11.5019 5.23372 11.5023 4.94426Z" fill="white"/>
</svg>
