<svg width="180" height="180" viewBox="0 0 180 180" fill="none" xmlns="http://www.w3.org/2000/svg">
<path d="M180 137.664H0V137.754H180V137.664Z" fill="#EBEBEB"/>
<path d="M128.765 140.115H116.842V140.205H128.765V140.115Z" fill="#EBEBEB"/>
<path d="M157.414 140.904H154.285V140.994H157.414V140.904Z" fill="#EBEBEB"/>
<path d="M136.037 143.456H129.128V143.546H136.037V143.456Z" fill="#EBEBEB"/>
<path d="M90 142.24H74.4516V142.33H90V142.24Z" fill="#EBEBEB"/>
<path d="M71.244 142.24H68.9652V142.33H71.244V142.24Z" fill="#EBEBEB"/>
<path d="M61.5564 140.72H27.8316V140.81H61.5564V140.72Z" fill="#EBEBEB"/>
<path d="M85.32 121.608H15.8076C15.2631 121.607 14.7411 121.39 14.3564 121.005C13.9717 120.619 13.7556 120.097 13.7556 119.552V21.8376C13.7604 21.2962 13.9785 20.7785 14.3627 20.397C14.7469 20.0155 15.2662 19.801 15.8076 19.8H85.32C85.8652 19.8 86.388 20.0166 86.7735 20.4021C87.159 20.7876 87.3756 21.3105 87.3756 21.8556V119.552C87.3756 120.098 87.159 120.62 86.7735 121.006C86.388 121.391 85.8652 121.608 85.32 121.608ZM15.8076 19.872C15.2869 19.873 14.7879 20.0805 14.4201 20.449C14.0522 20.8175 13.8456 21.317 13.8456 21.8376V119.552C13.8456 120.073 14.0522 120.573 14.4201 120.941C14.7879 121.31 15.2869 121.517 15.8076 121.518H85.32C85.841 121.517 86.3404 121.31 86.7089 120.941C87.0773 120.573 87.2847 120.073 87.2856 119.552V21.8376C87.2847 21.3166 87.0773 20.8172 86.7089 20.4488C86.3404 20.0804 85.841 19.873 85.32 19.872H15.8076Z" fill="#EBEBEB"/>
<path d="M163.192 121.608H93.6756C93.1307 121.607 92.6084 121.39 92.2231 121.005C91.8378 120.62 91.6209 120.097 91.62 119.552V21.8376C91.6257 21.2959 91.8446 20.7782 92.2294 20.3968C92.6142 20.0154 93.1338 19.801 93.6756 19.8H163.192C163.732 19.8019 164.251 20.0169 164.634 20.3983C165.018 20.7797 165.235 21.2968 165.24 21.8376V119.552C165.24 120.096 165.024 120.618 164.64 121.003C164.257 121.389 163.736 121.606 163.192 121.608ZM93.6756 19.872C93.1546 19.873 92.6552 20.0804 92.2868 20.4488C91.9183 20.8172 91.7109 21.3166 91.71 21.8376V119.552C91.7109 120.073 91.9183 120.573 92.2868 120.941C92.6552 121.31 93.1546 121.517 93.6756 121.518H163.192C163.713 121.517 164.212 121.31 164.58 120.941C164.949 120.573 165.156 120.073 165.157 119.552V21.8376C165.156 21.3166 164.949 20.8172 164.58 20.4488C164.212 20.0804 163.713 19.873 163.192 19.872H93.6756Z" fill="#EBEBEB"/>
<path d="M86.4 114.664C86.3784 114.156 86.3352 113.641 86.2668 113.123C85.5468 107.701 82.3752 102.87 78.03 99.72C78.0365 99.2469 78.0076 98.774 77.9436 98.3052C77.2236 93.0528 72.4032 88.794 67.1436 88.794C66.1096 88.7896 65.0827 88.965 64.1088 89.3124C60.426 84.402 54.558 81.126 48.3696 81.126C46.368 81.116 44.3823 81.4824 42.516 82.206C40.4964 79.2864 37.116 77.3064 33.516 77.3064C28.2636 77.3064 24.5772 81.5652 25.2864 86.8176C25.375 87.4805 25.5294 88.1329 25.7472 88.7652C19.0008 90.9252 14.7636 97.4592 15.8076 105.199C15.9766 106.442 16.2721 107.664 16.6896 108.846C11.4696 111.676 8.40962 117.486 9.31322 124.189C10.0332 129.658 13.2732 134.525 17.658 137.671H88.506C91.1376 134.564 92.4444 130.32 91.8 125.64C91.2116 121.5 89.3203 117.656 86.4 114.664Z" fill="#F0F0F0"/>
<path d="M173.56 108.86C173.747 108.223 173.92 107.579 174.046 106.927C175.46 100.141 173.794 94.093 170.05 90.1474C170.252 89.5682 170.416 88.9766 170.543 88.3762C171.914 81.7954 168.066 76.4638 161.95 76.4638C160.672 76.4715 159.404 76.6917 158.198 77.1154C155.956 70.9594 150.48 66.8554 143.28 66.8554C140.796 66.8718 138.335 67.3289 136.012 68.2054C134.885 64.5478 131.771 62.0854 127.602 62.0854C121.482 62.0854 115.416 67.417 114.044 73.9942C113.876 74.7973 113.785 75.6146 113.771 76.435C105.019 79.1278 97.3512 87.3214 95.3316 97.0126C95.018 98.5156 94.8528 100.046 94.8384 101.581C87.5772 105.123 81.5868 112.399 79.8408 120.798C78.4008 127.638 80.1144 133.74 83.9268 137.678H166.417C170.903 133.721 174.013 128.44 175.298 122.598C176.4 117.36 175.655 112.586 173.56 108.86Z" fill="#F0F0F0"/>
<path d="M19.44 40.9211H16.4412V103.082H19.44V40.9211Z" fill="#E0E0E0"/>
<path d="M20.52 39.7188H15.3612V40.9176H20.52V39.7188Z" fill="#E0E0E0"/>
<path d="M18.18 19.7819L18.54 14.6231L17.9388 12.4631L17.3412 14.6231L17.7012 19.7819H18.18Z" fill="#E0E0E0"/>
<path d="M20.52 39.7186H15.3612L11.7612 24.8398H24.12L20.52 39.7186Z" fill="#F5F5F5"/>
<path d="M19.2168 39.7186H16.6608L14.8788 24.8398H20.9988L19.2168 39.7186Z" fill="#FAFAFA"/>
<path d="M22.2012 134.881H13.68L15.4044 103.079H20.4768L22.2012 134.881Z" fill="#E0E0E0"/>
<path d="M26.4384 137.664V134.881H9.43921V137.664" fill="#E0E0E0"/>
<path d="M17.9388 17.9783C16.1196 17.9792 14.3753 18.7026 13.0893 19.9893C11.8032 21.276 11.0808 23.0207 11.0808 24.8399H24.8004C24.8004 23.9388 24.6229 23.0465 24.2781 22.2141C23.9333 21.3816 23.4279 20.6251 22.7907 19.988C22.1535 19.3508 21.3971 18.8454 20.5646 18.5006C19.7321 18.1558 18.8399 17.9783 17.9388 17.9783Z" fill="#E0E0E0"/>
<path d="M19.1016 16.3186C19.1023 16.5488 19.0347 16.7739 18.9074 16.9656C18.78 17.1573 18.5987 17.3069 18.3863 17.3955C18.1739 17.484 17.94 17.5076 17.7142 17.4631C17.4884 17.4187 17.2808 17.3082 17.1179 17.1457C16.9549 16.9832 16.8438 16.7761 16.7986 16.5504C16.7534 16.3247 16.7763 16.0908 16.8642 15.8781C16.9521 15.6654 17.1011 15.4836 17.2924 15.3556C17.4837 15.2277 17.7087 15.1594 17.9388 15.1594C18.2466 15.1594 18.5418 15.2814 18.7597 15.4987C18.9777 15.716 19.1006 16.0109 19.1016 16.3186Z" fill="#E0E0E0"/>
<path d="M90 153.922C128.55 153.922 159.8 152.097 159.8 149.846C159.8 147.596 128.55 145.771 90 145.771C51.4503 145.771 20.1996 147.596 20.1996 149.846C20.1996 152.097 51.4503 153.922 90 153.922Z" fill="#F5F5F5"/>
<path d="M144.76 38.5488H35.2404V148.795H144.76V38.5488Z" fill="#00B25D"/>
<path d="M115.913 49.7087H64.0872C63.443 49.7087 62.9208 50.231 62.9208 50.8751V60.9011C62.9208 61.5453 63.443 62.0675 64.0872 62.0675H115.913C116.557 62.0675 117.079 61.5453 117.079 60.9011V50.8751C117.079 50.231 116.557 49.7087 115.913 49.7087Z" fill="white"/>
<path d="M114.379 51.3108H65.6172C65.2971 51.3108 65.0376 51.5703 65.0376 51.8904V59.8896C65.0376 60.2097 65.2971 60.4692 65.6172 60.4692H114.379C114.699 60.4692 114.959 60.2097 114.959 59.8896V51.8904C114.959 51.5703 114.699 51.3108 114.379 51.3108Z" fill="#00B25D"/>
<path d="M67.4064 57.6506L70.2864 57.4706C70.3092 57.856 70.4334 58.2285 70.6464 58.5506C70.8061 58.7482 71.0105 58.9051 71.2427 59.0084C71.4748 59.1116 71.7282 59.1583 71.982 59.1446C72.3411 59.1679 72.6966 59.0605 72.9828 58.8422C73.0937 58.7576 73.1839 58.6487 73.2463 58.5239C73.3087 58.3991 73.3417 58.2617 73.3428 58.1222C73.3405 57.9915 73.3097 57.8628 73.2525 57.7453C73.1953 57.6278 73.113 57.5242 73.0116 57.4418C72.7884 57.2402 72.27 57.0494 71.46 56.873C70.1316 56.5742 69.1884 56.1781 68.6196 55.6849C68.3447 55.4533 68.1253 55.1629 67.9776 54.8352C67.83 54.5074 67.7578 54.1507 67.7664 53.7914C67.7651 53.2787 67.9168 52.7774 68.202 52.3514C68.5279 51.8778 68.9862 51.511 69.5196 51.2966C70.2887 51.0089 71.1075 50.8779 71.928 50.9114C73.1772 50.9114 74.1348 51.1454 74.808 51.6098C75.151 51.8746 75.4333 52.2099 75.6357 52.5931C75.8382 52.9762 75.9561 53.3983 75.9816 53.831L73.1268 54.0002C73.1186 53.8176 73.0729 53.6386 72.9926 53.4744C72.9123 53.3103 72.799 53.1644 72.6599 53.0459C72.5208 52.9273 72.3588 52.8387 72.1839 52.7855C72.0091 52.7323 71.8251 52.7156 71.6436 52.7366C71.3617 52.7167 71.0816 52.7956 70.8516 52.9598C70.768 53.0237 70.7002 53.1059 70.6533 53.2002C70.6065 53.2944 70.582 53.3981 70.5816 53.5034C70.5841 53.586 70.6055 53.6669 70.6442 53.7399C70.6829 53.8129 70.7378 53.8761 70.8048 53.9246C71.1121 54.1187 71.459 54.2416 71.82 54.2846C72.7973 54.4604 73.7506 54.7504 74.6604 55.1486C75.1704 55.3834 75.6035 55.7578 75.9096 56.2286C76.1694 56.6637 76.3051 57.1617 76.302 57.6686C76.3036 58.2859 76.1219 58.8898 75.78 59.4038C75.4248 59.9419 74.9171 60.3618 74.322 60.6098C73.5736 60.9064 72.7722 61.0461 71.9676 61.0202C70.302 61.0202 69.1476 60.6998 68.5044 60.059C67.8601 59.4147 67.4702 58.5594 67.4064 57.6506Z" fill="white"/>
<path d="M79.056 51.0984H82.08V54.5256H85.3848V51.0984H88.4268V60.8904H85.3848V56.9304H82.08V60.8904H79.056V51.0984Z" fill="white"/>
<path d="M91.2888 56.0016C91.2888 54.4032 91.734 53.1588 92.6244 52.2684C93.5148 51.378 94.7556 50.9316 96.3468 50.9292C97.9788 50.9292 99.234 51.3672 100.112 52.2432C100.991 53.1192 101.432 54.3456 101.437 55.9224C101.473 56.8938 101.274 57.8595 100.858 58.7376C100.481 59.4597 99.9003 60.0546 99.1872 60.4476C98.3514 60.8778 97.4195 61.0872 96.48 61.056C95.5388 61.0896 94.6023 60.9099 93.7404 60.5304C93.0001 60.1616 92.3871 59.5799 91.98 58.86C91.4965 57.9868 91.2577 56.9992 91.2888 56.0016ZM94.3164 56.0016C94.3164 56.988 94.5 57.6972 94.8672 58.1292C95.062 58.3317 95.2957 58.4928 95.5542 58.6029C95.8128 58.713 96.091 58.7697 96.372 58.7697C96.653 58.7697 96.9311 58.713 97.1897 58.6029C97.4483 58.4928 97.6819 58.3317 97.8768 58.1292C98.2344 57.7068 98.412 56.9472 98.4096 55.8504C98.4096 54.9288 98.226 54.2556 97.8516 53.8308C97.663 53.6186 97.4293 53.4513 97.1677 53.341C96.9061 53.2308 96.6231 53.1804 96.3396 53.1936C96.0617 53.1836 95.7851 53.2367 95.5307 53.3489C95.2763 53.4612 95.0507 53.6296 94.8708 53.8416C94.5 54.3024 94.32 55.0152 94.32 56.016L94.3164 56.0016Z" fill="white"/>
<path d="M104.285 51.0984H109.325C110.419 51.0984 111.24 51.3588 111.787 51.8796C112.07 52.1735 112.289 52.523 112.43 52.906C112.571 53.289 112.63 53.6971 112.604 54.1044C112.628 54.532 112.561 54.9597 112.407 55.3594C112.253 55.759 112.016 56.1215 111.712 56.4228C111.118 56.9772 110.21 57.258 108.99 57.258H107.334V60.8904H104.296L104.285 51.0984ZM107.323 55.2744H108.065C108.497 55.3153 108.93 55.2073 109.292 54.9684C109.408 54.8749 109.5 54.7562 109.563 54.6214C109.625 54.4866 109.656 54.3393 109.652 54.1908C109.656 54.0465 109.63 53.903 109.577 53.7688C109.524 53.6347 109.444 53.5125 109.343 53.4096C109.141 53.1936 108.756 53.0892 108.187 53.0892H107.327L107.323 55.2744Z" fill="white"/>
<path opacity="0.5" d="M43.596 65.8259H136.404C136.935 65.8259 137.444 66.0368 137.819 66.4122C138.195 66.7876 138.406 67.2967 138.406 67.8275V148.792H41.5944V67.8311C41.5939 67.568 41.6453 67.3073 41.7457 67.064C41.8461 66.8208 41.9934 66.5997 42.1793 66.4135C42.3653 66.2272 42.5861 66.0794 42.8292 65.9786C43.0722 65.8778 43.3328 65.8259 43.596 65.8259Z" fill="white"/>
<path opacity="0.4" d="M148.32 75.2219V81.5363L135.565 83.0519L123.725 84.4631L114.257 85.5863L105.71 86.6015L104.796 84.1859L103.817 81.6047L103.691 85.4855L103.648 86.8463L102.413 86.9939L92.9448 88.1207L81.1044 89.5283L71.6328 90.6515L59.7924 92.0591L50.3208 93.1859L38.4804 94.5935L31.68 95.3999V89.0891L44.4348 87.5735L56.2752 86.1659L65.7396 85.0391L74.0484 84.0527L77.5872 83.6351L87.0552 82.5083V82.5047L98.8956 81.1007L108.367 79.9703L120.208 78.5627L129.679 77.4395L141.52 76.0319L148.32 75.2219Z" fill="#00B25D"/>
<path opacity="0.4" d="M148.32 134.151L31.68 107.086V100.775L148.32 127.836V134.151Z" fill="#00B25D"/>
<path d="M35.2368 148.795H31.3344C30.9057 148.795 30.4946 148.625 30.1914 148.322C29.8883 148.019 29.718 147.607 29.718 147.179L29.718 38.5488H35.2368L35.2368 148.795Z" fill="#263238"/>
<path d="M148.666 148.795H144.763V38.5488H150.282V147.175C150.282 147.388 150.241 147.598 150.16 147.795C150.079 147.991 149.96 148.17 149.81 148.32C149.66 148.471 149.481 148.59 149.285 148.672C149.089 148.753 148.878 148.795 148.666 148.795Z" fill="#263238"/>
<path opacity="0.3" d="M115.132 65.8259H102.726L81.1728 148.795H93.5748L115.132 65.8259Z" fill="white"/>
<path opacity="0.3" d="M124.268 65.8259H118.98L97.4232 148.795H102.715L124.268 65.8259Z" fill="white"/>
<path opacity="0.3" d="M80.6508 65.8259H75.3588L53.802 148.795H59.094L80.6508 65.8259Z" fill="white"/>
<path d="M91.9224 64.5662H88.0812V148.795H91.9224V64.5662Z" fill="#00B25D"/>
<path d="M157.601 41.8356L142.481 21.8376H37.5228L22.4028 41.8356C20.6748 44.4132 21.4452 46.602 24.2028 46.602C26.9604 46.602 30.456 44.4132 31.9392 41.8356H32.0688C30.5892 44.4132 31.5684 46.602 34.326 46.602C37.0836 46.602 40.3704 44.4132 41.6052 41.8356H41.7348C40.5036 44.4132 41.6916 46.602 44.4492 46.602C47.2068 46.602 50.2812 44.4132 51.2892 41.8356H51.4188C50.4324 44.4132 51.8328 46.602 54.5904 46.602C57.348 46.602 60.2136 44.4132 60.9588 41.8356H61.0848C60.3468 44.4132 61.956 46.602 64.7136 46.602C67.4712 46.602 70.1136 44.4132 70.6248 41.8356H70.7544C70.2612 44.4132 72.0792 46.602 74.8368 46.602C77.5944 46.602 80.0424 44.4132 80.2908 41.8356H80.4204C80.1756 44.4132 82.2024 46.602 84.96 46.602C87.7176 46.602 89.9568 44.4132 89.9568 41.8356H90.0864C90.0864 44.4132 92.3256 46.602 95.0832 46.602C97.8408 46.602 99.8676 44.4132 99.6228 41.8356H99.72C99.9684 44.4132 102.416 46.602 105.174 46.602C107.932 46.602 109.75 44.4132 109.256 41.8356H109.386C109.883 44.4132 112.54 46.602 115.297 46.602C118.055 46.602 119.664 44.4132 118.926 41.8356H119.052C119.797 44.4132 122.652 46.602 125.42 46.602C128.189 46.602 129.578 44.4132 128.592 41.8356H128.722C129.712 44.4132 132.786 46.602 135.562 46.602C138.337 46.602 139.522 44.4132 138.276 41.8356H138.406C139.64 44.4132 142.927 46.602 145.685 46.602C148.442 46.602 149.422 44.4132 147.942 41.8356H148.072C149.555 44.4132 153.05 46.602 155.808 46.602C158.566 46.602 159.329 44.4132 157.601 41.8356Z" fill="#00B25D"/>
<path opacity="0.8" d="M157.601 41.8356L142.481 21.8376H37.5228L22.4028 41.8356C20.6748 44.4132 21.4452 46.602 24.2028 46.602C26.9604 46.602 30.456 44.4132 31.9392 41.8356H32.0688C30.5892 44.4132 31.5684 46.602 34.326 46.602C37.0836 46.602 40.3704 44.4132 41.6052 41.8356H41.7348C40.5036 44.4132 41.6916 46.602 44.4492 46.602C47.2068 46.602 50.2812 44.4132 51.2892 41.8356H51.4188C50.4324 44.4132 51.8328 46.602 54.5904 46.602C57.348 46.602 60.2136 44.4132 60.9588 41.8356H61.0848C60.3468 44.4132 61.956 46.602 64.7136 46.602C67.4712 46.602 70.1136 44.4132 70.6248 41.8356H70.7544C70.2612 44.4132 72.0792 46.602 74.8368 46.602C77.5944 46.602 80.0424 44.4132 80.2908 41.8356H80.4204C80.1756 44.4132 82.2024 46.602 84.96 46.602C87.7176 46.602 89.9568 44.4132 89.9568 41.8356H90.0864C90.0864 44.4132 92.3256 46.602 95.0832 46.602C97.8408 46.602 99.8676 44.4132 99.6228 41.8356H99.72C99.9684 44.4132 102.416 46.602 105.174 46.602C107.932 46.602 109.75 44.4132 109.256 41.8356H109.386C109.883 44.4132 112.54 46.602 115.297 46.602C118.055 46.602 119.664 44.4132 118.926 41.8356H119.052C119.797 44.4132 122.652 46.602 125.42 46.602C128.189 46.602 129.578 44.4132 128.592 41.8356H128.722C129.712 44.4132 132.786 46.602 135.562 46.602C138.337 46.602 139.522 44.4132 138.276 41.8356H138.406C139.64 44.4132 142.927 46.602 145.685 46.602C148.442 46.602 149.422 44.4132 147.942 41.8356H148.072C149.555 44.4132 153.05 46.602 155.808 46.602C158.566 46.602 159.329 44.4132 157.601 41.8356Z" fill="white"/>
<g opacity="0.2">
<path d="M37.5228 21.8376H44.928L31.9356 41.8356H22.3992L37.5228 21.8376Z" fill="#00B25D"/>
<path d="M52.5312 21.8376H59.9364L51.2676 41.8356H41.7312L52.5312 21.8376Z" fill="#00B25D"/>
<path d="M67.5396 21.8376H74.9412L70.6032 41.8356H61.0632L67.5396 21.8376Z" fill="#00B25D"/>
<path d="M82.548 21.8376H89.9496L89.9352 41.8356H80.3988L82.548 21.8376Z" fill="#00B25D"/>
<path d="M97.5528 21.8376H104.958L109.267 41.8356H99.7308L97.5528 21.8376Z" fill="#00B25D"/>
<path d="M112.561 21.8376H119.966L128.603 41.8356H119.066L112.561 21.8376Z" fill="#00B25D"/>
<path d="M127.57 21.8376H134.971L147.935 41.8356H138.398L127.57 21.8376Z" fill="#00B25D"/>
<path d="M138.398 41.8357C139.633 44.4133 142.92 46.6021 145.678 46.6021C148.435 46.6021 149.414 44.4133 147.935 41.8357" fill="#00B25D"/>
<path d="M119.063 41.8357C119.808 44.4133 122.663 46.6021 125.431 46.6021C128.2 46.6021 129.589 44.4133 128.603 41.8357" fill="#00B25D"/>
<path d="M99.72 41.8357C99.9684 44.4133 102.416 46.6021 105.174 46.6021C107.932 46.6021 109.75 44.4133 109.256 41.8357" fill="#00B25D"/>
<path d="M80.3988 41.8357C80.154 44.4133 82.1808 46.6021 84.9384 46.6021C87.696 46.6021 89.9352 44.4133 89.9352 41.8357" fill="#00B25D"/>
<path d="M61.0632 41.8357C60.3252 44.4133 61.9344 46.6021 64.692 46.6021C67.4496 46.6021 70.092 44.4133 70.6032 41.8357" fill="#00B25D"/>
<path d="M41.7312 41.8357C40.5 44.4133 41.688 46.6021 44.4456 46.6021C47.2032 46.6021 50.2776 44.4133 51.2856 41.8357" fill="#00B25D"/>
<path d="M22.3992 41.8357C20.6712 44.4133 21.4416 46.6021 24.1992 46.6021C26.9568 46.6021 30.4524 44.4133 31.9356 41.8357" fill="#00B25D"/>
</g>
<path d="M151.139 131.958L28.8612 104.893V98.5789L151.139 125.644V131.958Z" fill="#00B25D"/>
<path opacity="0.4" d="M151.139 131.958L28.8612 104.893V98.5789L151.139 125.644V131.958Z" fill="white"/>
<g opacity="0.6">
<path d="M48.4056 109.217L35.9928 106.47L42.2316 101.538L54.6444 104.285L48.4056 109.217Z" fill="#00B25D"/>
<path d="M70.7436 114.163L58.3344 111.416L64.5732 106.484L76.986 109.231L70.7436 114.163Z" fill="#00B25D"/>
<path d="M93.0852 119.106L80.6724 116.359L86.9148 111.427L99.3276 114.174L93.0852 119.106Z" fill="#00B25D"/>
<path d="M115.427 124.053L103.014 121.306L109.253 116.374L121.666 119.121L115.427 124.053Z" fill="#00B25D"/>
<path d="M137.768 128.995L125.356 126.248L131.594 121.316L144.007 124.063L137.768 128.995Z" fill="#00B25D"/>
</g>
<path d="M151.139 73.0295V79.3439L137.768 80.8595L125.356 82.2671L115.43 83.3939L106.47 84.4055L105.512 81.9899L104.486 79.4087L104.353 83.2931L104.306 84.6539L103.014 84.8015L93.0852 85.9247L80.6724 87.3323L70.7472 88.4591L58.3308 89.8667L48.402 90.9899L35.9928 92.3975L28.8612 93.2075V86.8967L42.2316 85.3811L54.6444 83.9699L64.566 82.8467L73.2744 81.8567L76.986 81.4391L86.9148 80.3123L99.324 78.9047L109.253 77.7779L121.669 76.3703L131.598 75.2435L144.007 73.8359L151.139 73.0295Z" fill="#00B25D"/>
<path opacity="0.4" d="M151.139 73.0295V79.3439L137.768 80.8595L125.356 82.2671L115.43 83.3939L106.47 84.4055L105.512 81.9899L104.486 79.4087L104.353 83.2931L104.306 84.6539L103.014 84.8015L93.0852 85.9247L80.6724 87.3323L70.7472 88.4591L58.3308 89.8667L48.402 90.9899L35.9928 92.3975L28.8612 93.2075V86.8967L42.2316 85.3811L54.6444 83.9699L64.566 82.8467L73.2744 81.8567L76.986 81.4391L86.9148 80.3123L99.324 78.9047L109.253 77.7779L121.669 76.3703L131.598 75.2435L144.007 73.8359L151.139 73.0295Z" fill="white"/>
<g opacity="0.6">
<path d="M48.402 90.99L35.9892 92.4012L42.2316 85.3776L54.6444 83.97L48.402 90.99Z" fill="#00B25D"/>
<path d="M70.7436 88.4592L58.3308 89.8668L64.5732 82.8468L76.986 81.4392L70.7436 88.4592Z" fill="#00B25D"/>
<path d="M93.0852 85.9248L80.6724 87.3324L86.9148 80.3124L99.3276 78.9048L93.0852 85.9248Z" fill="#00B25D"/>
<path d="M103.014 84.8016L104.353 83.2932L104.306 84.654L103.014 84.8016Z" fill="white"/>
<path d="M121.669 76.3704L115.43 83.394L106.47 84.4056L105.512 81.99L109.253 77.778L121.669 76.3704Z" fill="#00B25D"/>
<path d="M137.768 80.8595L125.356 82.2671L131.598 75.2435L144.011 73.8359L137.768 80.8595Z" fill="#00B25D"/>
</g>
<path d="M53.7984 109.728H72.1404C72.7654 109.739 73.3645 109.979 73.8244 110.402C74.2842 110.825 74.5727 111.403 74.6352 112.025L77.6376 146.34C77.6699 146.632 77.6395 146.928 77.5484 147.208C77.4573 147.488 77.3077 147.745 77.1094 147.962C76.9111 148.179 76.6688 148.352 76.3986 148.468C76.1284 148.585 75.8365 148.642 75.5424 148.637H57.204C56.5814 148.622 55.9857 148.38 55.5285 147.957C55.0712 147.534 54.7838 146.959 54.72 146.34L51.7176 112.025C51.6855 111.734 51.7156 111.439 51.8058 111.16C51.896 110.881 52.0444 110.625 52.2411 110.408C52.4378 110.191 52.6783 110.018 52.9467 109.901C53.2152 109.784 53.5055 109.725 53.7984 109.728Z" fill="#263238"/>
<path d="M74.358 139.108H76.518C76.6518 139.109 76.7803 139.16 76.8791 139.251C76.978 139.341 77.0403 139.464 77.0544 139.597L78.0984 151.564C78.1056 151.626 78.0994 151.689 78.0801 151.749C78.0608 151.809 78.029 151.864 77.9867 151.91C77.9444 151.956 77.8926 151.993 77.8349 152.018C77.7771 152.043 77.7148 152.055 77.652 152.053H75.492C75.3584 152.052 75.2299 152.001 75.1315 151.911C75.0331 151.82 74.9717 151.697 74.9592 151.564L73.9116 139.597C73.9044 139.535 73.9106 139.472 73.9299 139.412C73.9492 139.352 73.981 139.297 74.0233 139.251C74.0656 139.204 74.1174 139.168 74.1751 139.143C74.2329 139.118 74.2952 139.106 74.358 139.108Z" fill="#263238"/>
<path d="M54.576 139.107H56.736C56.8692 139.11 56.9968 139.161 57.0949 139.252C57.193 139.342 57.2548 139.465 57.2688 139.597L58.32 151.56C58.3267 151.622 58.3199 151.686 58.3002 151.745C58.2805 151.805 58.2483 151.86 58.2057 151.906C58.1631 151.953 58.1112 151.989 58.0533 152.014C57.9954 152.039 57.9329 152.051 57.87 152.049H55.71C55.5766 152.047 55.4486 151.996 55.3503 151.906C55.2521 151.816 55.1905 151.693 55.1772 151.56L54.1296 139.593C54.1235 139.531 54.1306 139.469 54.1503 139.41C54.1701 139.351 54.2021 139.297 54.2442 139.251C54.2863 139.205 54.3377 139.168 54.3948 139.144C54.452 139.119 54.5137 139.107 54.576 139.107Z" fill="#263238"/>
<path d="M70.9416 109.728H52.6032C51.9779 109.739 51.3782 109.979 50.9178 110.402C50.4574 110.825 50.1681 111.402 50.1048 112.025L47.1024 146.34C47.0701 146.632 47.1005 146.928 47.1916 147.208C47.2827 147.488 47.4324 147.745 47.6306 147.962C47.8289 148.179 48.0712 148.352 48.3414 148.468C48.6116 148.585 48.9035 148.642 49.1976 148.637H67.536C68.1613 148.626 68.761 148.386 69.2214 147.963C69.6818 147.539 69.9711 146.962 70.0344 146.34L73.0368 112.025C73.0691 111.732 73.0387 111.436 72.9476 111.157C72.8565 110.877 72.7069 110.62 72.5086 110.402C72.3103 110.185 72.068 110.013 71.7978 109.896C71.5276 109.78 71.2357 109.723 70.9416 109.728Z" fill="#00B25D"/>
<path d="M50.4 139.107H48.24C48.1066 139.109 47.9785 139.16 47.8803 139.251C47.782 139.341 47.7204 139.464 47.7072 139.597L46.6452 151.56C46.638 151.622 46.6442 151.685 46.6635 151.745C46.6827 151.805 46.7146 151.86 46.7569 151.906C46.7992 151.953 46.851 151.989 46.9087 152.014C46.9665 152.039 47.0288 152.051 47.0916 152.049H49.2516C49.385 152.047 49.513 151.996 49.6113 151.906C49.7095 151.816 49.7711 151.693 49.7844 151.56L50.8284 139.593C50.8349 139.533 50.8287 139.472 50.8103 139.413C50.7918 139.355 50.7615 139.302 50.7212 139.256C50.6809 139.21 50.6315 139.174 50.5762 139.148C50.5209 139.122 50.4609 139.109 50.4 139.107Z" fill="#00B25D"/>
<path d="M70.1676 139.107H68.0076C67.8738 139.109 67.7453 139.16 67.6464 139.25C67.5476 139.341 67.4852 139.464 67.4712 139.597L66.4308 151.56C66.4235 151.622 66.4298 151.685 66.4491 151.745C66.4683 151.805 66.5002 151.86 66.5425 151.906C66.5848 151.953 66.6366 151.989 66.6943 152.014C66.752 152.039 66.8144 152.051 66.8772 152.049H69.0372C69.1708 152.048 69.2993 151.997 69.3977 151.907C69.4961 151.817 69.5575 151.693 69.57 151.56L70.6176 139.593C70.6243 139.531 70.6175 139.468 70.5978 139.408C70.5781 139.349 70.5458 139.294 70.5032 139.248C70.4605 139.202 70.4085 139.166 70.3506 139.141C70.2927 139.117 70.2303 139.105 70.1676 139.107Z" fill="#00B25D"/>
<path d="M49.2804 147.715C49.1042 147.718 48.9294 147.684 48.7676 147.614C48.6058 147.544 48.4607 147.441 48.3418 147.311C48.223 147.181 48.1332 147.027 48.0784 146.86C48.0236 146.692 48.005 146.515 48.024 146.34L51.0264 112.025C51.0642 111.652 51.2371 111.307 51.5124 111.053C51.7876 110.8 52.1463 110.656 52.5204 110.649H70.8588C71.0351 110.646 71.2101 110.68 71.3722 110.749C71.5343 110.819 71.6797 110.922 71.7987 111.052C71.9176 111.182 72.0074 111.337 72.062 111.504C72.1166 111.672 72.1347 111.849 72.1152 112.025L69.12 146.34C69.0814 146.712 68.9083 147.057 68.6332 147.31C68.358 147.563 67.9998 147.707 67.626 147.715H49.2804Z" fill="white"/>
<path d="M52.4556 119.52L53.6364 119.448C53.6365 119.601 53.6775 119.752 53.7552 119.884C53.8144 119.965 53.8935 120.03 53.9848 120.072C54.0762 120.114 54.1768 120.132 54.2772 120.125C54.4262 120.132 54.5733 120.089 54.6948 120.002C54.7414 119.969 54.7806 119.926 54.8097 119.876C54.8388 119.827 54.8573 119.771 54.864 119.714C54.8678 119.663 54.8598 119.611 54.8404 119.563C54.8211 119.515 54.791 119.472 54.7524 119.437C54.5696 119.312 54.3599 119.232 54.1404 119.203C53.7334 119.14 53.3492 118.974 53.0244 118.721C52.9206 118.623 52.8411 118.503 52.7924 118.369C52.7436 118.235 52.7269 118.092 52.7436 117.95C52.7636 117.738 52.8435 117.536 52.974 117.367C53.122 117.175 53.32 117.027 53.5464 116.939C53.8653 116.822 54.204 116.768 54.5436 116.78C54.9446 116.75 55.3447 116.85 55.6848 117.065C55.8168 117.175 55.9215 117.314 55.9908 117.472C56.0601 117.629 56.0922 117.8 56.0844 117.972L54.9144 118.04C54.9144 117.894 54.8576 117.753 54.756 117.648C54.6425 117.559 54.5001 117.516 54.3564 117.526C54.2379 117.518 54.1201 117.549 54.0216 117.616C53.9859 117.642 53.9561 117.675 53.9344 117.714C53.9127 117.752 53.8994 117.795 53.8956 117.839C53.8928 117.871 53.8982 117.904 53.9115 117.933C53.9247 117.963 53.9452 117.989 53.9712 118.008C54.0911 118.087 54.2279 118.138 54.3708 118.156C54.7599 118.228 55.1384 118.349 55.4976 118.516C55.6963 118.612 55.8609 118.766 55.9692 118.958C56.0602 119.141 56.0977 119.346 56.0772 119.549C56.056 119.81 55.9611 120.06 55.8036 120.269C55.639 120.486 55.4189 120.655 55.1664 120.758C54.8556 120.879 54.524 120.936 54.1908 120.928C53.5104 120.928 53.0532 120.798 52.812 120.535C52.5665 120.256 52.4387 119.892 52.4556 119.52Z" fill="#00B25D"/>
<path d="M56.9376 116.852H58.1724L58.05 118.249H59.4L59.5224 116.852H60.7644L60.4044 120.845H59.1624L59.3064 119.228H57.96L57.8196 120.845H56.5848L56.9376 116.852Z" fill="#00B25D"/>
<path d="M61.2504 118.85C61.2526 118.565 61.3133 118.283 61.4289 118.021C61.5445 117.76 61.7124 117.526 61.9223 117.332C62.1321 117.138 62.3795 116.99 62.6491 116.895C62.9187 116.801 63.2047 116.763 63.4896 116.784C63.7618 116.763 64.0354 116.8 64.2923 116.892C64.5493 116.985 64.7836 117.13 64.98 117.32C65.1509 117.526 65.2757 117.767 65.3459 118.025C65.416 118.283 65.43 118.554 65.3868 118.818C65.3664 119.222 65.2517 119.615 65.052 119.966C64.8711 120.261 64.6151 120.502 64.3104 120.665C63.9597 120.839 63.5714 120.924 63.18 120.913C62.801 120.928 62.4238 120.854 62.0784 120.697C61.7917 120.548 61.5616 120.309 61.4232 120.017C61.2559 119.652 61.1959 119.248 61.2504 118.85ZM62.4816 118.85C62.4255 119.148 62.4779 119.456 62.6292 119.718C62.6991 119.806 62.7893 119.876 62.8921 119.922C62.9949 119.967 63.1073 119.988 63.2196 119.981C63.3378 119.985 63.4556 119.965 63.5654 119.921C63.6752 119.877 63.7745 119.81 63.8568 119.725C64.0521 119.455 64.1567 119.13 64.1556 118.796C64.2083 118.512 64.1531 118.218 64.0008 117.972C63.9289 117.885 63.8377 117.817 63.7346 117.772C63.6314 117.727 63.5191 117.706 63.4068 117.713C63.2902 117.71 63.1743 117.731 63.0669 117.777C62.9595 117.822 62.863 117.89 62.784 117.975C62.5881 118.228 62.4818 118.538 62.4816 118.857V118.85Z" fill="#00B25D"/>
<path d="M66.2184 116.852H68.2704C68.4459 116.837 68.6227 116.857 68.7903 116.912C68.9579 116.966 69.1128 117.054 69.246 117.169C69.3518 117.293 69.4292 117.438 69.4727 117.595C69.5163 117.751 69.5249 117.916 69.498 118.076C69.491 118.256 69.4478 118.432 69.3711 118.595C69.2944 118.758 69.1858 118.903 69.0516 119.023C68.726 119.27 68.3217 119.39 67.914 119.361H67.2372L67.1076 120.845H65.88L66.2184 116.852ZM67.2984 118.555H67.6008C67.7804 118.57 67.96 118.526 68.112 118.429C68.1618 118.392 68.2029 118.344 68.2328 118.289C68.2626 118.235 68.2803 118.174 68.2848 118.112C68.2917 118.056 68.2867 117.998 68.2699 117.944C68.2532 117.889 68.2251 117.838 68.1876 117.795C68.1237 117.743 68.05 117.705 67.9708 117.682C67.8916 117.659 67.8086 117.652 67.7268 117.662H67.3668L67.2984 118.555Z" fill="#00B25D"/>
<path d="M51.84 124.787L52.0812 122.022H53.5212C53.7239 122.014 53.9267 122.037 54.1224 122.09C54.2555 122.132 54.3683 122.222 54.4392 122.342C54.5154 122.478 54.5457 122.635 54.5256 122.789C54.5183 122.93 54.4722 123.067 54.3924 123.185C54.3173 123.297 54.2176 123.391 54.1008 123.458C54.0031 123.509 53.8989 123.545 53.7912 123.566C53.866 123.591 53.9374 123.624 54.0036 123.667C54.0508 123.712 54.0931 123.761 54.1296 123.815C54.1691 123.869 54.2041 123.927 54.234 123.988L54.576 124.787H53.6112L53.226 123.941C53.1971 123.861 53.1517 123.789 53.0928 123.728C53.0335 123.685 52.9613 123.662 52.8876 123.664H52.812L52.7148 124.787H51.84ZM52.8444 123.142H53.2044C53.2821 123.137 53.3592 123.125 53.4348 123.106C53.4916 123.095 53.5427 123.064 53.5788 123.019C53.6188 122.974 53.6428 122.917 53.6472 122.857C53.6533 122.82 53.6506 122.782 53.6393 122.747C53.6281 122.711 53.6086 122.679 53.5824 122.652C53.4888 122.594 53.3787 122.569 53.2692 122.58H52.9092L52.8444 123.142Z" fill="#00B25D"/>
<path d="M55.08 122.04H57.3696L57.3192 122.63H55.8792L55.8396 123.069H57.1716L57.1212 123.635H55.8L55.7532 124.178H57.2292L57.1752 124.805H54.828L55.08 122.04Z" fill="#00B25D"/>
<path d="M57.6324 123.408C57.6317 123.209 57.6724 123.011 57.7519 122.829C57.8314 122.646 57.9479 122.482 58.094 122.347C58.2402 122.211 58.4128 122.108 58.6011 122.042C58.7893 121.977 58.989 121.952 59.1876 121.968C59.3755 121.951 59.5647 121.975 59.7428 122.037C59.921 122.099 60.0839 122.198 60.2208 122.328C60.339 122.47 60.4252 122.637 60.4736 122.816C60.5221 122.995 60.5316 123.182 60.5016 123.365C60.4869 123.644 60.408 123.916 60.2712 124.16C60.1473 124.365 59.9692 124.532 59.7564 124.643C59.513 124.764 59.2434 124.823 58.9716 124.815C58.7091 124.827 58.4477 124.776 58.2084 124.668C58.0099 124.564 57.8507 124.399 57.7548 124.196C57.6431 123.949 57.6008 123.677 57.6324 123.408ZM58.4892 123.408C58.4493 123.614 58.4851 123.827 58.59 124.009C58.6385 124.07 58.7012 124.119 58.7727 124.151C58.8441 124.183 58.9222 124.197 59.0004 124.193C59.0822 124.196 59.1638 124.182 59.2396 124.151C59.3154 124.12 59.3836 124.072 59.4396 124.013C59.5765 123.826 59.6497 123.6 59.6484 123.368C59.6837 123.172 59.6452 122.969 59.5404 122.799C59.4918 122.738 59.4291 122.689 59.3577 122.657C59.2862 122.625 59.2081 122.611 59.13 122.616C59.049 122.614 58.9687 122.629 58.8942 122.661C58.8197 122.693 58.7528 122.74 58.698 122.799C58.5631 122.975 58.4897 123.19 58.4892 123.411V123.408Z" fill="#00B25D"/>
<path d="M61.0776 122.04H62.5176C62.6394 122.029 62.7622 122.042 62.8786 122.08C62.995 122.118 63.1024 122.179 63.1944 122.26C63.2676 122.346 63.3212 122.446 63.3517 122.555C63.3821 122.664 63.3887 122.778 63.3708 122.89C63.3581 123.14 63.2468 123.376 63.0612 123.545C62.8345 123.714 62.555 123.797 62.2728 123.779H61.8048L61.7148 124.805H60.84L61.0776 122.04ZM61.8336 123.217H62.0424C62.1681 123.228 62.2939 123.199 62.4024 123.134C62.4368 123.108 62.4651 123.074 62.4856 123.035C62.5061 122.997 62.5182 122.955 62.5212 122.911C62.5259 122.872 62.5223 122.832 62.5105 122.794C62.4987 122.756 62.479 122.721 62.4528 122.692C62.409 122.656 62.3583 122.629 62.3038 122.613C62.2493 122.598 62.1921 122.594 62.136 122.602H61.8912L61.8336 123.217Z" fill="#00B25D"/>
<path d="M63.8712 122.04H66.1644L66.1104 122.63H64.6704L64.6308 123.069H65.9628L65.9124 123.635H64.5804L64.5336 124.178H66.0096L65.9556 124.805H63.6228L63.8712 122.04Z" fill="#00B25D"/>
<path d="M66.672 122.04H67.4712L68.3784 123.57L68.5116 122.04H69.318L69.0768 124.805H68.2704L67.3668 123.285L67.2336 124.805H66.4272L66.672 122.04Z" fill="#00B25D"/>
<path d="M62.4564 139.234L60.4404 138.395C60.732 139.561 59.5908 140.404 58.6404 140.886C58.1868 141.116 58.2804 141.71 58.8312 141.93L60.1452 142.477C61.7364 143.14 62.4564 139.234 62.4564 139.234Z" fill="#00B25D"/>
<path d="M62.8668 139.403L59.1696 137.88C58.8823 137.753 58.6245 137.568 58.4123 137.336C58.2002 137.104 58.0383 136.831 57.9368 136.534C57.8354 136.237 57.7966 135.922 57.8229 135.609C57.8491 135.296 57.94 134.992 58.0896 134.716C58.3697 134.12 58.862 133.651 59.47 133.4C60.078 133.149 60.7579 133.134 61.3764 133.358L65.07 134.896C65.3573 135.023 65.6152 135.209 65.8274 135.441C66.0396 135.672 66.2015 135.946 66.3029 136.243C66.4043 136.541 66.4431 136.856 66.4168 137.169C66.3905 137.483 66.2996 137.787 66.15 138.064C65.8674 138.655 65.3744 139.12 64.7673 139.368C64.1602 139.616 63.4825 139.628 62.8668 139.403Z" fill="#00B25D"/>
<path opacity="0.3" d="M62.8668 139.403L59.1696 137.88C58.8823 137.753 58.6245 137.568 58.4123 137.336C58.2002 137.104 58.0383 136.831 57.9368 136.534C57.8354 136.237 57.7966 135.922 57.8229 135.609C57.8491 135.296 57.94 134.992 58.0896 134.716C58.3697 134.12 58.862 133.651 59.47 133.4C60.078 133.149 60.7579 133.134 61.3764 133.358L65.07 134.896C65.3573 135.023 65.6152 135.209 65.8274 135.441C66.0396 135.672 66.2015 135.946 66.3029 136.243C66.4043 136.541 66.4431 136.856 66.4168 137.169C66.3905 137.483 66.2996 137.787 66.15 138.064C65.8674 138.655 65.3744 139.12 64.7673 139.368C64.1602 139.616 63.4825 139.628 62.8668 139.403Z" fill="black"/>
<path d="M52.3944 137.34L59.1732 138.834C59.7384 139.068 62.7336 132.941 62.1684 132.714L56.4624 129.02C55.6524 128.675 51.5844 137.005 52.3944 137.34Z" fill="#00B25D"/>
</svg>
