<svg width="13" height="14" viewBox="0 0 13 14" fill="none" xmlns="http://www.w3.org/2000/svg">
<g clip-path="url(#clip0_91_6019)">
<mask id="mask0_91_6019" style="mask-type:luminance" maskUnits="userSpaceOnUse" x="0" y="0" width="13" height="14">
<path d="M13 0.5H0V13.5H13V0.5Z" fill="white"/>
</mask>
<g mask="url(#mask0_91_6019)">
<path opacity="0.4" d="M2.25871 8.78731L4.71246 11.2411C5.71997 12.2486 7.3558 12.2486 8.36872 11.2411L10.7466 8.86315C11.7541 7.85565 11.7541 6.21981 10.7466 5.2069L8.28747 2.75856C7.77288 2.24398 7.0633 1.96773 6.33747 2.00565L3.62913 2.13565C2.5458 2.1844 1.68455 3.04565 1.63038 4.12356L1.50038 6.8319C1.46788 7.56315 1.74413 8.27273 2.25871 8.78731Z" fill="#00B25D"/>
<path d="M5.14594 7.20593C6.0075 7.20593 6.70593 6.5075 6.70593 5.64594C6.70593 4.78437 6.0075 4.08594 5.14594 4.08594C4.28437 4.08594 3.58594 4.78437 3.58594 5.64594C3.58594 6.5075 4.28437 7.20593 5.14594 7.20593Z" fill="#00B25D"/>
</g>
</g>
<defs>
<clipPath id="clip0_91_6019">
<rect width="13" height="13" fill="white" transform="translate(0 0.5)"/>
</clipPath>
</defs>
</svg>
