<svg width="25" height="24" viewBox="0 0 25 24" fill="none" xmlns="http://www.w3.org/2000/svg">
<g clip-path="url(#clip0_1000_6060)">
<mask id="mask0_1000_6060" style="mask-type:luminance" maskUnits="userSpaceOnUse" x="0" y="0" width="25" height="24">
<path d="M24.1592 0H0.15918V24H24.1592V0Z" fill="white"/>
</mask>
<g mask="url(#mask0_1000_6060)">
<path d="M21.2299 5.23C19.6199 5.07 18.0099 4.95 16.3899 4.86V4.85L16.1699 3.55C16.0199 2.63 15.7999 1.25 13.4599 1.25H10.8399C8.50982 1.25 8.28983 2.57 8.12983 3.54L7.91983 4.82C6.98983 4.88 6.05983 4.94 5.12983 5.03L3.08983 5.23C2.66983 5.27 2.36983 5.64 2.40983 6.05C2.44983 6.46 2.80983 6.76 3.22983 6.72L5.26983 6.52C10.5099 6 15.7899 6.2 21.0899 6.73C21.1199 6.73 21.1399 6.73 21.1699 6.73C21.5499 6.73 21.8799 6.44 21.9199 6.05C21.9499 5.64 21.6499 5.27 21.2299 5.23Z" fill="#E31212"/>
<path opacity="0.3991" d="M19.3899 8.14C19.1499 7.89 18.8199 7.75 18.4799 7.75H5.83991C5.49991 7.75 5.15991 7.89 4.92991 8.14C4.69991 8.39 4.56991 8.73 4.58991 9.08L5.20991 19.34C5.31991 20.86 5.45991 22.76 8.94991 22.76H15.3699C18.8599 22.76 18.9999 20.87 19.1099 19.34L19.7299 9.09C19.7499 8.73 19.6199 8.39 19.3899 8.14Z" fill="#E31212"/>
<path fill-rule="evenodd" clip-rule="evenodd" d="M9.73926 17C9.73926 16.5858 10.075 16.25 10.4893 16.25H13.8193C14.2335 16.25 14.5693 16.5858 14.5693 17C14.5693 17.4142 14.2335 17.75 13.8193 17.75H10.4893C10.075 17.75 9.73926 17.4142 9.73926 17Z" fill="#E31212"/>
<path fill-rule="evenodd" clip-rule="evenodd" d="M8.90918 13C8.90918 12.5858 9.24497 12.25 9.65918 12.25H14.6592C15.0734 12.25 15.4092 12.5858 15.4092 13C15.4092 13.4142 15.0734 13.75 14.6592 13.75H9.65918C9.24497 13.75 8.90918 13.4142 8.90918 13Z" fill="#E31212"/>
</g>
</g>
<defs>
<clipPath id="clip0_1000_6060">
<rect width="24" height="24" fill="white" transform="translate(0.15918)"/>
</clipPath>
</defs>
</svg>
