<svg width="25" height="24" viewBox="0 0 25 24" fill="none" xmlns="http://www.w3.org/2000/svg">
<g clip-path="url(#clip0_119_1663)">
<mask id="mask0_119_1663" style="mask-type:luminance" maskUnits="userSpaceOnUse" x="0" y="0" width="25" height="24">
<path d="M24.5 0H0.5V24H24.5V0Z" fill="white"/>
</mask>
<g mask="url(#mask0_119_1663)">
<path d="M22.48 11.4104C22.14 5.61044 16.87 1.14045 10.8 2.14045C6.62004 2.83045 3.27005 6.22043 2.62005 10.4004C2.24005 12.8204 2.74007 15.1104 3.83007 17.0004L2.94006 20.3104C2.74006 21.0604 3.43004 21.7404 4.17004 21.5304L7.43005 20.6304C8.91005 21.5004 10.64 22.0004 12.49 22.0004C18.13 22.0004 22.81 17.0304 22.48 11.4104ZM17.3801 15.7204C17.2901 15.9004 17.18 16.0704 17.04 16.2304C16.79 16.5004 16.52 16.7004 16.22 16.8204C15.92 16.9504 15.59 17.0104 15.24 17.0104C14.73 17.0104 14.18 16.8905 13.61 16.6405C13.03 16.3905 12.4601 16.0604 11.8901 15.6504C11.3101 15.2304 10.7701 14.7604 10.25 14.2504C9.73005 13.7304 9.27003 13.1804 8.85003 12.6104C8.44003 12.0404 8.11005 11.4704 7.87005 10.9004C7.63005 10.3304 7.51006 9.78045 7.51006 9.26045C7.51006 8.92044 7.57006 8.59044 7.69006 8.29044C7.81006 7.98044 8.00007 7.70045 8.27007 7.45045C8.59007 7.13045 8.94005 6.98045 9.31005 6.98045C9.45005 6.98045 9.59002 7.01044 9.72002 7.07044C9.85002 7.13044 9.97005 7.22044 10.06 7.35044L11.22 8.99043C11.31 9.12043 11.38 9.23043 11.42 9.34043C11.47 9.45043 11.49 9.55043 11.49 9.65043C11.49 9.77043 11.4501 9.89045 11.3801 10.0104C11.3101 10.1304 11.22 10.2504 11.1 10.3704L10.72 10.7704C10.66 10.8304 10.6401 10.8904 10.6401 10.9704C10.6401 11.0104 10.65 11.0504 10.66 11.0904C10.68 11.1304 10.6901 11.1604 10.7001 11.1904C10.7901 11.3604 10.95 11.5704 11.17 11.8304C11.4 12.0904 11.6401 12.3604 11.9001 12.6204C12.1701 12.8904 12.4301 13.1304 12.7001 13.3604C12.9601 13.5804 13.18 13.7304 13.35 13.8204C13.38 13.8304 13.4101 13.8504 13.4401 13.8604C13.4801 13.8804 13.5201 13.8804 13.5701 13.8804C13.6601 13.8804 13.7201 13.8504 13.7801 13.7904L14.16 13.4104C14.29 13.2804 14.4101 13.1904 14.5201 13.1304C14.6401 13.0604 14.7501 13.0204 14.8801 13.0204C14.9801 13.0204 15.0801 13.0404 15.1901 13.0904C15.3001 13.1404 15.42 13.2004 15.54 13.2904L17.2001 14.4704C17.3301 14.5604 17.42 14.6704 17.48 14.7904C17.53 14.9204 17.5601 15.0404 17.5601 15.1804C17.5001 15.3504 17.4601 15.5404 17.3801 15.7204Z" fill="#00B25D"/>
</g>
</g>
<defs>
<clipPath id="clip0_119_1663">
<rect width="24" height="24" fill="white" transform="translate(0.5)"/>
</clipPath>
</defs>
</svg>
